<?xml version="1.0" encoding="utf-8"?>
<!-- Generator: Adobe Illustrator 24.0.2, SVG Export Plug-In . SVG Version: 6.00 Build 0)  -->
<svg version="1.1" id="Layer_1" xmlns="http://www.w3.org/2000/svg" xmlns:xlink="http://www.w3.org/1999/xlink" x="0px" y="0px"
	 viewBox="0 0 200 200" style="enable-background:new 0 0 200 200;" xml:space="preserve">
<style type="text/css">
	.st0{fill:#FAF7E8;}
</style>
<g>
	<g>
		<g>
			<path class="st0" d="M88.95,86.44c0,1.5-0.81,2.97-2.42,3.59c1.5,0.5,2.67,1.67,2.67,3.89c0,3.95-3.14,4.67-6.61,4.67
				c-2.17,0-4.09-0.17-5.72-0.44V82.35c1.28-0.25,3.42-0.5,5.45-0.5C85.42,81.85,88.95,82.46,88.95,86.44 M80.64,91.47v3.92
				c0.56,0.08,1.17,0.11,1.83,0.11c1.7,0,2.89-0.28,2.89-1.97c0-1.81-1.28-2.08-2.95-2.08h-1.78V91.47z M82.42,88.63
				c1.61,0,2.81-0.28,2.81-1.92s-1.14-1.83-2.92-1.83c-0.53,0-1.14,0.06-1.64,0.11v3.61h1.75V88.63z"/>
		</g>
		<g>
			<path class="st0" d="M91.32,94.5c0-2.25,1-3.64,3.59-4.06c1.25-0.19,2.36-0.25,3.56-0.31c0-1.14-0.58-1.56-1.92-1.56
				c-1.53,0-3.25,0.17-4.5,0.33l-0.28-2.72c1.28-0.22,3.14-0.5,5-0.5c2.83,0,5.22,0.81,5.22,4.11v5.06c0,0.89-0.03,1.61-0.11,2.47
				c-1.5,0.89-3.42,1.22-5.59,1.22C92.73,98.58,91.32,97.25,91.32,94.5 M98.46,92.52c-0.78,0.06-1.64,0.08-2.33,0.25
				c-0.89,0.22-1.25,0.53-1.25,1.7c0,1.06,0.64,1.36,1.75,1.36c0.56,0,1.22-0.03,1.78-0.25c0.06-0.5,0.08-1.11,0.08-1.7v-1.36H98.46
				z"/>
		</g>
		<g>
			<path class="st0" d="M108.13,98.42h-3.59v-9c0-0.89,0.03-1.61,0.11-2.47c1.5-0.86,3.5-1.22,5.56-1.22c4.64,0,5.17,1.97,5.17,4.78
				v7.92h-3.59v-7.64c0-1.53-0.28-2.14-2.03-2.14c-0.56,0-1.17,0.08-1.56,0.25c-0.06,0.5-0.08,1.11-0.08,1.7L108.13,98.42
				L108.13,98.42z"/>
		</g>
		<g>
			<path class="st0" d="M126.67,98.08c-1.11,0.31-2.56,0.53-4.31,0.53c-4.22,0-4.86-3.25-4.86-6.56c0-4.11,0.97-6.34,5.61-6.34
				c1.53,0,2.64,0.22,3.53,0.53l-0.28,2.64c-0.83-0.17-1.58-0.33-2.39-0.33c-2.53,0-2.86,0.83-2.86,3.5c0,2.53,0.14,3.64,2.89,3.64
				c0.81,0,1.53-0.14,2.33-0.33L126.67,98.08z"/>
		</g>
		<g>
			<path class="st0" d="M128.25,92.16c0-4.67,1.5-6.45,5.67-6.45s5.67,1.81,5.67,6.45c0,4.64-1.5,6.45-5.67,6.45
				C129.75,98.58,128.25,96.83,128.25,92.16 M135.95,92.16c0-2.75-0.39-3.5-2.06-3.5c-1.67,0-2.06,0.72-2.06,3.5
				c0,2.81,0.39,3.5,2.06,3.5C135.56,95.66,135.95,94.91,135.95,92.16"/>
		</g>
		<g>
			<path class="st0" d="M75.42,118.04l4.81-14.01c0.64-1.89,1.56-2.67,2.95-2.67c1.33,0,2.33,0.86,2.95,2.67l4.72,14.01h-4.09
				l-1.11-3.78H80.5l-1.08,3.78H75.42z M84.76,111.28l-1.72-5.81l-1.67,5.81H84.76z"/>
		</g>
		<g>
			<path class="st0" d="M104.27,101.42v12.7c0,0.86,0.36,1.31,1.31,1.31c0.36,0,0.69-0.03,1.08-0.14l0.36,2.67
				c-0.75,0.14-1.67,0.25-2.42,0.25c-2.75,0-3.92-1.22-3.92-3.67v-13.12H104.27z"/>
		</g>
		<g>
			<path class="st0" d="M107.91,114.12c0-2.28,1-3.67,3.59-4.09c1.25-0.19,2.39-0.25,3.59-0.31c0-1.14-0.58-1.56-1.92-1.56
				c-1.53,0-3.28,0.17-4.53,0.33l-0.31-2.72c1.28-0.22,3.17-0.5,5.03-0.5c2.86,0,5.25,0.81,5.25,4.14v5.09
				c0,0.89-0.03,1.64-0.11,2.47c-1.53,0.92-3.45,1.25-5.64,1.25C109.32,118.23,107.91,116.87,107.91,114.12 M115.08,112.09
				c-0.78,0.06-1.64,0.08-2.36,0.25c-0.89,0.22-1.25,0.53-1.25,1.7c0,1.06,0.64,1.36,1.75,1.36c0.58,0,1.22-0.03,1.78-0.25
				c0.06-0.5,0.08-1.14,0.08-1.7L115.08,112.09L115.08,112.09z M114.77,103.92h-2.75l1.86-3.17h3.59L114.77,103.92z"/>
		</g>
		<g>
			<path class="st0" d="M124.97,118.04h-3.61v-9.06c0-0.89,0.03-1.64,0.11-2.47c1.53-0.89,3.53-1.25,5.59-1.25
				c4.67,0,5.2,2,5.2,4.81v7.98h-3.61v-7.7c0-1.53-0.28-2.14-2.03-2.17c-0.56,0-1.17,0.08-1.56,0.25c-0.06,0.5-0.08,1.14-0.08,1.7
				L124.97,118.04L124.97,118.04z"/>
		</g>
		<g>
			<path class="st0" d="M143.42,102.42c0-1.31,0.47-1.81,1.95-1.81s1.95,0.5,1.95,1.81c0,1.31-0.47,1.81-1.95,1.81
				C143.9,104.22,143.42,103.72,143.42,102.42 M143.56,105.25h3.67v12.78h-3.67V105.25z"/>
		</g>
		<g>
			<path class="st0" d="M157.43,101.42h3.61v13.09c0,0.89-0.03,1.64-0.11,2.47c-1.42,0.86-3.45,1.25-5.2,1.25
				c-4.28,0-6.06-1.5-6.06-6.48c0-4.92,1.78-6.48,5.7-6.48c0.64,0,1.39,0.08,2.03,0.19v-4.06H157.43z M156.04,108.17
				c-2.64,0-2.72,1.56-2.72,3.56c0,1.78,0.08,3.61,2.42,3.61c0.58,0,1.22-0.08,1.61-0.25c0.06-0.5,0.08-1.14,0.08-1.7v-5.03
				C157.01,108.25,156.49,108.17,156.04,108.17"/>
		</g>
		<g>
			<path class="st0" d="M163.32,114.12c0-2.28,1-3.67,3.59-4.09c1.25-0.19,2.39-0.25,3.59-0.31c0-1.14-0.58-1.56-1.95-1.56
				c-1.53,0-3.28,0.17-4.53,0.33l-0.28-2.72c1.28-0.22,3.17-0.5,5.03-0.5c2.86,0,5.25,0.81,5.25,4.14v5.09
				c0,0.89-0.03,1.64-0.11,2.47c-1.53,0.92-3.45,1.25-5.64,1.25C164.77,118.23,163.32,116.87,163.32,114.12 M170.52,112.09
				c-0.78,0.06-1.64,0.08-2.36,0.25c-0.89,0.22-1.28,0.53-1.28,1.7c0,1.06,0.64,1.36,1.75,1.36c0.58,0,1.22-0.03,1.78-0.25
				c0.06-0.5,0.08-1.14,0.08-1.7v-1.36H170.52z"/>
		</g>
		<g>
			<path class="st0" d="M138.42,101.42v3.86h3.14v3h-3.14v5.86c0,0.86,0.36,1.31,1.31,1.31c0.36,0,0.75-0.03,1.17-0.06l0.28,2.58
				c-0.75,0.14-1.67,0.25-2.42,0.25c-2.75,0-3.92-1.22-3.92-3.67v-13.15H138.42z"/>
		</g>
		<g>
			<path class="st0" d="M95.57,101.42v3.86h3.14v3h-3.14v5.86c0,0.86,0.36,1.31,1.31,1.31c0.39,0,0.75-0.03,1.17-0.06l0.28,2.58
				c-0.75,0.14-1.67,0.25-2.42,0.25c-2.75,0-3.92-1.22-3.92-3.67v-13.15H95.57z"/>
		</g>
	</g>
	<g>
		<path class="st0" d="M49.73,106.19h-5.35c-2.01,0-3.65-1.63-3.65-3.65V89.07v-6.2c0-0.6-0.49-1.09-1.09-1.09H27.07
			c-0.6,0-1.09,0.49-1.09,1.09v20.78c0,0.99,0.1,1.96,0.29,2.9c1.3,6.44,6.83,11.34,13.57,11.67c-0.06,0.01-0.13,0.02-0.19,0.02
			h0.92h9.17c0.6,0,1.09-0.49,1.09-1.09v-3.13v-6.72C50.82,106.68,50.33,106.19,49.73,106.19z"/>
		<path class="st0" d="M43.59,100.47h6.09c1.6,0,2.9,1.3,2.9,2.9v12.81v0.92c0,0.6,0.49,1.09,1.09,1.09h12.57
			c0.6,0,1.09-0.49,1.09-1.09v-15.5c0-0.99-0.1-1.96-0.29-2.9c-1.3-6.44-6.83-11.34-13.57-11.67c0.06-0.01,0.13-0.02,0.19-0.02
			h-0.92h-9.17c-0.6,0-1.09,0.49-1.09,1.09v3.13v8.13C42.5,99.98,42.99,100.47,43.59,100.47z"/>
	</g>
</g>
</svg>
