<?xml version="1.0" encoding="utf-8"?>
<!-- Generator: Adobe Illustrator 24.0.2, SVG Export Plug-In . SVG Version: 6.00 Build 0)  -->
<svg version="1.1" id="Layer_1" xmlns="http://www.w3.org/2000/svg" xmlns:xlink="http://www.w3.org/1999/xlink" x="0px" y="0px"
	 viewBox="0 0 200 200" style="enable-background:new 0 0 200 200;" xml:space="preserve">
<style type="text/css">
	.st0{fill:#FAF7E8;}
</style>
<g>
	<path class="st0" d="M72.75,131.76c0,1.07,0,2.04,0,3.08c-2.25,0-4.48,0-6.76,0c0,1.28,0,2.49,0,3.78c2.23,0,4.45,0,6.74,0
		c0,1.01,0,1.94,0,2.93c-3.49,0-6.97,0-10.5,0c0-5.37,0-10.72,0-16.12c3.51,0,6.99,0,10.51,0c0,1,0,1.97,0,3.01
		c-2.23,0-4.46,0-6.75,0c0,1.12,0,2.17,0,3.32C68.22,131.76,70.47,131.76,72.75,131.76z"/>
	<path class="st0" d="M50.18,138.52c0.15,0.75,0.34,1.67,0.56,2.74c-0.98,0.22-1.93,0.55-2.9,0.61c-2.23,0.16-4.43,0.03-6.45-1.11
		c-2.42-1.37-3.57-3.51-3.77-6.21c-0.14-1.92,0.1-3.8,1.17-5.44c1.21-1.86,2.91-3.09,5.11-3.58c2.14-0.48,4.27-0.48,6.4,0.14
		c0.51,0.15,0.64,0.31,0.45,0.86c-0.27,0.72-0.39,1.5-0.59,2.29c-1.9-0.65-3.77-0.96-5.68-0.18c-1.67,0.68-2.88,2.4-2.95,4.2
		c-0.07,1.79,0.14,3.45,1.6,4.73c0.9,0.78,1.93,1.23,3.09,1.23C47.52,138.79,48.83,138.62,50.18,138.52z"/>
	<path class="st0" d="M57.84,141.58c-1.22,0-2.39,0-3.62,0c0-5.37,0-10.73,0-16.14c1.18,0,2.37,0,3.62,0
		C57.84,130.78,57.84,136.14,57.84,141.58z"/>
	<path class="st0" d="M47.61,118.82c-1.06-2.44-2.18-4.57-4.58-5.64c-1.46-0.65-3.02-0.89-4.59-1.07c-3.12-0.37-6.29-0.43-9.34-1.31
		c-3.82-1.1-5.86-3.22-6.53-7.11c-0.13-0.75-0.15-1.52-0.15-2.28c-0.01-14.16,0-28.32-0.02-42.48c0-0.66,0.12-0.86,0.83-0.86
		c16.26,0.02,32.52,0.02,48.78,0c0.72,0,0.82,0.22,0.82,0.87c-0.02,14.16,0,28.32-0.03,42.48c0,2.05-0.26,4.08-1.44,5.86
		c-1.38,2.08-3.45,3.11-5.78,3.68c-1.96,0.47-3.97,0.66-5.97,0.86c-1.97,0.2-3.97,0.29-5.89,0.81c-2.59,0.7-4.38,2.31-5.43,4.77
		C48.09,117.83,47.88,118.25,47.61,118.82z M50.56,75.28c-0.65,0.82-0.75,1.54-0.2,2.29c0.13,0.18-0.07,0.41-0.12,0.61
		c-0.16,0.65-0.62,1.22-0.5,1.93c0.16,1.02,0.2,2.07,0.68,3.02c0.09,0.18,0.2,0.35,0.01,0.51c-0.64,0.52-0.36,1.14-0.19,1.73
		c0.07,0.26,0.22,0.53-0.01,0.76c-0.57,0.58-0.36,1.01,0.24,1.36c0.3,0.18,0.43,0.47,0.57,0.74c0.29,0.54,0.72,0.96,1.16,1.35
		c0.79,0.71,1.8,1.1,2.67,1.69c0.29,0.19,0.48,0.14,0.71-0.15c1.13-1.38,2.29-2.75,3.44-4.11c1.85-2.19,3.72-4.38,5.56-6.57
		c1.92-2.28,3.79-4.59,5.74-6.84c0.88-1.02,1.43-2.01,1.37-3.46c-0.13-3.32-0.06-6.65-0.03-9.98c0.01-0.71-0.12-0.96-0.91-0.95
		c-2.97,0.05-5.94,0.04-8.91,0.01c-0.57-0.01-0.97,0.16-1.33,0.59c-1.5,1.83-3.01,3.64-4.57,5.42c-1.41,1.59-2.67,3.31-4.08,4.91
		c-1.21,1.38-2.35,2.83-3.59,4.33C49.22,74.34,49.5,75.46,50.56,75.28z M51.56,95.96c-0.54-0.42-1.4-0.59-1.14-1.36
		c0.26-0.78-0.14-0.93-0.67-1.16c-0.62-0.27-1.34-0.24-1.89-0.54c-0.45-0.24-0.68-0.34-1.01,0.07c-0.33,0.42-0.66,0.47-0.93-0.06
		c-0.17-0.32-0.4-0.45-0.78-0.46c-0.91-0.03-1.73-0.93-1.79-1.88c-0.03-0.43,0.18-0.94-0.45-1.16c-0.05-0.02-0.35-0.53-0.12-0.71
		c0.53-0.43,0.07-0.63-0.17-0.76c-0.97-0.5-1.83-1.1-2.5-2c-0.44-0.59-0.99-0.53-1.46,0.02c-0.37,0.43-0.75,0.85-1.12,1.29
		c-1.52,1.8-3.04,3.59-4.55,5.4c-1.56,1.87-3.1,3.76-4.67,5.62c-1.22,1.44-2.43,2.89-3.72,4.27c-0.32,0.34-0.82,0.79-0.75,1.31
		c0.21,1.54,0.83,2.89,2.01,3.96c1.87,1.7,4.21,2.15,6.57,2.5c1.86,0.27,3.74,0.46,5.62,0.64c0.4,0.04,0.87,0.23,1.2-0.23
		c1.64-2.26,3.64-4.22,5.36-6.42C46.79,101.44,49.2,98.76,51.56,95.96z M47.16,74.55c-0.57-0.33-1-0.94-1.56-0.68
		c-0.33,0.15-0.41,0.03-0.65-0.03c-0.38-0.11-0.77-0.28-1.23,0c-0.47,0.29-1.03,0.45-1.62,0.18c-0.2-0.09-0.48-0.12-0.69,0.06
		c-0.98,0.84-2.14,0.9-3.37,0.91c-0.84,0.01-1.81-0.33-2.54,0.46c-0.19,0.21-0.42,0.17-0.64-0.02c-0.24-0.22-0.42-0.16-0.67,0.1
		c-0.33,0.34-0.59-0.13-0.86-0.24c-0.31-0.13,0.03-0.33,0.08-0.51c0.14-0.54,0.82-0.56,0.95-1.13c0.18-0.76,0.44-1.43,0.21-2.31
		c-0.19-0.73-0.16-1.67,0.19-2.48c0.24-0.57-0.15-0.89-0.56-1.09c-0.4-0.19-0.6,0.1-0.81,0.47c-0.27,0.47-0.13,1.46-1.19,1.15
		c-0.03-0.01-0.12,0.05-0.12,0.07c-0.04,0.56-0.49,0.41-0.79,0.4c-1.47-0.08-2.85,0.48-4.32,0.48c0.34,1.38,0.23,1.58-0.9,1.7
		c0.91,0.7,1.82,1.39,2.72,2.09c0.24,0.19,0.1,0.45,0.13,0.67c0.03,0.28-0.16,0.28-0.37,0.3c-0.97,0.06-1.89,0.47-2.88,0.33
		c-0.1-0.01-0.26,0.01-0.29,0.07C25,76.26,24.65,77,24.27,77.74c-0.19,0.38,0.21,0.44,0.32,0.65c0.07,0.14-0.06,0.18-0.09,0.27
		c-0.36,0.94-0.17,1.38,0.61,1.97c1.3,0.98,2.78,1.1,4.32,1.03c0.56-0.03,1.09,0.03,1.52,0.41c0.41,0.37,0.89,0.46,1.42,0.42
		c0.27-0.02,0.59-0.08,0.81,0.04c1.01,0.57,2.1,0.44,3.17,0.44c0.39,0,0.8,0.08,0.85-0.55c0.02-0.18,0.42-0.38,0.69-0.08
		c0.18,0.2,0.31,0.44,0.5,0.61c0.12,0.11,0.4,0.11,0.27,0.36c-0.17,0.3-0.36,0.12-0.52-0.04c-0.15-0.15-0.27-0.14-0.4,0.03
		c-0.12,0.16-0.14,0.33,0.05,0.4c0.83,0.35,1.36,1.15,2.23,1.45c0.24,0.08,0.51,0.26,0.63,0.47c0.44,0.77,1.17,1.18,1.89,1.61
		c0.41,0.24,0.76,0.59,1.16,0.83c0.63,0.38,0.3,0.62-0.05,0.92c0.53,0.07,0.95,0.33,0.63,0.78c-0.26,0.37-0.48,0.63-0.28,1.06
		c0.24,0.52,0.48,1.05,1.21,1c0.55-0.04,0.88,0.31,1.17,0.72c0.05-0.09,0.09-0.2,0.16-0.27c0.4-0.44,0.77-0.83-0.23-0.95
		c-0.31-0.04-0.49-0.35-0.69-0.63c0.28-0.09,0.5,0.06,0.63,0.13c0.51,0.28,1.39,0.28,1.44,0.93c0.05,0.65,0.35,0.56,0.75,0.67
		c0.72,0.19,1.43,0.44,2.1,0.75c0.47,0.22,0.83,0.63,0.64,1.21c-0.18,0.56-0.01,0.88,0.59,0.86c0.18-0.01,0.46,0.19,0.56-0.13
		c0.1-0.34-0.21-0.27-0.38-0.37c-0.14-0.08-0.32-0.22-0.12-0.47c0.43,0.27,1.04,0.26,1.1,1.01c0.01,0.19,0.61,0.47,0.66,0.37
		c0.3-0.61,0.84-0.38,1.29-0.49c0.41-0.11,0.79,0.19,1.03,0.13c0.82-0.2,1.46-0.05,1.78,0.7c0.27,0.63,0.77,0.4,1.17,0.46
		c0.41,0.06-0.1-0.41,0.19-0.55c0.09-0.04,0.14-0.21,0.31-0.24c0.01,0.53,0.58,0.83,0.63,1.27c0.08,0.73,0.48,0.51,0.88,0.46
		c0.75-0.1,0.93-1.01,1.68-1.15c0.26-0.05,0.02-0.32-0.11-0.43c-0.39-0.34-0.78-0.68-1.2-0.97c-0.18-0.13-0.39-0.18-0.38-0.45
		c0.01-0.31,0.21-0.36,0.47-0.45c0.43-0.14,1.31-1.05,1.32-1.27c0.03-0.94,0.58-1.46,1.52-1.49c0.86-0.03,1.59,0.26,2.18,0.85
		c0.23,0.23,0.43,0.39,0.72,0.15c0.45-0.37,0.74-0.25,0.94,0.31c-1.07-0.33-0.26,0.86-0.83,0.99c-0.19,0.05-0.09,0.26,0.03,0.4
		c0.57,0.64,1.14,1.28,1.93,1.75c0.04-0.31-0.01-0.6,0.11-0.77c0.19-0.26-0.02-0.49,0.02-0.72c0.3-0.03,0.37,0.37,0.65,0.3
		c0.28-0.07,0.83-1.53,0.6-1.73c-0.7-0.61-0.86-1.63-1.69-2.12c-0.63-0.38-1.22-0.79-2.01-0.9c-0.76-0.1-1.56,0.12-2.2-0.06
		c-0.75-0.2-1.38,0.11-2.06,0.02c-0.1-0.01-0.42,0.02-0.39,0.31c0.05,0.41-0.31,0.51-0.51,0.73c-0.71,0.78-1.72,1.14-2.51,1.86
		c-0.62,0.57-1.6,1-2.42,0.03c-0.08-0.09-0.2-0.12-0.27-0.01c-0.24,0.41-0.63,0.4-1.02,0.36c-0.44-0.04-0.24-0.81-0.81-0.72
		c0.16-0.78-0.63-0.82-0.97-0.97c-1.34-0.57-2.35-1.47-3.12-2.66c-0.21-0.31-0.39-0.59-0.71-0.82c-0.68-0.47-0.77-1.06-0.31-1.73
		c0.3-0.43,0.16-0.61-0.25-0.8c-0.23-0.11-0.34-0.54-0.1-0.55c0.8-0.04,0.34-0.45,0.21-0.65c-0.37-0.54-0.32-1.06-0.07-1.61
		c0.16,0.04,0.01,0.29,0.29,0.29c-0.15-1.12-0.48-2.22-0.42-3.36c0.01-0.23-0.07-0.38,0.11-0.61c0.59-0.73,0.58-1.37-0.05-2.11
		c-0.21-0.25-0.32-0.33,0-0.51c0.21-0.12,0.21-0.43,0.08-0.44c-0.37-0.02-0.28-0.72-0.72-0.48c-0.86,0.47-1.48,0.02-2.21-0.51
		C46.68,74.63,46.86,74.6,47.16,74.55z"/>
	<path class="st0" d="M31.55,132.81c0.63,0.31,1.23,0.5,1.74,0.91c2.75,2.22,1.54,6.3-1.51,7.38c-1.82,0.65-3.7,0.71-5.58,0.66
		c-1.11-0.03-2.23,0.12-3.34-0.15c-0.36-0.09-0.49-0.13-0.49-0.52c0.01-4.99,0.01-9.99,0.01-14.98c0-0.34,0.05-0.56,0.48-0.58
		c1.54-0.09,3.08-0.32,4.62-0.29c1.44,0.03,2.91,0.1,4.28,0.67c2.63,1.1,3.31,4.25,1.3,6.06C32.64,132.35,32.14,132.61,31.55,132.81
		z M26.16,136.71c0,0.27,0,0.55,0,0.82c0,1.59,0.36,1.89,1.97,1.55c0.24-0.05,0.48-0.08,0.72-0.12c0.83-0.15,1.53-0.56,1.88-1.35
		c0.6-1.37-0.16-2.79-2.15-3.04C26.16,134.26,26.15,134.32,26.16,136.71z M26.16,129.87c0,0.49,0,0.98,0,1.47
		c0,0.18-0.05,0.42,0.25,0.41c0.98-0.05,1.99,0.19,2.94-0.3c0.86-0.45,1.18-0.96,1.07-1.97c-0.09-0.76-0.59-1.13-1.29-1.35
		c-0.34-0.1-0.68-0.15-1.03-0.15C26.16,127.99,26.16,127.99,26.16,129.87z"/>
	<path class="st0" d="M46.12,88.17c-0.77,0.08-1.39-0.09-1.91-0.35c-0.74-0.37-0.74-1.26-1.01-1.94c-0.11-0.29,0.13-0.51,0.56-0.35
		c1.01,0.38,1.91,0.9,2.62,1.72c0.19,0.23,0.49,0.42,0.37,0.76C46.62,88.41,46.25,88.14,46.12,88.17z"/>
	<path class="st0" d="M42.55,85c-0.08,0.32-0.23,0.5-0.36,0.41c-0.32-0.2-0.64-0.16-0.97-0.16c-0.19,0-0.19-0.18-0.15-0.3
		c0.08-0.28,0.32-0.35,0.58-0.33C42.01,84.64,42.17,85.06,42.55,85z"/>
	<g>
		<path class="st0" d="M84.29,62.8c0.3,0.27,0.45,0.66,0.45,1.17v0.48c0,0.42-0.13,0.8-0.4,1.13c-0.27,0.33-0.64,0.58-1.13,0.77
			c-0.49,0.18-1.06,0.27-1.71,0.27h-2.57v-8.38h2.58c0.91,0,1.63,0.18,2.17,0.55c0.53,0.37,0.8,0.88,0.8,1.53v0.53
			c0,0.4-0.12,0.71-0.36,0.95c-0.24,0.23-0.53,0.39-0.87,0.48C83.64,62.35,83.98,62.53,84.29,62.8z M80.43,59.34v2.52h1.32
			c0.37,0,0.67-0.09,0.89-0.26c0.22-0.17,0.32-0.42,0.32-0.76V60.4c0-0.36-0.13-0.63-0.38-0.8c-0.25-0.18-0.6-0.26-1.06-0.26H80.43z
			 M83.23,63.95c0-0.32-0.12-0.57-0.37-0.75s-0.59-0.27-1.05-0.27h-1.39v2.58h1.09c0.54,0,0.96-0.1,1.26-0.29
			c0.3-0.19,0.45-0.47,0.45-0.85V63.95z"/>
		<path class="st0" d="M90.72,60.67c0.41,0.39,0.62,0.94,0.62,1.65v4.3h-1.16L90.06,66c-0.52,0.51-1.15,0.77-1.89,0.77
			c-0.38,0-0.74-0.07-1.06-0.22c-0.32-0.15-0.58-0.36-0.77-0.63c-0.19-0.28-0.29-0.59-0.29-0.95v-0.42c0-0.56,0.24-1,0.71-1.34
			c0.47-0.34,1.12-0.5,1.94-0.5h1.17v-0.43c0-0.37-0.09-0.65-0.28-0.82c-0.19-0.17-0.47-0.26-0.86-0.26c-0.34,0-0.65,0.04-0.94,0.12
			c-0.29,0.08-0.6,0.2-0.92,0.36l-0.45-0.92c0.73-0.45,1.55-0.67,2.44-0.67C89.69,60.08,90.31,60.28,90.72,60.67z M89.23,65.51
			c0.24-0.1,0.46-0.26,0.64-0.47v-1.41h-1.03c-0.88,0-1.32,0.32-1.32,0.97v0.24c0,0.26,0.08,0.46,0.23,0.6
			c0.16,0.15,0.39,0.22,0.7,0.22C88.73,65.67,88.99,65.62,89.23,65.51z"/>
		<path class="st0" d="M98.28,60.64c0.39,0.38,0.58,0.9,0.58,1.57v4.4h-1.48v-4.28c0-0.75-0.33-1.12-0.99-1.12
			c-0.54,0-1,0.26-1.38,0.79v4.62h-1.48v-6.37h1.27l0.1,0.65c0.45-0.54,1.08-0.81,1.89-0.81C97.39,60.08,97.89,60.27,98.28,60.64z"
			/>
		<path class="st0" d="M101.34,65.93c-0.51-0.56-0.77-1.3-0.77-2.24v-0.54c0-0.94,0.26-1.69,0.77-2.24
			c0.51-0.55,1.23-0.83,2.15-0.83c0.42,0,0.81,0.07,1.15,0.2c0.34,0.14,0.66,0.35,0.96,0.63l-0.71,0.79c-0.2-0.18-0.4-0.3-0.61-0.38
			c-0.21-0.08-0.45-0.12-0.73-0.12c-0.48,0-0.85,0.16-1.11,0.48c-0.26,0.32-0.39,0.8-0.39,1.44v0.59c0,0.64,0.13,1.12,0.38,1.45
			c0.25,0.33,0.62,0.49,1.11,0.49c0.26,0,0.5-0.04,0.72-0.13c0.22-0.09,0.44-0.22,0.68-0.38l0.61,0.87
			c-0.27,0.22-0.59,0.4-0.96,0.54c-0.37,0.14-0.74,0.21-1.12,0.21C102.57,66.77,101.86,66.49,101.34,65.93z"/>
		<path class="st0" d="M111.25,60.46c0.45,0.26,0.8,0.61,1.03,1.07c0.23,0.45,0.35,0.98,0.35,1.57v0.65c0,0.92-0.26,1.65-0.79,2.2
			c-0.53,0.55-1.27,0.83-2.23,0.83c-0.95,0-1.68-0.27-2.2-0.83c-0.52-0.55-0.78-1.28-0.78-2.2V63.1c0-0.59,0.11-1.11,0.34-1.57
			c0.23-0.46,0.56-0.81,1.01-1.07c0.45-0.26,0.99-0.38,1.63-0.38C110.24,60.08,110.79,60.21,111.25,60.46z M108.49,61.68
			c-0.26,0.32-0.38,0.78-0.38,1.39v0.67c0,0.63,0.13,1.11,0.38,1.43c0.25,0.32,0.62,0.48,1.12,0.48c0.49,0,0.87-0.16,1.14-0.48
			c0.26-0.32,0.39-0.8,0.39-1.43v-0.67c0-0.61-0.13-1.07-0.39-1.39c-0.26-0.32-0.64-0.48-1.14-0.48
			C109.12,61.21,108.75,61.36,108.49,61.68z"/>
		<path class="st0" d="M79.98,79.76c-0.49-0.26-0.87-0.63-1.13-1.1c-0.26-0.47-0.39-1.03-0.39-1.66v-2.2c0-0.68,0.14-1.27,0.41-1.77
			c0.27-0.5,0.66-0.89,1.16-1.16c0.5-0.27,1.1-0.41,1.79-0.41c0.55,0,1.03,0.08,1.42,0.23c0.4,0.16,0.78,0.38,1.15,0.68l-0.77,0.86
			c-0.27-0.2-0.54-0.35-0.82-0.45c-0.28-0.1-0.59-0.16-0.94-0.16c-0.61,0-1.08,0.18-1.41,0.54c-0.33,0.36-0.5,0.88-0.5,1.55v2.26
			c0,0.66,0.15,1.16,0.46,1.5c0.31,0.34,0.76,0.51,1.37,0.51c0.37,0,0.71-0.05,1.02-0.16c0.3-0.11,0.59-0.26,0.87-0.45l0.63,0.9
			c-0.32,0.25-0.7,0.45-1.14,0.62c-0.44,0.17-0.91,0.25-1.42,0.25C81.07,80.14,80.47,80.02,79.98,79.76z"/>
		<path class="st0" d="M90.76,77.27h-4.1c0.01,0.61,0.15,1.05,0.43,1.33c0.28,0.28,0.7,0.42,1.26,0.42c0.31,0,0.6-0.05,0.86-0.14
			c0.26-0.09,0.54-0.22,0.84-0.39l0.53,0.89c-0.29,0.22-0.64,0.39-1.05,0.54c-0.41,0.14-0.84,0.22-1.27,0.22
			c-0.63,0-1.17-0.13-1.63-0.39s-0.81-0.61-1.05-1.07c-0.24-0.45-0.36-0.97-0.36-1.55v-0.66c0-0.57,0.12-1.09,0.35-1.55
			c0.23-0.46,0.56-0.82,0.99-1.08c0.43-0.26,0.93-0.4,1.51-0.4c0.88,0,1.56,0.27,2.03,0.8c0.48,0.53,0.72,1.3,0.72,2.3
			C90.81,76.78,90.79,77.02,90.76,77.27z M89.48,76.24c0-0.55-0.12-0.97-0.36-1.26c-0.24-0.29-0.59-0.44-1.05-0.44
			c-0.45,0-0.8,0.15-1.04,0.44c-0.24,0.3-0.36,0.73-0.38,1.32h2.82V76.24z"/>
		<path class="st0" d="M97.37,74.02c0.39,0.38,0.58,0.9,0.58,1.57v4.4h-1.48v-4.28c0-0.75-0.33-1.12-0.99-1.12
			c-0.54,0-1,0.26-1.38,0.79v4.62h-1.48v-6.37h1.27l0.1,0.65c0.45-0.54,1.08-0.81,1.89-0.81C96.48,73.46,96.98,73.64,97.37,74.02z"
			/>
		<path class="st0" d="M103.49,79.99c-0.36,0.1-0.73,0.16-1.11,0.16c-0.62,0-1.1-0.14-1.43-0.42c-0.33-0.28-0.5-0.72-0.5-1.31v-3.69
			h-0.97v-1.1h1.01l0.12-1.57h1.33v1.57h1.38v1.1h-1.38v3.6c0,0.23,0.06,0.4,0.19,0.51c0.13,0.11,0.32,0.17,0.59,0.17
			c0.2,0,0.41-0.02,0.62-0.06L103.49,79.99z"/>
		<path class="st0" d="M108.97,73.6l-0.26,1.38c-0.12-0.02-0.25-0.04-0.38-0.04c-0.38,0-0.72,0.1-1,0.29
			c-0.28,0.19-0.51,0.51-0.68,0.96v3.81h-1.48v-6.37h1.08l0.24,1c0.18-0.39,0.42-0.68,0.72-0.87c0.31-0.19,0.64-0.28,1-0.28
			C108.48,73.48,108.73,73.52,108.97,73.6z"/>
		<path class="st0" d="M114.46,73.84c0.45,0.26,0.8,0.61,1.03,1.07c0.23,0.45,0.35,0.98,0.35,1.57v0.65c0,0.92-0.26,1.65-0.79,2.2
			c-0.53,0.55-1.27,0.83-2.23,0.83c-0.95,0-1.68-0.27-2.2-0.83c-0.52-0.55-0.78-1.28-0.78-2.2v-0.65c0-0.59,0.11-1.11,0.34-1.57
			c0.23-0.46,0.56-0.81,1.01-1.07c0.45-0.26,0.99-0.38,1.63-0.38C113.46,73.46,114.01,73.58,114.46,73.84z M111.71,75.05
			c-0.26,0.32-0.38,0.78-0.38,1.39v0.67c0,0.63,0.13,1.11,0.38,1.43c0.25,0.32,0.62,0.48,1.12,0.48c0.49,0,0.87-0.16,1.14-0.48
			s0.39-0.8,0.39-1.43v-0.67c0-0.61-0.13-1.07-0.39-1.39c-0.26-0.32-0.64-0.48-1.14-0.48C112.34,74.58,111.97,74.74,111.71,75.05z"
			/>
		<path class="st0" d="M121.79,74.05c0.41,0.39,0.62,0.94,0.62,1.65v4.3h-1.16l-0.12-0.61c-0.52,0.51-1.15,0.77-1.89,0.77
			c-0.38,0-0.74-0.07-1.06-0.22c-0.32-0.15-0.58-0.36-0.77-0.63c-0.19-0.28-0.29-0.59-0.29-0.95v-0.42c0-0.56,0.24-1,0.71-1.34
			c0.47-0.34,1.12-0.5,1.94-0.5h1.17v-0.43c0-0.37-0.09-0.65-0.28-0.82c-0.19-0.17-0.47-0.26-0.86-0.26c-0.34,0-0.65,0.04-0.94,0.12
			c-0.29,0.08-0.6,0.2-0.92,0.36l-0.45-0.92c0.73-0.45,1.55-0.67,2.44-0.67C120.75,73.46,121.37,73.65,121.79,74.05z M120.3,78.89
			c0.24-0.1,0.46-0.26,0.64-0.47v-1.41h-1.03c-0.88,0-1.32,0.32-1.32,0.97v0.24c0,0.26,0.08,0.46,0.23,0.6
			c0.16,0.15,0.39,0.22,0.7,0.22C119.8,79.04,120.05,78.99,120.3,78.89z"/>
		<path class="st0" d="M132.2,73.71c0.3,0.17,0.54,0.41,0.71,0.73c0.18,0.32,0.26,0.7,0.26,1.15v4.4h-1.47v-4.3
			c0-0.38-0.08-0.65-0.25-0.84c-0.16-0.18-0.37-0.27-0.63-0.27c-0.44,0-0.84,0.27-1.21,0.8v4.61h-1.48v-4.3
			c0-0.38-0.08-0.66-0.24-0.84c-0.16-0.18-0.37-0.27-0.62-0.27c-0.23,0-0.45,0.07-0.65,0.2c-0.2,0.14-0.39,0.34-0.57,0.61v4.6h-1.47
			v-6.37h1.27l0.08,0.65c0.45-0.54,1.03-0.81,1.72-0.81c0.35,0,0.68,0.08,0.98,0.25c0.3,0.17,0.54,0.41,0.71,0.72
			c0.49-0.65,1.11-0.97,1.87-0.97C131.58,73.46,131.9,73.54,132.2,73.71z"/>
		<path class="st0" d="M140.44,77.27h-4.1c0.01,0.61,0.15,1.05,0.43,1.33c0.28,0.28,0.7,0.42,1.26,0.42c0.31,0,0.6-0.05,0.86-0.14
			c0.26-0.09,0.54-0.22,0.84-0.39l0.53,0.89c-0.29,0.22-0.64,0.39-1.05,0.54c-0.41,0.14-0.84,0.22-1.27,0.22
			c-0.63,0-1.17-0.13-1.63-0.39s-0.81-0.61-1.05-1.07c-0.24-0.45-0.36-0.97-0.36-1.55v-0.66c0-0.57,0.12-1.09,0.35-1.55
			c0.23-0.46,0.56-0.82,0.99-1.08c0.43-0.26,0.93-0.4,1.51-0.4c0.88,0,1.56,0.27,2.03,0.8c0.48,0.53,0.72,1.3,0.72,2.3
			C140.49,76.78,140.47,77.02,140.44,77.27z M139.16,76.24c0-0.55-0.12-0.97-0.36-1.26c-0.24-0.29-0.59-0.44-1.05-0.44
			c-0.45,0-0.8,0.15-1.04,0.44c-0.24,0.3-0.36,0.73-0.38,1.32h2.82V76.24z"/>
		<path class="st0" d="M146.1,73.6l-0.26,1.38c-0.12-0.02-0.25-0.04-0.38-0.04c-0.38,0-0.72,0.1-1,0.29
			c-0.28,0.19-0.51,0.51-0.68,0.96v3.81h-1.48v-6.37h1.08l0.24,1c0.18-0.39,0.42-0.68,0.72-0.87c0.31-0.19,0.64-0.28,1-0.28
			C145.61,73.48,145.86,73.52,146.1,73.6z"/>
		<path class="st0" d="M151.85,79.31c-0.51-0.56-0.77-1.3-0.77-2.24v-0.54c0-0.94,0.26-1.69,0.77-2.24
			c0.51-0.55,1.23-0.83,2.15-0.83c0.42,0,0.81,0.07,1.15,0.2c0.34,0.14,0.66,0.35,0.96,0.63l-0.71,0.79c-0.2-0.18-0.4-0.3-0.61-0.38
			c-0.21-0.08-0.45-0.12-0.73-0.12c-0.48,0-0.85,0.16-1.11,0.48c-0.26,0.32-0.39,0.8-0.39,1.44v0.59c0,0.64,0.13,1.12,0.38,1.45
			c0.25,0.33,0.62,0.49,1.11,0.49c0.26,0,0.5-0.04,0.72-0.13c0.22-0.09,0.44-0.22,0.68-0.38l0.61,0.87
			c-0.27,0.22-0.59,0.4-0.96,0.54c-0.37,0.14-0.74,0.21-1.12,0.21C153.07,80.14,152.37,79.87,151.85,79.31z"/>
		<path class="st0" d="M161.78,74.05c0.41,0.39,0.62,0.94,0.62,1.65v4.3h-1.16l-0.12-0.61c-0.52,0.51-1.15,0.77-1.89,0.77
			c-0.38,0-0.74-0.07-1.06-0.22c-0.32-0.15-0.58-0.36-0.77-0.63c-0.19-0.28-0.29-0.59-0.29-0.95v-0.42c0-0.56,0.24-1,0.71-1.34
			c0.47-0.34,1.12-0.5,1.94-0.5h1.17v-0.43c0-0.37-0.09-0.65-0.28-0.82c-0.19-0.17-0.47-0.26-0.86-0.26c-0.34,0-0.65,0.04-0.94,0.12
			c-0.29,0.08-0.6,0.2-0.92,0.36l-0.45-0.92c0.73-0.45,1.55-0.67,2.44-0.67C160.74,73.46,161.36,73.65,161.78,74.05z M160.29,78.89
			c0.24-0.1,0.46-0.26,0.64-0.47v-1.41h-1.03c-0.88,0-1.32,0.32-1.32,0.97v0.24c0,0.26,0.08,0.46,0.23,0.6
			c0.16,0.15,0.39,0.22,0.7,0.22C159.79,79.04,160.04,78.99,160.29,78.89z"/>
		<path class="st0" d="M169.33,74.02c0.39,0.38,0.58,0.9,0.58,1.57v4.4h-1.48v-4.28c0-0.75-0.33-1.12-0.99-1.12
			c-0.54,0-1,0.26-1.38,0.79v4.62h-1.48v-6.37h1.27l0.1,0.65c0.45-0.54,1.08-0.81,1.89-0.81C168.45,73.46,168.95,73.64,169.33,74.02
			z"/>
		<path class="st0" d="M176.24,73.84c0.45,0.26,0.8,0.61,1.03,1.07c0.23,0.45,0.35,0.98,0.35,1.57v0.65c0,0.92-0.26,1.65-0.79,2.2
			c-0.53,0.55-1.27,0.83-2.23,0.83c-0.95,0-1.68-0.27-2.2-0.83c-0.52-0.55-0.78-1.28-0.78-2.2v-0.65c0-0.59,0.11-1.11,0.34-1.57
			c0.23-0.46,0.56-0.81,1.01-1.07c0.45-0.26,0.99-0.38,1.63-0.38C175.24,73.46,175.79,73.58,176.24,73.84z M173.49,75.05
			c-0.26,0.32-0.38,0.78-0.38,1.39v0.67c0,0.63,0.13,1.11,0.38,1.43c0.25,0.32,0.62,0.48,1.12,0.48c0.49,0,0.87-0.16,1.14-0.48
			c0.26-0.32,0.39-0.8,0.39-1.43v-0.67c0-0.61-0.13-1.07-0.39-1.39c-0.26-0.32-0.64-0.48-1.14-0.48
			C174.12,74.58,173.75,74.74,173.49,75.05z"/>
		<path class="st0" d="M83.87,84.51v8.86h-1.16l-0.17-0.69c-0.45,0.57-1.03,0.85-1.73,0.85c-0.49,0-0.93-0.12-1.31-0.37
			c-0.38-0.25-0.68-0.6-0.89-1.05c-0.22-0.46-0.32-0.98-0.32-1.58v-0.67c0-0.57,0.11-1.09,0.33-1.55c0.22-0.46,0.52-0.82,0.92-1.08
			c0.39-0.26,0.84-0.39,1.35-0.39c0.59,0,1.09,0.19,1.51,0.56v-2.88H83.87z M81.8,92.21c0.21-0.13,0.4-0.31,0.58-0.55v-3.18
			c-0.15-0.16-0.34-0.29-0.55-0.38c-0.22-0.1-0.45-0.14-0.71-0.14c-0.43,0-0.77,0.16-1.01,0.48c-0.24,0.32-0.36,0.78-0.36,1.38v0.73
			c0,0.62,0.11,1.09,0.34,1.4c0.23,0.31,0.55,0.47,0.96,0.47C81.35,92.41,81.59,92.34,81.8,92.21z"/>
		<path class="st0" d="M91.25,90.65h-4.1c0.01,0.61,0.15,1.05,0.43,1.33c0.28,0.28,0.7,0.42,1.26,0.42c0.31,0,0.6-0.05,0.86-0.14
			c0.26-0.09,0.54-0.22,0.84-0.39l0.53,0.89c-0.29,0.22-0.64,0.39-1.05,0.54c-0.41,0.14-0.84,0.22-1.27,0.22
			c-0.63,0-1.17-0.13-1.63-0.39s-0.81-0.61-1.05-1.07c-0.24-0.45-0.36-0.97-0.36-1.55v-0.66c0-0.57,0.12-1.09,0.35-1.55
			c0.23-0.46,0.56-0.82,0.99-1.08c0.43-0.26,0.93-0.4,1.51-0.4c0.88,0,1.56,0.27,2.03,0.8c0.48,0.53,0.72,1.3,0.72,2.3
			C91.3,90.15,91.28,90.39,91.25,90.65z M89.97,89.62c0-0.55-0.12-0.97-0.36-1.26c-0.24-0.29-0.59-0.44-1.05-0.44
			c-0.45,0-0.8,0.15-1.04,0.44c-0.24,0.3-0.36,0.73-0.38,1.32h2.82V89.62z"/>
		<path class="st0" d="M106.04,87.39c0.39,0.38,0.58,0.9,0.58,1.57v4.4h-1.48v-4.28c0-0.75-0.33-1.12-0.99-1.12
			c-0.54,0-1,0.26-1.38,0.79v4.62h-1.48V87h1.27l0.1,0.65c0.45-0.54,1.08-0.81,1.89-0.81C105.15,86.83,105.65,87.02,106.04,87.39z"
			/>
		<path class="st0" d="M112.16,93.36c-0.36,0.1-0.73,0.16-1.11,0.16c-0.62,0-1.1-0.14-1.43-0.42c-0.33-0.28-0.5-0.72-0.5-1.31V88.1
			h-0.97V87h1.01l0.12-1.57h1.33V87h1.38v1.1h-1.38v3.6c0,0.23,0.06,0.4,0.19,0.51c0.13,0.11,0.32,0.17,0.59,0.17
			c0.2,0,0.41-0.02,0.62-0.06L112.16,93.36z"/>
		<path class="st0" d="M118.8,90.65h-4.1c0.01,0.61,0.15,1.05,0.43,1.33c0.28,0.28,0.7,0.42,1.26,0.42c0.31,0,0.6-0.05,0.86-0.14
			c0.26-0.09,0.54-0.22,0.84-0.39l0.53,0.89c-0.29,0.22-0.64,0.39-1.05,0.54c-0.41,0.14-0.84,0.22-1.27,0.22
			c-0.63,0-1.17-0.13-1.63-0.39c-0.46-0.26-0.81-0.61-1.05-1.07c-0.24-0.45-0.36-0.97-0.36-1.55v-0.66c0-0.57,0.12-1.09,0.35-1.55
			c0.23-0.46,0.56-0.82,0.99-1.08c0.43-0.26,0.93-0.4,1.51-0.4c0.88,0,1.56,0.27,2.03,0.8c0.48,0.53,0.72,1.3,0.72,2.3
			C118.85,90.15,118.83,90.39,118.8,90.65z M117.52,89.62c0-0.55-0.12-0.97-0.36-1.26c-0.24-0.29-0.59-0.44-1.05-0.44
			c-0.45,0-0.8,0.15-1.04,0.44c-0.24,0.3-0.36,0.73-0.38,1.32h2.82V89.62z"/>
		<path class="st0" d="M125.82,87v6.39c0,0.53-0.12,0.99-0.37,1.37c-0.25,0.38-0.58,0.67-1.01,0.86c-0.43,0.2-0.91,0.29-1.44,0.29
			c-0.92,0-1.71-0.2-2.38-0.6l0.47-0.9c0.28,0.13,0.56,0.22,0.84,0.29c0.28,0.06,0.6,0.1,0.96,0.1c0.99,0,1.48-0.47,1.48-1.42v-0.8
			c-0.47,0.53-1.04,0.79-1.7,0.79c-0.72,0-1.3-0.25-1.76-0.74c-0.45-0.49-0.68-1.24-0.68-2.24v-0.54c0-0.65,0.12-1.19,0.35-1.65
			c0.23-0.45,0.54-0.79,0.93-1.02c0.39-0.23,0.8-0.35,1.25-0.35c0.37,0,0.69,0.06,0.97,0.18c0.28,0.12,0.53,0.3,0.77,0.55L124.6,87
			H125.82z M123.69,92.05c0.24-0.12,0.45-0.3,0.63-0.53v-2.93c-0.35-0.42-0.79-0.63-1.3-0.63c-0.87,0-1.3,0.62-1.3,1.85v0.57
			c0,0.69,0.1,1.17,0.31,1.44c0.21,0.27,0.51,0.41,0.9,0.41C123.2,92.24,123.45,92.18,123.69,92.05z"/>
		<path class="st0" d="M131.91,86.97l-0.26,1.38c-0.12-0.02-0.25-0.04-0.38-0.04c-0.38,0-0.72,0.1-1,0.29
			c-0.28,0.19-0.51,0.51-0.68,0.96v3.81h-1.48V87h1.08l0.24,1c0.18-0.39,0.42-0.68,0.72-0.87c0.31-0.19,0.64-0.28,1-0.28
			C131.42,86.85,131.67,86.89,131.91,86.97z"/>
		<path class="st0" d="M137.25,87.42c0.41,0.39,0.62,0.94,0.62,1.65v4.3h-1.16l-0.12-0.61c-0.52,0.51-1.15,0.77-1.89,0.77
			c-0.38,0-0.74-0.07-1.06-0.22c-0.32-0.15-0.58-0.36-0.77-0.63c-0.19-0.28-0.29-0.59-0.29-0.95v-0.42c0-0.56,0.24-1,0.71-1.34
			c0.47-0.34,1.12-0.5,1.94-0.5h1.17v-0.43c0-0.37-0.09-0.65-0.28-0.82c-0.19-0.17-0.47-0.26-0.86-0.26c-0.34,0-0.65,0.04-0.94,0.12
			c-0.29,0.08-0.6,0.2-0.92,0.36l-0.45-0.92c0.73-0.45,1.55-0.67,2.44-0.67C136.22,86.83,136.83,87.03,137.25,87.42z M135.76,92.26
			c0.24-0.1,0.46-0.26,0.64-0.47v-1.41h-1.03c-0.88,0-1.32,0.32-1.32,0.97v0.24c0,0.26,0.08,0.46,0.23,0.6
			c0.16,0.15,0.39,0.22,0.7,0.22C135.26,92.42,135.52,92.37,135.76,92.26z"/>
		<path class="st0" d="M140.35,92.68c-0.51-0.56-0.77-1.3-0.77-2.24V89.9c0-0.94,0.26-1.69,0.77-2.24c0.51-0.55,1.23-0.83,2.15-0.83
			c0.42,0,0.81,0.07,1.15,0.2c0.34,0.14,0.66,0.35,0.96,0.63l-0.71,0.79c-0.2-0.18-0.4-0.3-0.61-0.38
			c-0.21-0.08-0.45-0.12-0.73-0.12c-0.48,0-0.85,0.16-1.11,0.48c-0.26,0.32-0.39,0.8-0.39,1.44v0.59c0,0.64,0.13,1.12,0.38,1.45
			c0.25,0.33,0.62,0.49,1.11,0.49c0.26,0,0.5-0.04,0.72-0.13c0.22-0.09,0.44-0.22,0.68-0.38l0.61,0.87
			c-0.27,0.22-0.59,0.4-0.96,0.54c-0.37,0.14-0.74,0.21-1.12,0.21C141.58,93.52,140.87,93.24,140.35,92.68z"/>
		<path class="st0" d="M154.35,87.21c0.45,0.26,0.8,0.61,1.03,1.07c0.23,0.45,0.35,0.98,0.35,1.57v0.65c0,0.92-0.26,1.65-0.79,2.2
			c-0.53,0.55-1.27,0.83-2.23,0.83c-0.95,0-1.68-0.27-2.2-0.83c-0.52-0.55-0.78-1.28-0.78-2.2v-0.65c0-0.59,0.11-1.11,0.34-1.57
			c0.23-0.46,0.56-0.81,1.01-1.07c0.45-0.26,0.99-0.38,1.63-0.38C153.35,86.83,153.89,86.96,154.35,87.21z M151.21,85.38l2.49-1.33
			l0.51,0.98l-2.61,1.14L151.21,85.38z M151.6,88.43c-0.26,0.32-0.38,0.78-0.38,1.39v0.67c0,0.63,0.13,1.11,0.38,1.43
			c0.25,0.32,0.62,0.48,1.12,0.48c0.49,0,0.87-0.16,1.14-0.48s0.39-0.8,0.39-1.43v-0.67c0-0.61-0.13-1.07-0.39-1.39
			c-0.26-0.32-0.64-0.48-1.14-0.48C152.22,87.95,151.85,88.11,151.6,88.43z"/>
		<path class="st0" d="M162.31,87.39c0.39,0.38,0.58,0.9,0.58,1.57v4.4h-1.48v-4.28c0-0.75-0.33-1.12-0.99-1.12
			c-0.54,0-1,0.26-1.38,0.79v4.62h-1.48V87h1.27l0.1,0.65c0.45-0.54,1.08-0.81,1.89-0.81C161.42,86.83,161.92,87.02,162.31,87.39z"
			/>
		<path class="st0" d="M80.43,99.52v2.38h3.12v1.16h-3.12v2.5h3.39v1.17h-4.89v-8.38h4.89v1.16H80.43z"/>
		<path class="st0" d="M86.09,106.06c-0.51-0.56-0.77-1.3-0.77-2.24v-0.54c0-0.94,0.26-1.69,0.77-2.24
			c0.51-0.55,1.23-0.83,2.15-0.83c0.42,0,0.81,0.07,1.15,0.2c0.34,0.14,0.66,0.35,0.96,0.63l-0.71,0.79c-0.2-0.18-0.4-0.3-0.61-0.38
			c-0.21-0.08-0.45-0.12-0.73-0.12c-0.48,0-0.85,0.16-1.11,0.48c-0.26,0.32-0.39,0.8-0.39,1.44v0.59c0,0.64,0.13,1.12,0.38,1.45
			c0.25,0.33,0.62,0.49,1.11,0.49c0.26,0,0.5-0.04,0.72-0.13c0.22-0.09,0.44-0.22,0.68-0.38l0.61,0.87
			c-0.27,0.22-0.59,0.4-0.96,0.54c-0.37,0.14-0.74,0.21-1.12,0.21C87.31,106.89,86.6,106.61,86.09,106.06z"/>
		<path class="st0" d="M95.99,100.59c0.45,0.26,0.8,0.61,1.03,1.07c0.23,0.45,0.35,0.98,0.35,1.57v0.65c0,0.92-0.26,1.65-0.79,2.2
			c-0.53,0.55-1.27,0.83-2.23,0.83c-0.95,0-1.68-0.27-2.2-0.83c-0.52-0.55-0.78-1.28-0.78-2.2v-0.65c0-0.59,0.11-1.11,0.34-1.57
			c0.23-0.46,0.56-0.81,1.01-1.07c0.45-0.26,0.99-0.38,1.63-0.38C94.99,100.2,95.53,100.33,95.99,100.59z M93.24,101.8
			c-0.26,0.32-0.38,0.78-0.38,1.39v0.67c0,0.63,0.13,1.11,0.38,1.43c0.25,0.32,0.62,0.48,1.12,0.48c0.49,0,0.87-0.16,1.14-0.48
			s0.39-0.8,0.39-1.43v-0.67c0-0.61-0.13-1.07-0.39-1.39c-0.26-0.32-0.64-0.48-1.14-0.48C93.86,101.33,93.49,101.49,93.24,101.8z"/>
		<path class="st0" d="M103.95,100.77c0.39,0.38,0.58,0.9,0.58,1.57v4.4h-1.48v-4.28c0-0.75-0.33-1.12-0.99-1.12
			c-0.54,0-1,0.26-1.38,0.79v4.62H99.2v-6.37h1.27l0.1,0.65c0.45-0.54,1.08-0.81,1.89-0.81
			C103.06,100.2,103.56,100.39,103.95,100.77z"/>
		<path class="st0" d="M110.86,100.59c0.45,0.26,0.8,0.61,1.03,1.07c0.23,0.45,0.35,0.98,0.35,1.57v0.65c0,0.92-0.26,1.65-0.79,2.2
			c-0.53,0.55-1.27,0.83-2.23,0.83c-0.95,0-1.68-0.27-2.2-0.83c-0.52-0.55-0.78-1.28-0.78-2.2v-0.65c0-0.59,0.11-1.11,0.34-1.57
			c0.23-0.46,0.56-0.81,1.01-1.07c0.45-0.26,0.99-0.38,1.63-0.38C109.86,100.2,110.41,100.33,110.86,100.59z M107.73,98.76
			l2.49-1.33l0.51,0.98l-2.61,1.14L107.73,98.76z M108.11,101.8c-0.26,0.32-0.38,0.78-0.38,1.39v0.67c0,0.63,0.13,1.11,0.38,1.43
			c0.25,0.32,0.62,0.48,1.12,0.48c0.49,0,0.87-0.16,1.14-0.48c0.26-0.32,0.39-0.8,0.39-1.43v-0.67c0-0.61-0.13-1.07-0.39-1.39
			c-0.26-0.32-0.64-0.48-1.14-0.48C108.74,101.33,108.36,101.49,108.11,101.8z"/>
		<path class="st0" d="M121.69,100.45c0.3,0.17,0.54,0.41,0.71,0.73c0.18,0.32,0.26,0.7,0.26,1.15v4.4h-1.47v-4.3
			c0-0.38-0.08-0.65-0.25-0.84c-0.16-0.18-0.37-0.27-0.63-0.27c-0.44,0-0.84,0.27-1.21,0.8v4.61h-1.48v-4.3
			c0-0.38-0.08-0.66-0.24-0.84c-0.16-0.18-0.37-0.27-0.62-0.27c-0.23,0-0.45,0.07-0.65,0.2c-0.2,0.14-0.39,0.34-0.57,0.61v4.6h-1.47
			v-6.37h1.27l0.08,0.65c0.45-0.54,1.03-0.81,1.72-0.81c0.35,0,0.68,0.08,0.98,0.25c0.3,0.17,0.54,0.41,0.71,0.72
			c0.49-0.65,1.11-0.97,1.87-0.97C121.06,100.2,121.39,100.29,121.69,100.45z"/>
		<path class="st0" d="M129.18,106.06c-0.51-0.56-0.77-1.3-0.77-2.24v-0.54c0-0.94,0.26-1.69,0.77-2.24
			c0.51-0.55,1.23-0.83,2.15-0.83c0.42,0,0.81,0.07,1.15,0.2c0.34,0.14,0.66,0.35,0.96,0.63l-0.71,0.79c-0.2-0.18-0.4-0.3-0.61-0.38
			c-0.21-0.08-0.45-0.12-0.73-0.12c-0.48,0-0.85,0.16-1.11,0.48c-0.26,0.32-0.39,0.8-0.39,1.44v0.59c0,0.64,0.13,1.12,0.38,1.45
			c0.25,0.33,0.62,0.49,1.11,0.49c0.26,0,0.5-0.04,0.72-0.13c0.22-0.09,0.44-0.22,0.68-0.38l0.61,0.87
			c-0.27,0.22-0.59,0.4-0.96,0.54c-0.37,0.14-0.74,0.21-1.12,0.21C130.4,106.89,129.69,106.61,129.18,106.06z"/>
		<path class="st0" d="M139.1,100.8c0.41,0.39,0.62,0.94,0.62,1.65v4.3h-1.16l-0.12-0.61c-0.52,0.51-1.15,0.77-1.89,0.77
			c-0.38,0-0.74-0.07-1.06-0.22c-0.32-0.15-0.58-0.36-0.77-0.63c-0.19-0.28-0.29-0.59-0.29-0.95v-0.42c0-0.56,0.24-1,0.71-1.34
			c0.47-0.34,1.12-0.5,1.94-0.5h1.17v-0.43c0-0.37-0.09-0.65-0.28-0.82c-0.19-0.17-0.47-0.26-0.86-0.26c-0.34,0-0.65,0.04-0.94,0.12
			c-0.29,0.08-0.6,0.2-0.92,0.36l-0.45-0.92c0.73-0.45,1.55-0.67,2.44-0.67C138.07,100.2,138.69,100.4,139.1,100.8z M137.61,105.64
			c0.24-0.1,0.46-0.26,0.64-0.47v-1.41h-1.03c-0.88,0-1.32,0.32-1.32,0.97v0.24c0,0.26,0.08,0.46,0.23,0.6
			c0.16,0.15,0.39,0.22,0.7,0.22C137.11,105.79,137.37,105.74,137.61,105.64z"/>
		<polygon class="st0" points="98.81,86.58 98.81,86.15 98.81,84.99 97.3,84.99 97.3,86.15 97.3,86.58 97.3,91.44 97.3,92.2 
			97.3,93.36 98.81,93.36 98.81,92.2 98.81,91.7 		"/>
		<polygon class="st0" points="146.39,88.1 146.39,89.07 146.39,93.36 147.87,93.36 147.87,87 146.39,87 		"/>
		<path class="st0" d="M147.13,86c0.25,0,0.46-0.09,0.63-0.26c0.18-0.17,0.26-0.38,0.26-0.63c0-0.26-0.09-0.47-0.26-0.64
			c-0.18-0.17-0.39-0.26-0.63-0.26c-0.25,0-0.46,0.09-0.63,0.26c-0.18,0.18-0.26,0.39-0.26,0.63c0,0.25,0.09,0.46,0.26,0.63
			C146.67,85.92,146.88,86,147.13,86z"/>
		<path class="st0" d="M148.48,72.63c0.25,0,0.46-0.09,0.63-0.26c0.18-0.17,0.26-0.38,0.26-0.63c0-0.26-0.09-0.47-0.26-0.64
			c-0.18-0.17-0.39-0.26-0.63-0.26c-0.25,0-0.46,0.09-0.63,0.26c-0.18,0.18-0.26,0.39-0.26,0.63c0,0.25,0.09,0.46,0.26,0.63
			C148.02,72.54,148.23,72.63,148.48,72.63z"/>
		<polygon class="st0" points="147.74,74.72 147.74,75.42 147.74,79.99 149.22,79.99 149.22,73.62 147.74,73.62 		"/>
		<path class="st0" d="M125.8,99.38c0.25,0,0.46-0.09,0.63-0.26c0.18-0.17,0.26-0.38,0.26-0.63c0-0.26-0.09-0.47-0.26-0.64
			c-0.18-0.17-0.39-0.26-0.63-0.26c-0.25,0-0.46,0.09-0.63,0.26c-0.18,0.18-0.26,0.39-0.26,0.63c0,0.25,0.09,0.46,0.26,0.63
			C125.34,99.29,125.55,99.38,125.8,99.38z"/>
		<polygon class="st0" points="125.06,101.47 125.06,102.15 125.06,106.74 126.54,106.74 126.54,100.37 125.06,100.37 		"/>
	</g>
</g>
</svg>
