<?xml version="1.0" encoding="utf-8"?>
<!-- Generator: Adobe Illustrator 24.0.2, SVG Export Plug-In . SVG Version: 6.00 Build 0)  -->
<svg version="1.1" id="Layer_1" xmlns="http://www.w3.org/2000/svg" xmlns:xlink="http://www.w3.org/1999/xlink" x="0px" y="0px"
	 viewBox="0 0 200 200" style="enable-background:new 0 0 200 200;" xml:space="preserve">
<style type="text/css">
	.st0{fill-rule:evenodd;clip-rule:evenodd;fill:#FAF7E8;}
</style>
<g>
	<g>
		<g>
			<path class="st0" d="M101.32,54.42c11.96,0.2,23.69,2.69,34.67,8.3c6.36,3.25,12.04,7.42,16.72,12.86
				c4.16,4.84,7.15,10.29,8.47,16.59c1.49,7.11,0.61,13.95-2.45,20.51c-2.91,6.25-7.31,11.32-12.63,15.62
				c-4.04,3.27-8.47,5.9-13.18,8.06c-1,0.46-2,0.14-2.56-0.81c-0.37-0.64-0.52-1.34-0.45-2.06c0.06-0.65,0.44-1.06,1.05-1.32
				c3.47-1.5,6.79-3.29,9.89-5.47c5.2-3.65,9.57-8.05,12.63-13.67c2.78-5.1,4.04-10.55,3.59-16.35c-0.45-5.89-2.66-11.12-6.14-15.84
				c-4.13-5.59-9.44-9.79-15.48-13.11c-7.01-3.86-14.53-6.25-22.41-7.53c-5.21-0.85-10.46-1.19-15.74-1
				c-10.75,0.39-21.05,2.66-30.72,7.48c-5.43,2.71-10.35,6.15-14.51,10.6c-3.83,4.09-6.71,8.75-8.21,14.19
				c-1.76,6.37-1.18,12.54,1.7,18.45c5.63,11.56,14.59,19.4,26.75,23.56c1.15,0.39,1.51,0.96,1.29,2.16
				c-0.12,0.65-0.32,1.27-0.83,1.74c-0.61,0.58-1.32,0.8-2.14,0.54c-10.82-3.48-19.74-9.58-26.12-19.13
				c-3.11-4.65-5.19-9.74-6.02-15.28c-0.97-6.51,0.03-12.74,2.8-18.7c3.01-6.47,7.59-11.66,13.17-16.01
				c7.25-5.65,15.46-9.35,24.31-11.69c5.43-1.44,10.96-2.27,16.57-2.57C97.23,54.45,99.12,54.43,101.32,54.42z"/>
			<path class="st0" d="M80.02,88.83c2.29-2.56,5.46-3.36,8.58-2.14c2.44,0.95,3.63,2.9,4.17,5.35c0.15,0.66,0.18,1.34,0.18,2.02
				c0,5.97,0,11.93,0,17.9c0,1.13-0.13,1.25-1.27,1.25c-1.39,0-2.68-0.29-3.73-1.28c-0.86-0.81-1.25-1.82-1.25-2.99
				c0-4.54,0-9.07,0-13.6c0-1.31-0.14-2.58-1.07-3.62c-1.57-1.77-4.56-1.41-5.61,0.7c-0.12,0.24-0.07,0.51-0.07,0.76
				c0,6.21,0,12.41,0,18.62c0,0.26-0.01,0.52-0.04,0.77c-0.04,0.34-0.26,0.53-0.57,0.61c-1.78,0.48-4.33-0.67-5.16-2.32
				c-0.29-0.58-0.43-1.19-0.43-1.84c0-11.08,0-22.16,0-33.23c0-0.95,0.21-1.15,1.16-1.15c0.68-0.01,1.35,0.06,2,0.26
				c1.88,0.56,3.02,2.05,3.03,4.02c0.01,3.16,0,6.32,0,9.49C79.93,88.53,79.89,88.68,80.02,88.83z"/>
			<path class="st0" d="M139.74,86.25c2.02-0.03,3.96,0.29,5.69,1.41c1.17,0.76,2.05,1.75,2.4,3.14c0.3,1.21-0.14,2.36-1.11,2.89
				c-1.02,0.56-2.29,0.32-3.14-0.59c-0.45-0.49-0.73-1.08-1.06-1.65c-0.54-0.93-1.26-1.64-2.35-1.86c-1.34-0.27-2.49,0.18-3.18,1.22
				c-0.71,1.07-0.68,2.51,0.07,3.59c0.62,0.9,1.54,1.41,2.51,1.86c1.57,0.72,3.17,1.38,4.68,2.2c1.73,0.94,3.18,2.16,3.95,4.05
				c1.4,3.44,0.32,9.26-5.7,10.44c-2.75,0.54-5.46,0.37-8.05-0.81c-1.59-0.72-2.83-1.83-3.56-3.45c-0.36-0.8-0.47-1.64-0.17-2.49
				c0.61-1.69,2.61-2.24,4-1.1c0.56,0.46,0.96,1.06,1.37,1.64c0.45,0.63,0.91,1.26,1.48,1.78c1.71,1.55,4.44,1.03,5.24-1
				c0.52-1.31,0.12-2.84-0.97-3.86c-0.94-0.87-2.1-1.34-3.22-1.9c-1.17-0.58-2.4-1.05-3.52-1.73c-1.93-1.15-3.41-2.68-3.9-4.96
				c-0.88-4.11,1.53-7.74,5.7-8.6c0.47-0.1,0.94-0.18,1.41-0.22C138.79,86.23,139.27,86.25,139.74,86.25z"/>
			<path class="st0" d="M50.13,99.48c0.02-2.38,0.49-5.2,1.92-7.78c2.14-3.88,5.51-5.57,9.87-5.38c2.74,0.12,5.06,1.14,6.71,3.41
				c0.73,1,1.2,2.11,1.1,3.38c-0.09,1.15-0.91,2.15-1.99,2.42c-1.16,0.29-2.27-0.17-2.9-1.24c-0.32-0.55-0.56-1.14-0.86-1.69
				c-0.59-1.07-1.32-2-2.59-2.3c-1.52-0.35-2.79,0.17-3.82,1.28c-1.41,1.53-1.95,3.43-2.1,5.45c-0.21,2.84,0.26,5.55,1.83,7.98
				c0.94,1.46,2.22,2.49,4.01,2.71c2.12,0.26,3.75-0.61,4.99-2.28c0.4-0.54,0.74-1.13,1.14-1.68c0.47-0.65,0.95-0.85,1.51-0.66
				c0.51,0.17,0.91,0.72,0.9,1.42c-0.06,3.4-1.66,5.95-4.53,7.62c-4.98,2.9-11.13,0.81-13.63-4.54
				C50.66,105.37,50.14,102.84,50.13,99.48z"/>
			<path class="st0" d="M115.26,95.43c0,5.43,0,10.86,0,16.29c0,0.18,0.01,0.36,0,0.54c-0.05,0.77-0.24,0.95-1.04,0.96
				c-1.52,0.03-2.93-0.25-4.06-1.37c-0.78-0.77-1.16-1.71-1.16-2.78c-0.01-11.16,0-22.31,0-33.47c0-0.72,0.19-0.92,0.91-0.95
				c1.51-0.06,2.93,0.19,4.09,1.27c0.95,0.89,1.26,2.02,1.26,3.29C115.26,84.61,115.26,90.02,115.26,95.43z"/>
			<path class="st0" d="M126.43,100.13c0,3.96,0,7.91,0,11.87c0,1.05-0.17,1.2-1.21,1.21c-0.87,0.01-1.71-0.09-2.5-0.44
				c-1.61-0.7-2.53-1.92-2.54-3.69c-0.02-7.1-0.01-14.2-0.01-21.3c0-0.71,0.21-0.93,0.92-0.93c1.41-0.01,2.82-0.01,4.23,0
				c0.84,0,1.07,0.21,1.1,1.05c0.02,0.52,0,1.03,0,1.55C126.43,93.01,126.43,96.57,126.43,100.13z"/>
			<path class="st0" d="M104.1,100.14c0,3.98,0,7.95,0,11.93c0,0.96-0.18,1.12-1.15,1.14c-0.97,0.02-1.91-0.11-2.78-0.54
				c-1.48-0.74-2.31-1.94-2.32-3.6c-0.02-7.08-0.01-14.16-0.01-21.24c0-0.78,0.21-0.98,1-0.98c1.33-0.01,2.67,0,4,0
				c1.06,0,1.26,0.19,1.26,1.24C104.11,92.11,104.1,96.12,104.1,100.14z"/>
			<path class="st0" d="M121.88,126.57c1.76,0.01,3.24,0.27,4.5,1.21c0.81,0.6,1.4,1.36,1.47,2.41c0.05,0.84-0.34,1.47-1.01,1.72
				c-0.76,0.29-1.57,0.09-2.09-0.57c-0.27-0.34-0.47-0.73-0.7-1.11c-0.36-0.6-0.83-1.07-1.52-1.25c-0.98-0.26-1.9,0.1-2.39,0.9
				c-0.51,0.84-0.38,1.95,0.3,2.71c0.44,0.48,0.99,0.78,1.57,1.05c1.11,0.52,2.26,0.99,3.33,1.58c2.97,1.63,3.92,4.69,2.41,7.54
				c-0.61,1.14-1.54,1.93-2.76,2.32c-2.22,0.73-4.43,0.65-6.57-0.28c-1.26-0.55-2.24-1.44-2.66-2.81c-0.3-0.97,0.03-1.9,0.8-2.34
				c0.83-0.46,1.74-0.24,2.43,0.6c0.46,0.57,0.87,1.19,1.35,1.74c0.67,0.77,1.55,1.03,2.54,0.78c0.78-0.19,1.28-0.71,1.47-1.49
				c0.29-1.14-0.24-2.23-1.43-2.95c-0.97-0.59-2.01-1.03-3.04-1.51c-1.32-0.61-2.51-1.38-3.26-2.68c-1.38-2.37-0.76-6.67,3.8-7.45
				C120.99,126.61,121.55,126.54,121.88,126.57z"/>
			<path class="st0" d="M136.67,77.21c-0.34,3.86-2.23,6.7-5.61,8.57c-0.09,0.05-0.18,0.08-0.28,0.11
				c-0.77,0.27-1.32,0.16-1.66-0.34c-0.34-0.5-0.22-1.15,0.34-1.72c0.51-0.53,1.05-1.03,1.5-1.62c1.11-1.45,1.14-2.52,0.11-4.02
				c-0.52-0.76-1.04-1.51-1-2.5c0.08-1.99,1.89-3.22,3.9-2.65c1.62,0.46,2.62,1.89,2.69,3.81
				C136.68,76.97,136.67,77.09,136.67,77.21z"/>
			<path class="st0" d="M118.65,121.25c-0.29,2.73-1.86,5.06-4.62,6.6c-0.14,0.08-0.29,0.12-0.45,0.16c-0.46,0.1-0.9,0.08-1.15-0.38
				c-0.23-0.44-0.18-0.89,0.17-1.27c0.4-0.44,0.84-0.85,1.22-1.3c1.04-1.24,1.09-2.15,0.19-3.49c-0.42-0.63-0.85-1.25-0.79-2.06
				c0.13-1.76,1.76-2.71,3.48-2.05C117.96,117.93,118.69,119.19,118.65,121.25z"/>
			<path class="st0" d="M97.51,80.29c0.01-2.03,1.39-3.26,3.66-3.25c1.96,0.01,3.3,1.32,3.3,3.23c0,1.89-1.44,3.21-3.48,3.2
				C98.88,83.45,97.5,82.19,97.51,80.29z"/>
			<path class="st0" d="M123.02,83.47c-1.18-0.06-2.41-0.42-3.05-1.79c-0.99-2.12,0.42-4.46,2.78-4.63
				c1.83-0.13,3.13,0.56,3.65,1.94C127.29,81.3,125.75,83.46,123.02,83.47z"/>
			<path class="st0" d="M112.36,130.52c-1.19-0.95-1.95-2.11-2.38-3.54c-0.25-0.84-0.61-1.63-1.11-2.36
				c-0.91-1.31-2.18-1.78-3.73-1.56c-0.65,0.09-1.27,0.31-1.86,0.61c-1.81,0.91-3.27,2.24-4.51,3.82c-1.79,2.28-3.9,4.19-6.33,5.74
				c-1.72,1.1-3.6,1.76-5.65,1.84c-1.28,0.05-2.52-0.29-3.78-0.43c-1.92-0.22-3.82-0.2-5.57,0.76c-1.95,1.07-2.27,2.76-0.78,4.4
				c1.9,2.09,4.33,3.4,6.95,4.34c3.2,1.15,6.56,1.32,9.91,1.43c3.87,0.12,7.51-0.82,11.04-2.35c2.89-1.26,5.48-2.96,7.71-5.19
				c0.27-0.27,0.52-0.55,0.76-0.84C114.9,134.85,114.7,132.39,112.36,130.52z M95.21,136.43c-0.84,0.81-1.91,0.99-3.03,1.06
				c-0.42-0.02-0.87,0-1.26-0.23c-0.17-0.1-0.28-0.23-0.27-0.43c0.01-0.19,0.19-0.26,0.34-0.28c1.22-0.16,2.21-0.84,3.24-1.43
				c0.38-0.22,0.78-0.37,1.11,0.08C95.66,135.63,95.58,136.07,95.21,136.43z M106.67,128.17c-0.25,0.39-0.58,0.71-0.94,0.99
				c-2.22,1.68-4.38,3.43-6.68,4.99c-0.48,0.32-0.97,0.62-1.54,0.77c-0.42,0.11-0.79,0.04-1.02-0.38c-0.21-0.4-0.11-0.76,0.23-1
				c2.32-1.68,3.98-4.04,6.05-5.97c0.73-0.68,1.5-1.31,2.52-1.51c0.9-0.18,1.69,0.44,1.68,1.3
				C106.98,127.66,106.84,127.92,106.67,128.17z"/>
		</g>
	</g>
</g>
</svg>
