<?xml version="1.0" encoding="utf-8"?>
<!-- Generator: Adobe Illustrator 24.0.2, SVG Export Plug-In . SVG Version: 6.00 Build 0)  -->
<svg version="1.1" id="Layer_1" xmlns="http://www.w3.org/2000/svg" xmlns:xlink="http://www.w3.org/1999/xlink" x="0px" y="0px"
	 viewBox="0 0 200 200" style="enable-background:new 0 0 200 200;" xml:space="preserve">
<style type="text/css">
	.st0{fill:#FAF7E8;}
</style>
<path class="st0" d="M100,54.42c-25.13,0-45.58,20.44-45.58,45.57c0,25.13,20.45,45.58,45.58,45.58c7.53,0,14.98-1.87,21.55-5.41
	l0.83-0.45l-28.11-31.76l-0.02,16.59c0,5.83-4.41,10.23-10.27,10.23c-2.78,0-5.36-1.03-7.27-2.9c-1.93-1.9-3-4.5-3-7.33V75.49
	c0-5.86,4.41-10.27,10.26-10.27c5.85,0,10.27,4.42,10.27,10.27v13.47l14.3-19.2c3.51-4.69,9.69-5.59,14.39-2.1
	c4.65,3.48,5.57,9.59,2.17,14.26L113,98.15l24.58,27.66l0.54-0.82c4.89-7.43,7.47-16.07,7.47-24.99
	C145.58,74.87,125.13,54.42,100,54.42z"/>
</svg>
