<?xml version="1.0" encoding="utf-8"?>
<!-- Generator: Adobe Illustrator 24.0.2, SVG Export Plug-In . SVG Version: 6.00 Build 0)  -->
<svg version="1.1" id="Layer_1" xmlns="http://www.w3.org/2000/svg" xmlns:xlink="http://www.w3.org/1999/xlink" x="0px" y="0px"
	 viewBox="0 0 200 200" style="enable-background:new 0 0 200 200;" xml:space="preserve">
<style type="text/css">
	.st0{fill-rule:evenodd;clip-rule:evenodd;fill:#FAF7E8;}
</style>
<g>
	<path class="st0" d="M140.02,101.24c-2.48-2.48-5.47-3.69-8.87-3.69s-6.34,1.21-8.76,3.69c-2.48,2.48-3.69,5.47-3.69,8.93
		c0,3.46,1.21,6.45,3.69,8.87c2.42,2.48,5.36,3.75,8.76,3.75s6.4-1.27,8.87-3.75c2.42-2.42,3.63-5.42,3.63-8.87
		C143.65,106.71,142.44,103.72,140.02,101.24L140.02,101.24z M135.81,114.84c-1.27,1.33-2.82,1.96-4.67,1.96
		c-1.79,0-3.34-0.63-4.61-1.96c-1.27-1.33-1.96-2.88-1.96-4.67c0-1.9,0.69-3.46,1.96-4.72c1.27-1.33,2.82-1.96,4.61-1.9
		c1.84-0.06,3.4,0.58,4.72,1.9c1.21,1.27,1.84,2.82,1.9,4.72C137.71,111.96,137.08,113.51,135.81,114.84L135.81,114.84z"/>
	<path class="st0" d="M52.26,91.39c-4.32-0.06-7.89,1.44-10.89,4.55c-3.05,3.05-4.55,6.68-4.55,11.01c0,4.26,1.5,8.01,4.55,11.06
		c3,3,6.57,4.49,10.89,4.49c3.46,0,6.63-1.04,9.39-3.17c2.71-2.19,4.49-4.9,5.42-8.24h-6.28c-0.81,1.61-1.96,2.94-3.4,3.98
		c-1.61,0.98-3.28,1.5-5.13,1.5c-2.65,0-4.9-0.98-6.74-2.82c-1.9-1.9-2.82-4.15-2.77-6.8c-0.06-2.65,0.86-4.9,2.77-6.8
		c1.84-1.84,4.09-2.82,6.74-2.82c1.84,0,3.51,0.52,5.13,1.56c1.44,0.98,2.59,2.36,3.4,3.98h6.28c-0.92-3.34-2.71-6.11-5.42-8.24
		C58.89,92.42,55.72,91.33,52.26,91.39L52.26,91.39z"/>
	<path class="st0" d="M90.29,97.49c-4.03-0.06-6.86,1.04-8.47,3.17c-1.04,1.33-1.56,3.05-1.73,5.24h5.99
		c0.12-1.04,0.46-1.73,0.86-2.19c0.63-0.81,1.67-1.21,3.17-1.15c1.27-0.06,2.25,0.17,2.94,0.58c0.69,0.35,0.98,1.04,1.04,2.02
		c0,0.81-0.46,1.44-1.38,1.84l-4.61,0.75c-2.13,0.29-3.86,0.81-5.19,1.56c-2.25,1.33-3.34,3.46-3.28,6.51
		c-0.06,2.13,0.63,3.86,2.02,5.13c1.21,1.04,2.88,1.61,4.9,1.67c3.28-0.06,5.88-0.86,7.72-2.48v2.48h5.99v-17.63
		c0-2.88-1.04-4.9-3-5.93C95.19,97.95,92.88,97.44,90.29,97.49L90.29,97.49z M92.83,111.03l1.15-0.63v2.42
		c0,2.07-0.58,3.52-1.67,4.32c-1.15,0.81-2.36,1.21-3.75,1.21c-0.86,0-1.56-0.23-2.13-0.69c-0.58-0.52-0.86-1.27-0.86-2.36
		c0-1.21,0.46-2.07,1.44-2.71c0.58-0.35,1.56-0.63,2.82-0.81L92.83,111.03L92.83,111.03z"/>
	<polygon class="st0" points="76.12,91.39 70.12,91.39 70.12,122.62 76.12,122.62 76.12,91.39 	"/>
	<path class="st0" d="M114.26,98.36c-1.61,0.63-3.05,1.73-4.26,3.4V98.7l-5.7-0.06v23.97h5.94v-11.47c0-1.96,0.23-3.34,0.75-4.21
		c0.4-0.92,1.15-1.67,2.07-2.3c1.04-0.69,2.13-1.04,3.28-1.04l1.84,0.12l-0.06-6.11l-1.56,0.12L114.26,98.36L114.26,98.36z"/>
	<polygon class="st0" points="144.68,98.47 159.15,84.01 155.34,80.21 140.88,94.67 144.68,98.47 	"/>
	<polygon class="st0" points="134.54,92.71 134.54,77.21 129.18,77.21 129.18,92.71 134.54,92.71 	"/>
	<polygon class="st0" points="147.33,104.47 147.33,109.82 163.18,109.82 163.18,104.47 147.33,104.47 	"/>
</g>
</svg>
