<?xml version="1.0" encoding="utf-8"?>
<!-- Generator: Adobe Illustrator 24.0.2, SVG Export Plug-In . SVG Version: 6.00 Build 0)  -->
<svg version="1.1" id="Layer_1" xmlns="http://www.w3.org/2000/svg" xmlns:xlink="http://www.w3.org/1999/xlink" x="0px" y="0px"
	 viewBox="0 0 200 200" style="enable-background:new 0 0 200 200;" xml:space="preserve">
<style type="text/css">
	.st0{fill:#FAF7E8;}
</style>
<g>
	<g>
		<polygon class="st0" points="100,63.54 102.49,71.78 110.53,71.78 104.02,76.87 106.51,85.11 100,80.02 93.49,85.11 95.98,76.87 
			89.47,71.78 97.51,71.78 		"/>
		<polygon class="st0" points="71.21,67.87 72.79,73.1 77.9,73.1 73.77,76.33 75.34,81.57 71.21,78.33 67.08,81.57 68.66,76.33 
			64.52,73.1 69.63,73.1 		"/>
		<polygon class="st0" points="49.67,69.2 50.97,73.41 55.16,73.41 51.77,76.02 53.06,80.24 49.67,77.63 46.28,80.24 47.57,76.02 
			44.18,73.41 48.37,73.41 		"/>
		<polygon class="st0" points="128.79,67.87 127.21,73.1 122.1,73.1 126.23,76.33 124.66,81.57 128.79,78.33 132.92,81.57 
			131.34,76.33 135.48,73.1 130.37,73.1 		"/>
		<polygon class="st0" points="150.33,69.2 149.03,73.41 144.84,73.41 148.23,76.02 146.94,80.24 150.33,77.63 153.72,80.24 
			152.43,76.02 155.82,73.41 151.63,73.41 		"/>
	</g>
	<g>
		
			<rect x="7.04" y="89.15" transform="matrix(-1 -4.490731e-11 4.490731e-11 -1 100.315 179.5721)" class="st0" width="86.24" height="1.28"/>
		<rect x="106.72" y="89.15" class="st0" width="86.24" height="1.28"/>
	</g>
	<g>
		<path class="st0" d="M16.8,106.54c0,0.19,0.07,0.32,0.2,0.4c0.13,0.07,0.38,0.15,0.75,0.22c0.1,0.02,0.14,0.1,0.14,0.23
			c0,0.06-0.01,0.13-0.03,0.23c-0.3-0.02-0.6-0.04-0.89-0.05c-0.3-0.01-0.58-0.02-0.85-0.02c-0.26,0-0.55,0.01-0.86,0.02
			c-0.31,0.01-0.61,0.03-0.89,0.05c-0.02-0.1-0.03-0.17-0.03-0.23c0-0.13,0.05-0.21,0.14-0.23c0.37-0.07,0.62-0.14,0.75-0.22
			c0.13-0.08,0.2-0.21,0.2-0.4V99.2c0-0.19-0.07-0.33-0.2-0.41c-0.13-0.08-0.38-0.15-0.75-0.21c-0.06-0.01-0.1-0.04-0.12-0.09
			c-0.02-0.05-0.03-0.1-0.03-0.16c0-0.06,0.01-0.13,0.03-0.23c0.29,0.02,0.59,0.04,0.9,0.05c0.31,0.01,0.59,0.02,0.84,0.02
			c0.24,0,0.52-0.01,0.83-0.02c0.31-0.01,0.62-0.03,0.92-0.05c0.02,0.1,0.03,0.17,0.03,0.23c0,0.14-0.05,0.23-0.14,0.24
			c-0.37,0.06-0.62,0.13-0.75,0.21c-0.13,0.08-0.2,0.22-0.2,0.41V106.54z"/>
		<path class="st0" d="M26.69,105.26v-6.03c0-0.21-0.08-0.36-0.23-0.45c-0.15-0.09-0.41-0.15-0.78-0.2
			c-0.11-0.01-0.16-0.09-0.16-0.24c0-0.06,0.01-0.13,0.03-0.23c0.24,0.02,0.49,0.04,0.74,0.05c0.25,0.01,0.49,0.02,0.71,0.02
			c0.21,0,0.43-0.01,0.66-0.02c0.23-0.01,0.46-0.03,0.68-0.05c0.02,0.1,0.03,0.17,0.03,0.23c0,0.15-0.05,0.24-0.14,0.24
			c-0.33,0.05-0.55,0.12-0.67,0.2c-0.12,0.09-0.18,0.23-0.18,0.42v8.49c-0.02,0.01-0.05,0.02-0.1,0.02c-0.05,0-0.09,0.01-0.12,0.01
			c-0.07,0-0.13-0.02-0.19-0.05c-0.06-0.03-0.12-0.1-0.2-0.21l-5.85-7.72v6.79c0,0.19,0.07,0.33,0.2,0.4
			c0.13,0.08,0.39,0.15,0.78,0.22c0.1,0.02,0.14,0.1,0.14,0.23c0,0.06-0.01,0.13-0.03,0.23c-0.24-0.02-0.48-0.04-0.73-0.05
			c-0.25-0.01-0.47-0.02-0.69-0.02c-0.19,0-0.42,0.01-0.68,0.02c-0.26,0.01-0.5,0.03-0.71,0.05c-0.02-0.1-0.03-0.17-0.03-0.23
			c0-0.13,0.05-0.21,0.16-0.23c0.35-0.07,0.58-0.14,0.7-0.22c0.12-0.08,0.18-0.21,0.18-0.4v-7.41c0-0.15-0.06-0.27-0.17-0.35
			c-0.11-0.08-0.34-0.15-0.69-0.19c-0.11-0.02-0.16-0.1-0.16-0.24c0-0.05,0-0.09,0.01-0.13c0-0.03,0-0.06,0.01-0.1
			c0.19,0.02,0.37,0.03,0.55,0.04c0.15,0.01,0.32,0.02,0.49,0.02c0.17,0.01,0.33,0.01,0.46,0.01c0.28,0,0.46,0.01,0.56,0.03
			c0.09,0.02,0.17,0.07,0.22,0.14L26.69,105.26z"/>
		<path class="st0" d="M35.65,100.44c-0.1,0.02-0.17,0.03-0.22,0.03c-0.12,0-0.22-0.02-0.27-0.07c-0.06-0.05-0.1-0.1-0.13-0.16
			c-0.25-0.55-0.55-0.95-0.89-1.2c-0.35-0.25-0.82-0.38-1.41-0.38c-0.23,0-0.45,0.03-0.66,0.09c-0.21,0.06-0.39,0.15-0.54,0.27
			c-0.15,0.12-0.28,0.27-0.37,0.44s-0.14,0.37-0.14,0.58c0,0.45,0.19,0.82,0.57,1.11c0.38,0.29,0.94,0.58,1.68,0.88
			c0.92,0.37,1.6,0.77,2.04,1.22c0.44,0.45,0.66,1,0.66,1.65c0,0.39-0.06,0.76-0.18,1.1c-0.12,0.34-0.31,0.64-0.56,0.89
			c-0.25,0.25-0.58,0.45-0.99,0.6c-0.4,0.14-0.89,0.22-1.46,0.22c-0.6,0-1.14-0.06-1.62-0.19c-0.49-0.12-0.9-0.29-1.23-0.49
			c-0.03-0.4-0.07-0.79-0.13-1.17c-0.06-0.37-0.12-0.75-0.2-1.12c0.07-0.03,0.15-0.04,0.25-0.04c0.12,0,0.2,0.03,0.27,0.08
			c0.06,0.05,0.12,0.14,0.17,0.25c0.24,0.69,0.55,1.2,0.93,1.53c0.38,0.33,0.91,0.49,1.59,0.49c0.31,0,0.58-0.04,0.81-0.13
			c0.23-0.09,0.42-0.21,0.58-0.36c0.15-0.15,0.27-0.33,0.35-0.52c0.08-0.19,0.12-0.4,0.12-0.62c0-0.5-0.17-0.89-0.51-1.18
			c-0.34-0.29-0.83-0.55-1.46-0.78c-0.41-0.15-0.79-0.31-1.12-0.48c-0.34-0.17-0.63-0.36-0.87-0.58c-0.24-0.22-0.43-0.48-0.55-0.77
			c-0.13-0.29-0.19-0.64-0.19-1.05c0-0.36,0.06-0.69,0.19-1c0.13-0.31,0.32-0.58,0.56-0.81s0.54-0.41,0.89-0.55
			c0.35-0.13,0.74-0.2,1.17-0.2c0.45,0,0.88,0.04,1.3,0.13c0.41,0.09,0.88,0.23,1.4,0.43c0.02,0.29,0.05,0.6,0.08,0.93
			C35.55,99.84,35.59,100.15,35.65,100.44z"/>
		<path class="st0" d="M41.99,98.77v7.7c0,0.22,0.09,0.38,0.27,0.47c0.18,0.09,0.49,0.16,0.92,0.21c0.11,0,0.16,0.08,0.16,0.23
			c0,0.07-0.01,0.15-0.03,0.24c-0.31-0.02-0.63-0.04-0.97-0.05c-0.34-0.01-0.69-0.02-1.03-0.02c-0.34,0-0.68,0.01-1.03,0.02
			c-0.35,0.01-0.68,0.03-0.99,0.05c-0.02-0.1-0.03-0.18-0.03-0.24c0-0.13,0.05-0.21,0.14-0.23c0.43-0.06,0.74-0.13,0.94-0.22
			c0.19-0.09,0.29-0.24,0.29-0.46v-7.7h-1.49c-0.29,0-0.53,0.03-0.73,0.09c-0.2,0.06-0.37,0.14-0.51,0.26
			c-0.14,0.12-0.27,0.26-0.37,0.45c-0.11,0.18-0.22,0.39-0.33,0.63c-0.02,0.05-0.05,0.08-0.09,0.1c-0.04,0.02-0.08,0.03-0.12,0.03
			c-0.11,0-0.2-0.03-0.27-0.09c0.1-0.35,0.17-0.65,0.22-0.92c0.05-0.27,0.09-0.49,0.13-0.67c0.04-0.18,0.08-0.31,0.12-0.41
			c0.04-0.1,0.11-0.14,0.21-0.14c0.07,0,0.16,0.01,0.29,0.01c0.12,0.01,0.26,0.02,0.4,0.03c0.14,0.01,0.28,0.02,0.43,0.03
			c0.14,0.01,0.28,0.01,0.4,0.01h4.82c0.12,0,0.25,0,0.39-0.01c0.14-0.01,0.29-0.02,0.43-0.03c0.14-0.01,0.28-0.02,0.4-0.03
			c0.12-0.01,0.22-0.01,0.3-0.01c0.1,0,0.17,0.05,0.21,0.15c0.04,0.1,0.08,0.24,0.12,0.43s0.08,0.41,0.12,0.68
			c0.04,0.27,0.12,0.57,0.22,0.89c-0.05,0.02-0.09,0.04-0.14,0.06c-0.04,0.02-0.09,0.03-0.15,0.03c-0.04,0-0.08-0.01-0.13-0.03
			c-0.05-0.02-0.08-0.05-0.1-0.1c-0.11-0.24-0.21-0.45-0.32-0.63c-0.11-0.18-0.23-0.33-0.37-0.45c-0.14-0.12-0.31-0.2-0.5-0.26
			c-0.2-0.06-0.44-0.09-0.73-0.09H41.99z"/>
		<path class="st0" d="M49.09,106.54c0,0.19,0.07,0.32,0.2,0.4c0.13,0.07,0.38,0.15,0.75,0.22c0.1,0.02,0.14,0.1,0.14,0.23
			c0,0.06-0.01,0.13-0.03,0.23c-0.3-0.02-0.6-0.04-0.89-0.05c-0.3-0.01-0.58-0.02-0.85-0.02c-0.26,0-0.55,0.01-0.86,0.02
			c-0.31,0.01-0.61,0.03-0.89,0.05c-0.02-0.1-0.03-0.17-0.03-0.23c0-0.13,0.05-0.21,0.14-0.23c0.37-0.07,0.62-0.14,0.75-0.22
			s0.2-0.21,0.2-0.4V99.2c0-0.19-0.07-0.33-0.2-0.41s-0.38-0.15-0.75-0.21c-0.06-0.01-0.1-0.04-0.12-0.09
			c-0.02-0.05-0.03-0.1-0.03-0.16c0-0.06,0.01-0.13,0.03-0.23c0.29,0.02,0.59,0.04,0.9,0.05c0.31,0.01,0.59,0.02,0.84,0.02
			c0.24,0,0.52-0.01,0.83-0.02c0.31-0.01,0.62-0.03,0.92-0.05c0.02,0.1,0.03,0.17,0.03,0.23c0,0.14-0.05,0.23-0.14,0.24
			c-0.37,0.06-0.62,0.13-0.75,0.21s-0.2,0.22-0.2,0.41V106.54z"/>
		<path class="st0" d="M56.21,98.77v7.7c0,0.22,0.09,0.38,0.27,0.47c0.18,0.09,0.49,0.16,0.92,0.21c0.11,0,0.16,0.08,0.16,0.23
			c0,0.07-0.01,0.15-0.03,0.24c-0.31-0.02-0.63-0.04-0.97-0.05c-0.34-0.01-0.69-0.02-1.03-0.02c-0.34,0-0.68,0.01-1.03,0.02
			c-0.35,0.01-0.68,0.03-0.99,0.05c-0.02-0.1-0.03-0.18-0.03-0.24c0-0.13,0.05-0.21,0.14-0.23c0.43-0.06,0.74-0.13,0.94-0.22
			c0.19-0.09,0.29-0.24,0.29-0.46v-7.7h-1.49c-0.29,0-0.53,0.03-0.73,0.09c-0.2,0.06-0.37,0.14-0.51,0.26
			c-0.14,0.12-0.27,0.26-0.37,0.45c-0.11,0.18-0.22,0.39-0.33,0.63c-0.02,0.05-0.05,0.08-0.09,0.1c-0.04,0.02-0.08,0.03-0.12,0.03
			c-0.11,0-0.2-0.03-0.27-0.09c0.1-0.35,0.17-0.65,0.22-0.92c0.05-0.27,0.09-0.49,0.13-0.67c0.04-0.18,0.08-0.31,0.12-0.41
			c0.04-0.1,0.11-0.14,0.21-0.14c0.07,0,0.16,0.01,0.29,0.01c0.12,0.01,0.26,0.02,0.4,0.03c0.14,0.01,0.28,0.02,0.43,0.03
			c0.14,0.01,0.28,0.01,0.4,0.01h4.82c0.12,0,0.25,0,0.39-0.01c0.14-0.01,0.29-0.02,0.43-0.03c0.14-0.01,0.28-0.02,0.4-0.03
			c0.12-0.01,0.22-0.01,0.3-0.01c0.1,0,0.17,0.05,0.21,0.15c0.04,0.1,0.08,0.24,0.12,0.43s0.08,0.41,0.12,0.68
			c0.04,0.27,0.12,0.57,0.22,0.89c-0.05,0.02-0.09,0.04-0.14,0.06c-0.04,0.02-0.09,0.03-0.15,0.03c-0.04,0-0.08-0.01-0.13-0.03
			c-0.05-0.02-0.08-0.05-0.1-0.1c-0.11-0.24-0.21-0.45-0.32-0.63c-0.11-0.18-0.23-0.33-0.37-0.45c-0.14-0.12-0.31-0.2-0.5-0.26
			c-0.2-0.06-0.44-0.09-0.73-0.09H56.21z"/>
		<path class="st0" d="M69.55,104.05c0,0.55-0.06,1.05-0.19,1.49c-0.12,0.45-0.33,0.83-0.63,1.16c-0.29,0.33-0.68,0.58-1.16,0.76
			c-0.48,0.18-1.08,0.27-1.8,0.27c-0.83,0-1.49-0.1-2-0.31c-0.51-0.21-0.9-0.48-1.18-0.81c-0.27-0.34-0.46-0.72-0.55-1.16
			c-0.09-0.44-0.14-0.88-0.14-1.33v-4.9c0-0.19-0.07-0.33-0.2-0.42c-0.13-0.09-0.39-0.15-0.76-0.2c-0.1-0.01-0.14-0.09-0.14-0.24
			c0-0.06,0.01-0.13,0.03-0.23c0.29,0.02,0.58,0.04,0.89,0.05c0.3,0.01,0.59,0.02,0.87,0.02c0.25,0,0.54-0.01,0.88-0.02
			c0.34-0.01,0.65-0.03,0.94-0.05c0.02,0.1,0.03,0.17,0.03,0.23c0,0.15-0.05,0.24-0.14,0.24c-0.37,0.05-0.63,0.12-0.79,0.2
			c-0.16,0.09-0.24,0.23-0.24,0.42v4.59c0,1,0.2,1.77,0.6,2.3c0.4,0.53,1.07,0.8,2.03,0.8c0.54,0,1-0.06,1.37-0.18
			c0.37-0.12,0.68-0.31,0.92-0.56c0.24-0.25,0.41-0.57,0.52-0.97c0.11-0.4,0.16-0.88,0.16-1.43V99.2c0-0.19-0.07-0.33-0.22-0.42
			c-0.14-0.09-0.4-0.15-0.78-0.2c-0.11-0.01-0.16-0.09-0.16-0.24c0-0.06,0.01-0.13,0.03-0.23c0.28,0.02,0.55,0.04,0.81,0.05
			c0.26,0.01,0.49,0.02,0.69,0.02c0.23,0,0.46-0.01,0.7-0.02c0.24-0.01,0.47-0.03,0.7-0.05c0.02,0.1,0.03,0.17,0.03,0.23
			c0,0.05-0.01,0.1-0.04,0.15c-0.03,0.05-0.07,0.08-0.12,0.09c-0.36,0.04-0.6,0.1-0.74,0.19c-0.14,0.09-0.21,0.23-0.21,0.43V104.05z
			"/>
		<path class="st0" d="M76.52,98.77v7.7c0,0.22,0.09,0.38,0.27,0.47c0.18,0.09,0.49,0.16,0.92,0.21c0.11,0,0.16,0.08,0.16,0.23
			c0,0.07-0.01,0.15-0.03,0.24c-0.31-0.02-0.63-0.04-0.97-0.05c-0.34-0.01-0.69-0.02-1.03-0.02c-0.34,0-0.68,0.01-1.03,0.02
			c-0.35,0.01-0.68,0.03-0.99,0.05c-0.02-0.1-0.03-0.18-0.03-0.24c0-0.13,0.05-0.21,0.14-0.23c0.43-0.06,0.74-0.13,0.94-0.22
			c0.19-0.09,0.29-0.24,0.29-0.46v-7.7h-1.49c-0.29,0-0.53,0.03-0.73,0.09c-0.2,0.06-0.37,0.14-0.51,0.26
			c-0.14,0.12-0.27,0.26-0.37,0.45c-0.11,0.18-0.22,0.39-0.33,0.63c-0.02,0.05-0.05,0.08-0.09,0.1c-0.04,0.02-0.08,0.03-0.12,0.03
			c-0.11,0-0.2-0.03-0.27-0.09c0.1-0.35,0.17-0.65,0.22-0.92c0.05-0.27,0.09-0.49,0.13-0.67c0.04-0.18,0.08-0.31,0.12-0.41
			s0.11-0.14,0.21-0.14c0.07,0,0.16,0.01,0.29,0.01c0.12,0.01,0.26,0.02,0.4,0.03c0.14,0.01,0.28,0.02,0.43,0.03
			c0.14,0.01,0.28,0.01,0.4,0.01h4.82c0.12,0,0.25,0,0.39-0.01c0.14-0.01,0.29-0.02,0.43-0.03c0.14-0.01,0.28-0.02,0.4-0.03
			c0.12-0.01,0.22-0.01,0.3-0.01c0.1,0,0.17,0.05,0.21,0.15c0.04,0.1,0.08,0.24,0.12,0.43c0.04,0.18,0.08,0.41,0.12,0.68
			s0.12,0.57,0.22,0.89c-0.05,0.02-0.09,0.04-0.14,0.06c-0.04,0.02-0.09,0.03-0.15,0.03c-0.04,0-0.08-0.01-0.13-0.03
			c-0.05-0.02-0.08-0.05-0.1-0.1c-0.11-0.24-0.21-0.45-0.32-0.63c-0.11-0.18-0.23-0.33-0.37-0.45c-0.14-0.12-0.31-0.2-0.5-0.26
			c-0.2-0.06-0.44-0.09-0.73-0.09H76.52z"/>
		<path class="st0" d="M80.86,102.86c0-0.66,0.12-1.29,0.36-1.87c0.24-0.59,0.57-1.1,0.98-1.54c0.41-0.44,0.89-0.79,1.44-1.05
			c0.55-0.26,1.12-0.39,1.73-0.39c0.84,0,1.57,0.13,2.19,0.4c0.62,0.26,1.14,0.62,1.55,1.07c0.41,0.45,0.71,0.96,0.92,1.55
			c0.2,0.59,0.3,1.2,0.3,1.85c0,0.76-0.12,1.44-0.37,2.04c-0.25,0.6-0.59,1.11-1.03,1.53c-0.44,0.42-0.95,0.74-1.54,0.96
			c-0.59,0.22-1.22,0.33-1.9,0.33c-0.68,0-1.31-0.12-1.87-0.35c-0.57-0.23-1.06-0.56-1.46-0.99c-0.41-0.43-0.73-0.94-0.95-1.54
			C80.97,104.26,80.86,103.59,80.86,102.86z M85.82,107.03c0.45,0,0.87-0.09,1.24-0.26c0.37-0.17,0.7-0.41,0.97-0.72
			c0.27-0.31,0.48-0.67,0.63-1.1c0.15-0.42,0.22-0.88,0.22-1.38c0-0.69-0.07-1.33-0.22-1.93c-0.14-0.59-0.36-1.11-0.66-1.54
			c-0.29-0.44-0.66-0.78-1.11-1.03s-0.97-0.38-1.56-0.38c-0.39,0-0.77,0.07-1.13,0.22c-0.36,0.15-0.68,0.37-0.95,0.65
			c-0.27,0.28-0.49,0.63-0.66,1.05c-0.16,0.41-0.25,0.89-0.25,1.43c0,0.71,0.08,1.37,0.23,1.98c0.15,0.61,0.38,1.14,0.67,1.59
			c0.29,0.45,0.66,0.8,1.09,1.05C84.76,106.91,85.26,107.03,85.82,107.03z"/>
		<path class="st0" d="M103.03,106.54c0,0.19,0.06,0.32,0.19,0.4c0.12,0.07,0.37,0.15,0.75,0.22c0.1,0.02,0.14,0.09,0.14,0.2
			c0,0.08-0.01,0.16-0.03,0.26c-0.24-0.02-0.52-0.04-0.85-0.05c-0.33-0.01-0.62-0.02-0.87-0.02c-0.27,0-0.55,0.01-0.85,0.02
			c-0.3,0.01-0.6,0.03-0.89,0.05c-0.02-0.1-0.03-0.18-0.03-0.26c0-0.12,0.05-0.18,0.14-0.2c0.36-0.07,0.6-0.14,0.74-0.22
			c0.13-0.08,0.2-0.21,0.2-0.4v-3.49h-4.53v3.49c0,0.19,0.06,0.32,0.19,0.4c0.12,0.07,0.37,0.15,0.75,0.22
			c0.11,0.02,0.16,0.09,0.16,0.2c0,0.08-0.01,0.16-0.03,0.26c-0.25-0.02-0.54-0.04-0.87-0.05c-0.33-0.01-0.62-0.02-0.88-0.02
			c-0.27,0-0.55,0.01-0.85,0.02c-0.3,0.01-0.6,0.03-0.89,0.05c-0.02-0.1-0.03-0.18-0.03-0.26c0-0.12,0.05-0.18,0.14-0.2
			c0.37-0.07,0.62-0.14,0.75-0.22c0.13-0.08,0.2-0.21,0.2-0.4v-7.33c0-0.1-0.01-0.18-0.04-0.24c-0.02-0.06-0.07-0.12-0.14-0.17
			c-0.07-0.05-0.16-0.09-0.28-0.12c-0.12-0.03-0.28-0.07-0.47-0.11c-0.1-0.01-0.14-0.09-0.14-0.23c0-0.07,0.01-0.15,0.03-0.24
			c0.24,0.02,0.52,0.04,0.84,0.05c0.32,0.01,0.61,0.02,0.87,0.02c0.27,0,0.55-0.01,0.85-0.02c0.3-0.01,0.59-0.03,0.88-0.05
			c0.02,0.1,0.03,0.18,0.03,0.24c0,0.13-0.05,0.21-0.14,0.23c-0.37,0.06-0.62,0.13-0.74,0.22c-0.12,0.09-0.18,0.23-0.18,0.42v3.23
			h4.53v-3.23c0-0.16-0.06-0.3-0.17-0.4c-0.12-0.1-0.36-0.18-0.74-0.24c-0.11-0.01-0.16-0.09-0.16-0.23c0-0.07,0.01-0.15,0.03-0.24
			c0.24,0.02,0.52,0.04,0.84,0.05c0.32,0.01,0.61,0.02,0.87,0.02c0.27,0,0.55-0.01,0.84-0.02c0.29-0.01,0.59-0.03,0.89-0.05
			c0.02,0.1,0.03,0.18,0.03,0.24c0,0.13-0.05,0.21-0.14,0.23c-0.37,0.06-0.62,0.13-0.74,0.22c-0.12,0.09-0.18,0.23-0.18,0.42V106.54
			z"/>
		<path class="st0" d="M105.46,102.86c0-0.66,0.12-1.29,0.36-1.87c0.24-0.59,0.57-1.1,0.98-1.54c0.41-0.44,0.89-0.79,1.44-1.05
			c0.55-0.26,1.12-0.39,1.73-0.39c0.84,0,1.57,0.13,2.19,0.4c0.62,0.26,1.14,0.62,1.55,1.07c0.41,0.45,0.71,0.96,0.92,1.55
			c0.2,0.59,0.3,1.2,0.3,1.85c0,0.76-0.12,1.44-0.37,2.04c-0.25,0.6-0.59,1.11-1.03,1.53c-0.44,0.42-0.95,0.74-1.54,0.96
			c-0.59,0.22-1.22,0.33-1.9,0.33c-0.68,0-1.31-0.12-1.87-0.35c-0.57-0.23-1.06-0.56-1.46-0.99c-0.41-0.43-0.73-0.94-0.95-1.54
			C105.57,104.26,105.46,103.59,105.46,102.86z M110.42,107.03c0.45,0,0.87-0.09,1.24-0.26c0.37-0.17,0.7-0.41,0.97-0.72
			c0.27-0.31,0.48-0.67,0.63-1.1c0.15-0.42,0.22-0.88,0.22-1.38c0-0.69-0.07-1.33-0.22-1.93c-0.14-0.59-0.36-1.11-0.66-1.54
			s-0.66-0.78-1.11-1.03s-0.97-0.38-1.56-0.38c-0.39,0-0.77,0.07-1.13,0.22c-0.36,0.15-0.68,0.37-0.95,0.65
			c-0.27,0.28-0.49,0.63-0.66,1.05c-0.16,0.41-0.25,0.89-0.25,1.43c0,0.71,0.08,1.37,0.23,1.98c0.15,0.61,0.38,1.14,0.67,1.59
			c0.29,0.45,0.66,0.8,1.09,1.05C109.36,106.91,109.86,107.03,110.42,107.03z"/>
		<path class="st0" d="M123.73,105.26v-6.03c0-0.21-0.08-0.36-0.23-0.45c-0.15-0.09-0.41-0.15-0.78-0.2
			c-0.11-0.01-0.16-0.09-0.16-0.24c0-0.06,0.01-0.13,0.03-0.23c0.24,0.02,0.49,0.04,0.74,0.05c0.25,0.01,0.49,0.02,0.71,0.02
			c0.21,0,0.43-0.01,0.66-0.02c0.23-0.01,0.46-0.03,0.68-0.05c0.02,0.1,0.03,0.17,0.03,0.23c0,0.15-0.05,0.24-0.14,0.24
			c-0.33,0.05-0.55,0.12-0.67,0.2c-0.12,0.09-0.18,0.23-0.18,0.42v8.49c-0.02,0.01-0.05,0.02-0.1,0.02c-0.05,0-0.09,0.01-0.12,0.01
			c-0.07,0-0.13-0.02-0.19-0.05c-0.06-0.03-0.12-0.1-0.2-0.21l-5.85-7.72v6.79c0,0.19,0.07,0.33,0.2,0.4
			c0.13,0.08,0.39,0.15,0.78,0.22c0.1,0.02,0.14,0.1,0.14,0.23c0,0.06-0.01,0.13-0.03,0.23c-0.24-0.02-0.48-0.04-0.73-0.05
			c-0.25-0.01-0.47-0.02-0.69-0.02c-0.19,0-0.42,0.01-0.68,0.02c-0.26,0.01-0.5,0.03-0.71,0.05c-0.02-0.1-0.03-0.17-0.03-0.23
			c0-0.13,0.05-0.21,0.16-0.23c0.35-0.07,0.58-0.14,0.7-0.22s0.18-0.21,0.18-0.4v-7.41c0-0.15-0.06-0.27-0.17-0.35
			c-0.11-0.08-0.34-0.15-0.69-0.19c-0.11-0.02-0.16-0.1-0.16-0.24c0-0.05,0-0.09,0.01-0.13c0-0.03,0-0.06,0.01-0.1
			c0.19,0.02,0.37,0.03,0.55,0.04c0.15,0.01,0.32,0.02,0.49,0.02c0.17,0.01,0.33,0.01,0.46,0.01c0.28,0,0.46,0.01,0.55,0.03
			c0.09,0.02,0.17,0.07,0.22,0.14L123.73,105.26z"/>
		<path class="st0" d="M136.27,102.86c0,0.57-0.1,1.13-0.3,1.69c-0.2,0.56-0.5,1.06-0.89,1.51c-0.4,0.45-0.9,0.81-1.51,1.08
			c-0.61,0.27-1.32,0.41-2.14,0.41h-2.96c-0.25,0-0.53,0.01-0.85,0.02c-0.32,0.01-0.63,0.03-0.92,0.05
			c-0.02-0.1-0.03-0.17-0.03-0.23c0-0.13,0.05-0.21,0.16-0.23c0.36-0.09,0.61-0.17,0.76-0.25c0.15-0.08,0.23-0.2,0.23-0.37V99.2
			c0-0.19-0.07-0.33-0.22-0.4c-0.14-0.08-0.4-0.15-0.78-0.22c-0.06-0.01-0.1-0.04-0.12-0.09c-0.02-0.05-0.04-0.1-0.04-0.16
			c0-0.06,0.01-0.13,0.03-0.23c0.2,0.02,0.38,0.03,0.53,0.04c0.15,0,0.29,0.01,0.43,0.02c0.13,0.01,0.27,0.01,0.4,0.01
			s0.27,0,0.41,0h2.96c0.81,0,1.52,0.13,2.13,0.38c0.61,0.25,1.12,0.59,1.52,1.01c0.4,0.42,0.71,0.92,0.91,1.49
			C136.17,101.61,136.27,102.22,136.27,102.86z M134.76,103.14c0-1.48-0.37-2.58-1.1-3.29c-0.74-0.72-1.81-1.07-3.22-1.07h-1.25
			v7.67c0,0.1,0.02,0.18,0.07,0.25c0.05,0.07,0.13,0.12,0.25,0.16c0.12,0.04,0.27,0.07,0.48,0.09c0.2,0.02,0.46,0.03,0.76,0.03
			c0.74,0,1.36-0.09,1.87-0.27c0.51-0.18,0.92-0.43,1.24-0.76c0.32-0.33,0.55-0.73,0.69-1.2
			C134.69,104.25,134.76,103.72,134.76,103.14z"/>
		<path class="st0" d="M145.92,104.05c0,0.55-0.06,1.05-0.19,1.49c-0.12,0.45-0.33,0.83-0.63,1.16c-0.29,0.33-0.68,0.58-1.16,0.76
			c-0.48,0.18-1.08,0.27-1.8,0.27c-0.83,0-1.49-0.1-2-0.31c-0.51-0.21-0.9-0.48-1.18-0.81c-0.27-0.34-0.46-0.72-0.55-1.16
			c-0.09-0.44-0.14-0.88-0.14-1.33v-4.9c0-0.19-0.07-0.33-0.2-0.42c-0.13-0.09-0.39-0.15-0.76-0.2c-0.1-0.01-0.14-0.09-0.14-0.24
			c0-0.06,0.01-0.13,0.03-0.23c0.29,0.02,0.58,0.04,0.89,0.05c0.3,0.01,0.59,0.02,0.87,0.02c0.25,0,0.54-0.01,0.88-0.02
			c0.34-0.01,0.65-0.03,0.94-0.05c0.02,0.1,0.03,0.17,0.03,0.23c0,0.15-0.05,0.24-0.14,0.24c-0.37,0.05-0.63,0.12-0.79,0.2
			c-0.16,0.09-0.24,0.23-0.24,0.42v4.59c0,1,0.2,1.77,0.6,2.3c0.4,0.53,1.07,0.8,2.03,0.8c0.54,0,1-0.06,1.37-0.18
			c0.37-0.12,0.68-0.31,0.92-0.56c0.24-0.25,0.41-0.57,0.52-0.97c0.11-0.4,0.16-0.88,0.16-1.43V99.2c0-0.19-0.07-0.33-0.22-0.42
			c-0.14-0.09-0.4-0.15-0.78-0.2c-0.11-0.01-0.16-0.09-0.16-0.24c0-0.06,0.01-0.13,0.03-0.23c0.28,0.02,0.55,0.04,0.81,0.05
			c0.26,0.01,0.49,0.02,0.69,0.02c0.23,0,0.46-0.01,0.7-0.02c0.24-0.01,0.47-0.03,0.7-0.05c0.02,0.1,0.03,0.17,0.03,0.23
			c0,0.05-0.01,0.1-0.04,0.15c-0.03,0.05-0.07,0.08-0.12,0.09c-0.36,0.04-0.6,0.1-0.74,0.19c-0.14,0.09-0.21,0.23-0.21,0.43V104.05z
			"/>
		<path class="st0" d="M151.79,103.34h-1.07v3.17c0,0.21,0.1,0.36,0.3,0.43c0.2,0.08,0.5,0.14,0.9,0.19
			c0.12,0.02,0.17,0.1,0.17,0.24c0,0.07-0.01,0.15-0.03,0.24c-0.26-0.02-0.57-0.04-0.94-0.05c-0.37-0.01-0.73-0.02-1.09-0.02
			c-0.25,0-0.54,0.01-0.87,0.02c-0.33,0.01-0.63,0.03-0.92,0.05c-0.02-0.1-0.03-0.17-0.03-0.23c0-0.13,0.05-0.21,0.16-0.23
			c0.37-0.06,0.62-0.13,0.77-0.21c0.15-0.08,0.22-0.22,0.22-0.41V99.2c0-0.18-0.07-0.32-0.21-0.41c-0.14-0.09-0.41-0.16-0.81-0.21
			c-0.1-0.01-0.14-0.09-0.14-0.24c0-0.06,0.01-0.13,0.03-0.23c0.29,0.02,0.59,0.04,0.89,0.05c0.31,0.01,0.6,0.02,0.88,0.02h1.95
			c1.04,0,1.82,0.23,2.35,0.69c0.53,0.46,0.79,1.07,0.79,1.85c0,0.21-0.04,0.43-0.11,0.66c-0.07,0.23-0.18,0.46-0.33,0.68
			c-0.15,0.22-0.34,0.43-0.58,0.61c-0.24,0.19-0.51,0.34-0.83,0.45l2.41,3.35c0.18,0.25,0.38,0.42,0.61,0.52
			c0.22,0.1,0.43,0.17,0.62,0.22c0.09,0.02,0.13,0.09,0.13,0.2c0,0.08-0.01,0.16-0.03,0.26c-0.22-0.02-0.49-0.04-0.81-0.05
			c-0.32-0.01-0.61-0.02-0.88-0.02c-0.2,0-0.41-0.09-0.61-0.26c-0.21-0.17-0.4-0.39-0.58-0.66L151.79,103.34z M151.49,102.75
			c0.67,0,1.19-0.14,1.56-0.43c0.37-0.28,0.55-0.78,0.55-1.49c0-0.3-0.04-0.57-0.12-0.82c-0.08-0.25-0.2-0.47-0.37-0.65
			c-0.17-0.18-0.39-0.33-0.66-0.43c-0.27-0.11-0.61-0.16-1-0.16h-0.72v3.98H151.49z"/>
		<path class="st0" d="M160.08,98.77v3.69h2.25c0.19,0,0.33-0.09,0.41-0.28c0.08-0.19,0.15-0.42,0.19-0.69
			c0.03-0.12,0.12-0.19,0.26-0.19c0.03,0,0.07,0.01,0.12,0.01c0.05,0.01,0.09,0.02,0.12,0.03c-0.02,0.21-0.04,0.45-0.05,0.72
			c-0.01,0.27-0.02,0.5-0.02,0.71c0,0.16,0,0.36,0.01,0.6c0.01,0.24,0.03,0.5,0.06,0.8c-0.08,0.02-0.15,0.03-0.22,0.03
			c-0.15,0-0.25-0.06-0.27-0.19c-0.05-0.27-0.11-0.5-0.19-0.69c-0.08-0.19-0.22-0.28-0.41-0.28h-2.25v3.4c0,0.2,0.13,0.34,0.39,0.4
			c0.26,0.07,0.69,0.1,1.28,0.1h0.79c0.28,0,0.52-0.04,0.73-0.12c0.21-0.08,0.39-0.19,0.55-0.33c0.16-0.14,0.3-0.3,0.43-0.5
			c0.12-0.19,0.25-0.4,0.36-0.63c0.03-0.07,0.1-0.1,0.22-0.1c0.05,0,0.1,0.01,0.15,0.04c0.05,0.03,0.1,0.06,0.15,0.09
			c-0.09,0.18-0.16,0.4-0.22,0.66c-0.06,0.25-0.12,0.5-0.18,0.73c-0.06,0.23-0.12,0.43-0.18,0.59c-0.06,0.16-0.14,0.24-0.24,0.24
			c-0.08,0-0.19,0-0.33-0.01c-0.14-0.01-0.3-0.02-0.47-0.02c-0.17-0.01-0.34-0.01-0.51-0.02c-0.17-0.01-0.32-0.01-0.45-0.01h-3.16
			c-0.28,0-0.58,0.01-0.89,0.02c-0.32,0.01-0.62,0.03-0.91,0.05c-0.02-0.1-0.03-0.17-0.03-0.23c0-0.13,0.05-0.21,0.14-0.23
			c0.37-0.07,0.63-0.14,0.79-0.22c0.16-0.08,0.24-0.21,0.24-0.4V99.2c0-0.19-0.07-0.32-0.21-0.4c-0.14-0.07-0.41-0.15-0.81-0.22
			c-0.1-0.02-0.14-0.1-0.14-0.24c0-0.05,0-0.09,0.01-0.12c0-0.03,0.01-0.07,0.02-0.11c0.41,0.03,0.76,0.05,1.04,0.06
			c0.28,0.01,0.53,0.01,0.75,0.01h2.84c0.43,0,0.81-0.01,1.12-0.04c0.32-0.03,0.53-0.04,0.63-0.04c0.12,0,0.21,0.08,0.25,0.24
			c0.04,0.16,0.08,0.35,0.11,0.57c0.03,0.22,0.06,0.46,0.1,0.71c0.04,0.25,0.11,0.46,0.22,0.63c-0.08,0.06-0.16,0.09-0.26,0.09
			c-0.12,0-0.21-0.04-0.25-0.13c-0.12-0.25-0.23-0.46-0.33-0.64c-0.11-0.18-0.23-0.32-0.37-0.44c-0.14-0.12-0.31-0.2-0.5-0.26
			c-0.2-0.06-0.44-0.09-0.73-0.09H160.08z"/>
		<path class="st0" d="M173.74,105.26v-6.03c0-0.21-0.08-0.36-0.23-0.45c-0.15-0.09-0.41-0.15-0.78-0.2
			c-0.11-0.01-0.16-0.09-0.16-0.24c0-0.06,0.01-0.13,0.03-0.23c0.24,0.02,0.49,0.04,0.74,0.05c0.25,0.01,0.49,0.02,0.71,0.02
			c0.21,0,0.43-0.01,0.66-0.02c0.23-0.01,0.46-0.03,0.68-0.05c0.02,0.1,0.03,0.17,0.03,0.23c0,0.15-0.05,0.24-0.14,0.24
			c-0.33,0.05-0.55,0.12-0.67,0.2c-0.12,0.09-0.18,0.23-0.18,0.42v8.49c-0.02,0.01-0.05,0.02-0.1,0.02c-0.05,0-0.09,0.01-0.12,0.01
			c-0.07,0-0.13-0.02-0.19-0.05c-0.06-0.03-0.12-0.1-0.2-0.21l-5.85-7.72v6.79c0,0.19,0.07,0.33,0.2,0.4
			c0.13,0.08,0.39,0.15,0.78,0.22c0.1,0.02,0.14,0.1,0.14,0.23c0,0.06-0.01,0.13-0.03,0.23c-0.24-0.02-0.48-0.04-0.73-0.05
			c-0.25-0.01-0.47-0.02-0.69-0.02c-0.19,0-0.42,0.01-0.68,0.02c-0.26,0.01-0.5,0.03-0.71,0.05c-0.02-0.1-0.03-0.17-0.03-0.23
			c0-0.13,0.05-0.21,0.16-0.23c0.35-0.07,0.58-0.14,0.7-0.22c0.12-0.08,0.18-0.21,0.18-0.4v-7.41c0-0.15-0.06-0.27-0.17-0.35
			c-0.11-0.08-0.34-0.15-0.69-0.19c-0.11-0.02-0.16-0.1-0.16-0.24c0-0.05,0-0.09,0.01-0.13c0-0.03,0-0.06,0.01-0.1
			c0.19,0.02,0.37,0.03,0.55,0.04c0.15,0.01,0.32,0.02,0.49,0.02c0.17,0.01,0.33,0.01,0.46,0.01c0.28,0,0.46,0.01,0.55,0.03
			c0.09,0.02,0.17,0.07,0.22,0.14L173.74,105.26z M168.89,96.91c0.2-0.29,0.43-0.54,0.69-0.74c0.25-0.21,0.5-0.31,0.73-0.31
			c0.11,0,0.22,0.02,0.35,0.06c0.12,0.04,0.28,0.11,0.48,0.2c0.13,0.07,0.25,0.11,0.35,0.14c0.1,0.02,0.2,0.04,0.31,0.04
			c0.22,0,0.4-0.03,0.55-0.09c0.14-0.06,0.28-0.16,0.42-0.3c0.09,0.05,0.14,0.09,0.17,0.14c0.03,0.04,0.04,0.09,0.04,0.14
			c0,0.03,0,0.06-0.01,0.08c-0.01,0.02-0.02,0.05-0.03,0.07c-0.21,0.3-0.43,0.54-0.66,0.72c-0.23,0.18-0.46,0.27-0.7,0.27
			c-0.14,0-0.3-0.02-0.45-0.06c-0.16-0.04-0.31-0.1-0.44-0.17c-0.17-0.09-0.31-0.15-0.41-0.18c-0.1-0.03-0.19-0.05-0.27-0.05
			c-0.16,0-0.32,0.04-0.47,0.11c-0.15,0.07-0.3,0.19-0.45,0.35c-0.15-0.08-0.23-0.17-0.23-0.27C168.85,97,168.86,96.96,168.89,96.91
			z"/>
		<path class="st0" d="M176.66,102.86c0-0.66,0.12-1.29,0.36-1.87c0.24-0.59,0.57-1.1,0.98-1.54c0.41-0.44,0.89-0.79,1.44-1.05
			c0.55-0.26,1.12-0.39,1.73-0.39c0.84,0,1.57,0.13,2.19,0.4c0.62,0.26,1.14,0.62,1.55,1.07c0.41,0.45,0.71,0.96,0.92,1.55
			c0.2,0.59,0.3,1.2,0.3,1.85c0,0.76-0.12,1.44-0.37,2.04c-0.25,0.6-0.59,1.11-1.03,1.53c-0.44,0.42-0.95,0.74-1.54,0.96
			c-0.59,0.22-1.22,0.33-1.9,0.33c-0.68,0-1.31-0.12-1.87-0.35c-0.57-0.23-1.06-0.56-1.46-0.99c-0.41-0.43-0.73-0.94-0.95-1.54
			C176.78,104.26,176.66,103.59,176.66,102.86z M181.62,107.03c0.45,0,0.87-0.09,1.24-0.26s0.7-0.41,0.97-0.72
			c0.27-0.31,0.48-0.67,0.63-1.1c0.15-0.42,0.22-0.88,0.22-1.38c0-0.69-0.07-1.33-0.22-1.93c-0.14-0.59-0.36-1.11-0.66-1.54
			c-0.29-0.44-0.66-0.78-1.11-1.03c-0.45-0.25-0.97-0.38-1.56-0.38c-0.39,0-0.77,0.07-1.13,0.22c-0.36,0.15-0.68,0.37-0.95,0.65
			c-0.27,0.28-0.49,0.63-0.66,1.05c-0.16,0.41-0.25,0.89-0.25,1.43c0,0.71,0.08,1.37,0.23,1.98c0.15,0.61,0.38,1.14,0.67,1.59
			c0.29,0.45,0.66,0.8,1.09,1.05C180.57,106.91,181.07,107.03,181.62,107.03z"/>
		<path class="st0" d="M66.04,117.28c0,0.57-0.1,1.13-0.3,1.69c-0.2,0.56-0.5,1.06-0.89,1.51c-0.4,0.45-0.9,0.81-1.51,1.08
			c-0.61,0.27-1.32,0.41-2.14,0.41h-2.96c-0.25,0-0.53,0.01-0.85,0.02c-0.32,0.01-0.62,0.03-0.92,0.05
			c-0.02-0.1-0.03-0.17-0.03-0.23c0-0.13,0.05-0.21,0.16-0.23c0.36-0.09,0.61-0.17,0.76-0.25c0.15-0.08,0.23-0.2,0.23-0.37v-7.34
			c0-0.19-0.07-0.33-0.22-0.4c-0.14-0.08-0.4-0.15-0.78-0.22c-0.06-0.01-0.1-0.04-0.12-0.09c-0.02-0.05-0.04-0.1-0.04-0.16
			c0-0.06,0.01-0.13,0.03-0.23c0.2,0.02,0.38,0.03,0.53,0.04c0.15,0,0.29,0.01,0.43,0.02c0.13,0.01,0.27,0.01,0.4,0.01
			c0.13,0,0.27,0,0.41,0h2.96c0.81,0,1.52,0.13,2.13,0.38c0.61,0.25,1.12,0.59,1.52,1.01c0.4,0.42,0.71,0.92,0.91,1.49
			C65.94,116.03,66.04,116.64,66.04,117.28z M64.53,117.56c0-1.48-0.37-2.58-1.1-3.29c-0.74-0.72-1.81-1.07-3.22-1.07h-1.25v7.67
			c0,0.1,0.02,0.18,0.07,0.25c0.05,0.07,0.13,0.12,0.25,0.16c0.12,0.04,0.27,0.07,0.48,0.09c0.2,0.02,0.46,0.03,0.76,0.03
			c0.74,0,1.36-0.09,1.87-0.27c0.51-0.18,0.92-0.43,1.24-0.76c0.32-0.33,0.55-0.73,0.69-1.2C64.45,118.67,64.53,118.14,64.53,117.56
			z"/>
		<path class="st0" d="M69.88,113.19v3.69h2.25c0.19,0,0.33-0.09,0.41-0.28c0.08-0.19,0.15-0.42,0.19-0.69
			c0.03-0.12,0.12-0.19,0.26-0.19c0.03,0,0.07,0.01,0.12,0.01c0.05,0.01,0.09,0.02,0.12,0.03c-0.02,0.21-0.04,0.45-0.05,0.72
			c-0.01,0.27-0.02,0.5-0.02,0.71c0,0.16,0,0.36,0.01,0.6c0.01,0.24,0.03,0.5,0.06,0.8c-0.08,0.02-0.15,0.03-0.22,0.03
			c-0.15,0-0.25-0.06-0.27-0.19c-0.05-0.27-0.11-0.5-0.19-0.69c-0.08-0.19-0.22-0.28-0.41-0.28h-2.25v3.4c0,0.2,0.13,0.34,0.39,0.4
			c0.26,0.07,0.69,0.1,1.28,0.1h0.79c0.28,0,0.52-0.04,0.73-0.12c0.21-0.08,0.39-0.19,0.55-0.33c0.16-0.14,0.3-0.3,0.43-0.5
			c0.12-0.19,0.25-0.4,0.36-0.63c0.03-0.07,0.1-0.1,0.22-0.1c0.05,0,0.1,0.01,0.15,0.04c0.05,0.03,0.1,0.06,0.15,0.09
			c-0.09,0.18-0.16,0.4-0.22,0.66c-0.06,0.25-0.12,0.5-0.18,0.73c-0.06,0.23-0.12,0.43-0.18,0.59c-0.06,0.16-0.14,0.24-0.24,0.24
			c-0.08,0-0.19,0-0.33-0.01c-0.14-0.01-0.3-0.02-0.47-0.02c-0.17-0.01-0.34-0.01-0.51-0.02c-0.17-0.01-0.32-0.01-0.45-0.01h-3.16
			c-0.28,0-0.58,0.01-0.89,0.02c-0.32,0.01-0.62,0.03-0.91,0.05c-0.02-0.1-0.03-0.17-0.03-0.23c0-0.13,0.05-0.21,0.14-0.23
			c0.37-0.07,0.63-0.14,0.79-0.22s0.24-0.21,0.24-0.4v-7.34c0-0.19-0.07-0.32-0.21-0.4c-0.14-0.07-0.41-0.15-0.81-0.22
			c-0.1-0.02-0.14-0.1-0.14-0.24c0-0.05,0-0.09,0.01-0.12c0-0.03,0.01-0.07,0.02-0.11c0.41,0.03,0.76,0.05,1.04,0.06
			c0.28,0.01,0.53,0.01,0.75,0.01h2.84c0.43,0,0.81-0.01,1.12-0.04c0.32-0.03,0.53-0.04,0.63-0.04c0.12,0,0.21,0.08,0.25,0.24
			c0.04,0.16,0.08,0.35,0.11,0.57c0.03,0.22,0.06,0.46,0.1,0.71c0.04,0.25,0.11,0.46,0.22,0.63c-0.08,0.06-0.16,0.09-0.26,0.09
			c-0.12,0-0.21-0.04-0.25-0.13c-0.12-0.25-0.23-0.46-0.33-0.64c-0.11-0.18-0.23-0.32-0.37-0.44c-0.14-0.12-0.31-0.2-0.5-0.26
			c-0.2-0.06-0.44-0.09-0.73-0.09H69.88z"/>
		<path class="st0" d="M83.79,113.19v7.7c0,0.22,0.09,0.38,0.27,0.47c0.18,0.09,0.49,0.16,0.92,0.21c0.11,0,0.16,0.08,0.16,0.23
			c0,0.07-0.01,0.15-0.03,0.24c-0.31-0.02-0.63-0.04-0.97-0.05c-0.34-0.01-0.69-0.02-1.03-0.02c-0.34,0-0.68,0.01-1.03,0.02
			c-0.35,0.01-0.68,0.03-0.99,0.05c-0.02-0.1-0.03-0.18-0.03-0.24c0-0.13,0.05-0.21,0.14-0.23c0.43-0.06,0.74-0.13,0.94-0.22
			c0.19-0.09,0.29-0.24,0.29-0.46v-7.7h-1.49c-0.29,0-0.53,0.03-0.73,0.09c-0.2,0.06-0.37,0.14-0.51,0.26
			c-0.14,0.12-0.27,0.26-0.37,0.45c-0.11,0.18-0.22,0.39-0.33,0.63c-0.02,0.05-0.05,0.08-0.09,0.1c-0.04,0.02-0.08,0.03-0.12,0.03
			c-0.11,0-0.2-0.03-0.27-0.09c0.1-0.35,0.17-0.65,0.22-0.92c0.05-0.27,0.09-0.49,0.13-0.67c0.04-0.18,0.08-0.31,0.12-0.41
			c0.04-0.1,0.11-0.14,0.21-0.14c0.07,0,0.16,0.01,0.29,0.01c0.12,0.01,0.26,0.02,0.4,0.03c0.14,0.01,0.28,0.02,0.43,0.03
			c0.14,0.01,0.28,0.01,0.4,0.01h4.82c0.12,0,0.25,0,0.39-0.01c0.14-0.01,0.29-0.02,0.43-0.03c0.14-0.01,0.28-0.02,0.4-0.03
			c0.12-0.01,0.22-0.01,0.3-0.01c0.1,0,0.17,0.05,0.21,0.15c0.04,0.1,0.08,0.24,0.12,0.43c0.04,0.18,0.08,0.41,0.12,0.68
			c0.04,0.27,0.12,0.57,0.22,0.89c-0.05,0.02-0.09,0.04-0.14,0.06c-0.04,0.02-0.09,0.03-0.15,0.03c-0.04,0-0.08-0.01-0.13-0.03
			c-0.05-0.02-0.08-0.05-0.1-0.1c-0.11-0.24-0.21-0.45-0.32-0.63c-0.11-0.18-0.23-0.33-0.37-0.45c-0.14-0.12-0.31-0.2-0.5-0.26
			c-0.2-0.06-0.44-0.09-0.73-0.09H83.79z"/>
		<path class="st0" d="M97.13,118.47c0,0.55-0.06,1.05-0.19,1.49c-0.12,0.45-0.33,0.83-0.63,1.16c-0.29,0.33-0.68,0.58-1.16,0.76
			c-0.48,0.18-1.08,0.27-1.8,0.27c-0.83,0-1.49-0.1-2-0.31c-0.51-0.21-0.9-0.48-1.18-0.81c-0.27-0.34-0.46-0.72-0.55-1.16
			c-0.09-0.44-0.14-0.88-0.14-1.33v-4.9c0-0.19-0.07-0.33-0.2-0.42c-0.13-0.09-0.39-0.15-0.76-0.2c-0.1-0.01-0.14-0.09-0.14-0.24
			c0-0.06,0.01-0.13,0.03-0.23c0.29,0.02,0.58,0.04,0.89,0.05c0.3,0.01,0.59,0.02,0.87,0.02c0.25,0,0.54-0.01,0.88-0.02
			c0.34-0.01,0.65-0.03,0.94-0.05c0.02,0.1,0.03,0.17,0.03,0.23c0,0.15-0.05,0.24-0.14,0.24c-0.37,0.05-0.63,0.12-0.79,0.2
			c-0.16,0.09-0.24,0.23-0.24,0.42v4.59c0,1,0.2,1.77,0.6,2.3c0.4,0.53,1.07,0.8,2.03,0.8c0.54,0,1-0.06,1.37-0.18
			c0.37-0.12,0.68-0.31,0.92-0.56c0.24-0.25,0.41-0.57,0.52-0.97c0.11-0.4,0.16-0.88,0.16-1.43v-4.54c0-0.19-0.07-0.33-0.22-0.42
			c-0.14-0.09-0.4-0.15-0.78-0.2c-0.11-0.01-0.16-0.09-0.16-0.24c0-0.06,0.01-0.13,0.03-0.23c0.28,0.02,0.55,0.04,0.81,0.05
			c0.26,0.01,0.49,0.02,0.69,0.02c0.23,0,0.46-0.01,0.7-0.02c0.24-0.01,0.47-0.03,0.7-0.05c0.02,0.1,0.03,0.17,0.03,0.23
			c0,0.05-0.01,0.1-0.04,0.15c-0.03,0.05-0.07,0.08-0.12,0.09c-0.36,0.04-0.6,0.1-0.74,0.19c-0.14,0.09-0.21,0.23-0.21,0.43V118.47z
			"/>
		<path class="st0" d="M103,117.76h-1.07v3.17c0,0.21,0.1,0.36,0.3,0.43c0.2,0.08,0.5,0.14,0.9,0.19c0.12,0.02,0.17,0.1,0.17,0.24
			c0,0.07-0.01,0.15-0.03,0.24c-0.26-0.02-0.57-0.04-0.94-0.05c-0.37-0.01-0.73-0.02-1.09-0.02c-0.25,0-0.54,0.01-0.87,0.02
			c-0.33,0.01-0.63,0.03-0.92,0.05c-0.02-0.1-0.03-0.17-0.03-0.23c0-0.13,0.05-0.21,0.16-0.23c0.37-0.06,0.62-0.13,0.77-0.21
			c0.15-0.08,0.22-0.22,0.22-0.41v-7.34c0-0.18-0.07-0.32-0.21-0.41s-0.41-0.16-0.81-0.21c-0.1-0.01-0.14-0.09-0.14-0.24
			c0-0.06,0.01-0.13,0.03-0.23c0.29,0.02,0.59,0.04,0.89,0.05c0.31,0.01,0.6,0.02,0.88,0.02h1.95c1.04,0,1.82,0.23,2.35,0.69
			c0.53,0.46,0.79,1.07,0.79,1.85c0,0.21-0.04,0.43-0.11,0.66c-0.07,0.23-0.18,0.46-0.33,0.68c-0.15,0.22-0.34,0.43-0.58,0.61
			c-0.24,0.19-0.51,0.34-0.83,0.45l2.41,3.35c0.18,0.25,0.38,0.42,0.61,0.52c0.22,0.1,0.43,0.17,0.62,0.22
			c0.09,0.02,0.13,0.09,0.13,0.2c0,0.08-0.01,0.16-0.03,0.26c-0.22-0.02-0.49-0.04-0.81-0.05c-0.32-0.01-0.61-0.02-0.88-0.02
			c-0.2,0-0.41-0.09-0.61-0.26c-0.21-0.17-0.4-0.39-0.58-0.66L103,117.76z M102.7,117.17c0.67,0,1.19-0.14,1.56-0.43
			c0.37-0.28,0.55-0.78,0.55-1.49c0-0.3-0.04-0.57-0.12-0.82c-0.08-0.25-0.2-0.47-0.37-0.65c-0.17-0.18-0.39-0.33-0.66-0.43
			c-0.27-0.11-0.61-0.16-1-0.16h-0.72v3.98H102.7z"/>
		<path class="st0" d="M111.22,120.96c0,0.19,0.07,0.32,0.2,0.4c0.13,0.07,0.38,0.15,0.75,0.22c0.1,0.02,0.14,0.1,0.14,0.23
			c0,0.06-0.01,0.13-0.03,0.23c-0.3-0.02-0.6-0.04-0.89-0.05c-0.3-0.01-0.58-0.02-0.85-0.02c-0.26,0-0.55,0.01-0.86,0.02
			c-0.31,0.01-0.61,0.03-0.89,0.05c-0.02-0.1-0.03-0.17-0.03-0.23c0-0.13,0.05-0.21,0.14-0.23c0.37-0.07,0.62-0.14,0.75-0.22
			c0.13-0.08,0.2-0.21,0.2-0.4v-7.34c0-0.19-0.07-0.33-0.2-0.41c-0.13-0.08-0.38-0.15-0.75-0.21c-0.06-0.01-0.1-0.04-0.12-0.09
			c-0.02-0.05-0.03-0.1-0.03-0.16c0-0.06,0.01-0.13,0.03-0.23c0.29,0.02,0.59,0.04,0.9,0.05c0.31,0.01,0.59,0.02,0.84,0.02
			c0.24,0,0.52-0.01,0.83-0.02c0.31-0.01,0.62-0.03,0.92-0.05c0.02,0.1,0.03,0.17,0.03,0.23c0,0.14-0.05,0.23-0.14,0.24
			c-0.37,0.06-0.62,0.13-0.75,0.21c-0.13,0.08-0.2,0.22-0.2,0.41V120.96z"/>
		<path class="st0" d="M119.81,114.86c-0.1,0.02-0.17,0.03-0.22,0.03c-0.13,0-0.22-0.02-0.27-0.07c-0.06-0.05-0.1-0.1-0.13-0.16
			c-0.25-0.55-0.55-0.95-0.89-1.2c-0.35-0.25-0.82-0.38-1.41-0.38c-0.23,0-0.45,0.03-0.66,0.09c-0.21,0.06-0.39,0.15-0.54,0.27
			c-0.15,0.12-0.28,0.27-0.37,0.44c-0.09,0.17-0.14,0.37-0.14,0.58c0,0.45,0.19,0.82,0.57,1.11c0.38,0.29,0.94,0.58,1.68,0.88
			c0.92,0.37,1.6,0.77,2.04,1.22c0.44,0.45,0.66,1,0.66,1.65c0,0.39-0.06,0.76-0.18,1.1c-0.12,0.34-0.31,0.64-0.56,0.89
			c-0.25,0.25-0.58,0.45-0.99,0.6c-0.4,0.14-0.89,0.22-1.46,0.22c-0.6,0-1.14-0.06-1.62-0.19c-0.49-0.12-0.9-0.29-1.23-0.49
			c-0.03-0.4-0.07-0.79-0.13-1.17c-0.06-0.37-0.12-0.75-0.2-1.12c0.07-0.03,0.15-0.04,0.25-0.04c0.12,0,0.2,0.03,0.27,0.08
			c0.06,0.05,0.12,0.14,0.17,0.25c0.24,0.69,0.55,1.2,0.93,1.53c0.38,0.33,0.91,0.49,1.59,0.49c0.31,0,0.58-0.04,0.81-0.13
			c0.23-0.09,0.42-0.21,0.58-0.36c0.15-0.15,0.27-0.33,0.35-0.52c0.08-0.19,0.12-0.4,0.12-0.62c0-0.5-0.17-0.89-0.51-1.18
			c-0.34-0.29-0.83-0.55-1.46-0.78c-0.41-0.15-0.79-0.31-1.12-0.48c-0.34-0.17-0.63-0.36-0.87-0.58c-0.24-0.22-0.43-0.48-0.56-0.77
			s-0.19-0.64-0.19-1.05c0-0.36,0.06-0.69,0.19-1c0.13-0.31,0.32-0.58,0.56-0.81s0.54-0.41,0.89-0.55c0.35-0.13,0.74-0.2,1.17-0.2
			c0.45,0,0.88,0.04,1.3,0.13c0.41,0.09,0.88,0.23,1.4,0.43c0.02,0.29,0.05,0.6,0.08,0.93
			C119.71,114.26,119.75,114.57,119.81,114.86z"/>
		<path class="st0" d="M130.48,112.87c0.02-0.04,0.04-0.08,0.06-0.12c0.02-0.04,0.06-0.07,0.12-0.09c0.06-0.02,0.13-0.04,0.23-0.05
			c0.1-0.01,0.23-0.02,0.4-0.02c0.08,0,0.18,0,0.3-0.01c0.12-0.01,0.26-0.01,0.4-0.01c0.14,0,0.29-0.01,0.44-0.02
			c0.15-0.01,0.29-0.02,0.41-0.03c0.02,0.1,0.03,0.17,0.03,0.23c0,0.15-0.05,0.24-0.14,0.24c-0.35,0.05-0.58,0.11-0.69,0.19
			c-0.12,0.08-0.17,0.19-0.17,0.32c0,0.01,0.01,0.14,0.02,0.38c0.01,0.24,0.04,0.65,0.06,1.23c0.03,0.57,0.06,1.33,0.11,2.29
			c0.04,0.95,0.09,2.13,0.15,3.55c0.01,0.18,0.07,0.32,0.19,0.4c0.12,0.09,0.35,0.16,0.71,0.22c0.05,0.01,0.08,0.04,0.11,0.08
			c0.02,0.04,0.04,0.09,0.04,0.15c0,0.06-0.01,0.13-0.03,0.23c-0.34-0.02-0.64-0.04-0.92-0.05c-0.27-0.01-0.53-0.02-0.76-0.02
			c-0.1,0-0.22,0-0.36,0.01c-0.14,0.01-0.3,0.01-0.45,0.01c-0.16,0-0.31,0.01-0.47,0.02c-0.15,0.01-0.29,0.02-0.4,0.03
			c-0.02-0.1-0.03-0.17-0.03-0.23c0-0.15,0.05-0.23,0.14-0.23c0.38-0.08,0.65-0.15,0.79-0.23c0.14-0.08,0.21-0.21,0.21-0.39
			c0-0.03-0.01-0.21-0.02-0.53c-0.01-0.33-0.03-0.73-0.06-1.2c-0.02-0.47-0.05-0.98-0.07-1.53c-0.02-0.55-0.05-1.06-0.07-1.55
			c-0.02-0.49-0.05-0.9-0.06-1.25c-0.02-0.35-0.03-0.56-0.03-0.64l-3.16,7.63c-0.04,0.09-0.07,0.15-0.11,0.19
			c-0.03,0.04-0.08,0.06-0.14,0.06c-0.07,0-0.11-0.01-0.13-0.01l-3.53-8.1c-0.01,0.1-0.02,0.33-0.04,0.7
			c-0.01,0.37-0.03,0.81-0.06,1.32c-0.02,0.51-0.05,1.05-0.08,1.61c-0.03,0.57-0.06,1.09-0.08,1.57c-0.02,0.48-0.04,0.88-0.06,1.21
			c-0.01,0.33-0.02,0.5-0.02,0.52c0,0.3,0.33,0.5,0.98,0.62c0.1,0.01,0.14,0.09,0.14,0.23c0,0.06-0.01,0.13-0.03,0.23
			c-0.26-0.02-0.51-0.04-0.76-0.05c-0.25-0.01-0.47-0.02-0.66-0.02c-0.15,0-0.36,0.01-0.62,0.02c-0.26,0.01-0.5,0.03-0.74,0.05
			c-0.02-0.1-0.03-0.17-0.03-0.23c0-0.13,0.05-0.21,0.14-0.23c0.26-0.05,0.47-0.12,0.63-0.21c0.16-0.09,0.25-0.23,0.27-0.41
			c0-0.09,0.01-0.33,0.03-0.73c0.02-0.4,0.04-0.87,0.06-1.42c0.02-0.55,0.05-1.13,0.08-1.74c0.03-0.62,0.06-1.18,0.08-1.71
			c0.02-0.52,0.04-0.96,0.06-1.3c0.01-0.34,0.02-0.52,0.02-0.53c0-0.15-0.06-0.27-0.18-0.34s-0.35-0.14-0.69-0.19
			c-0.1-0.01-0.14-0.09-0.14-0.24c0-0.06,0.01-0.13,0.03-0.23c0.12,0.01,0.27,0.02,0.43,0.03c0.16,0.01,0.32,0.02,0.48,0.02
			c0.16,0.01,0.31,0.01,0.45,0.01c0.14,0.01,0.26,0.01,0.35,0.01c0.17,0,0.31,0.01,0.4,0.02c0.1,0.01,0.17,0.03,0.23,0.05
			c0.06,0.02,0.1,0.05,0.12,0.09c0.02,0.04,0.05,0.08,0.06,0.12l3.09,7.2L130.48,112.87z"/>
		<path class="st0" d="M134.58,117.28c0-0.66,0.12-1.29,0.36-1.87c0.24-0.59,0.57-1.1,0.98-1.54c0.41-0.44,0.89-0.79,1.44-1.05
			c0.55-0.26,1.12-0.39,1.73-0.39c0.84,0,1.57,0.13,2.19,0.4c0.62,0.26,1.14,0.62,1.55,1.07c0.41,0.45,0.71,0.96,0.92,1.55
			c0.2,0.59,0.3,1.2,0.3,1.85c0,0.76-0.12,1.44-0.37,2.04c-0.25,0.6-0.59,1.11-1.03,1.53c-0.44,0.42-0.95,0.74-1.54,0.96
			c-0.59,0.22-1.22,0.33-1.9,0.33c-0.68,0-1.31-0.12-1.87-0.35c-0.57-0.23-1.06-0.56-1.46-0.99c-0.41-0.43-0.73-0.94-0.95-1.54
			C134.69,118.68,134.58,118.01,134.58,117.28z M139.54,121.45c0.45,0,0.87-0.09,1.24-0.26s0.7-0.41,0.97-0.72
			c0.27-0.31,0.48-0.67,0.63-1.1c0.15-0.42,0.22-0.88,0.22-1.38c0-0.69-0.07-1.33-0.22-1.93c-0.14-0.59-0.36-1.11-0.66-1.54
			c-0.29-0.44-0.66-0.78-1.11-1.03s-0.97-0.38-1.56-0.38c-0.39,0-0.77,0.07-1.13,0.22c-0.36,0.15-0.68,0.37-0.95,0.65
			c-0.27,0.28-0.49,0.63-0.66,1.05c-0.16,0.41-0.25,0.89-0.25,1.43c0,0.71,0.08,1.37,0.23,1.98c0.15,0.61,0.38,1.14,0.67,1.59
			c0.29,0.45,0.66,0.8,1.09,1.05C138.49,121.33,138.98,121.45,139.54,121.45z"/>
		<path class="st0" d="M90.87,135.38c0,0.19,0.07,0.32,0.2,0.4c0.13,0.07,0.38,0.15,0.75,0.22c0.1,0.02,0.14,0.1,0.14,0.23
			c0,0.06-0.01,0.13-0.03,0.23c-0.3-0.02-0.6-0.04-0.89-0.05c-0.3-0.01-0.58-0.02-0.85-0.02c-0.26,0-0.55,0.01-0.86,0.02
			c-0.31,0.01-0.61,0.03-0.89,0.05c-0.02-0.1-0.03-0.17-0.03-0.23c0-0.13,0.05-0.21,0.14-0.23c0.37-0.07,0.62-0.14,0.75-0.22
			c0.13-0.08,0.2-0.21,0.2-0.4v-7.34c0-0.19-0.07-0.33-0.2-0.41c-0.13-0.08-0.38-0.15-0.75-0.21c-0.06-0.01-0.1-0.04-0.12-0.09
			c-0.02-0.05-0.03-0.1-0.03-0.16c0-0.06,0.01-0.13,0.03-0.23c0.29,0.02,0.59,0.04,0.9,0.05c0.31,0.01,0.59,0.02,0.84,0.02
			c0.24,0,0.52-0.01,0.83-0.02c0.31-0.01,0.62-0.03,0.92-0.05c0.02,0.1,0.03,0.17,0.03,0.23c0,0.14-0.05,0.23-0.14,0.24
			c-0.37,0.06-0.62,0.13-0.75,0.21c-0.13,0.08-0.2,0.22-0.2,0.41V135.38z"/>
		<path class="st0" d="M101.64,135.38c0,0.19,0.06,0.32,0.19,0.4c0.12,0.07,0.37,0.15,0.75,0.22c0.1,0.02,0.14,0.09,0.14,0.2
			c0,0.08-0.01,0.16-0.03,0.26c-0.24-0.02-0.52-0.04-0.85-0.05c-0.33-0.01-0.62-0.02-0.87-0.02c-0.27,0-0.55,0.01-0.85,0.02
			c-0.3,0.01-0.6,0.03-0.89,0.05c-0.02-0.1-0.03-0.18-0.03-0.26c0-0.12,0.05-0.18,0.14-0.2c0.36-0.07,0.6-0.14,0.74-0.22
			c0.13-0.08,0.2-0.21,0.2-0.4v-3.49h-4.53v3.49c0,0.19,0.06,0.32,0.19,0.4c0.12,0.07,0.37,0.15,0.75,0.22
			c0.11,0.02,0.16,0.09,0.16,0.2c0,0.08-0.01,0.16-0.03,0.26c-0.25-0.02-0.54-0.04-0.87-0.05c-0.33-0.01-0.62-0.02-0.88-0.02
			c-0.27,0-0.55,0.01-0.85,0.02c-0.3,0.01-0.6,0.03-0.89,0.05c-0.02-0.1-0.03-0.18-0.03-0.26c0-0.12,0.05-0.18,0.14-0.2
			c0.37-0.07,0.62-0.14,0.75-0.22c0.13-0.08,0.2-0.21,0.2-0.4v-7.33c0-0.1-0.01-0.18-0.04-0.24c-0.02-0.06-0.07-0.12-0.14-0.17
			c-0.07-0.05-0.16-0.09-0.28-0.12c-0.12-0.03-0.28-0.07-0.47-0.11c-0.1-0.01-0.14-0.09-0.14-0.23c0-0.07,0.01-0.15,0.03-0.24
			c0.24,0.02,0.52,0.04,0.84,0.05c0.32,0.01,0.61,0.02,0.87,0.02c0.27,0,0.55-0.01,0.85-0.02c0.3-0.01,0.59-0.03,0.88-0.05
			c0.02,0.1,0.03,0.18,0.03,0.24c0,0.13-0.05,0.21-0.14,0.23c-0.37,0.06-0.62,0.13-0.74,0.22c-0.12,0.09-0.18,0.23-0.18,0.42v3.23
			h4.53v-3.23c0-0.16-0.06-0.3-0.17-0.4c-0.12-0.1-0.36-0.18-0.74-0.24c-0.11-0.01-0.16-0.09-0.16-0.23c0-0.07,0.01-0.15,0.03-0.24
			c0.24,0.02,0.52,0.04,0.84,0.05c0.32,0.01,0.61,0.02,0.87,0.02c0.27,0,0.55-0.01,0.84-0.02c0.29-0.01,0.59-0.03,0.89-0.05
			c0.02,0.1,0.03,0.18,0.03,0.24c0,0.13-0.05,0.21-0.14,0.23c-0.37,0.06-0.62,0.13-0.74,0.22c-0.12,0.09-0.18,0.23-0.18,0.42V135.38
			z"/>
		<path class="st0" d="M108.77,127.61v7.7c0,0.22,0.09,0.38,0.27,0.47c0.18,0.09,0.49,0.16,0.92,0.21c0.11,0,0.16,0.08,0.16,0.23
			c0,0.07-0.01,0.15-0.03,0.24c-0.31-0.02-0.63-0.04-0.97-0.05c-0.34-0.01-0.69-0.02-1.03-0.02c-0.34,0-0.68,0.01-1.03,0.02
			c-0.35,0.01-0.68,0.03-0.99,0.05c-0.02-0.1-0.03-0.18-0.03-0.24c0-0.13,0.05-0.21,0.14-0.23c0.43-0.06,0.74-0.13,0.94-0.22
			s0.29-0.24,0.29-0.46v-7.7h-1.49c-0.29,0-0.53,0.03-0.73,0.09c-0.2,0.06-0.37,0.14-0.51,0.26c-0.14,0.12-0.27,0.26-0.37,0.45
			c-0.11,0.18-0.22,0.39-0.33,0.63c-0.02,0.05-0.05,0.08-0.09,0.1c-0.04,0.02-0.08,0.03-0.12,0.03c-0.11,0-0.2-0.03-0.27-0.09
			c0.1-0.35,0.17-0.65,0.22-0.92c0.05-0.27,0.09-0.49,0.13-0.67c0.04-0.18,0.08-0.31,0.12-0.41s0.11-0.14,0.21-0.14
			c0.07,0,0.16,0.01,0.29,0.01c0.12,0.01,0.26,0.02,0.4,0.03c0.14,0.01,0.28,0.02,0.43,0.03c0.14,0.01,0.28,0.01,0.4,0.01h4.82
			c0.12,0,0.25,0,0.39-0.01c0.14-0.01,0.29-0.02,0.43-0.03c0.14-0.01,0.28-0.02,0.4-0.03c0.12-0.01,0.22-0.01,0.3-0.01
			c0.1,0,0.17,0.05,0.21,0.15c0.04,0.1,0.08,0.24,0.12,0.43c0.04,0.18,0.08,0.41,0.12,0.68c0.04,0.27,0.12,0.57,0.22,0.89
			c-0.05,0.02-0.09,0.04-0.14,0.06c-0.04,0.02-0.09,0.03-0.15,0.03c-0.04,0-0.08-0.01-0.13-0.03c-0.05-0.02-0.08-0.05-0.1-0.1
			c-0.11-0.24-0.21-0.45-0.32-0.63c-0.11-0.18-0.23-0.33-0.37-0.45c-0.14-0.12-0.31-0.2-0.5-0.26c-0.2-0.06-0.44-0.09-0.73-0.09
			H108.77z"/>
	</g>
</g>
</svg>
