<?xml version="1.0" encoding="utf-8"?>
<!-- Generator: Adobe Illustrator 24.0.2, SVG Export Plug-In . SVG Version: 6.00 Build 0)  -->
<svg version="1.1" id="Layer_1" xmlns="http://www.w3.org/2000/svg" xmlns:xlink="http://www.w3.org/1999/xlink" x="0px" y="0px"
	 viewBox="0 0 200 200" style="enable-background:new 0 0 200 200;" xml:space="preserve">
<style type="text/css">
	.st0{fill-rule:evenodd;clip-rule:evenodd;fill:#FAF7E8;}
</style>
<g>
	<path class="st0" d="M142.92,104.17l-8.05-0.01l0.38-1.56c0.44-1.79,1.03-3.18,1.77-4.15c0.74-0.97,1.96-1.84,3.66-2.58
		c1.7-0.74,3.75-1.11,6.17-1.11c2.9,0,4.98,0.43,6.25,1.27c1.27,0.85,1.9,1.89,1.9,3.12c0,1.23-0.48,3.76-1.41,7.6l-2.84,11.65
		l-8.34-0.01l0.5-2.07c-0.72,0.83-1.56,1.45-2.48,1.86c-0.93,0.42-1.96,0.62-3.11,0.62c-1.5,0-2.79-0.35-3.88-1.04
		c-1.08-0.69-1.34-2.22-0.76-4.56l0.47-1.91c0.42-1.74,1.05-2.92,1.87-3.54c0.82-0.63,2.64-1.36,5.49-2.2
		c3.03-0.91,4.69-1.52,4.97-1.83c0.27-0.32,0.53-0.95,0.77-1.92c0.3-1.21,0.37-2.01,0.25-2.37c-0.13-0.37-0.44-0.56-0.96-0.56
		c-0.58,0-0.98,0.15-1.19,0.46c-0.22,0.31-0.48,1.11-0.8,2.41L142.92,104.17L142.92,104.17z M144.86,107.35
		c-1.58,0.83-2.54,1.52-2.9,2.08c-0.35,0.56-0.66,1.37-0.91,2.41c-0.29,1.2-0.39,1.98-0.29,2.33c0.1,0.35,0.44,0.53,1.01,0.53
		c0.54,0,0.92-0.14,1.15-0.41c0.23-0.27,0.49-1,0.77-2.16L144.86,107.35L144.86,107.35z M132.45,102.49l-7.8-0.01l0.4-1.24
		c0.34-1.06,0.49-1.73,0.42-2.02c-0.06-0.28-0.39-0.43-1-0.43c-0.5,0-0.91,0.13-1.24,0.39c-0.33,0.26-0.58,0.65-0.75,1.17
		c-0.23,0.7-0.33,1.22-0.32,1.55c0.02,0.33,0.27,0.69,0.76,1.08c0.49,0.4,1.57,0.97,3.24,1.71c2.24,0.99,3.6,1.93,4.12,2.81
		c0.51,0.88,0.5,2.15-0.04,3.82c-0.6,1.86-1.37,3.27-2.28,4.22c-0.92,0.95-2.18,1.68-3.77,2.19c-1.59,0.51-3.4,0.76-5.42,0.76
		c-2.23,0-4.06-0.28-5.47-0.83c-1.41-0.56-2.26-1.31-2.55-2.25s-0.12-2.38,0.5-4.29l0.36-1.1l7.8,0.01l-0.47,1.45
		c-0.4,1.23-0.56,2.03-0.48,2.4c0.07,0.37,0.4,0.56,0.98,0.56c0.62,0,1.1-0.12,1.43-0.37c0.33-0.25,0.62-0.77,0.88-1.56
		c0.36-1.1,0.42-1.78,0.19-2.06c-0.24-0.28-1.69-1.09-4.33-2.46c-2.21-1.15-3.45-2.2-3.71-3.14c-0.26-0.94-0.18-2.05,0.24-3.34
		c0.59-1.83,1.34-3.18,2.23-4.05c0.89-0.87,2.14-1.54,3.76-2.01c1.61-0.47,3.38-0.7,5.31-0.7c1.91,0,3.48,0.2,4.7,0.58
		c1.22,0.39,2.09,0.9,2.6,1.53c0.51,0.64,0.76,1.22,0.74,1.76c-0.02,0.54-0.22,1.39-0.59,2.54L132.45,102.49L132.45,102.49z
		 M114.31,89.54l-6.72,28.75l-8.23-0.01l6.72-28.75L114.31,89.54L114.31,89.54z M99.99,107.34l-11.03-0.01l-1.31,5.1
		c-0.27,1.07-0.36,1.75-0.25,2.06c0.11,0.3,0.42,0.46,0.94,0.46c0.65,0,1.13-0.21,1.45-0.61c0.32-0.41,0.64-1.2,0.94-2.37l0.8-3.11
		l8.07,0.01l-0.45,1.74c-0.37,1.45-0.78,2.58-1.19,3.36c-0.42,0.78-1.14,1.61-2.17,2.5c-1.03,0.88-2.22,1.55-3.56,1.99
		c-1.34,0.45-2.94,0.66-4.8,0.66c-1.8,0-3.33-0.22-4.59-0.66c-1.26-0.44-2.18-1.04-2.75-1.8c-0.57-0.76-0.89-1.61-0.95-2.52
		c-0.06-0.92,0.14-2.26,0.59-4.01l1.76-6.87c0.53-2.06,1.28-3.68,2.23-4.87c0.97-1.19,2.29-2.1,3.95-2.73
		c1.67-0.63,3.47-0.95,5.42-0.95c2.39,0,4.26,0.39,5.62,1.15c1.36,0.77,2.19,1.78,2.49,3.04c0.3,1.26,0.17,3.03-0.42,5.32
		L99.99,107.34L99.99,107.34z M92.44,103.5l0.44-1.72c0.31-1.22,0.44-2.01,0.38-2.36c-0.07-0.35-0.34-0.53-0.81-0.53
		c-0.59,0-1,0.15-1.21,0.45c-0.22,0.3-0.5,1.12-0.84,2.44l-0.44,1.72L92.44,103.5L92.44,103.5z M82.08,89.65l-0.9,3.75l-7.31-0.01
		l0.9-3.75L82.08,89.65L82.08,89.65z M80.83,94.83l-5.68,23.57l-7.31-0.01l5.68-23.57L80.83,94.83L80.83,94.83z M52.35,89.06
		L45,118.88l9.24,0.01l2.62-10.73l3.39,18.27l8.81,0.01l-5.19-21.79l6.58-9.79l-8.19-0.01l-4.16,7.4l3.42-13.05L52.35,89.06
		L52.35,89.06z M116.96,73.85l-2.01,12.48l-3.32,0l0.52-2.24l-1.16,0l-0.89,2.24l-3.36,0l5.52-12.48L116.96,73.85L116.96,73.85z
		 M112.76,81.87c0.28-1.42,0.66-3.17,1.14-5.25c-1.06,2.39-1.81,4.14-2.24,5.25L112.76,81.87L112.76,81.87z M110.06,73.84
		l-3.87,12.48l-3.25,0l3.87-12.48L110.06,73.84L110.06,73.84z M103.96,79.27l-3.25,0l0.67-2.17c0.2-0.63,0.28-1.02,0.26-1.18
		c-0.02-0.16-0.15-0.23-0.38-0.23c-0.27,0-0.46,0.09-0.59,0.28c-0.13,0.19-0.29,0.6-0.49,1.23l-1.8,5.8c-0.19,0.61-0.27,1-0.26,1.19
		c0.01,0.19,0.15,0.28,0.4,0.28c0.24,0,0.43-0.09,0.56-0.28c0.13-0.19,0.3-0.62,0.52-1.31l0.49-1.57l3.25,0l-0.15,0.49
		c-0.4,1.29-0.78,2.21-1.13,2.75c-0.35,0.54-0.9,1.02-1.65,1.42c-0.75,0.41-1.58,0.61-2.5,0.61c-0.95,0-1.68-0.17-2.19-0.52
		c-0.51-0.35-0.77-0.82-0.78-1.43c-0.01-0.61,0.17-1.53,0.55-2.75l1.13-3.65c0.28-0.9,0.52-1.58,0.72-2.02
		c0.2-0.45,0.52-0.88,0.95-1.3c0.43-0.42,0.96-0.74,1.58-0.98c0.62-0.24,1.28-0.36,1.98-0.36c0.96,0,1.69,0.19,2.19,0.56
		c0.51,0.37,0.77,0.83,0.8,1.38c0.02,0.55-0.15,1.41-0.51,2.58L103.96,79.27L103.96,79.27z M95.65,73.83l-2.01,12.48l-3.32,0
		l0.52-2.24l-1.16,0L88.8,86.3l-3.36,0l5.52-12.48L95.65,73.83L95.65,73.83z M91.45,81.85c0.28-1.42,0.66-3.17,1.14-5.25
		c-1.06,2.39-1.81,4.14-2.24,5.25L91.45,81.85L91.45,81.85z M88.76,73.82L84.88,86.3l-2.83,0l2.61-8.43l-3.75,8.43l-2.02,0
		l1.36-8.24l-2.56,8.24l-2.83,0l3.87-12.48l4.2,0c-0.12,0.75-0.26,1.64-0.44,2.65l-0.53,3.18l2.56-5.83L88.76,73.82L88.76,73.82z
		 M70.23,73.8l2.3,0c1.53,0,2.55,0.06,3.06,0.18c0.51,0.12,0.85,0.42,1.05,0.91c0.19,0.49,0.12,1.26-0.21,2.33
		c-0.3,0.97-0.63,1.63-0.97,1.96c-0.35,0.33-0.88,0.53-1.61,0.6c0.59,0.16,0.96,0.37,1.1,0.64c0.14,0.27,0.2,0.51,0.18,0.74
		c-0.02,0.22-0.18,0.84-0.49,1.84l-1.02,3.29l-3.01,0l1.29-4.14c0.21-0.67,0.28-1.08,0.23-1.24c-0.06-0.16-0.31-0.24-0.76-0.24
		l-1.74,5.62l-3.25,0L70.23,73.8L70.23,73.8z M72.81,75.94l-0.86,2.78c0.37,0,0.64-0.05,0.82-0.15c0.18-0.1,0.35-0.43,0.52-0.98
		l0.21-0.69c0.12-0.4,0.13-0.66,0.03-0.78C73.42,76.01,73.18,75.94,72.81,75.94L72.81,75.94z M67.81,73.8L65.8,86.28l-3.32,0
		L63,84.03l-1.16,0l-0.89,2.24l-3.36,0l5.52-12.48L67.81,73.8L67.81,73.8z M63.6,81.82c0.28-1.42,0.66-3.17,1.14-5.25
		c-1.06,2.39-1.81,4.14-2.24,5.25L63.6,81.82L63.6,81.82z M56.24,73.79l5.51,0.01l-0.78,2.5l-2.26,0l-0.74,2.37l2.02,0l-0.74,2.37
		l-2.02,0l-1.63,5.24l-3.25,0L56.24,73.79L56.24,73.79z M125.2,77.98l-2.94,0l0.21-0.69c0.18-0.59,0.26-0.97,0.25-1.13
		c-0.01-0.16-0.13-0.24-0.36-0.24c-0.19,0-0.35,0.07-0.48,0.22c-0.14,0.14-0.25,0.36-0.33,0.65c-0.12,0.39-0.18,0.68-0.19,0.86
		c-0.01,0.18,0.07,0.39,0.24,0.6c0.17,0.22,0.55,0.54,1.15,0.96c0.8,0.55,1.27,1.08,1.43,1.57c0.15,0.49,0.1,1.2-0.18,2.13
		c-0.31,1.04-0.66,1.83-1.04,2.36c-0.39,0.53-0.9,0.94-1.52,1.22c-0.62,0.29-1.32,0.43-2.08,0.43c-0.84,0-1.52-0.16-2.03-0.46
		c-0.51-0.31-0.8-0.73-0.86-1.26c-0.07-0.53,0.06-1.33,0.37-2.39l0.18-0.62l2.94,0l-0.24,0.81c-0.2,0.69-0.3,1.14-0.29,1.34
		c0.01,0.21,0.13,0.31,0.35,0.31c0.24,0,0.42-0.07,0.55-0.21c0.13-0.14,0.27-0.43,0.4-0.87c0.18-0.61,0.24-0.99,0.16-1.15
		c-0.08-0.15-0.59-0.61-1.52-1.37c-0.78-0.64-1.21-1.23-1.26-1.75c-0.06-0.52,0.02-1.15,0.24-1.87c0.3-1.02,0.64-1.77,1.02-2.26
		c0.37-0.48,0.87-0.86,1.5-1.12c0.63-0.26,1.31-0.39,2.03-0.39c0.72,0,1.3,0.11,1.74,0.32c0.44,0.22,0.75,0.5,0.91,0.85
		c0.17,0.36,0.23,0.68,0.2,0.99c-0.03,0.3-0.14,0.78-0.33,1.42L125.2,77.98L125.2,77.98z"/>
</g>
</svg>
