<?xml version="1.0" encoding="utf-8"?>
<!-- Generator: Adobe Illustrator 24.0.2, SVG Export Plug-In . SVG Version: 6.00 Build 0)  -->
<svg version="1.1" id="Layer_1" xmlns="http://www.w3.org/2000/svg" xmlns:xlink="http://www.w3.org/1999/xlink" x="0px" y="0px"
	 viewBox="0 0 200 200" style="enable-background:new 0 0 200 200;" xml:space="preserve">
<style type="text/css">
	.st0{fill:#FAF7E8;}
</style>
<g>
	<path class="st0" d="M109.91,113.25c1.17,0,1.17,0,1.39-1.17c0.06-0.3,0.17-0.6,0.15-0.89c-0.04-0.85,0.42-0.96,1.13-0.92
		c1.08,0.05,1.08,0.01,0.9,1.05c-0.34,1.97-0.7,3.94-1.01,5.92c-0.09,0.57-0.28,0.81-0.92,0.78c-1.29-0.06-1.29-0.02-1.06-1.32
		c0.3-1.67,0.3-1.65-1.39-1.68c-0.57-0.01-0.81,0.16-0.84,0.71c-0.01,0.28-0.09,0.55-0.14,0.83c-0.24,1.49-0.24,1.46-1.72,1.47
		c-0.52,0-0.57-0.18-0.49-0.61c0.35-1.9,0.67-3.81,1.02-5.71c0.27-1.49,0.29-1.48,1.82-1.42c0.35,0.01,0.5,0.07,0.41,0.47
		c-0.15,0.63-0.2,1.29-0.35,1.92c-0.13,0.52,0.05,0.66,0.53,0.59C109.53,113.23,109.72,113.25,109.91,113.25z"/>
	<path class="st0" d="M47.42,118c-0.68,0-1.36-0.02-2.03,0.01c-0.41,0.01-0.57-0.03-0.48-0.53c0.42-2.24,0.8-4.5,1.19-6.75
		c0.06-0.33,0.17-0.47,0.54-0.46c1.4,0.02,2.8,0.02,4.2,0c0.36,0,0.47,0.11,0.37,0.44c-0.01,0.04-0.02,0.09-0.03,0.14
		c-0.23,1.24-0.23,1.24-1.49,1.24c-0.44,0-0.89,0.01-1.33,0c-0.3-0.01-0.42,0.07-0.51,0.4c-0.16,0.58-0.01,0.77,0.57,0.69
		c0.21-0.03,0.42,0,0.63,0c1.38,0,1.47,0.14,1.05,1.48c-0.08,0.27-0.24,0.3-0.46,0.29c-0.61-0.01-1.21-0.01-1.82,0
		c-0.75,0.01-0.45,0.65-0.54,1c-0.12,0.46,0.33,0.25,0.51,0.26c0.7,0.03,1.4,0.02,2.1,0.01c0.3-0.01,0.45,0.08,0.37,0.4
		c-0.01,0.02-0.01,0.05-0.01,0.07C50.08,118,50.08,118,48.75,118C48.3,118,47.86,118,47.42,118z"/>
	<path class="st0" d="M95.28,117.98c-0.27-0.09-0.68,0.24-0.87-0.27c-0.08-0.22-0.22,0.02-0.31,0.08c-1.56,0.96-3.03,0.27-3.14-1.54
		c-0.15-2.45,1.25-4.51,3.74-4.37c0.34,0.02,0.46-0.11,0.49-0.41c0.01-0.09,0.04-0.18,0.06-0.27c0.22-1.31,0.22-1.29,1.58-1.29
		c0.5,0,0.59,0.16,0.5,0.61c-0.31,1.65-0.6,3.3-0.89,4.96c-0.1,0.57-0.22,1.15-0.24,1.73C96.17,117.81,96.02,118.19,95.28,117.98z
		 M94.4,113.36c-0.43,0.02-0.78,0.31-1.04,0.72c-0.36,0.57-0.43,1.21-0.4,1.87c0.02,0.39,0.1,0.78,0.59,0.79
		c0.46,0.01,0.74-0.27,0.82-0.7c0.15-0.77,0.27-1.55,0.42-2.32C94.84,113.43,94.75,113.33,94.4,113.36z"/>
	<path class="st0" d="M130.73,117.98c-0.26-0.1-0.67,0.24-0.87-0.27c-0.1-0.25-0.25,0.05-0.35,0.11c-1.43,0.9-2.91,0.25-3.08-1.42
		c-0.23-2.15,0.91-4.64,3.69-4.52c0.37,0.02,0.5-0.13,0.53-0.45c0.01-0.07,0.03-0.14,0.04-0.21c0.24-1.35,0.24-1.32,1.61-1.33
		c0.55,0,0.55,0.23,0.47,0.63c-0.34,1.85-0.66,3.71-0.99,5.56c-0.06,0.37-0.14,0.74-0.14,1.1
		C131.65,117.83,131.46,118.19,130.73,117.98z M128.4,115.72c0.05,0.38-0.09,0.97,0.58,1.02c0.61,0.04,0.81-0.41,0.88-0.95
		c0.08-0.57,0.21-1.14,0.28-1.71c0.03-0.22,0.31-0.52-0.01-0.68c-0.28-0.14-0.6-0.01-0.85,0.18
		C128.59,114.09,128.43,114.85,128.4,115.72z"/>
	<path class="st0" d="M61.99,118.02c-0.31-0.13-0.73,0.2-0.91-0.31c-0.06-0.17-0.18,0-0.27,0.05c-1.73,0.96-3.11,0.3-3.18-1.61
		c-0.08-2.02,0.82-3.83,2.87-4.22c0.05-0.01,0.09-0.02,0.14-0.03c0.38-0.13,0.91,0.23,1.15-0.21c0.19-0.35,0.22-0.81,0.25-1.22
		c0.03-0.45,0.23-0.57,0.67-0.56c1.38,0.01,1.37-0.01,1.15,1.38c-0.33,2.12-0.87,4.2-1.02,6.34
		C62.78,118.29,62.25,117.86,61.99,118.02z M59.63,115.59c0.04,0.47-0.11,1.06,0.54,1.14c0.65,0.08,0.86-0.41,0.93-0.98
		c0.07-0.55,0.2-1.1,0.28-1.65c0.04-0.24,0.26-0.54-0.02-0.7c-0.27-0.15-0.6-0.02-0.85,0.17C59.85,114.08,59.67,114.82,59.63,115.59
		z"/>
	<path class="st0" d="M67.33,115.9c-0.03-3.08,2.32-4.83,5.67-3.69c0.37,0.13,0.28,0.38,0.24,0.62c-0.2,1.17-0.41,2.34-0.61,3.51
		c-0.03,0.16-0.02,0.34-0.09,0.48c-0.17,0.39,0.37,1.16-0.51,1.16c-0.42,0-0.97,0.34-1.3-0.28c-0.08-0.16-0.19,0.02-0.28,0.06
		C68.63,118.76,67.32,117.99,67.33,115.9z M70.57,113.28c-0.32,0.04-0.64,0.29-0.85,0.69c-0.31,0.59-0.44,1.22-0.42,1.89
		c0.01,0.42,0.06,0.84,0.58,0.89c0.51,0.05,0.76-0.3,0.84-0.76c0.14-0.73,0.26-1.47,0.4-2.2C71.2,113.42,71.09,113.24,70.57,113.28z
		"/>
	<path class="st0" d="M124.07,118c-0.12,0-0.24-0.02-0.35,0c-0.6,0.1-0.62-0.2-0.53-0.68c0.21-1.03,0.36-2.06,0.54-3.1
		c0.06-0.33,0.14-0.71-0.29-0.8c-0.43-0.09-0.74,0.19-0.83,0.58c-0.19,0.79-0.31,1.6-0.46,2.4c-0.01,0.05-0.01,0.09-0.02,0.14
		c-0.25,1.54-0.25,1.52-1.78,1.47c-0.42-0.01-0.44-0.16-0.38-0.5c0.28-1.7,0.73-3.37,0.8-5.1c0.01-0.22,0.1-0.41,0.32-0.35
		c0.47,0.13,1.07-0.38,1.42,0.31c0.07,0.13,0.2,0.02,0.3-0.03c0.23-0.12,0.44-0.26,0.68-0.34c1.56-0.51,2.51,0.23,2.31,1.84
		c-0.16,1.25-0.41,2.48-0.64,3.71C125.07,118,125.05,118,124.07,118z"/>
	<path class="st0" d="M136.28,117.47c-0.6,0.54-1.21,0.75-1.92,0.68c-0.93-0.08-1.44-0.57-1.39-1.49c0.08-1.47,0.47-2.89,0.69-4.34
		c0.03-0.2,0.15-0.28,0.34-0.27c0.51,0,1.15-0.18,1.5,0.06c0.38,0.26,0.01,0.88-0.05,1.34c-0.12,0.83-0.29,1.65-0.41,2.48
		c-0.04,0.26-0.13,0.59,0.26,0.69c0.33,0.08,0.62-0.07,0.77-0.36c0.13-0.24,0.19-0.52,0.24-0.79c0.18-0.96,0.37-1.92,0.51-2.89
		c0.06-0.39,0.17-0.55,0.6-0.55c1.49-0.01,1.49-0.03,1.24,1.45c-0.23,1.38-0.54,2.74-0.65,4.14c-0.02,0.3-0.12,0.41-0.42,0.39
		c-0.28-0.02-0.56-0.03-0.84,0C136.38,118.06,136.26,117.88,136.28,117.47z"/>
	<path class="st0" d="M147.96,118c-0.23-0.12-0.68,0.26-0.81-0.33c-0.02-0.12-0.23,0.05-0.34,0.12c-0.7,0.47-1.45,0.56-2.18,0.18
		c-0.75-0.39-0.89-1.13-0.91-1.91c-0.08-3.05,2.13-5.03,5.65-3.86c0.34,0.11,0.32,0.3,0.28,0.58c-0.24,1.63-0.67,3.24-0.76,4.89
		C148.87,118,148.84,118,147.96,118z M145.68,115.7c0.03,0.44,0.01,0.97,0.6,1.04c0.58,0.07,0.8-0.36,0.88-0.87
		c0.11-0.67,0.24-1.33,0.35-2c0.09-0.56-0.12-0.72-0.66-0.55c-0.3,0.1-0.51,0.3-0.67,0.58C145.85,114.45,145.75,115.07,145.68,115.7
		z"/>
	<path class="st0" d="M119.52,114.34c-0.06,1.96-0.95,3.3-2.47,3.72c-2.11,0.59-3.4-0.42-3.31-2.59c0.09-2.16,1.43-3.58,3.39-3.6
		C118.76,111.85,119.57,112.69,119.52,114.34z M117.44,114.37c-0.03-0.39,0.11-0.92-0.44-1.03c-0.57-0.11-0.8,0.36-0.97,0.81
		c-0.2,0.53-0.26,1.09-0.27,1.64c-0.01,0.36,0,0.81,0.46,0.92c0.46,0.1,0.72-0.24,0.88-0.63
		C117.33,115.54,117.42,114.97,117.44,114.37z"/>
	<path class="st0" d="M83.89,118.19c-1.49,0.01-2.29-0.77-2.33-2.26c-0.05-2.16,0.99-3.65,2.8-4.01c1.95-0.39,3.14,0.67,2.99,2.65
		C87.18,116.83,85.89,118.18,83.89,118.19z M83.59,115.68c0.05,0.35-0.11,0.93,0.48,1.03c0.56,0.09,0.79-0.39,0.94-0.85
		c0.18-0.58,0.31-1.17,0.27-1.78c-0.02-0.34-0.09-0.69-0.49-0.75c-0.36-0.06-0.61,0.17-0.78,0.48
		C83.71,114.37,83.63,114.99,83.59,115.68z"/>
	<path class="st0" d="M100.09,118.19c-1.95,0.05-2.92-1.03-2.7-2.79c0.27-2.22,1.7-3.58,3.7-3.52c0.69,0.02,1.3,0.19,1.6,0.9
		c0.29,0.67,0.1,1.51-0.45,2.06c-0.63,0.63-1.46,0.77-2.29,0.93c-0.18,0.03-0.48-0.12-0.52,0.18c-0.04,0.3,0.15,0.54,0.42,0.66
		c0.52,0.23,1,0.05,1.49-0.13c0.19-0.07,0.51-0.44,0.58,0.02c0.06,0.39,0.73,0.86-0.05,1.23
		C101.25,118.03,100.6,118.18,100.09,118.19z M99.83,114.53c0.53,0.01,1.23-0.5,1.21-0.87c-0.01-0.26-0.17-0.36-0.42-0.36
		c-0.39,0-0.99,0.61-1.03,1.02C99.57,114.53,99.67,114.55,99.83,114.53z"/>
	<path class="st0" d="M152.02,118.19c-0.42,0-0.84-0.05-1.24-0.17c-1.15-0.35-1.16-0.4-0.62-1.43c0.21-0.41,0.4-0.41,0.75-0.21
		c0.38,0.23,0.81,0.36,1.26,0.35c0.22,0,0.43-0.1,0.5-0.32c0.08-0.26-0.13-0.38-0.32-0.47c-0.27-0.13-0.56-0.23-0.84-0.34
		c-0.68-0.28-1.13-0.75-1.17-1.51c-0.04-0.78,0.27-1.4,0.95-1.83c1.01-0.63,2.72-0.47,3.62,0.29c0.27,0.23,0.25,0.38,0.02,0.61
		c-0.4,0.4-0.74,0.95-1.39,0.31c-0.12-0.12-0.34-0.16-0.52-0.17c-0.26-0.02-0.54,0.01-0.63,0.32c-0.08,0.27,0.09,0.45,0.32,0.55
		c0.27,0.13,0.56,0.24,0.83,0.36c0.68,0.31,1.17,0.75,1.16,1.58c-0.01,0.83-0.37,1.42-1.11,1.79
		C153.09,118.14,152.56,118.19,152.02,118.19z"/>
	<path class="st0" d="M52.9,118.19c-1.18,0.01-1.72-0.45-1.62-1.58c0.2-2.16,0.71-4.27,1.07-6.41c0.04-0.24,0.17-0.28,0.38-0.3
		c1.62-0.19,1.7-0.1,1.41,1.47c-0.28,1.51-0.54,3.03-0.8,4.54c-0.08,0.46-0.03,0.82,0.6,0.68c0.2-0.05,0.52-0.29,0.51,0.14
		c-0.01,0.4,0.53,0.91-0.17,1.2C53.83,118.12,53.37,118.19,52.9,118.19z"/>
	<path class="st0" d="M76.23,112.61c0.58-0.64,1.21-0.89,1.99-0.66c0.27,0.08,0.42,0.18,0.26,0.49c-0.09,0.18-0.14,0.39-0.19,0.59
		c-0.12,0.47-0.25,0.77-0.88,0.55c-0.59-0.21-1.05,0.21-1.19,0.95c-0.19,0.98-0.37,1.96-0.52,2.95c-0.06,0.41-0.21,0.52-0.62,0.52
		c-1.48,0-1.47,0.02-1.23-1.39c0.24-1.4,0.59-2.78,0.66-4.2c0.02-0.32,0.14-0.39,0.43-0.38C76.19,112.08,76.02,111.92,76.23,112.61z
		"/>
	<path class="st0" d="M141.74,112.62c0.54-0.6,1.17-0.92,1.99-0.68c0.28,0.08,0.4,0.2,0.28,0.49c-0.1,0.26-0.2,0.52-0.27,0.79
		c-0.1,0.36-0.19,0.55-0.66,0.39c-0.67-0.23-1.18,0.13-1.32,0.85c-0.2,1.01-0.38,2.01-0.54,3.03c-0.06,0.36-0.15,0.51-0.56,0.52
		c-1.52,0.04-1.51,0.06-1.28-1.43c0.21-1.4,0.61-2.78,0.62-4.21c0-0.19,0.06-0.32,0.27-0.32c0.37,0,0.75-0.01,1.12,0
		C141.79,112.06,141.52,112.43,141.74,112.62z"/>
	<path class="st0" d="M64.98,118c-1.02,0-1.02,0-0.85-1.04c0.24-1.45,0.51-2.89,0.74-4.34c0.07-0.46,0.27-0.59,0.73-0.59
		c1.42,0.02,1.42,0,1.15,1.4c-0.22,1.19-0.44,2.38-0.64,3.58C65.94,118,65.94,118,64.98,118z"/>
	<path class="st0" d="M80.28,112.04c0.16,0,0.33,0.01,0.49,0c0.36-0.03,0.49,0.07,0.42,0.47c-0.31,1.65-0.6,3.3-0.88,4.95
		c-0.06,0.38-0.16,0.55-0.6,0.55c-1.5,0-1.5,0.03-1.24-1.45c0.21-1.17,0.42-2.34,0.63-3.51C79.28,112.04,79.28,112.04,80.28,112.04z
		"/>
	<path class="st0" d="M81.63,110.22c0.01,0.61-0.55,1.15-1.21,1.16c-0.54,0-0.9-0.25-0.94-0.82c-0.04-0.62,0.56-1.19,1.23-1.17
		C81.26,109.4,81.57,109.7,81.63,110.22z"/>
	<path class="st0" d="M67.34,110.15c0,0.7-0.56,1.24-1.2,1.23c-0.52-0.01-0.91-0.22-0.92-0.82c-0.01-0.64,0.55-1.19,1.22-1.16
		C66.99,109.41,67.31,109.69,67.34,110.15z"/>
	<g>
		<path class="st0" d="M26.38,106.18V81.77h6.83v18.52h10.81v5.89H26.38z"/>
		<path class="st0" d="M54.98,106.18v-1.22c-1.19,0.91-2.79,1.61-4.46,1.61c-3.56,0-5.93-2.2-5.93-6.31c0-3.94,2.72-5.96,6.59-5.96
			c1.67,0,2.79,0.31,3.8,0.77v-0.9c0-1.61-0.87-2.16-2.58-2.16c-1.88,0-3.31,0.35-5.09,1.32l-1.64-4.15
			c2.23-1.08,4.71-1.67,7.88-1.67c5.13,0,7.36,2.55,7.36,6.8v11.89H54.98z M54.98,98.72c-0.7-0.31-1.5-0.52-2.69-0.52
			c-1.29,0-1.95,0.7-1.95,1.96c0,1.15,0.59,1.99,1.95,1.99c1.05,0,2.09-0.42,2.69-0.91V98.72z"/>
		<path class="st0" d="M82.56,98.26h-3.38v7.92h-6.66V81.77h10.5c5.72,0,9.52,2.2,9.52,8.09C92.54,96.07,88.42,98.26,82.56,98.26z
			 M82.84,87.28h-3.66v5.48h3.56c2.19,0,3.07-0.94,3.07-2.79C85.81,88.36,85,87.28,82.84,87.28z"/>
		<path class="st0" d="M105.26,94.78c-0.8-0.87-1.71-1.53-2.93-1.53c-1.53,0-2.48,0.73-2.48,2.97v9.97h-6.28V87.87h6.28v1.32
			c1.08-1.05,2.3-1.71,3.91-1.71c1.33,0,2.23,0.31,2.96,0.77L105.26,94.78z"/>
		<path class="st0" d="M122.35,98.82h-10.74c0.21,2.02,1.4,2.93,3.1,2.93c1.6,0,2.93-0.35,4.74-1.29l2.41,4.01
			c-2.27,1.33-4.6,2.09-7.46,2.09c-5.51,0-8.54-3.91-8.54-9.52c0-6.31,3.56-9.56,8.37-9.56c5.02,0,8.16,3.31,8.16,10.11
			C122.39,98.12,122.39,98.51,122.35,98.82z M114.05,92.13c-1.43,0-2.23,0.98-2.44,2.79h5.23C116.53,93.07,115.9,92.13,114.05,92.13
			z"/>
		<path class="st0" d="M133.96,106.18V95.79c0-2.37-0.8-3-2.09-3c-1.33,0-2.13,0.63-2.13,2.93v10.46h-6.28V87.87h6.28v1.22
			c1.15-0.87,2.44-1.6,4.6-1.6c4.01,0,5.93,2.69,5.93,7.5v11.19H133.96z"/>
		<path class="st0" d="M149.14,106.57c-2.69,0-5.3-0.59-7.64-1.5l1.47-4.74c2.2,0.97,4.71,1.6,6.31,1.6c1.22,0,1.67-0.28,1.67-0.84
			c0-0.59-0.28-0.84-1.47-1.15c-5.65-1.5-7.6-2.65-7.6-6.45c0-3.77,2.48-6,7.46-6c2.75,0,4.6,0.45,7.05,1.32l-1.4,4.85
			c-2.41-1.05-4.22-1.54-5.82-1.54c-1.22,0-1.54,0.25-1.54,0.8c0,0.56,0.21,0.77,1.81,1.26c5.16,1.36,7.26,2.58,7.26,6.21
			C156.7,104.61,153.81,106.57,149.14,106.57z"/>
		<path class="st0" d="M167.69,106.18v-1.22c-1.19,0.91-2.79,1.61-4.47,1.61c-3.56,0-5.93-2.2-5.93-6.31c0-3.94,2.72-5.96,6.59-5.96
			c1.67,0,2.79,0.31,3.8,0.77v-0.9c0-1.61-0.87-2.16-2.58-2.16c-1.88,0-3.31,0.35-5.09,1.32l-1.64-4.15
			c2.23-1.08,4.71-1.67,7.88-1.67c5.13,0,7.36,2.55,7.36,6.8v11.89H167.69z M167.69,98.72c-0.7-0.31-1.5-0.52-2.69-0.52
			c-1.29,0-1.95,0.7-1.95,1.96c0,1.15,0.59,1.99,1.95,1.99c1.05,0,2.09-0.42,2.69-0.91V98.72z"/>
	</g>
</g>
</svg>
