<?xml version="1.0" encoding="utf-8"?>
<!-- Generator: Adobe Illustrator 24.0.2, SVG Export Plug-In . SVG Version: 6.00 Build 0)  -->
<svg version="1.1" id="Layer_1" xmlns="http://www.w3.org/2000/svg" xmlns:xlink="http://www.w3.org/1999/xlink" x="0px" y="0px"
	 viewBox="0 0 200 200" style="enable-background:new 0 0 200 200;" xml:space="preserve">
<style type="text/css">
	.st0{fill-rule:evenodd;clip-rule:evenodd;fill:#FAF7E8;}
</style>
<g>
	<path class="st0" d="M11.79,88.15c6.51,0,11.79,5.28,11.79,11.79c0,6.51-5.28,11.79-11.79,11.79C5.28,111.72,0,106.45,0,99.94
		C0,93.43,5.28,88.15,11.79,88.15L11.79,88.15z M11.79,89.27c-5.89,0-10.66,4.77-10.66,10.66c0,5.89,4.77,10.66,10.66,10.66
		s10.66-4.77,10.66-10.66C22.45,94.05,17.68,89.27,11.79,89.27z"/>
	<path class="st0" d="M12.36,102.22v3.61h-1.16v-3.61c-0.55,0-1.27,0-1.55-0.01l-3.83,0.01c-0.32,0.02-0.66-0.06-0.96-0.23
		c-0.58-0.34-0.9-0.96-0.87-1.58c0-0.09,0.01-0.17,0.02-0.24c0.14-0.76,0.41-1.52,0.81-2.22c0.41-0.71,0.93-1.32,1.53-1.83
		c0.4-0.3,0.96-0.44,1.48-0.35c0.15-0.49,0.49-0.9,0.93-1.13c0.08-0.05,0.16-0.08,0.23-0.11c0.87-0.31,1.81-0.48,2.78-0.48
		c0.98,0,1.92,0.17,2.79,0.49c0.5,0.22,0.95,0.68,1.14,1.22c0.49-0.11,1,0,1.41,0.3c0.6,0.5,1.2,1.18,1.61,1.89
		c0.41,0.71,0.68,1.46,0.81,2.22c0.01,0.06,0.02,0.14,0.02,0.24c0.03,0.62-0.29,1.24-0.87,1.58c-0.3,0.17-0.63,0.25-0.96,0.23
		l-3.83-0.01C13.64,102.22,12.92,102.22,12.36,102.22L12.36,102.22z M16.45,96.99c-0.18-0.14-0.44-0.16-0.65-0.04
		c-0.11,0.06-0.19,0.16-0.24,0.27l-1.94,3.38c-0.06,0.09-0.07,0.21-0.01,0.31c0.06,0.1,0.17,0.15,0.28,0.14l3.9,0.01
		c0.12,0.01,0.24-0.01,0.34-0.08c0.2-0.12,0.31-0.34,0.29-0.56c0-0.02,0-0.03,0-0.06c-0.11-0.63-0.34-1.26-0.68-1.85
		c-0.34-0.59-0.78-1.1-1.27-1.52C16.46,97,16.45,96.99,16.45,96.99L16.45,96.99z M7.13,96.99C7.12,96.99,7.11,97,7.11,97
		c-0.5,0.42-0.93,0.92-1.27,1.52c-0.34,0.59-0.56,1.22-0.68,1.85c0,0.02,0,0.04,0,0.06c-0.02,0.22,0.09,0.44,0.29,0.56
		c0.11,0.06,0.23,0.09,0.34,0.08l3.9-0.01c0.11,0.01,0.22-0.04,0.28-0.14c0.06-0.1,0.05-0.22-0.01-0.31l-1.94-3.38
		c-0.05-0.11-0.13-0.2-0.24-0.27C7.56,96.83,7.31,96.85,7.13,96.99L7.13,96.99z M14.21,95.63c-0.01,0-0.02-0.01-0.03-0.01
		c-0.75-0.27-1.56-0.42-2.4-0.42c-0.84,0-1.64,0.15-2.39,0.42c-0.03,0.01-0.05,0.02-0.06,0.03c-0.25,0.12-0.41,0.36-0.41,0.65
		c0,0.15,0.05,0.3,0.13,0.41l2.41,4.15c0.06,0.12,0.18,0.21,0.33,0.21c0.14,0,0.26-0.08,0.32-0.2l2.41-4.15
		c0.09-0.12,0.14-0.26,0.14-0.42C14.65,95.99,14.47,95.74,14.21,95.63z"/>
	<polygon class="st0" points="42.84,88.2 48.61,100.02 54.39,88.2 63.12,88.2 63.12,111.85 54.39,111.85 54.39,100.02 48.61,111.85 
		42.84,100.02 42.84,111.85 34.1,111.85 34.1,88.2 	"/>
	<path class="st0" d="M80.43,91.74l-3.55,12.35h7.09L80.43,91.74L80.43,91.74z M65.92,111.85l6.79-23.65h15.43l6.79,23.65h-8.73
		l-1.11-3.88h-9.32l-1.11,3.88H65.92z"/>
	<path class="st0" d="M108.5,90.92c1.97,0,3.88,1.05,3.88,3.2c0,2.14-1.69,3.88-3.88,3.88h-1.89v-7.08H108.5L108.5,90.92z
		 M114.07,88.21H97.73v23.64h8.73V102h7.61c3.81,0,6.89-3.09,6.89-6.89C120.96,91.3,117.88,88.21,114.07,88.21z"/>
	<polygon class="st0" points="123.99,88.2 147.21,88.2 147.21,92.08 132.72,92.08 132.72,98.09 147.21,98.09 147.21,101.98 
		132.72,101.98 132.72,111.85 123.99,111.85 	"/>
	<polygon class="st0" points="185.51,107.97 200,107.97 200,111.85 176.78,111.85 176.78,88.2 200,88.2 200,92.08 185.51,92.08 
		185.51,98.09 200,98.09 200,101.98 185.51,101.98 	"/>
	<path class="st0" d="M161.04,90.92c1.92,0,3.88,1.05,3.88,3.2c0,2.14-1.74,3.88-3.88,3.88h-1.89v-7.08H161.04L161.04,90.92z
		 M173.5,105.74v0.19C173.5,105.87,173.5,105.81,173.5,105.74L173.5,105.74z M173.5,105.94c0-0.06,0-0.13,0-0.19
		c-0.1-3.17-2.71-5.72-5.91-5.72c3.26,0,5.91-2.65,5.91-5.91c0-3.26-2.65-5.91-5.91-5.91h-7.63h-9.7v11.82v11.82l8.88,0v-9.79h1.89
		c2.14,0,3.88,1.74,3.88,3.88c0,0.06,0,0.13-0.01,0.19v5.72h2.68h5.91V105.94z"/>
</g>
</svg>
