<?xml version="1.0" encoding="utf-8"?>
<!-- Generator: Adobe Illustrator 24.0.2, SVG Export Plug-In . SVG Version: 6.00 Build 0)  -->
<svg version="1.1" id="Layer_1" xmlns="http://www.w3.org/2000/svg" xmlns:xlink="http://www.w3.org/1999/xlink" x="0px" y="0px"
	 viewBox="0 0 200 200" style="enable-background:new 0 0 200 200;" xml:space="preserve">
<style type="text/css">
	.st0{fill:#FAF7E8;}
	.st1{fill:#E5E3DA;}
</style>
<g>
	<path class="st0" d="M3.15,96.51c0,3.61,0,7.22,0,10.88c-0.53,0-1.02,0-1.55,0c0-4.9,0-9.83,0-14.75c2.28,2.29,4.57,4.58,6.88,6.91
		c2.38-2.38,4.67-4.67,7.06-7.07c0,5.08,0,9.98,0,14.92c-0.49,0-0.95,0-1.51,0c0-3.62,0-7.25,0-11.03c-1.86,1.9-3.59,3.68-5.37,5.51
		c-1.88-1.91-3.62-3.68-5.35-5.44C3.25,96.46,3.2,96.49,3.15,96.51z"/>
	<path class="st0" d="M167.4,107.4c3.07-4.15,6.08-8.22,9.17-12.4c-0.33-0.02-0.54-0.03-0.75-0.04c-2.3,0-4.59,0-6.89,0
		c-0.83,0-0.83,0-0.83-0.85c0-0.2,0-0.41,0-0.67c3.86,0,7.67,0,11.6,0c-3.05,4.13-6.05,8.2-9.14,12.39c2.89,0,5.65,0,8.45,0
		c0,0.55,0,1.03,0,1.56C175.16,107.4,171.33,107.4,167.4,107.4z"/>
	<path class="st0" d="M114.9,93.39c1.48,0,2.92-0.01,4.37,0c0.89,0.01,1.8-0.06,2.66,0.11c2.31,0.47,3.72,2.55,3.5,4.98
		c-0.2,2.13-2.12,3.9-4.38,3.97c-1.51,0.05-3.02,0.01-4.64,0.01c0,0.85,0,1.67,0,2.48c0,0.8,0,1.61,0,2.45c-0.52,0-0.99,0-1.51,0
		C114.9,102.77,114.9,98.13,114.9,93.39z M116.46,100.87c0.5,0,0.95,0,1.4,0c1.07,0,2.15,0.02,3.22-0.01
		c1.48-0.05,2.69-1.29,2.75-2.76c0.06-1.64-1.01-3-2.57-3.09c-1.54-0.09-3.1-0.03-4.65-0.03c-0.05,0-0.11,0.05-0.16,0.08
		C116.46,96.99,116.46,98.91,116.46,100.87z"/>
	<path class="st0" d="M161.06,107.46c-0.37-0.91-0.75-1.82-1.12-2.73h0c-1.68-4.07-3.34-8.12-5.06-12.29
		c-2.1,5.09-4.12,10.01-6.18,15c0,0,0,0,0,0c0,0.01-0.01,0.02-0.01,0.03h1.73c0.05-0.12,0.1-0.24,0.15-0.35
		c0.04-0.07,0.07-0.14,0.1-0.22c0.02-0.05,0.04-0.1,0.06-0.16c0.26-0.62,0.51-1.24,0.77-1.87c0.02-0.05,0.04-0.1,0.07-0.14
		c0.09-0.18,0.38-0.38,0.57-0.39c1.82-0.03,3.64-0.01,5.46-0.03c0.35,0,0.51,0.12,0.63,0.44c0.25,0.65,0.52,1.3,0.8,1.94
		c0.11,0.26,0.21,0.52,0.32,0.77H161.06z M152.37,102.71c0.83-2.02,1.64-3.97,2.5-6.08c0.87,2.12,1.67,4.07,2.5,6.08
		C155.69,102.71,154.09,102.71,152.37,102.71z"/>
	<path class="st0" d="M32.6,93.43c0.55,0,1.02,0,1.54,0c0.02,0.15,0.05,0.31,0.05,0.47c0,2.83,0.02,5.67,0,8.5
		c-0.02,2.62-2.08,4.98-4.59,5.29c-2.84,0.36-5.37-1.27-6.1-3.92c-0.09-0.34-0.19-0.69-0.19-1.03c-0.01-3.08-0.01-6.16-0.01-9.29
		c0.52,0,1.01,0,1.58,0c0,0.24,0,0.47,0,0.69c0,2.73-0.01,5.46,0.01,8.19c0.01,2.03,1.54,3.66,3.56,3.87
		c1.83,0.19,3.62-1.12,4.06-3.02c0.09-0.4,0.1-0.82,0.1-1.23c0.01-2.58,0-5.17,0-7.75C32.6,93.96,32.6,93.74,32.6,93.43z"/>
	<path class="st0" d="M66.33,93.44c0,0.51,0,0.96,0,1.5c-1.53,0-3.05,0-4.62,0c0,4.21,0,8.32,0,12.46c-0.55,0-1.03,0-1.57,0
		c0-4.13,0-8.24,0-12.44c-1.58,0-3.1,0-4.65,0c0-0.55,0-1.02,0-1.53C59.09,93.44,62.68,93.44,66.33,93.44z"/>
	<path class="st0" d="M41.94,93.42c0.51,0,0.98,0,1.54,0c0,4.13,0,8.24,0,12.41c2.72,0,5.36,0,8.05,0c0,0.55,0,1.05,0,1.58
		c-3.19,0-6.36,0-9.58,0C41.94,102.77,41.94,98.13,41.94,93.42z"/>
	<path class="st0" d="M132.73,107.4c0-4.68,0-9.3,0-13.97c0.5,0,0.97,0,1.51,0c0,4.11,0,8.21,0,12.39c2.73,0,5.38,0,8.08,0
		c0,0.56,0,1.05,0,1.58C139.13,107.4,135.96,107.4,132.73,107.4z"/>
	<path class="st0" d="M73.26,93.42c0.51,0,0.98,0,1.49,0c0,4.66,0,9.3,0,13.98c-0.49,0-0.97,0-1.49,0
		C73.26,102.74,73.26,98.1,73.26,93.42z"/>
	<path class="st1" d="M83.85,99.19V82.68l10.59,8.03v6.99c0,0-5.17-4.35-5.09-4.22s0,5.71,0,5.71H83.85z"/>
	<path class="st0" d="M105.2,99.19V82.68l-10.59,8.03v6.99c0,0,5.17-4.35,5.09-4.22c-0.08,0.12,0,5.71,0,5.71H105.2z"/>
	<path class="st1" d="M105.2,100.81v16.51l-10.59-8.03v-6.99c0,0,5.17,4.35,5.09,4.22c-0.08-0.12,0-5.71,0-5.71H105.2z"/>
	<path class="st0" d="M83.85,100.81v16.51l10.59-8.03v-6.99c0,0-5.17,4.35-5.09,4.22s0-5.71,0-5.71H83.85z"/>
	<path class="st0" d="M198.4,107.46c-0.37-0.91-0.75-1.82-1.12-2.73h0c-1.68-4.07-3.34-8.12-5.06-12.29
		c-2.1,5.09-4.12,10.01-6.18,15c0,0,0,0,0,0c0,0.01-0.01,0.02-0.01,0.03h1.73c0.05-0.12,0.1-0.24,0.15-0.35
		c0.04-0.07,0.07-0.14,0.1-0.22c0.02-0.05,0.04-0.1,0.06-0.16c0.26-0.62,0.51-1.24,0.77-1.87c0.02-0.05,0.04-0.1,0.07-0.14
		c0.09-0.18,0.38-0.38,0.57-0.39c1.82-0.03,3.64-0.01,5.46-0.03c0.35,0,0.51,0.12,0.63,0.44c0.25,0.65,0.52,1.3,0.8,1.94
		c0.11,0.26,0.21,0.52,0.32,0.77H198.4z M189.71,102.71c0.83-2.02,1.64-3.97,2.5-6.08c0.87,2.12,1.67,4.07,2.5,6.08
		C193.03,102.71,191.43,102.71,189.71,102.71z"/>
</g>
</svg>
