<?xml version="1.0" encoding="utf-8"?>
<!-- Generator: Adobe Illustrator 24.0.2, SVG Export Plug-In . SVG Version: 6.00 Build 0)  -->
<svg version="1.1" id="Layer_1" xmlns="http://www.w3.org/2000/svg" xmlns:xlink="http://www.w3.org/1999/xlink" x="0px" y="0px"
	 viewBox="0 0 200 200" style="enable-background:new 0 0 200 200;" xml:space="preserve">
<style type="text/css">
	.st0{fill:#FAF7E8;}
</style>
<g>
	<path class="st0" d="M89.9,99.66c-0.07-0.28-0.31-0.49-0.59-0.53l-0.11-0.01c-0.03,0-0.06-0.01-0.09-0.01
		c-0.25,0-0.48,0.13-0.61,0.35l-6.17,10.6c-1.82-3.12-3.63-6.23-5.44-9.35l-0.04-0.08c-0.12-0.22-0.27-0.48-0.56-0.7
		c-0.12-0.09-0.27-0.14-0.42-0.14c-0.01,0-0.02,0-0.03,0c-0.34,0.02-0.58,0.18-0.72,0.28c-0.02,0.01-0.03,0.03-0.05,0.04
		c-0.25,0.06-0.45,0.25-0.52,0.5l-0.04,0.15c-0.04,0.12-0.07,0.25-0.1,0.37l-0.46,1.82c-0.93,3.71-1.86,7.43-2.79,11.14
		c-0.48,1.92-0.96,3.85-1.44,5.77l-0.26,1.04c-0.01,0.05-0.02,0.1-0.04,0.15c-0.05,0.23-0.08,0.47,0.05,0.71
		c0.02,0.04,0.05,0.08,0.08,0.12c0.26,0.33,0.63,0.33,0.95,0.33c0.44,0,0.89,0,1.33,0l1.7,0c0.88,0,1.16-0.22,1.37-1.07l0.67-2.72
		c0.49-1.99,0.98-3.97,1.47-5.96c0.03-0.12,0.06-0.23,0.09-0.35l4.6,7.98c0.13,0.22,0.36,0.35,0.61,0.35s0.48-0.13,0.61-0.35
		l4.59-7.97c0.76,3.06,1.52,6.12,2.28,9.19c0.17,0.69,0.45,0.91,1.15,0.91c0.47,0,0.95,0,1.42,0c0.63,0,1.27,0,1.91,0
		c0.04,0,0.07,0,0.11,0c0.33,0,0.61-0.15,0.79-0.43c0.11-0.16,0.14-0.37,0.1-0.56L89.9,99.66z"/>
	<path class="st0" d="M174.31,110.15c-0.06-0.03-0.11-0.06-0.16-0.09c-0.08-0.04-0.14-0.08-0.18-0.11
		c-0.73-0.52-1.05-0.98-1.12-1.59c-0.05-0.39-0.15-0.76-0.25-1.11l-0.01-0.04c-1.51-5.19-6.34-8.82-11.75-8.82
		c-0.73,0-1.46,0.07-2.17,0.2c-4.4,0.82-7.56,3.38-9.37,7.62c-0.72,1.68-0.95,3.6-0.7,5.88c0.21,1.94,0.82,3.67,1.8,5.13
		c2.35,3.48,6.22,5.56,10.34,5.56c1,0,2.02-0.12,3.03-0.36c4.55-1.08,8.38-5.1,9.11-9.57c0.01-0.05,0.04-0.12,0.11-0.23
		c0.36-0.6,0.78-0.99,1.3-1.24c0.24-0.11,0.39-0.34,0.4-0.61C174.67,110.53,174.54,110.28,174.31,110.15z M154.65,107.17
		c1.23-2.15,2.98-3.33,5.34-3.59c0.29-0.03,0.58-0.05,0.86-0.05c2.67,0,5.03,1.49,6.16,3.9c1.93,4.1-0.19,8.11-3.35,9.61
		c-0.84,0.4-1.78,0.6-2.79,0.6c0,0-0.12,0-0.13,0c-0.06,0-0.12,0-0.18,0c-3.2,0-6.23-2.67-6.63-5.83
		C153.69,109.92,153.92,108.45,154.65,107.17z"/>
	<path class="st0" d="M146.22,116.75l-3.51-3.57c0.16-0.05,0.32-0.11,0.48-0.17c2.19-0.88,3.62-2.39,4.24-4.5
		c0.39-1.33,0.44-2.67,0.13-3.98c-0.65-2.76-2.41-4.61-5.09-5.34c-0.82-0.22-1.72-0.33-2.85-0.34c-1.68-0.02-3.38-0.02-5.03-0.02
		c-0.67,0-1.34,0-2.01,0l-0.1,0c-0.02,0-0.05,0-0.07,0c-0.34,0-0.56,0.15-0.68,0.27c-0.12,0.13-0.27,0.35-0.25,0.71
		c0,0.05,0,0.1,0,0.15l0,0.12l0,1.89c0,1.44-0.01,2.88-0.01,4.32c0,3.52,0,7.04,0,10.56l0,4.22c0,0.04,0,0.08,0,0.12
		c0,0.06,0,0.12,0,0.17c-0.02,0.31,0.06,0.56,0.24,0.75c0.12,0.13,0.35,0.29,0.73,0.29c0.57,0,1.15,0,1.72,0c0.56,0,1.13,0,1.7,0
		c0.36,0,0.59-0.15,0.71-0.28c0.12-0.13,0.26-0.36,0.24-0.72c0-0.06,0-0.12,0-0.18l0-0.12v-6.95l0.76,0.79
		c2.17,2.26,4.41,4.6,6.61,6.91c0.36,0.38,0.77,0.56,1.28,0.56l0.03,0c0.65-0.01,1.3-0.01,1.95-0.01l1.43,0c0.25,0,0.51,0,0.75,0
		l0.02,0c0.04,0,0.09,0.01,0.14,0.01c0.37,0,0.61-0.18,0.76-0.33c0.26-0.28,0.25-0.71-0.01-0.97L146.22,116.75z M136.8,106.95
		l0-1.42c0-0.54,0-1.09,0-1.63l0.95,0c0.55,0,1.19,0,1.85,0.01c0.61,0.01,1.19,0.13,1.72,0.34c0.79,0.32,1.17,0.87,1.2,1.74
		c0.01,0.22,0.01,0.45-0.02,0.66c-0.1,0.81-0.51,1.32-1.27,1.61c-0.47,0.18-0.95,0.28-1.41,0.29c-0.64,0.02-1.3,0.02-1.94,0.02
		c-0.36,0-0.72,0-1.08,0C136.8,108.03,136.8,107.48,136.8,106.95z"/>
	<path class="st0" d="M127.59,99.08c-0.12-0.12-0.33-0.26-0.66-0.26c-0.02,0-0.05,0-0.07,0c-0.02,0-0.05,0-0.07,0c0,0-0.18,0-0.22,0
		h-11.37c-0.04,0-0.07,0-0.11,0c-0.02,0-0.07,0-0.08,0c-0.01,0-0.02,0-0.03,0c-0.04,0-0.09-0.01-0.12-0.01
		c-0.28,0-0.53,0.1-0.7,0.29c-0.13,0.14-0.27,0.39-0.24,0.79c0,0.05,0,0.1,0,0.16c0,0.04,0,0.08,0,0.12l0,21.11
		c0,0.28,0,0.6,0.25,0.85c0.26,0.26,0.58,0.26,0.8,0.26l11.68,0l0.19,0c0.19,0,0.51,0,0.76-0.26c0.26-0.26,0.26-0.57,0.26-0.88
		l0-0.96c0-0.58,0-1.17,0-1.75c0-0.07,0-0.12,0-0.18c0-0.28,0.01-0.61-0.25-0.87c-0.26-0.26-0.59-0.26-0.79-0.26l-7.16,0
		c0-1.35,0-2.71,0-4.06c0.94,0,6.78,0,6.78,0c0.85,0,1.17-0.32,1.17-1.18c0-0.95,0-1.9,0-2.85c0-0.75-0.31-1.06-1.05-1.08
		c-0.04,0-0.09,0-0.13,0l-6.77,0c0-0.71,0-1.42,0-2.14l0-0.96c0-0.35,0-0.7,0-1.05h5.57l0.99,0c0.21,0,0.43,0,0.66,0
		c0.3,0,0.54-0.09,0.72-0.27c0.12-0.12,0.27-0.34,0.27-0.7c0-1.12,0-2.23,0.01-3.17C127.86,99.43,127.71,99.2,127.59,99.08z"/>
	<path class="st0" d="M107.77,99.22c-0.93-0.25-1.95-0.37-3.13-0.38c-1.37-0.01-2.76-0.01-3.93-0.01l-2.82,0l-0.23,0
		c-0.18,0-0.51,0-0.76,0.26c-0.26,0.26-0.25,0.56-0.25,0.86l0,0.13c0,2.63,0,10.43,0,10.43c-0.01,0.04-0.01,0.07-0.01,0.11l0,7.2
		c0,1.15,0,2.29,0,3.44c0,0.82,0.32,1.14,1.15,1.14c0.49,0,0.99,0,1.48,0c0.47,0,0.94,0,1.43,0l0.23,0c0.18,0,0.51,0,0.76-0.26
		c0.26-0.26,0.26-0.58,0.26-0.91l0-7.57l2.86,0c1.15,0,2.25-0.18,3.26-0.54c1.97-0.7,3.37-1.93,4.17-3.66
		c0.62-1.34,0.81-2.82,0.57-4.53C112.43,102.24,110.36,99.9,107.77,99.22z M101.94,105.43c0-0.51,0-1.02,0-1.54l0.12,0
		c0.93,0,1.89,0,2.83,0.02c0.51,0.01,1.02,0.11,1.5,0.3c0.81,0.31,1.2,0.81,1.28,1.62c0.03,0.37,0.02,0.72-0.05,1.05
		c-0.12,0.63-0.49,1.06-1.11,1.33c-0.5,0.21-1.02,0.33-1.56,0.34c-0.62,0.01-1.26,0.01-1.87,0.01c-0.38,0-0.75,0-1.13,0
		c0-0.55,0-1.1,0-1.65L101.94,105.43z"/>
	<path class="st0" d="M68.61,120.94c-0.01-0.02-0.02-0.03-0.02-0.05c-0.89-1.99-1.79-3.98-2.68-5.97L60.98,104
		c-0.11-0.25-0.36-0.41-0.64-0.41c0,0-0.01,0-0.01,0c-0.17,0-0.34,0.01-0.51,0.02c-0.19,0.01-0.39,0.02-0.58,0.02c0,0,0,0,0,0
		c-0.09,0-0.18,0-0.26-0.01c-0.06,0-0.12,0.01-0.18,0.01c-0.51,0-1.02-0.11-1.53-0.31c-0.99-0.41-1.74-0.94-2.27-1.62
		c-0.24,0.06-0.44,0.24-0.52,0.49c-0.08,0.28-0.21,0.56-0.35,0.85c-0.04,0.09-0.09,0.18-0.13,0.27c-1.53,3.3-3.07,6.59-4.61,9.89
		c-0.9,1.93-1.8,3.87-2.7,5.8c-0.29,0.63-0.59,1.26-0.88,1.89c-0.01,0.02-0.02,0.03-0.03,0.05c-0.08,0.14-0.25,0.44-0.17,0.83
		c0,0,0,0,0,0.01c0.04,0.18,0.15,0.34,0.3,0.44c0.17,0.12,0.38,0.17,0.6,0.17c0.05,0,0.1,0,0.15-0.01c0.02,0,0.03,0,0.05,0l0.38,0
		l1.45,0c0.58,0,1.02,0,1.43,0.01l0.05,0c0.6,0,1.01-0.27,1.26-0.84c0.34-0.77,0.7-1.54,1.04-2.3c0.32-0.7,0.64-1.4,0.96-2.1
		c1.32,0.01,2.64,0.01,3.96,0.01c1.31,0,2.61,0,3.92-0.01c0.35,0.84,0.71,1.68,1.06,2.49c0.28,0.65,0.57,1.3,0.84,1.96
		c0.22,0.52,0.61,0.78,1.17,0.78c0,0,0.02,0,0.03,0c0.54-0.01,1.08-0.01,1.62-0.01l1.84,0l0.03,0c0.03,0,0.07,0,0.1,0
		c0.23,0,0.43-0.06,0.6-0.18c0.11-0.08,0.2-0.19,0.25-0.32c0.01-0.02,0.01-0.04,0.02-0.07c0.09-0.29,0.03-0.53-0.04-0.7
		C68.66,121.05,68.63,120.99,68.61,120.94z M59.98,112.7c-1.84,0-3.62,0-5.47,0c0.93-2.03,1.84-4.02,2.8-6.11
		C58.23,108.66,59.09,110.66,59.98,112.7z"/>
	<path class="st0" d="M45.97,118.85c0-0.53,0-1.06,0-1.59c0-0.42,0-0.85,0-1.27l0-0.03c0.01-0.13,0.02-0.41-0.18-0.71
		c-0.13-0.2-0.36-0.32-0.59-0.32c-0.06,0-0.12,0.01-0.18,0.02c-0.32,0.08-0.52,0.27-0.65,0.39c-0.02,0.02-0.04,0.04-0.06,0.06
		c-0.57,0.48-1.07,0.85-1.55,1.17c-1.1,0.72-2.25,1.07-3.52,1.08l-0.06,0c-2.65,0-4.62-1.13-6.02-3.46
		c-0.86-1.43-1.1-3.07-0.76-5.01c0.5-2.82,2.92-5.67,6.58-5.67c0.85,0,1.72,0.16,2.58,0.48c0.92,0.34,1.81,0.88,2.78,1.7
		c0.02,0.01,0.03,0.03,0.05,0.04c0.13,0.13,0.38,0.36,0.81,0.4c0.02,0,0.04,0,0.06,0c0.17,0,0.33-0.06,0.46-0.17
		c0.14-0.13,0.23-0.31,0.24-0.5l0.01-0.15c0.01-0.12,0.01-0.22,0.01-0.33c0-0.37,0-0.74,0-1.12c0-0.85,0-1.72,0.01-2.58
		c0.01-0.61-0.25-1.04-0.79-1.34c-1.91-1.03-3.91-1.56-5.94-1.56c-0.32,0-0.66,0.01-0.98,0.04c-1.98,0.16-3.64,0.65-5.06,1.49
		c-3.33,1.97-5.39,4.88-6.12,8.65c-0.03,0.15-0.08,0.27-0.17,0.4c-0.33,0.49-0.71,0.83-1.2,1.07c-0.24,0.12-0.4,0.37-0.4,0.64
		c0,0.27,0.16,0.52,0.41,0.63c0.47,0.22,0.85,0.55,1.18,1.04c0.09,0.13,0.14,0.26,0.16,0.42c0.4,2.55,1.72,4.96,3.7,6.79
		c2.12,1.96,4.75,3.07,7.62,3.2c0.21,0.01,0.41,0.01,0.62,0.01c2.02,0,3.99-0.48,5.87-1.42c0.12-0.06,0.24-0.12,0.36-0.19
		c0.49-0.27,0.73-0.67,0.72-1.23C45.98,119.57,45.98,119.21,45.97,118.85z"/>
	<path class="st0" d="M44.72,88.77c0.08,0.02,0.17,0.03,0.25,0.03c0.5,0,0.94-0.3,1.15-0.79c0.2-0.46,0.53-0.82,0.97-1.23
		c0.75-0.69,1.61-1.25,2.27-1.66c1.93-1.18,4.16-2.05,7.24-2.82c1.31-0.33,2.68-0.49,4.01-0.65c0.42-0.05,0.81-0.07,1.18-0.07
		c0.55,0,1.05,0.05,1.54,0.16c0.91,0.2,1.5,0.52,1.93,1.04c0.24,0.29,0.31,0.61,0.22,0.99c-0.07,0.35-0.24,0.69-0.51,1.08
		c-0.3,0.42-0.64,0.81-1.03,1.16c-2.29,2.08-5.06,3.59-8.25,4.47c0.76-0.99,1.62-1.95,2.55-2.87l0.02-0.01
		c0.13-0.13,0.27-0.27,0.4-0.44c0.25-0.34,0.27-0.77,0.04-1.14c-0.31-0.49-0.9-0.8-1.53-0.8c-0.5,0-0.97,0.19-1.29,0.53
		c-0.91,0.95-1.67,1.97-2.29,2.84c-0.56,0.79-1.08,1.6-1.55,2.42c-0.48-0.03-0.92-0.09-1.29-0.3c-0.14-0.08-0.3-0.18-0.32-0.28
		c-0.11-0.51-0.39-0.77-0.83-0.77c-0.05,0-0.11,0-0.17,0.01c-0.54,0.09-0.94,0.55-0.92,1.08c0.01,0.29,0.11,0.57,0.31,0.85
		c0.33,0.47,0.79,0.82,1.42,1.07c0.27,0.11,0.54,0.18,0.82,0.23c-0.78,1.83-1.64,4.22-1.76,6.86c-0.07,1.43,0.13,2.66,0.59,3.75
		c0.25,0.6,0.78,0.97,1.5,1.06c0.04,0.01,0.08,0.01,0.13,0.01c0.31,0,0.58-0.14,0.74-0.39c0.1-0.16,0.3-0.57-0.13-1.04
		c-0.07-0.07-0.11-0.22-0.15-0.39c-0.09-0.37-0.15-0.77-0.18-1.27c-0.07-1.14,0.07-2.35,0.45-3.81c0.46-1.79,1.02-3.31,1.71-4.65
		c0.02-0.04,0.04-0.08,0.06-0.11c1.09-0.1,2.2-0.32,3.37-0.64c0.57-0.16,1.15-0.34,1.75-0.56c0.75-0.27,1.46-0.56,2.14-0.87
		c1.65-0.75,3.11-1.62,4.4-2.64c0.87-0.69,1.54-1.41,2.07-2.21c0.5-0.76,0.76-1.46,0.83-2.19c0.17-1.9-0.85-3.54-2.68-4.28
		c-0.97-0.4-2.08-0.59-3.47-0.61c-0.08,0-0.16,0-0.24,0c-1.42,0-2.9,0.18-4.81,0.58c-3.06,0.64-5.47,1.45-7.61,2.55
		c-1.17,0.6-2.69,1.44-4.04,2.57c-0.65,0.54-1.09,1.02-1.43,1.55c-0.21,0.33-0.46,0.79-0.46,1.35
		C43.82,88.16,44.17,88.66,44.72,88.77z"/>
	<path class="st0" d="M65.28,94.79c-0.23-1.15-0.83-1.99-1.79-2.49c-0.31-0.16-0.62-0.3-0.93-0.43c-0.11-0.05-0.22-0.09-0.32-0.14
		c-0.28-0.13-0.57-0.21-0.87-0.25c-0.14-0.02-0.28-0.03-0.42-0.03c-0.43,0-0.88,0.09-1.36,0.27c-0.67,0.25-1.31,0.62-1.92,1.12
		c-0.3,0.25-0.6,0.52-0.89,0.83c-1.37,1.44-2.08,3.08-2.13,4.89c0,0.98,0.18,1.78,0.57,2.43c0.46,0.76,1.2,1.34,2.28,1.78
		c0.44,0.18,0.87,0.27,1.3,0.27c0.12,0,0.25-0.01,0.37-0.02c0.19-0.02,0.37-0.05,0.55-0.09c0.5-0.1,0.94-0.26,1.36-0.47
		c1.7-0.87,2.94-2.18,3.72-3.91c0.12-0.26,0.22-0.53,0.32-0.81c0.29-0.85,0.36-1.72,0.23-2.61C65.31,95,65.3,94.9,65.28,94.79z
		 M59.49,100.69c-0.32,0.16-0.58,0.23-0.84,0.23c-0.08,0-0.17-0.01-0.25-0.03c-0.29-0.06-0.46-0.2-0.59-0.46
		c-0.24-0.51-0.28-1.08-0.12-1.77c0.34-1.48,1.08-2.81,2.19-3.95c0.4-0.41,0.93-0.68,1.58-0.81c0.12-0.02,0.23-0.04,0.33-0.04
		c0.31,0,0.65,0.1,0.77,0.81c0.04,0.22,0.06,0.39,0.05,0.53c0,0.32-0.04,0.63-0.15,1.01c-0.39,1.41-1.06,2.64-1.98,3.65
		C60.11,100.28,59.82,100.53,59.49,100.69z"/>
	<path class="st0" d="M65.94,95.16c-0.36,1.11-0.54,2.1-0.58,3.12c0,0.03,0,0.06,0,0.08c0,0.04,0.01,0.09,0.01,0.14
		c0,0.04,0.01,0.08,0.01,0.13c0.01,0.14,0.03,0.31,0.06,0.47c0.21,1.2,1.1,1.96,2.32,1.98l0.07,0c0.95,0,1.75-0.41,2.36-1.21
		l0.02-0.02c0.18-0.21,0.24-0.4,0.24-0.56c0-0.26-0.14-0.45-0.2-0.52c-0.05-0.06-0.11-0.11-0.18-0.15
		c-0.13-0.08-0.28-0.13-0.44-0.13c-0.23,0-0.41,0.09-0.53,0.16l-0.05,0.03c-0.14,0.09-0.27,0.16-0.39,0.2
		c-0.07,0.02-0.11,0.03-0.14,0.03c-0.02,0-0.06,0-0.12-0.13c-0.08-0.17-0.12-0.37-0.12-0.62c0-0.34,0.04-0.69,0.13-1.12
		c0.27-1.3,0.74-2.53,1.12-3.46c1.13-2.75,2.61-5.63,4.67-9.06c0.17-0.29,0.34-0.57,0.51-0.86c0.68-1.15,1.38-2.35,2.23-3.39
		c0.06-0.08,0.11-0.16,0.14-0.22c0.16-0.3,0.19-0.59,0.1-0.86c-0.09-0.27-0.29-0.48-0.59-0.63c-0.24-0.12-0.51-0.18-0.78-0.18
		c-0.55,0-1.05,0.24-1.38,0.67c-0.1,0.12-0.18,0.25-0.25,0.37l-0.05,0.08c-1.58,2.48-3.17,5.21-5.01,8.6
		c-1.21,2.23-2.16,4.29-2.92,6.31C66.11,94.68,66.02,94.92,65.94,95.16z"/>
	<path class="st0" d="M71.02,94.01c-0.27,0.78-0.59,1.83-0.61,2.95c0,0.02,0,0.03,0,0.05c0,0.07,0.01,0.13,0.01,0.2
		c0.01,0.17,0.01,0.34,0.04,0.53c0.03,0.19,0.07,0.36,0.13,0.52c0.11,0.31,0.26,0.58,0.46,0.81c0.17,0.19,0.38,0.35,0.62,0.47
		c0.33,0.17,0.73,0.26,1.14,0.26c1,0,1.99-0.52,2.46-1.28c0.26-0.42,0.15-0.74,0.01-0.94c-0.15-0.21-0.39-0.33-0.64-0.33
		c-0.14,0-0.28,0.03-0.41,0.1c-0.07,0.03-0.14,0.07-0.21,0.11c-0.1,0.05-0.19,0.1-0.27,0.14c-0.11,0.04-0.17,0.05-0.2,0.05
		c-0.03,0-0.1,0-0.16-0.23c-0.06-0.23-0.08-0.49-0.05-0.77c0.07-0.61,0.22-1.25,0.47-1.98c0.61-1.83,1.46-3.71,2.67-5.89
		c1.74-3.15,3.67-6.5,6.07-9.64c0.37-0.49,0.34-0.89,0.25-1.14c-0.09-0.25-0.33-0.58-0.95-0.72c-0.19-0.04-0.36-0.06-0.52-0.06
		c-0.75,0-1.17,0.48-1.45,0.9c-2.28,3.39-4.36,6.8-6.19,10.14C72.77,89.91,71.75,91.89,71.02,94.01z"/>
	<path class="st0" d="M81.3,86.51c-0.06,0.02-0.11,0.04-0.17,0.06c-0.22,0.07-0.44,0.14-0.66,0.25c-2.11,1.01-3.7,2.6-4.71,4.72
		c-0.46,0.97-0.7,1.97-0.7,2.99c-0.01,1.1,0.41,2.13,1.18,2.91c0.75,0.76,1.74,1.17,2.8,1.17h0c0.18,0,0.36-0.01,0.54-0.04
		c1.37-0.19,2.56-0.74,3.55-1.64c1.68-1.53,2.84-3.4,3.44-5.57c0.17-0.63,0.25-1.22,0.24-1.79c-0.04-1.57-0.99-2.6-2.54-2.75
		c-0.28-0.03-0.54-0.1-0.77-0.21c-0.38-0.18-0.79-0.27-1.19-0.27C81.96,86.34,81.63,86.4,81.3,86.51z M83.65,89.04
		c0.35,0.04,0.48,0.19,0.48,0.53c0.01,0.39-0.07,0.79-0.25,1.36c-0.62,1.88-1.59,3.5-2.91,4.8c-0.66,0.66-1.29,1.01-1.98,1.1
		c-0.11,0.02-0.21,0.02-0.31,0.02c-0.41,0-0.98-0.12-1.06-1.12c-0.05-0.54,0.03-1.1,0.23-1.7c0.28-0.85,0.69-1.67,1.22-2.47
		c0.13,0.5,0.57,0.57,0.72,0.58c0.03,0,0.06,0,0.08,0c0.22,0,0.74-0.08,0.88-0.83l0.01-0.07c0.03-0.18,0.06-0.35,0.11-0.5
		c0.36-1.08,1.28-1.75,2.4-1.75C83.41,89.02,83.53,89.03,83.65,89.04z"/>
</g>
</svg>
