<?xml version="1.0" encoding="utf-8"?>
<!-- Generator: Adobe Illustrator 24.0.2, SVG Export Plug-In . SVG Version: 6.00 Build 0)  -->
<svg version="1.1" id="Layer_1" xmlns="http://www.w3.org/2000/svg" xmlns:xlink="http://www.w3.org/1999/xlink" x="0px" y="0px"
	 viewBox="0 0 200 200" style="enable-background:new 0 0 200 200;" xml:space="preserve">
<style type="text/css">
	.st0{fill:#FAF7E8;}
	.st1{fill:#E5E3DA;}
	.st2{fill:none;}
</style>
<g>
	<polygon class="st0" points="32.45,82.1 36.23,93.7 39.07,97.68 50.01,102.07 59.65,102.77 65.87,104.29 67.99,107.98 
		70.53,112.54 65.77,97.44 63.19,93.76 57.5,89.25 49.17,87.67 39.83,88.6 34.91,85.48 	"/>
	<path class="st1" d="M46.33,78.87c0.23-2.31,1.1-3.13,3.37-3.13c1.72,0,3.44,0,5.16,0c2.41,0,3.26,0.77,3.49,3.14
		c0.64,2.1,0.37,4.25,0.17,6.37c-0.07,0.8-0.81,1.21-1.62,1.31c-0.38,0.05-0.79-0.12-1.15,0.14c-0.42,0.2-0.85,0.24-1.3,0.18
		c-0.15-0.02-0.29-0.05-0.44-0.1c-1.67-0.18-3.34-0.01-5.01-0.07c-0.56-0.02-1.14,0.03-1.68-0.17c-0.55-0.23-1.1-0.58-1.17-1.17
		C45.92,83.2,45.63,81.02,46.33,78.87z"/>
	<path class="st0" d="M55.62,86.59c0.15-0.21-0.35-0.9,0.54-0.57c1.43,0.52,2.14-0.04,2.16-1.59c0.03-1.85,0.03-3.7,0.05-5.55
		c2.07,0,4.15-0.01,6.22,0.01c1.78,0.02,2.76,1,2.79,2.8c0.02,1.89,0.01,3.79,0,5.68c-0.01,1.93-0.81,2.42-2.74,1.48
		c0,1.78,0,3.47,0,5.17c-0.61-0.04-0.71-0.6-0.95-0.98c-0.8-1.22-1.67-2.36-2.84-3.25c-0.46-0.34-0.79-0.84-1.29-1.13
		c-0.41-0.28-0.82-0.58-1.29-0.75c-0.26-0.1-0.51-0.21-0.77-0.32c-0.35-0.16-0.73-0.27-1.09-0.4c-0.27-0.09-0.54-0.2-0.72-0.44
		C55.65,86.7,55.63,86.64,55.62,86.59z"/>
	<path class="st0" d="M46.33,78.87c0.01,1.74,0.08,3.48,0.01,5.22c-0.04,1.03,0.25,1.77,1.14,2.27c-0.61,0.58-1.33,0.52-2.09,0.38
		c-0.51-0.1-1.04-0.04-1.57-0.05c-0.36,0.01-0.71,0-1.07-0.02c-0.21,0-0.41-0.03-0.61-0.06c-0.51-0.13-1.02-0.24-1.54-0.22
		c-0.13,0-0.26-0.01-0.38-0.03c-0.49-0.09-0.97-0.24-1.47-0.29c-0.3-0.06-0.6-0.16-0.9-0.22c-0.18-0.04-0.36-0.11-0.51-0.22
		c-0.08-0.1-0.1-0.22-0.07-0.35c0.01-1.14,0.01-2.27,0.03-3.41c0.03-2.02,0.99-2.98,2.98-2.99C42.3,78.87,44.32,78.88,46.33,78.87z"
		/>
	<path class="st1" d="M52.32,75.21c-1.5-0.02-2.69-1.26-2.63-2.74c0.05-1.43,1.26-2.57,2.69-2.56c1.49,0.02,2.69,1.27,2.63,2.74
		C54.95,74.11,53.76,75.23,52.32,75.21z"/>
	<path class="st0" d="M43.18,73.06c1.54-0.02,2.7,1.13,2.69,2.65c-0.01,1.45-1.16,2.62-2.59,2.64c-1.47,0.03-2.71-1.2-2.71-2.68
		C40.57,74.24,41.74,73.08,43.18,73.06z"/>
	<path class="st0" d="M58.82,75.64c0.03-1.53,1.2-2.62,2.76-2.57c1.45,0.04,2.59,1.24,2.54,2.68c-0.05,1.47-1.33,2.67-2.79,2.61
		C59.9,78.3,58.8,77.1,58.82,75.64z"/>
	<path class="st0" d="M124.51,90.8c-1.59,0-3.18-0.01-4.78,0.01c-0.52,0.01-0.95-0.01-1.05-0.68c-0.19-1.29-1.12-1.86-2.28-2.08
		c-1.88-0.36-3.78-0.41-5.64,0.14c-0.73,0.21-1.43,0.51-1.55,1.42c-0.12,0.92,0.39,1.51,1.08,1.97c1.8,1.19,3.88,1.65,5.94,2.17
		c2.82,0.72,5.73,1.09,8.47,2.12c1.88,0.71,3.55,1.7,4.89,3.27c2.72,3.17,2.22,11.25-3.47,14.19c-2.44,1.26-5.05,1.83-7.76,2.01
		c-4.13,0.28-8.24,0.11-12.12-1.5c-3.64-1.51-6.1-4.1-6.92-8.08c-0.19-0.93-0.13-1.35,1.01-1.32c2.96,0.08,5.93,0.04,8.89,0.01
		c0.76-0.01,1.2,0.1,1.34,0.99c0.26,1.66,1.62,2.12,3.01,2.31c1.62,0.22,3.26,0.19,4.89,0.01c0.35-0.04,0.7-0.13,1.03-0.26
		c0.9-0.33,1.52-0.94,1.55-1.94c0.03-0.91-0.58-1.43-1.36-1.76c-1.8-0.77-3.7-1.14-5.59-1.58c-2.4-0.56-4.85-0.95-7.18-1.81
		c-0.62-0.23-1.24-0.45-1.84-0.72c-3.64-1.65-6.15-4.1-6.02-8.44c0.14-4.76,2.23-8.09,6.55-9.58c6.18-2.13,12.44-2.05,18.51,0.46
		c3.38,1.4,5.63,3.88,6.06,7.71c0.09,0.78-0.12,1.01-0.89,0.99C127.7,90.77,126.1,90.8,124.51,90.8z"/>
	<path class="st0" d="M133.03,97.85c0-5.21,0.02-10.42-0.02-15.62c-0.01-0.99,0.19-1.37,1.3-1.36c7.79,0.05,15.58,0.05,23.36,0
		c1.08-0.01,1.34,0.32,1.29,1.33c-0.08,1.76-0.12,3.54,0.01,5.29c0.1,1.26-0.4,1.42-1.49,1.41c-4.34-0.06-8.67,0.01-13.01-0.05
		c-1.04-0.01-1.42,0.26-1.33,1.32c0.09,1.01,0.07,2.03,0,3.04c-0.07,0.92,0.24,1.22,1.18,1.2c3.18-0.05,6.37,0.02,9.56-0.04
		c1.02-0.02,1.29,0.31,1.25,1.28c-0.08,1.59-0.06,3.18,0,4.77c0.03,0.82-0.23,1.05-1.05,1.04c-3.27-0.05-6.55,0.01-9.82-0.04
		c-0.86-0.01-1.18,0.21-1.11,1.1c0.08,1.05,0.08,2.12,0,3.18c-0.07,0.96,0.31,1.18,1.21,1.17c4.47-0.04,8.94,0,13.41-0.04
		c0.9-0.01,1.24,0.19,1.2,1.15c-0.08,1.98-0.05,3.97-0.01,5.96c0.01,0.69-0.21,0.91-0.9,0.91c-8.01-0.02-16.02-0.03-24.03,0.01
		c-1.02,0-1-0.52-1-1.24C133.04,108.35,133.03,103.1,133.03,97.85z"/>
	<path class="st0" d="M82.9,80.89c4.42,0,8.84,0.02,13.26-0.02c0.89-0.01,1.25,0.17,1.21,1.15c-0.08,1.89-0.07,3.79,0,5.69
		c0.03,0.91-0.21,1.22-1.16,1.19c-2.34-0.07-4.69,0.03-7.03-0.04c-0.99-0.03-1.27,0.27-1.26,1.26c0.04,7.76,0,15.52,0.05,23.29
		c0.01,1.17-0.3,1.51-1.47,1.46c-2.43-0.09-4.86-0.08-7.29,0c-1.08,0.03-1.43-0.25-1.42-1.38c0.05-7.67,0-15.35,0.06-23.02
		c0.01-1.25-0.27-1.68-1.59-1.61c-2.29,0.12-4.6,0.01-6.89,0.05c-0.75,0.01-0.99-0.21-0.97-0.97c0.05-1.98,0.07-3.97-0.01-5.95
		c-0.03-0.91,0.29-1.1,1.12-1.09C73.97,80.91,78.44,80.89,82.9,80.89z"/>
	<path class="st0" d="M99.93,119.55c-22.57,0-45.13,0-67.7,0c-0.31,0-0.62,0-0.93,0c-0.5,0-1,0.07-0.97-0.7
		c0.03-0.77,0.56-0.64,1.04-0.65c0.18,0,0.35,0,0.53,0c45.4,0,90.8,0,136.2,0c0.18,0,0.35,0,0.53,0c0.47,0.01,1.01-0.12,1.04,0.65
		c0.03,0.77-0.48,0.71-0.97,0.7c-0.31,0-0.62,0-0.93,0C145.16,119.55,122.54,119.55,99.93,119.55z"/>
	<g>
		<path class="st0" d="M37.34,125.31h-1.77v-0.96c1.61,0,2.98,0,4.6,0v0.96H38.4v4.63h-1.05V125.31z"/>
		<path class="st0" d="M46.3,127.18c-0.02,1.44-0.9,2.89-2.87,2.89c-1.96,0-2.87-1.41-2.87-2.88c0-1.47,0.94-2.94,2.87-2.94
			C45.36,124.24,46.31,125.72,46.3,127.18z M41.6,127.2c0.02,0.92,0.52,1.9,1.84,1.9c1.32,0,1.81-0.99,1.83-1.91
			c0.02-0.94-0.51-2-1.83-2C42.11,125.2,41.57,126.26,41.6,127.2z"/>
		<path class="st0" d="M51.99,127.1c0.02,1.41-0.84,2.84-2.79,2.84c-0.69,0-1.51,0-2.19,0v-5.59c0.69,0,1.51,0,2.19,0
			C51.11,124.35,51.96,125.72,51.99,127.1z M48.04,128.92h1.15c1.27,0,1.77-0.93,1.75-1.84c-0.02-0.87-0.53-1.74-1.75-1.74h-1.15
			V128.92z"/>
		<path class="st0" d="M58.25,127.18c-0.02,1.44-0.9,2.89-2.87,2.89c-1.96,0-2.87-1.41-2.87-2.88c0-1.47,0.94-2.94,2.87-2.94
			C57.31,124.24,58.27,125.72,58.25,127.18z M53.55,127.2c0.02,0.92,0.52,1.9,1.84,1.9c1.32,0,1.81-0.99,1.83-1.91
			c0.02-0.94-0.51-2-1.83-2C54.07,125.2,53.53,126.26,53.55,127.2z"/>
		<path class="st0" d="M62.63,125.7c-0.19-0.32-0.72-0.62-1.32-0.62c-0.78,0-1.16,0.33-1.16,0.74c0,0.49,0.57,0.62,1.24,0.7
			c1.17,0.14,2.25,0.45,2.25,1.78c0,1.24-1.1,1.78-2.35,1.78c-1.14,0-2.02-0.35-2.43-1.37l0.88-0.45c0.25,0.61,0.89,0.89,1.57,0.89
			c0.66,0,1.28-0.23,1.28-0.84c0-0.53-0.55-0.74-1.29-0.82c-1.14-0.14-2.19-0.44-2.19-1.69c0-1.15,1.13-1.62,2.16-1.63
			c0.87,0,1.77,0.25,2.19,1.11L62.63,125.7z"/>
		<path class="st0" d="M69.88,129.95v-2.26h-2.75v2.26h-1.05v-5.59h1.05v2.35h2.75v-2.35h1.05v5.59H69.88z"/>
		<path class="st0" d="M75.88,128.88h-2.92l-0.48,1.05h-1.14l2.51-5.59H75l2.51,5.59h-1.15L75.88,128.88z M74.42,125.52l-1.04,2.38
			h2.07L74.42,125.52z"/>
		<path class="st0" d="M82.57,129.23c-0.57,0.57-1.32,0.83-2.12,0.83c-2.08,0-2.95-1.43-2.96-2.88c-0.01-1.46,0.94-2.94,2.96-2.94
			c0.76,0,1.48,0.29,2.05,0.85l-0.7,0.68c-0.37-0.36-0.86-0.53-1.35-0.53c-1.35,0-1.93,1.01-1.92,1.94
			c0.01,0.93,0.54,1.89,1.92,1.89c0.49,0,1.04-0.2,1.4-0.57L82.57,129.23z"/>
		<path class="st0" d="M87.33,129.94h-4.18c0-1.86,0-3.73,0-5.59h4.18v1.02h-3.14v1.28h3.02v0.98h-3.02v1.26h3.14V129.94z"/>
		<path class="st0" d="M93.01,125.89l-1.82,2.43h-0.21l-1.78-2.43v4.06h-1.05v-5.59h1.21l1.75,2.4l1.75-2.4h1.21v5.59h-1.05V125.89z
			"/>
		<path class="st0" d="M100.54,127.18c-0.02,1.44-0.9,2.89-2.87,2.89c-1.96,0-2.87-1.41-2.87-2.88c0-1.47,0.94-2.94,2.87-2.94
			C99.6,124.24,100.56,125.72,100.54,127.18z M95.84,127.2c0.02,0.92,0.52,1.9,1.84,1.9c1.32,0,1.81-0.99,1.83-1.91
			c0.02-0.94-0.51-2-1.83-2C96.36,125.2,95.82,126.26,95.84,127.2z"/>
		<path class="st0" d="M104.93,125.7c-0.19-0.32-0.72-0.62-1.32-0.62c-0.78,0-1.16,0.33-1.16,0.74c0,0.49,0.57,0.62,1.24,0.7
			c1.17,0.14,2.25,0.45,2.25,1.78c0,1.24-1.1,1.78-2.35,1.78c-1.14,0-2.02-0.35-2.43-1.37l0.88-0.45c0.25,0.61,0.89,0.89,1.57,0.89
			c0.66,0,1.28-0.23,1.28-0.84c0-0.53-0.55-0.74-1.29-0.82c-1.14-0.14-2.19-0.44-2.19-1.69c0-1.15,1.13-1.62,2.16-1.63
			c0.87,0,1.77,0.25,2.19,1.11L104.93,125.7z"/>
		<path class="st0" d="M113.28,127.1c0.02,1.41-0.84,2.84-2.79,2.84c-0.69,0-1.51,0-2.19,0v-5.59c0.69,0,1.51,0,2.19,0
			C112.4,124.35,113.26,125.72,113.28,127.1z M109.34,128.92h1.15c1.27,0,1.77-0.93,1.75-1.84c-0.02-0.87-0.53-1.74-1.75-1.74h-1.15
			V128.92z"/>
		<path class="st0" d="M118.14,129.94h-4.18c0-1.86,0-3.73,0-5.59h4.18v1.02h-3.14v1.28h3.02v0.98h-3.02v1.26h3.14V129.94z"/>
		<path class="st0" d="M123.82,125.89l-1.82,2.43h-0.21l-1.78-2.43v4.06h-1.05v-5.59h1.21l1.75,2.4l1.75-2.4h1.21v5.59h-1.05V125.89
			z"/>
		<path class="st0" d="M131.36,127.18c-0.02,1.44-0.9,2.89-2.87,2.89c-1.96,0-2.87-1.41-2.87-2.88c0-1.47,0.94-2.94,2.87-2.94
			C130.42,124.24,131.37,125.72,131.36,127.18z M126.66,127.2c0.02,0.92,0.52,1.9,1.84,1.9c1.32,0,1.81-0.99,1.83-1.91
			c0.02-0.94-0.51-2-1.83-2C127.18,125.2,126.63,126.26,126.66,127.2z"/>
		<path class="st0" d="M137.06,129.23c-0.57,0.57-1.32,0.83-2.12,0.83c-2.08,0-2.95-1.43-2.96-2.88c-0.01-1.46,0.94-2.94,2.96-2.94
			c0.76,0,1.48,0.29,2.05,0.85l-0.7,0.68c-0.37-0.36-0.86-0.53-1.35-0.53c-1.35,0-1.93,1.01-1.92,1.94
			c0.01,0.93,0.54,1.89,1.92,1.89c0.49,0,1.04-0.2,1.4-0.57L137.06,129.23z"/>
		<path class="st0" d="M142.6,129.94h-1.25l-1.63-1.87h-1.01v1.87h-1.05v-5.59c0.89,0,1.77,0.01,2.66,0.01
			c1.32,0.01,2.01,0.89,2.01,1.85c0,0.77-0.35,1.54-1.41,1.76l1.69,1.91V129.94z M138.71,125.33v1.79h1.6
			c0.67,0,0.96-0.45,0.96-0.89s-0.3-0.89-0.96-0.89H138.71z"/>
		<path class="st0" d="M147,128.88h-2.92l-0.48,1.05h-1.14l2.51-5.59h1.15l2.51,5.59h-1.15L147,128.88z M145.54,125.52l-1.04,2.38
			h2.07L145.54,125.52z"/>
		<path class="st0" d="M153.69,129.23c-0.57,0.57-1.32,0.83-2.12,0.83c-2.08,0-2.95-1.43-2.96-2.88c-0.01-1.46,0.94-2.94,2.96-2.94
			c0.76,0,1.48,0.29,2.05,0.85l-0.7,0.68c-0.37-0.36-0.86-0.53-1.35-0.53c-1.35,0-1.93,1.01-1.92,1.94
			c0.01,0.93,0.54,1.89,1.92,1.89c0.49,0,1.04-0.2,1.4-0.57L153.69,129.23z"/>
		<path class="st0" d="M154.3,129.94v-5.59h1.05v5.59H154.3z"/>
		<path class="st0" d="M160.3,128.88h-2.92l-0.48,1.05h-1.14l2.51-5.59h1.15l2.51,5.59h-1.15L160.3,128.88z M158.84,125.52
			l-1.04,2.38h2.07L158.84,125.52z"/>
	</g>
	<path class="st2" d="M36.35,94.19c-0.04-0.16-0.08-0.32-0.12-0.49C36.23,93.7,36.27,93.88,36.35,94.19z"/>
	<path class="st2" d="M49.03,86.52c-0.01,0.01-0.01,0.02-0.02,0.04c0.01,0,0.01,0,0.02,0C49.02,86.56,49.03,86.53,49.03,86.52z"/>
	<path class="st2" d="M64.42,105.94c-0.38-0.16-0.76-0.33-1.15-0.49c-0.26-0.03-0.54-0.02-0.73-0.24v0
		c-0.45-0.07-0.93-0.03-1.32-0.33c-0.24,0-0.48,0-0.72-0.02c2.49,0.63,5.08,1.78,7.21,3.82C66.77,107.62,65.71,106.68,64.42,105.94z
		"/>
	<polygon class="st2" points="54.35,86.58 54.35,86.58 54.35,86.58 	"/>
	<path class="st2" d="M59.62,104.62c-0.1-0.01-0.21-0.01-0.31-0.02c0.14,0.03,0.28,0.06,0.43,0.09
		C59.7,104.67,59.66,104.65,59.62,104.62z"/>
	<path class="st1" d="M59.74,104.69c0.25,0.05,0.5,0.11,0.76,0.18c0.24,0.02,0.48,0.01,0.72,0.02c0.39,0.3,0.87,0.26,1.32,0.33v0
		c0.2,0.22,0.47,0.21,0.73,0.24c0.38,0.16,0.76,0.33,1.15,0.49c1.28,0.73,2.35,1.68,3.29,2.74c1.09,1.04,2.05,2.31,2.82,3.86
		c-0.67-3.68-2.21-6.89-4.66-9.64c-0.66-0.74-1.24-1.6-2.24-1.97c-0.35-0.27-0.54-0.76-1.06-0.8c-0.3-0.29-0.67-0.41-1.06-0.5
		c-0.33-0.19-0.66-0.36-1.06-0.3c-0.27-0.07-0.53-0.14-0.8-0.21c-0.27-0.03-0.53-0.06-0.8-0.09c-0.41-0.24-0.87-0.24-1.32-0.2
		c-0.36-0.01-0.71-0.02-1.07-0.04c-2.02-0.39-4.07-0.2-6.1-0.21l0,0c-0.71,0-1.42-0.01-2.13-0.01c-0.27,0-0.53-0.01-0.8-0.01
		c-0.27-0.01-0.53-0.01-0.8-0.02c-0.17-0.01-0.34-0.02-0.51-0.02c-0.26-0.21-0.55-0.14-0.83-0.09l0,0l0,0c0,0,0,0,0,0l0,0
		c-0.51-0.2-1.04-0.17-1.58-0.16c-0.07-0.06-0.14-0.07-0.22-0.03c-0.63-0.16-1.27-0.32-1.9-0.48c-0.05-0.06-0.12-0.08-0.2-0.06v0
		c-0.38-0.17-0.75-0.33-1.13-0.5c-1.5-0.97-2.9-2.04-4.03-3.48c0.04,0.16,0.08,0.32,0.12,0.49c0.58,2.08,3.57,10.14,15.06,10.14
		c0,0,3.65-0.56,7.9,0.27c0.1,0.01,0.21,0.01,0.31,0.02C59.66,104.65,59.7,104.67,59.74,104.69z"/>
	<path class="st1" d="M67.71,108.68c1.05,1.18,1.95,2.51,2.82,3.86C69.76,110.99,68.8,109.72,67.71,108.68z"/>
	<polygon class="st1" points="45.29,98.42 45.29,98.42 45.29,98.42 	"/>
	<path class="st1" d="M51.41,104.33c0.35,0,0.71,0,1.06,0c0.44,0,0.89,0,1.33,0c0.44,0,0.89,0,1.33,0c0.35,0.01,0.7,0.02,1.05,0.02
		c0.17,0.1,0.34,0.13,0.5,0.12c0.62,0.11,1.26,0.09,1.89,0.09c0.09,0,0.18,0.01,0.28,0.01c0.16,0.01,0.31,0.02,0.47,0.03
		C55.06,103.77,51.41,104.33,51.41,104.33z"/>
	<path class="st1" d="M39.46,91.33c0.26,0.09,0.53,0.18,0.8,0.27l0,0c0.26,0.08,0.53,0.15,0.79,0.23c0.18,0.02,0.36,0.04,0.54,0.07
		c0.42,0.2,0.86,0.28,1.32,0.22c0.18,0,0.36,0,0.54,0c0.26,0.01,0.53,0.02,0.79,0.03v0c0.27,0,0.53,0,0.8,0c0.27,0,0.53,0,0.8,0
		c0.27,0,0.53,0,0.8,0c0.62,0,1.24,0,1.86,0c0.27,0,0.53,0,0.8,0c0.42,0.01,0.84,0.03,1.27,0.04c0.1,0.07,0.21,0.08,0.3,0.04
		c1.24,0.16,2.49,0.16,3.74,0.15c0.35,0.01,0.71,0.02,1.06,0.03c0.17,0.01,0.34,0.02,0.51,0.02c0.14,0.09,0.29,0.12,0.44,0.12
		c0.56,0.12,1.13,0.12,1.7,0.14c0.3,0.25,0.67,0.27,1.04,0.28v0c0.2,0.24,0.48,0.26,0.76,0.28c0.3,0.29,0.67,0.43,1.07,0.53
		c1.69,1.14,3.18,2.49,4.32,4.19c0.16,0.36,0.28,0.75,0.78,0.97c-0.05-0.62-0.19-1.1-0.5-1.52c0,0,0,0,0,0
		c-0.38-1.14-0.75-2.28-1.13-3.42c-1.04-1.65-1.98-3.38-3.67-4.51l0,0c-0.51-0.27-0.69-0.95-1.32-1.08c0,0,0,0,0,0
		c-0.4-0.34-0.78-0.7-1.33-0.77c-0.26-0.1-0.52-0.2-0.78-0.31c0,0,0,0,0,0c-0.36-0.15-0.72-0.3-1.08-0.45
		c-0.26-0.07-0.52-0.15-0.78-0.22c0,0,0,0,0,0c0,0-0.06-0.1-0.06-0.1c-0.42,0-0.84,0-1.26-0.01c-0.2-0.08-0.4-0.13-0.6-0.12
		c-1.43-0.23-2.87-0.06-4.31,0.04c-0.09-0.01-0.19-0.01-0.29,0.02c-0.04,0-0.09,0.01-0.13,0.01v0c-0.48-0.31-1.03-0.05-1.54-0.16
		c-1.25,0.31-2.52-0.15-3.77,0.04c-0.35-0.01-0.71-0.02-1.06-0.04c-0.18-0.01-0.36-0.01-0.54-0.02c-0.51-0.22-1.04-0.26-1.58-0.23
		c-0.09-0.01-0.19-0.01-0.28-0.02c-0.52-0.12-1.03-0.34-1.59-0.26l0,0c-0.26-0.08-0.53-0.16-0.79-0.24v0
		c-0.17-0.04-0.34-0.08-0.51-0.12v0c-0.01-0.08-0.04-0.14-0.1-0.19c-1.91-0.34-3.25-1.62-4.83-3.19c0.98,3.95,2.27,7.18,5.95,8.75
		C38.69,91.15,39.06,91.28,39.46,91.33z M54.35,86.58C54.35,86.58,54.35,86.58,54.35,86.58S54.35,86.58,54.35,86.58L54.35,86.58z
		 M49.03,86.52c0,0,0,0.03,0,0.03c-0.01,0-0.01,0-0.02,0C49.01,86.55,49.02,86.54,49.03,86.52z"/>
	<path class="st1" d="M50.04,97.65c0.54,0.06,0.76-0.38,0.69-0.7c-0.05-0.24-0.54-0.38-0.83-0.57c-0.04,0.37-0.76,0.21-0.57,0.62
		C49.43,97.25,49.42,97.88,50.04,97.65z"/>
	<path class="st1" d="M55.99,93.96c-0.1-0.4-0.58-0.37-0.77-0.68c-0.1,0.31-0.62,0.32-0.59,0.73c-0.1,0.84,0.54,0.42,0.84,0.53
		C56.13,94.8,55.66,94.01,55.99,93.96z"/>
	<path class="st1" d="M49.72,93.19c-0.23,0.3-0.55,0.54-0.56,0.79c-0.02,0.53,0.52,0.52,0.88,0.65c0.52,0.18,0.22-0.26,0.29-0.41
		C50.63,93.59,49.87,93.65,49.72,93.19z"/>
	<path class="st1" d="M52.81,94.96c-0.34-0.06-0.62,0.29-0.64,0.6c-0.01,0.18,0.02,0.61,0.51,0.57c0.39-0.03,0.64-0.12,0.73-0.67
		C53.26,95.33,53.06,95,52.81,94.96z"/>
	<path class="st1" d="M55.53,96.44c-0.28,0.19-0.56,0.38-0.84,0.57c0.42,0.03,0.26,0.81,0.89,0.65c0.25-0.07,0.65,0.23,0.53-0.31
		C56.29,96.76,55.66,96.77,55.53,96.44z"/>
</g>
</svg>
