<?xml version="1.0" encoding="utf-8"?>
<!-- Generator: Adobe Illustrator 24.0.2, SVG Export Plug-In . SVG Version: 6.00 Build 0)  -->
<svg version="1.1" id="Layer_1" xmlns="http://www.w3.org/2000/svg" xmlns:xlink="http://www.w3.org/1999/xlink" x="0px" y="0px"
	 viewBox="0 0 162.36 39.89" style="enable-background:new 0 0 162.36 39.89;" xml:space="preserve">
<style type="text/css">
	.st0{fill:#FAF7E8;}
</style>
<g>
	<g>
		<path class="st0" d="M65.1,18.06v3.58c0,3.45,2.16,6.25,6.69,6.25h30.64v12.05H72.46c-6.84,0-8.87-3.66-8.87-10V10.11
			c0-6.33,2.03-10,8.87-10h29.97v12.05H72.46C66.74,12.16,65.1,14.52,65.1,18.06z"/>
		<path class="st0" d="M162.24,13.8v26.03H150.2V8.86c0-6.37-2.62-7.36-5.9-7.36h-3.29v38.32h-12.05V8.86c0-6.37-2.62-7.36-5.9-7.36
			h-3.26v38.32h-12.05V0h37.45C156.03,0,162.24,1.89,162.24,13.8z"/>
	</g>
	<path class="st0" d="M11.54,33.96H1.61c-0.83,0-1.5-0.67-1.5-1.5l0-0.94c0-0.83,0.67-1.5,1.5-1.5h9.93c0.83,0,1.5,0.67,1.5,1.5
		v0.94C13.04,33.29,12.37,33.96,11.54,33.96z"/>
	<path class="st0" d="M11.54,27.98H1.61c-0.83,0-1.5-0.67-1.5-1.5l0-0.94c0-0.83,0.67-1.5,1.5-1.5h9.93c0.83,0,1.5,0.67,1.5,1.5
		v0.94C13.04,27.31,12.37,27.98,11.54,27.98z"/>
	<path class="st0" d="M26.49,33.96h-9.93c-0.83,0-1.5-0.67-1.5-1.5v-0.94c0-0.83,0.67-1.5,1.5-1.5h9.93c0.83,0,1.5,0.67,1.5,1.5
		v0.94C27.99,33.29,27.32,33.96,26.49,33.96z"/>
	<path class="st0" d="M26.49,27.98h-9.93c-0.83,0-1.5-0.67-1.5-1.5v-0.94c0-0.83,0.67-1.5,1.5-1.5h9.93c0.83,0,1.5,0.67,1.5,1.5
		v0.94C27.99,27.31,27.32,27.98,26.49,27.98z"/>
	<path class="st0" d="M26.49,22h-9.93c-0.83,0-1.5-0.67-1.5-1.5v-0.94c0-0.83,0.67-1.5,1.5-1.5l9.93,0c0.83,0,1.5,0.67,1.5,1.5v0.94
		C27.99,21.33,27.32,22,26.49,22z"/>
	<path class="st0" d="M26.49,16.02h-9.93c-0.83,0-1.5-0.67-1.5-1.5v-0.94c0-0.83,0.67-1.5,1.5-1.5h9.93c0.83,0,1.5,0.67,1.5,1.5
		v0.94C27.99,15.35,27.32,16.02,26.49,16.02z"/>
	<path class="st0" d="M41.45,33.96h-9.93c-0.83,0-1.5-0.67-1.5-1.5v-0.94c0-0.83,0.67-1.5,1.5-1.5h9.93c0.83,0,1.5,0.67,1.5,1.5
		v0.94C42.95,33.29,42.28,33.96,41.45,33.96z"/>
	<path class="st0" d="M41.45,27.98h-9.93c-0.83,0-1.5-0.67-1.5-1.5v-0.94c0-0.83,0.67-1.5,1.5-1.5h9.93c0.83,0,1.5,0.67,1.5,1.5
		v0.94C42.95,27.31,42.28,27.98,41.45,27.98z"/>
	<path class="st0" d="M41.45,22h-9.93c-0.83,0-1.5-0.67-1.5-1.5v-0.94c0-0.83,0.67-1.5,1.5-1.5l9.93,0c0.83,0,1.5,0.67,1.5,1.5v0.94
		C42.95,21.33,42.28,22,41.45,22z"/>
	<path class="st0" d="M56.4,33.96h-9.93c-0.83,0-1.5-0.67-1.5-1.5v-0.94c0-0.83,0.67-1.5,1.5-1.5h9.93c0.83,0,1.5,0.67,1.5,1.5v0.94
		C57.9,33.29,57.23,33.96,56.4,33.96z"/>
	<path class="st0" d="M56.4,27.98h-9.93c-0.83,0-1.5-0.67-1.5-1.5v-0.94c0-0.83,0.67-1.5,1.5-1.5h9.93c0.83,0,1.5,0.67,1.5,1.5v0.94
		C57.9,27.31,57.23,27.98,56.4,27.98z"/>
	<path class="st0" d="M56.4,22h-9.93c-0.83,0-1.5-0.67-1.5-1.5v-0.94c0-0.83,0.67-1.5,1.5-1.5l9.93,0c0.83,0,1.5,0.67,1.5,1.5v0.94
		C57.9,21.33,57.23,22,56.4,22z"/>
	<path class="st0" d="M41.45,16.02h-9.93c-0.83,0-1.5-0.67-1.5-1.5v-0.94c0-0.83,0.67-1.5,1.5-1.5h9.93c0.83,0,1.5,0.67,1.5,1.5
		v0.94C42.95,15.35,42.28,16.02,41.45,16.02z"/>
	<path class="st0" d="M41.45,10.04h-9.93c-0.83,0-1.5-0.67-1.5-1.5V7.59c0-0.83,0.67-1.5,1.5-1.5l9.93,0c0.83,0,1.5,0.67,1.5,1.5
		v0.94C42.95,9.36,42.28,10.04,41.45,10.04z"/>
	<path class="st0" d="M41.45,4.05l-9.93,0c-0.83,0-1.5-0.67-1.5-1.5V1.61c0-0.83,0.67-1.5,1.5-1.5l9.93,0c0.83,0,1.5,0.67,1.5,1.5
		v0.94C42.95,3.38,42.28,4.05,41.45,4.05z"/>
	<path class="st0" d="M13.04,39.94H0.11l0-2.44c0-0.83,0.67-1.5,1.5-1.5h9.93c0.83,0,1.5,0.67,1.5,1.5V39.94z"/>
	<path class="st0" d="M27.99,39.94H15.07V37.5c0-0.83,0.67-1.5,1.5-1.5h9.93c0.83,0,1.5,0.67,1.5,1.5V39.94z"/>
	<path class="st0" d="M42.95,39.94H30.02V37.5c0-0.83,0.67-1.5,1.5-1.5h9.93c0.83,0,1.5,0.67,1.5,1.5V39.94z"/>
	<path class="st0" d="M57.9,39.94H44.97V37.5c0-0.83,0.67-1.5,1.5-1.5h9.93c0.83,0,1.5,0.67,1.5,1.5V39.94z"/>
</g>
</svg>
