<?xml version="1.0" encoding="utf-8"?>
<!-- Generator: Adobe Illustrator 24.0.2, SVG Export Plug-In . SVG Version: 6.00 Build 0)  -->
<svg version="1.1" id="Layer_1" xmlns="http://www.w3.org/2000/svg" xmlns:xlink="http://www.w3.org/1999/xlink" x="0px" y="0px"
	 viewBox="0 0 162.36 39.89" style="enable-background:new 0 0 162.36 39.89;" xml:space="preserve">
<style type="text/css">
	.st0{fill:#FAF7E8;}
	.st1{fill:#3460F1;}
	.st2{fill:#4BA45F;}
	.st3{fill:#F2BC48;}
	.st4{fill:#DA4B3F;}
</style>
<g>
	<g>
		<path class="st0" d="M65.08,17.97v3.59c0,3.46,2.17,6.26,6.7,6.26h30.68v12.07H72.45c-6.85,0-8.88-3.67-8.88-10.01V10.01
			C63.57,3.67,65.61,0,72.45,0h30.01v12.07H72.45C66.72,12.07,65.08,14.43,65.08,17.97z"/>
		<path class="st0" d="M162.36,13.7v26.07h-12.07V8.77c0-6.38-2.63-7.37-5.91-7.37h-3.3v38.38h-12.07V8.77
			c0-6.38-2.63-7.37-5.91-7.37h-3.26v38.38h-12.07V-0.11h37.5C156.14-0.11,162.36,1.78,162.36,13.7z"/>
	</g>
	<path class="st1" d="M12.94,39.89L0,39.89l0-2.45c0-0.83,0.67-1.5,1.5-1.5h9.94c0.83,0,1.5,0.67,1.5,1.5V39.89z"/>
	<path class="st2" d="M11.44,33.9H1.5c-0.83,0-1.5-0.67-1.5-1.5l0-0.95c0-0.83,0.67-1.5,1.5-1.5h9.94c0.83,0,1.5,0.67,1.5,1.5v0.95
		C12.94,33.22,12.27,33.9,11.44,33.9z"/>
	<path class="st2" d="M11.44,27.91l-9.94,0c-0.83,0-1.5-0.67-1.5-1.5l0-0.95c0-0.83,0.67-1.5,1.5-1.5h9.94c0.83,0,1.5,0.67,1.5,1.5
		v0.95C12.94,27.23,12.27,27.91,11.44,27.91z"/>
	<path class="st1" d="M27.92,39.89l-12.94,0v-2.45c0-0.83,0.67-1.5,1.5-1.5h9.94c0.83,0,1.5,0.67,1.5,1.5V39.89z"/>
	<path class="st2" d="M26.42,33.9h-9.94c-0.83,0-1.5-0.67-1.5-1.5v-0.95c0-0.83,0.67-1.5,1.5-1.5h9.94c0.83,0,1.5,0.67,1.5,1.5v0.95
		C27.92,33.22,27.25,33.9,26.42,33.9z"/>
	<path class="st2" d="M26.42,27.91l-9.94,0c-0.83,0-1.5-0.67-1.5-1.5v-0.95c0-0.83,0.67-1.5,1.5-1.5h9.94c0.83,0,1.5,0.67,1.5,1.5
		v0.95C27.92,27.23,27.25,27.91,26.42,27.91z"/>
	<path class="st3" d="M26.42,21.92h-9.94c-0.83,0-1.5-0.67-1.5-1.5v-0.95c0-0.83,0.67-1.5,1.5-1.5h9.94c0.83,0,1.5,0.67,1.5,1.5
		v0.95C27.92,21.25,27.25,21.92,26.42,21.92z"/>
	<path class="st3" d="M26.42,15.93h-9.94c-0.83,0-1.5-0.67-1.5-1.5v-0.95c0-0.83,0.67-1.5,1.5-1.5h9.94c0.83,0,1.5,0.67,1.5,1.5
		v0.95C27.92,15.26,27.25,15.93,26.42,15.93z"/>
	<path class="st1" d="M42.89,39.89l-12.94,0v-2.45c0-0.83,0.67-1.5,1.5-1.5h9.94c0.83,0,1.5,0.67,1.5,1.5V39.89z"/>
	<path class="st2" d="M41.39,33.9h-9.94c-0.83,0-1.5-0.67-1.5-1.5v-0.95c0-0.83,0.67-1.5,1.5-1.5h9.94c0.83,0,1.5,0.67,1.5,1.5v0.95
		C42.89,33.22,42.22,33.9,41.39,33.9z"/>
	<path class="st2" d="M41.39,27.91l-9.94,0c-0.83,0-1.5-0.67-1.5-1.5v-0.95c0-0.83,0.67-1.5,1.5-1.5h9.94c0.83,0,1.5,0.67,1.5,1.5
		v0.95C42.89,27.23,42.22,27.91,41.39,27.91z"/>
	<path class="st3" d="M41.39,21.92h-9.94c-0.83,0-1.5-0.67-1.5-1.5v-0.95c0-0.83,0.67-1.5,1.5-1.5h9.94c0.83,0,1.5,0.67,1.5,1.5
		v0.95C42.89,21.25,42.22,21.92,41.39,21.92z"/>
	<path class="st1" d="M57.87,39.89l-12.94,0v-2.45c0-0.83,0.67-1.5,1.5-1.5h9.94c0.83,0,1.5,0.67,1.5,1.5V39.89z"/>
	<path class="st2" d="M56.37,33.9h-9.94c-0.83,0-1.5-0.67-1.5-1.5v-0.95c0-0.83,0.67-1.5,1.5-1.5h9.94c0.83,0,1.5,0.67,1.5,1.5v0.95
		C57.87,33.22,57.19,33.9,56.37,33.9z"/>
	<path class="st2" d="M56.37,27.91l-9.94,0c-0.83,0-1.5-0.67-1.5-1.5v-0.95c0-0.83,0.67-1.5,1.5-1.5h9.94c0.83,0,1.5,0.67,1.5,1.5
		v0.95C57.87,27.23,57.19,27.91,56.37,27.91z"/>
	<path class="st3" d="M56.37,21.92h-9.94c-0.83,0-1.5-0.67-1.5-1.5v-0.95c0-0.83,0.67-1.5,1.5-1.5h9.94c0.83,0,1.5,0.67,1.5,1.5
		v0.95C57.87,21.25,57.19,21.92,56.37,21.92z"/>
	<path class="st3" d="M41.39,15.93h-9.94c-0.83,0-1.5-0.67-1.5-1.5v-0.95c0-0.83,0.67-1.5,1.5-1.5h9.94c0.83,0,1.5,0.67,1.5,1.5
		v0.95C42.89,15.26,42.22,15.93,41.39,15.93z"/>
	<path class="st4" d="M41.39,9.94h-9.94c-0.83,0-1.5-0.67-1.5-1.5V7.49c0-0.83,0.67-1.5,1.5-1.5l9.94,0c0.83,0,1.5,0.67,1.5,1.5
		v0.95C42.89,9.27,42.22,9.94,41.39,9.94z"/>
	<path class="st4" d="M41.39,3.95l-9.94,0c-0.83,0-1.5-0.67-1.5-1.5V1.5c0-0.83,0.67-1.5,1.5-1.5l9.94,0c0.83,0,1.5,0.67,1.5,1.5
		v0.95C42.89,3.28,42.22,3.95,41.39,3.95z"/>
</g>
</svg>
