<?xml version="1.0" encoding="utf-8"?>
<!-- Generator: Adobe Illustrator 24.0.2, SVG Export Plug-In . SVG Version: 6.00 Build 0)  -->
<svg version="1.1" id="Layer_1" xmlns="http://www.w3.org/2000/svg" xmlns:xlink="http://www.w3.org/1999/xlink" x="0px" y="0px"
	 viewBox="0 0 200 137.86" style="enable-background:new 0 0 200 137.86;" xml:space="preserve">
<style type="text/css">
	.st0{fill:#4BA45F;}
	.st1{fill:#F2BC48;}
	.st2{fill:#DA4B3F;}
	.st3{fill:#3460F1;}
</style>
<g>
	<path class="st0" d="M39.55,117.16H5.19c-2.87,0-5.19-2.32-5.19-5.19v-3.27c0-2.87,2.32-5.19,5.19-5.19h34.36
		c2.87,0,5.19,2.32,5.19,5.19v3.27C44.74,114.83,42.42,117.16,39.55,117.16z"/>
	<path class="st0" d="M39.55,96.46H5.19C2.32,96.46,0,94.14,0,91.27V88c0-2.87,2.32-5.19,5.19-5.19h34.36
		c2.87,0,5.19,2.32,5.19,5.19v3.27C44.74,94.13,42.42,96.46,39.55,96.46z"/>
	<path class="st0" d="M91.3,117.16H56.94c-2.87,0-5.19-2.32-5.19-5.19v-3.27c0-2.87,2.32-5.19,5.19-5.19H91.3
		c2.87,0,5.19,2.32,5.19,5.19v3.27C96.49,114.83,94.17,117.16,91.3,117.16z"/>
	<path class="st0" d="M91.3,96.46H56.94c-2.87,0-5.19-2.32-5.19-5.19V88c0-2.87,2.32-5.19,5.19-5.19H91.3
		c2.87,0,5.19,2.32,5.19,5.19v3.27C96.49,94.13,94.17,96.46,91.3,96.46z"/>
	<path class="st1" d="M91.3,75.75H56.94c-2.87,0-5.19-2.32-5.19-5.19v-3.27c0-2.87,2.32-5.19,5.19-5.19H91.3
		c2.87,0,5.19,2.32,5.19,5.19v3.27C96.49,73.43,94.17,75.75,91.3,75.75z"/>
	<path class="st1" d="M91.3,55.05H56.94c-2.87,0-5.19-2.32-5.19-5.19v-3.27c0-2.87,2.32-5.19,5.19-5.19H91.3
		c2.87,0,5.19,2.32,5.19,5.19v3.27C96.49,52.73,94.17,55.05,91.3,55.05z"/>
	<path class="st0" d="M143.06,117.16H108.7c-2.87,0-5.19-2.32-5.19-5.19v-3.27c0-2.87,2.32-5.19,5.19-5.19h34.36
		c2.87,0,5.19,2.32,5.19,5.19v3.27C148.25,114.83,145.92,117.16,143.06,117.16z"/>
	<path class="st0" d="M143.06,96.46H108.7c-2.87,0-5.19-2.32-5.19-5.19V88c0-2.87,2.32-5.19,5.19-5.19h34.36
		c2.87,0,5.19,2.32,5.19,5.19v3.27C148.25,94.13,145.92,96.46,143.06,96.46z"/>
	<path class="st1" d="M143.06,75.75H108.7c-2.87,0-5.19-2.32-5.19-5.19v-3.27c0-2.87,2.32-5.19,5.19-5.19h34.36
		c2.87,0,5.19,2.32,5.19,5.19v3.27C148.25,73.43,145.92,75.75,143.06,75.75z"/>
	<path class="st0" d="M194.81,117.16h-34.36c-2.87,0-5.19-2.32-5.19-5.19v-3.27c0-2.87,2.32-5.19,5.19-5.19h34.36
		c2.87,0,5.19,2.32,5.19,5.19v3.27C200,114.83,197.68,117.16,194.81,117.16z"/>
	<path class="st0" d="M194.81,96.46h-34.36c-2.87,0-5.19-2.32-5.19-5.19V88c0-2.87,2.32-5.19,5.19-5.19h34.36
		c2.87,0,5.19,2.32,5.19,5.19v3.27C200,94.13,197.68,96.46,194.81,96.46z"/>
	<path class="st1" d="M194.81,75.75h-34.36c-2.87,0-5.19-2.32-5.19-5.19v-3.27c0-2.87,2.32-5.19,5.19-5.19h34.36
		c2.87,0,5.19,2.32,5.19,5.19v3.27C200,73.43,197.68,75.75,194.81,75.75z"/>
	<path class="st1" d="M143.06,55.05H108.7c-2.87,0-5.19-2.32-5.19-5.19v-3.27c0-2.87,2.32-5.19,5.19-5.19h34.36
		c2.87,0,5.19,2.32,5.19,5.19v3.27C148.25,52.73,145.92,55.05,143.06,55.05z"/>
	<path class="st2" d="M143.06,34.35H108.7c-2.87,0-5.19-2.32-5.19-5.19v-3.27c0-2.87,2.32-5.19,5.19-5.19h34.36
		c2.87,0,5.19,2.32,5.19,5.19v3.27C148.25,32.03,145.92,34.35,143.06,34.35z"/>
	<path class="st2" d="M143.06,13.65H108.7c-2.87,0-5.19-2.32-5.19-5.19V5.19c0-2.87,2.32-5.19,5.19-5.19h34.36
		c2.87,0,5.19,2.32,5.19,5.19v3.27C148.25,11.33,145.92,13.65,143.06,13.65z"/>
	<path class="st3" d="M44.74,137.86H0v-8.46c0-2.87,2.32-5.19,5.19-5.19h34.36c2.87,0,5.19,2.32,5.19,5.19
		C44.74,129.4,44.74,137.86,44.74,137.86z"/>
	<path class="st3" d="M96.49,137.86H51.75v-8.46c0-2.87,2.32-5.19,5.19-5.19H91.3c2.87,0,5.19,2.32,5.19,5.19
		C96.49,129.4,96.49,137.86,96.49,137.86z"/>
	<path class="st3" d="M148.25,137.86h-44.74v-8.46c0-2.87,2.32-5.19,5.19-5.19h34.36c2.87,0,5.19,2.32,5.19,5.19V137.86z"/>
	<path class="st3" d="M200,137.86h-44.74v-8.46c0-2.87,2.32-5.19,5.19-5.19h34.36c2.87,0,5.19,2.32,5.19,5.19V137.86z"/>
</g>
</svg>
