<?xml version="1.0" encoding="utf-8"?>
<!-- Generator: Adobe Illustrator 24.0.2, SVG Export Plug-In . SVG Version: 6.00 Build 0)  -->
<svg version="1.1" id="Layer_1" xmlns="http://www.w3.org/2000/svg" xmlns:xlink="http://www.w3.org/1999/xlink" x="0px" y="0px"
	 viewBox="0 0 200 19.12" style="enable-background:new 0 0 200 19.12;" xml:space="preserve">
<style type="text/css">
	.st0{fill:#4BA45F;}
	.st1{fill:#F2BC48;}
	.st2{fill:#DA4B3F;}
	.st3{fill:#3460F1;}
</style>
<g>
	<g>
		<path class="st0" d="M91.61,16.25h-4.76c-0.4,0-0.72-0.32-0.72-0.72v-0.45c0-0.4,0.32-0.72,0.72-0.72h4.76
			c0.4,0,0.72,0.32,0.72,0.72v0.45C92.33,15.93,92.01,16.25,91.61,16.25z"/>
		<path class="st0" d="M91.61,13.38h-4.76c-0.4,0-0.72-0.32-0.72-0.72v-0.45c0-0.4,0.32-0.72,0.72-0.72h4.76
			c0.4,0,0.72,0.32,0.72,0.72v0.45C92.33,13.05,92.01,13.38,91.61,13.38z"/>
		<path class="st0" d="M98.79,16.25h-4.76c-0.4,0-0.72-0.32-0.72-0.72v-0.45c0-0.4,0.32-0.72,0.72-0.72h4.76
			c0.4,0,0.72,0.32,0.72,0.72v0.45C99.51,15.93,99.19,16.25,98.79,16.25z"/>
		<path class="st0" d="M98.79,13.38h-4.76c-0.4,0-0.72-0.32-0.72-0.72v-0.45c0-0.4,0.32-0.72,0.72-0.72h4.76
			c0.4,0,0.72,0.32,0.72,0.72v0.45C99.51,13.05,99.19,13.38,98.79,13.38z"/>
		<path class="st1" d="M98.79,10.51h-4.76c-0.4,0-0.72-0.32-0.72-0.72V9.34c0-0.4,0.32-0.72,0.72-0.72h4.76
			c0.4,0,0.72,0.32,0.72,0.72v0.45C99.51,10.18,99.19,10.51,98.79,10.51z"/>
		<path class="st1" d="M98.79,7.64h-4.76c-0.4,0-0.72-0.32-0.72-0.72V6.46c0-0.4,0.32-0.72,0.72-0.72h4.76
			c0.4,0,0.72,0.32,0.72,0.72v0.45C99.51,7.31,99.19,7.64,98.79,7.64z"/>
		<path class="st0" d="M105.97,16.25h-4.76c-0.4,0-0.72-0.32-0.72-0.72v-0.45c0-0.4,0.32-0.72,0.72-0.72h4.76
			c0.4,0,0.72,0.32,0.72,0.72v0.45C106.69,15.93,106.36,16.25,105.97,16.25z"/>
		<path class="st0" d="M105.97,13.38h-4.76c-0.4,0-0.72-0.32-0.72-0.72v-0.45c0-0.4,0.32-0.72,0.72-0.72h4.76
			c0.4,0,0.72,0.32,0.72,0.72v0.45C106.69,13.05,106.36,13.38,105.97,13.38z"/>
		<path class="st1" d="M105.97,10.51h-4.76c-0.4,0-0.72-0.32-0.72-0.72V9.34c0-0.4,0.32-0.72,0.72-0.72h4.76
			c0.4,0,0.72,0.32,0.72,0.72v0.45C106.69,10.18,106.36,10.51,105.97,10.51z"/>
		<path class="st0" d="M113.14,16.25h-4.76c-0.4,0-0.72-0.32-0.72-0.72v-0.45c0-0.4,0.32-0.72,0.72-0.72h4.76
			c0.4,0,0.72,0.32,0.72,0.72v0.45C113.86,15.93,113.54,16.25,113.14,16.25z"/>
		<path class="st0" d="M113.14,13.38h-4.76c-0.4,0-0.72-0.32-0.72-0.72v-0.45c0-0.4,0.32-0.72,0.72-0.72h4.76
			c0.4,0,0.72,0.32,0.72,0.72v0.45C113.86,13.05,113.54,13.38,113.14,13.38z"/>
		<path class="st1" d="M113.14,10.51h-4.76c-0.4,0-0.72-0.32-0.72-0.72V9.34c0-0.4,0.32-0.72,0.72-0.72h4.76
			c0.4,0,0.72,0.32,0.72,0.72v0.45C113.86,10.18,113.54,10.51,113.14,10.51z"/>
		<path class="st1" d="M105.97,7.64h-4.76c-0.4,0-0.72-0.32-0.72-0.72V6.46c0-0.4,0.32-0.72,0.72-0.72h4.76
			c0.4,0,0.72,0.32,0.72,0.72v0.45C106.69,7.31,106.36,7.64,105.97,7.64z"/>
		<path class="st2" d="M105.97,4.76h-4.76c-0.4,0-0.72-0.32-0.72-0.72V3.59c0-0.4,0.32-0.72,0.72-0.72h4.76
			c0.4,0,0.72,0.32,0.72,0.72v0.45C106.69,4.44,106.36,4.76,105.97,4.76z"/>
		<path class="st2" d="M105.97,1.89h-4.76c-0.4,0-0.72-0.32-0.72-0.72V0.72c0-0.4,0.32-0.72,0.72-0.72h4.76
			c0.4,0,0.72,0.32,0.72,0.72v0.45C106.69,1.57,106.36,1.89,105.97,1.89z"/>
		<path class="st3" d="M92.33,19.12h-6.2v-1.17c0-0.4,0.32-0.72,0.72-0.72h4.76c0.4,0,0.72,0.32,0.72,0.72
			C92.33,17.95,92.33,19.12,92.33,19.12z"/>
		<path class="st3" d="M99.51,19.12h-6.2v-1.17c0-0.4,0.32-0.72,0.72-0.72h4.76c0.4,0,0.72,0.32,0.72,0.72
			C99.51,17.95,99.51,19.12,99.51,19.12z"/>
		<path class="st3" d="M106.69,19.12h-6.2v-1.17c0-0.4,0.32-0.72,0.72-0.72h4.76c0.4,0,0.72,0.32,0.72,0.72
			C106.69,17.95,106.69,19.12,106.69,19.12z"/>
		<path class="st3" d="M113.86,19.12h-6.2v-1.17c0-0.4,0.32-0.72,0.72-0.72h4.76c0.4,0,0.72,0.32,0.72,0.72
			C113.86,17.95,113.86,19.12,113.86,19.12z"/>
	</g>
	<g>
		<path class="st0" d="M5.48,16.25H0.72c-0.4,0-0.72-0.32-0.72-0.72v-0.45c0-0.4,0.32-0.72,0.72-0.72h4.76
			c0.4,0,0.72,0.32,0.72,0.72v0.45C6.2,15.93,5.88,16.25,5.48,16.25z"/>
		<path class="st0" d="M5.48,13.38H0.72c-0.4,0-0.72-0.32-0.72-0.72v-0.45c0-0.4,0.32-0.72,0.72-0.72h4.76
			c0.4,0,0.72,0.32,0.72,0.72v0.45C6.2,13.05,5.88,13.38,5.48,13.38z"/>
		<path class="st0" d="M12.66,16.25H7.9c-0.4,0-0.72-0.32-0.72-0.72v-0.45c0-0.4,0.32-0.72,0.72-0.72h4.76
			c0.4,0,0.72,0.32,0.72,0.72v0.45C13.38,15.93,13.06,16.25,12.66,16.25z"/>
		<path class="st0" d="M12.66,13.38H7.9c-0.4,0-0.72-0.32-0.72-0.72v-0.45c0-0.4,0.32-0.72,0.72-0.72h4.76
			c0.4,0,0.72,0.32,0.72,0.72v0.45C13.38,13.05,13.06,13.38,12.66,13.38z"/>
		<path class="st1" d="M12.66,10.51H7.9c-0.4,0-0.72-0.32-0.72-0.72V9.34c0-0.4,0.32-0.72,0.72-0.72h4.76c0.4,0,0.72,0.32,0.72,0.72
			v0.45C13.38,10.18,13.06,10.51,12.66,10.51z"/>
		<path class="st1" d="M12.66,7.64H7.9c-0.4,0-0.72-0.32-0.72-0.72V6.46c0-0.4,0.32-0.72,0.72-0.72h4.76c0.4,0,0.72,0.32,0.72,0.72
			v0.45C13.38,7.31,13.06,7.64,12.66,7.64z"/>
		<path class="st0" d="M19.84,16.25h-4.76c-0.4,0-0.72-0.32-0.72-0.72v-0.45c0-0.4,0.32-0.72,0.72-0.72h4.76
			c0.4,0,0.72,0.32,0.72,0.72v0.45C20.56,15.93,20.24,16.25,19.84,16.25z"/>
		<path class="st0" d="M19.84,13.38h-4.76c-0.4,0-0.72-0.32-0.72-0.72v-0.45c0-0.4,0.32-0.72,0.72-0.72h4.76
			c0.4,0,0.72,0.32,0.72,0.72v0.45C20.56,13.05,20.24,13.38,19.84,13.38z"/>
		<path class="st1" d="M19.84,10.51h-4.76c-0.4,0-0.72-0.32-0.72-0.72V9.34c0-0.4,0.32-0.72,0.72-0.72h4.76
			c0.4,0,0.72,0.32,0.72,0.72v0.45C20.56,10.18,20.24,10.51,19.84,10.51z"/>
		<path class="st0" d="M27.02,16.25h-4.76c-0.4,0-0.72-0.32-0.72-0.72v-0.45c0-0.4,0.32-0.72,0.72-0.72h4.76
			c0.4,0,0.72,0.32,0.72,0.72v0.45C27.74,15.93,27.41,16.25,27.02,16.25z"/>
		<path class="st0" d="M27.02,13.38h-4.76c-0.4,0-0.72-0.32-0.72-0.72v-0.45c0-0.4,0.32-0.72,0.72-0.72h4.76
			c0.4,0,0.72,0.32,0.72,0.72v0.45C27.74,13.05,27.41,13.38,27.02,13.38z"/>
		<path class="st1" d="M27.02,10.51h-4.76c-0.4,0-0.72-0.32-0.72-0.72V9.34c0-0.4,0.32-0.72,0.72-0.72h4.76
			c0.4,0,0.72,0.32,0.72,0.72v0.45C27.74,10.18,27.41,10.51,27.02,10.51z"/>
		<path class="st1" d="M19.84,7.64h-4.76c-0.4,0-0.72-0.32-0.72-0.72V6.46c0-0.4,0.32-0.72,0.72-0.72h4.76
			c0.4,0,0.72,0.32,0.72,0.72v0.45C20.56,7.31,20.24,7.64,19.84,7.64z"/>
		<path class="st2" d="M19.84,4.76h-4.76c-0.4,0-0.72-0.32-0.72-0.72V3.59c0-0.4,0.32-0.72,0.72-0.72h4.76
			c0.4,0,0.72,0.32,0.72,0.72v0.45C20.56,4.44,20.24,4.76,19.84,4.76z"/>
		<path class="st2" d="M19.84,1.89h-4.76c-0.4,0-0.72-0.32-0.72-0.72V0.72c0-0.4,0.32-0.72,0.72-0.72h4.76
			c0.4,0,0.72,0.32,0.72,0.72v0.45C20.56,1.57,20.24,1.89,19.84,1.89z"/>
		<path class="st3" d="M6.2,19.12H0v-1.17c0-0.4,0.32-0.72,0.72-0.72h4.76c0.4,0,0.72,0.32,0.72,0.72C6.2,17.95,6.2,19.12,6.2,19.12
			z"/>
		<path class="st3" d="M13.38,19.12h-6.2v-1.17c0-0.4,0.32-0.72,0.72-0.72h4.76c0.4,0,0.72,0.32,0.72,0.72
			C13.38,17.95,13.38,19.12,13.38,19.12z"/>
		<path class="st3" d="M20.56,19.12h-6.2v-1.17c0-0.4,0.32-0.72,0.72-0.72h4.76c0.4,0,0.72,0.32,0.72,0.72V19.12z"/>
		<path class="st3" d="M27.74,19.12h-6.2v-1.17c0-0.4,0.32-0.72,0.72-0.72h4.76c0.4,0,0.72,0.32,0.72,0.72V19.12z"/>
	</g>
	<g>
		<path class="st0" d="M149.04,16.25h-4.76c-0.4,0-0.72-0.32-0.72-0.72v-0.45c0-0.4,0.32-0.72,0.72-0.72h4.76
			c0.4,0,0.72,0.32,0.72,0.72v0.45C149.76,15.93,149.44,16.25,149.04,16.25z"/>
		<path class="st0" d="M149.04,13.38h-4.76c-0.4,0-0.72-0.32-0.72-0.72v-0.45c0-0.4,0.32-0.72,0.72-0.72h4.76
			c0.4,0,0.72,0.32,0.72,0.72v0.45C149.76,13.05,149.44,13.38,149.04,13.38z"/>
		<path class="st0" d="M156.22,16.25h-4.76c-0.4,0-0.72-0.32-0.72-0.72v-0.45c0-0.4,0.32-0.72,0.72-0.72h4.76
			c0.4,0,0.72,0.32,0.72,0.72v0.45C156.94,15.93,156.61,16.25,156.22,16.25z"/>
		<path class="st0" d="M156.22,13.38h-4.76c-0.4,0-0.72-0.32-0.72-0.72v-0.45c0-0.4,0.32-0.72,0.72-0.72h4.76
			c0.4,0,0.72,0.32,0.72,0.72v0.45C156.94,13.05,156.61,13.38,156.22,13.38z"/>
		<path class="st1" d="M156.22,10.51h-4.76c-0.4,0-0.72-0.32-0.72-0.72V9.34c0-0.4,0.32-0.72,0.72-0.72h4.76
			c0.4,0,0.72,0.32,0.72,0.72v0.45C156.94,10.18,156.61,10.51,156.22,10.51z"/>
		<path class="st1" d="M156.22,7.64h-4.76c-0.4,0-0.72-0.32-0.72-0.72V6.46c0-0.4,0.32-0.72,0.72-0.72h4.76
			c0.4,0,0.72,0.32,0.72,0.72v0.45C156.94,7.31,156.61,7.64,156.22,7.64z"/>
		<path class="st0" d="M163.39,16.25h-4.76c-0.4,0-0.72-0.32-0.72-0.72v-0.45c0-0.4,0.32-0.72,0.72-0.72h4.76
			c0.4,0,0.72,0.32,0.72,0.72v0.45C164.11,15.93,163.79,16.25,163.39,16.25z"/>
		<path class="st0" d="M163.39,13.38h-4.76c-0.4,0-0.72-0.32-0.72-0.72v-0.45c0-0.4,0.32-0.72,0.72-0.72h4.76
			c0.4,0,0.72,0.32,0.72,0.72v0.45C164.11,13.05,163.79,13.38,163.39,13.38z"/>
		<path class="st1" d="M163.39,10.51h-4.76c-0.4,0-0.72-0.32-0.72-0.72V9.34c0-0.4,0.32-0.72,0.72-0.72h4.76
			c0.4,0,0.72,0.32,0.72,0.72v0.45C164.11,10.18,163.79,10.51,163.39,10.51z"/>
		<path class="st0" d="M170.57,16.25h-4.76c-0.4,0-0.72-0.32-0.72-0.72v-0.45c0-0.4,0.32-0.72,0.72-0.72h4.76
			c0.4,0,0.72,0.32,0.72,0.72v0.45C171.29,15.93,170.97,16.25,170.57,16.25z"/>
		<path class="st0" d="M170.57,13.38h-4.76c-0.4,0-0.72-0.32-0.72-0.72v-0.45c0-0.4,0.32-0.72,0.72-0.72h4.76
			c0.4,0,0.72,0.32,0.72,0.72v0.45C171.29,13.05,170.97,13.38,170.57,13.38z"/>
		<path class="st1" d="M170.57,10.51h-4.76c-0.4,0-0.72-0.32-0.72-0.72V9.34c0-0.4,0.32-0.72,0.72-0.72h4.76
			c0.4,0,0.72,0.32,0.72,0.72v0.45C171.29,10.18,170.97,10.51,170.57,10.51z"/>
		<path class="st1" d="M163.39,7.64h-4.76c-0.4,0-0.72-0.32-0.72-0.72V6.46c0-0.4,0.32-0.72,0.72-0.72h4.76
			c0.4,0,0.72,0.32,0.72,0.72v0.45C164.11,7.31,163.79,7.64,163.39,7.64z"/>
		<path class="st2" d="M163.39,4.76h-4.76c-0.4,0-0.72-0.32-0.72-0.72V3.59c0-0.4,0.32-0.72,0.72-0.72h4.76
			c0.4,0,0.72,0.32,0.72,0.72v0.45C164.11,4.44,163.79,4.76,163.39,4.76z"/>
		<path class="st2" d="M163.39,1.89h-4.76c-0.4,0-0.72-0.32-0.72-0.72V0.72c0-0.4,0.32-0.72,0.72-0.72h4.76
			c0.4,0,0.72,0.32,0.72,0.72v0.45C164.11,1.57,163.79,1.89,163.39,1.89z"/>
		<path class="st3" d="M149.76,19.12h-6.2v-1.17c0-0.4,0.32-0.72,0.72-0.72h4.76c0.4,0,0.72,0.32,0.72,0.72V19.12z"/>
		<path class="st3" d="M156.94,19.12h-6.2v-1.17c0-0.4,0.32-0.72,0.72-0.72h4.76c0.4,0,0.72,0.32,0.72,0.72V19.12z"/>
		<path class="st3" d="M164.11,19.12h-6.2v-1.17c0-0.4,0.32-0.72,0.72-0.72h4.76c0.4,0,0.72,0.32,0.72,0.72V19.12z"/>
		<path class="st3" d="M171.29,19.12h-6.2v-1.17c0-0.4,0.32-0.72,0.72-0.72h4.76c0.4,0,0.72,0.32,0.72,0.72V19.12z"/>
	</g>
	<g>
		<path class="st0" d="M62.9,16.25h-4.76c-0.4,0-0.72-0.32-0.72-0.72v-0.45c0-0.4,0.32-0.72,0.72-0.72h4.76
			c0.4,0,0.72,0.32,0.72,0.72v0.45C63.62,15.93,63.3,16.25,62.9,16.25z"/>
		<path class="st0" d="M62.9,13.38h-4.76c-0.4,0-0.72-0.32-0.72-0.72v-0.45c0-0.4,0.32-0.72,0.72-0.72h4.76
			c0.4,0,0.72,0.32,0.72,0.72v0.45C63.62,13.05,63.3,13.38,62.9,13.38z"/>
		<path class="st0" d="M70.08,16.25h-4.76c-0.4,0-0.72-0.32-0.72-0.72v-0.45c0-0.4,0.32-0.72,0.72-0.72h4.76
			c0.4,0,0.72,0.32,0.72,0.72v0.45C70.8,15.93,70.48,16.25,70.08,16.25z"/>
		<path class="st0" d="M70.08,13.38h-4.76c-0.4,0-0.72-0.32-0.72-0.72v-0.45c0-0.4,0.32-0.72,0.72-0.72h4.76
			c0.4,0,0.72,0.32,0.72,0.72v0.45C70.8,13.05,70.48,13.38,70.08,13.38z"/>
		<path class="st1" d="M70.08,10.51h-4.76c-0.4,0-0.72-0.32-0.72-0.72V9.34c0-0.4,0.32-0.72,0.72-0.72h4.76
			c0.4,0,0.72,0.32,0.72,0.72v0.45C70.8,10.18,70.48,10.51,70.08,10.51z"/>
		<path class="st1" d="M70.08,7.64h-4.76c-0.4,0-0.72-0.32-0.72-0.72V6.46c0-0.4,0.32-0.72,0.72-0.72h4.76
			c0.4,0,0.72,0.32,0.72,0.72v0.45C70.8,7.31,70.48,7.64,70.08,7.64z"/>
		<path class="st0" d="M77.26,16.25H72.5c-0.4,0-0.72-0.32-0.72-0.72v-0.45c0-0.4,0.32-0.72,0.72-0.72h4.76
			c0.4,0,0.72,0.32,0.72,0.72v0.45C77.98,15.93,77.65,16.25,77.26,16.25z"/>
		<path class="st0" d="M77.26,13.38H72.5c-0.4,0-0.72-0.32-0.72-0.72v-0.45c0-0.4,0.32-0.72,0.72-0.72h4.76
			c0.4,0,0.72,0.32,0.72,0.72v0.45C77.98,13.05,77.65,13.38,77.26,13.38z"/>
		<path class="st1" d="M77.26,10.51H72.5c-0.4,0-0.72-0.32-0.72-0.72V9.34c0-0.4,0.32-0.72,0.72-0.72h4.76
			c0.4,0,0.72,0.32,0.72,0.72v0.45C77.98,10.18,77.65,10.51,77.26,10.51z"/>
		<path class="st0" d="M84.43,16.25h-4.76c-0.4,0-0.72-0.32-0.72-0.72v-0.45c0-0.4,0.32-0.72,0.72-0.72h4.76
			c0.4,0,0.72,0.32,0.72,0.72v0.45C85.15,15.93,84.83,16.25,84.43,16.25z"/>
		<path class="st0" d="M84.43,13.38h-4.76c-0.4,0-0.72-0.32-0.72-0.72v-0.45c0-0.4,0.32-0.72,0.72-0.72h4.76
			c0.4,0,0.72,0.32,0.72,0.72v0.45C85.15,13.05,84.83,13.38,84.43,13.38z"/>
		<path class="st1" d="M84.43,10.51h-4.76c-0.4,0-0.72-0.32-0.72-0.72V9.34c0-0.4,0.32-0.72,0.72-0.72h4.76
			c0.4,0,0.72,0.32,0.72,0.72v0.45C85.15,10.18,84.83,10.51,84.43,10.51z"/>
		<path class="st1" d="M77.26,7.64H72.5c-0.4,0-0.72-0.32-0.72-0.72V6.46c0-0.4,0.32-0.72,0.72-0.72h4.76c0.4,0,0.72,0.32,0.72,0.72
			v0.45C77.98,7.31,77.65,7.64,77.26,7.64z"/>
		<path class="st2" d="M77.26,4.76H72.5c-0.4,0-0.72-0.32-0.72-0.72V3.59c0-0.4,0.32-0.72,0.72-0.72h4.76c0.4,0,0.72,0.32,0.72,0.72
			v0.45C77.98,4.44,77.65,4.76,77.26,4.76z"/>
		<path class="st2" d="M77.26,1.89H72.5c-0.4,0-0.72-0.32-0.72-0.72V0.72C71.78,0.32,72.1,0,72.5,0h4.76c0.4,0,0.72,0.32,0.72,0.72
			v0.45C77.98,1.57,77.65,1.89,77.26,1.89z"/>
		<path class="st3" d="M63.62,19.12h-6.2v-1.17c0-0.4,0.32-0.72,0.72-0.72h4.76c0.4,0,0.72,0.32,0.72,0.72
			C63.62,17.95,63.62,19.12,63.62,19.12z"/>
		<path class="st3" d="M70.8,19.12h-6.2v-1.17c0-0.4,0.32-0.72,0.72-0.72h4.76c0.4,0,0.72,0.32,0.72,0.72
			C70.8,17.95,70.8,19.12,70.8,19.12z"/>
		<path class="st3" d="M77.98,19.12h-6.2v-1.17c0-0.4,0.32-0.72,0.72-0.72h4.76c0.4,0,0.72,0.32,0.72,0.72
			C77.98,17.95,77.98,19.12,77.98,19.12z"/>
		<path class="st3" d="M85.15,19.12h-6.2v-1.17c0-0.4,0.32-0.72,0.72-0.72h4.76c0.4,0,0.72,0.32,0.72,0.72
			C85.15,17.95,85.15,19.12,85.15,19.12z"/>
	</g>
	<g>
		<path class="st0" d="M177.75,16.25h-4.76c-0.4,0-0.72-0.32-0.72-0.72v-0.45c0-0.4,0.32-0.72,0.72-0.72h4.76
			c0.4,0,0.72,0.32,0.72,0.72v0.45C178.47,15.93,178.15,16.25,177.75,16.25z"/>
		<path class="st0" d="M177.75,13.38h-4.76c-0.4,0-0.72-0.32-0.72-0.72v-0.45c0-0.4,0.32-0.72,0.72-0.72h4.76
			c0.4,0,0.72,0.32,0.72,0.72v0.45C178.47,13.05,178.15,13.38,177.75,13.38z"/>
		<path class="st0" d="M184.93,16.25h-4.76c-0.4,0-0.72-0.32-0.72-0.72v-0.45c0-0.4,0.32-0.72,0.72-0.72h4.76
			c0.4,0,0.72,0.32,0.72,0.72v0.45C185.65,15.93,185.32,16.25,184.93,16.25z"/>
		<path class="st0" d="M184.93,13.38h-4.76c-0.4,0-0.72-0.32-0.72-0.72v-0.45c0-0.4,0.32-0.72,0.72-0.72h4.76
			c0.4,0,0.72,0.32,0.72,0.72v0.45C185.65,13.05,185.32,13.38,184.93,13.38z"/>
		<path class="st1" d="M184.93,10.51h-4.76c-0.4,0-0.72-0.32-0.72-0.72V9.34c0-0.4,0.32-0.72,0.72-0.72h4.76
			c0.4,0,0.72,0.32,0.72,0.72v0.45C185.65,10.18,185.32,10.51,184.93,10.51z"/>
		<path class="st1" d="M184.93,7.64h-4.76c-0.4,0-0.72-0.32-0.72-0.72V6.46c0-0.4,0.32-0.72,0.72-0.72h4.76
			c0.4,0,0.72,0.32,0.72,0.72v0.45C185.65,7.31,185.32,7.64,184.93,7.64z"/>
		<path class="st0" d="M192.1,16.25h-4.76c-0.4,0-0.72-0.32-0.72-0.72v-0.45c0-0.4,0.32-0.72,0.72-0.72h4.76
			c0.4,0,0.72,0.32,0.72,0.72v0.45C192.82,15.93,192.5,16.25,192.1,16.25z"/>
		<path class="st0" d="M192.1,13.38h-4.76c-0.4,0-0.72-0.32-0.72-0.72v-0.45c0-0.4,0.32-0.72,0.72-0.72h4.76
			c0.4,0,0.72,0.32,0.72,0.72v0.45C192.82,13.05,192.5,13.38,192.1,13.38z"/>
		<path class="st1" d="M192.1,10.51h-4.76c-0.4,0-0.72-0.32-0.72-0.72V9.34c0-0.4,0.32-0.72,0.72-0.72h4.76
			c0.4,0,0.72,0.32,0.72,0.72v0.45C192.82,10.18,192.5,10.51,192.1,10.51z"/>
		<path class="st0" d="M199.28,16.25h-4.76c-0.4,0-0.72-0.32-0.72-0.72v-0.45c0-0.4,0.32-0.72,0.72-0.72h4.76
			c0.4,0,0.72,0.32,0.72,0.72v0.45C200,15.93,199.68,16.25,199.28,16.25z"/>
		<path class="st0" d="M199.28,13.38h-4.76c-0.4,0-0.72-0.32-0.72-0.72v-0.45c0-0.4,0.32-0.72,0.72-0.72h4.76
			c0.4,0,0.72,0.32,0.72,0.72v0.45C200,13.05,199.68,13.38,199.28,13.38z"/>
		<path class="st1" d="M199.28,10.51h-4.76c-0.4,0-0.72-0.32-0.72-0.72V9.34c0-0.4,0.32-0.72,0.72-0.72h4.76
			c0.4,0,0.72,0.32,0.72,0.72v0.45C200,10.18,199.68,10.51,199.28,10.51z"/>
		<path class="st1" d="M192.1,7.64h-4.76c-0.4,0-0.72-0.32-0.72-0.72V6.46c0-0.4,0.32-0.72,0.72-0.72h4.76
			c0.4,0,0.72,0.32,0.72,0.72v0.45C192.82,7.31,192.5,7.64,192.1,7.64z"/>
		<path class="st2" d="M192.1,4.76h-4.76c-0.4,0-0.72-0.32-0.72-0.72V3.59c0-0.4,0.32-0.72,0.72-0.72h4.76
			c0.4,0,0.72,0.32,0.72,0.72v0.45C192.82,4.44,192.5,4.76,192.1,4.76z"/>
		<path class="st2" d="M192.1,1.89h-4.76c-0.4,0-0.72-0.32-0.72-0.72V0.72c0-0.4,0.32-0.72,0.72-0.72h4.76
			c0.4,0,0.72,0.32,0.72,0.72v0.45C192.82,1.57,192.5,1.89,192.1,1.89z"/>
		<path class="st3" d="M178.47,19.12h-6.2v-1.17c0-0.4,0.32-0.72,0.72-0.72h4.76c0.4,0,0.72,0.32,0.72,0.72V19.12z"/>
		<path class="st3" d="M185.65,19.12h-6.2v-1.17c0-0.4,0.32-0.72,0.72-0.72h4.76c0.4,0,0.72,0.32,0.72,0.72V19.12z"/>
		<path class="st3" d="M192.82,19.12h-6.2v-1.17c0-0.4,0.32-0.72,0.72-0.72h4.76c0.4,0,0.72,0.32,0.72,0.72V19.12z"/>
		<path class="st3" d="M200,19.12h-6.2v-1.17c0-0.4,0.32-0.72,0.72-0.72h4.76c0.4,0,0.72,0.32,0.72,0.72V19.12z"/>
	</g>
	<g>
		<path class="st0" d="M34.19,16.25h-4.76c-0.4,0-0.72-0.32-0.72-0.72v-0.45c0-0.4,0.32-0.72,0.72-0.72h4.76
			c0.4,0,0.72,0.32,0.72,0.72v0.45C34.91,15.93,34.59,16.25,34.19,16.25z"/>
		<path class="st0" d="M34.19,13.38h-4.76c-0.4,0-0.72-0.32-0.72-0.72v-0.45c0-0.4,0.32-0.72,0.72-0.72h4.76
			c0.4,0,0.72,0.32,0.72,0.72v0.45C34.91,13.05,34.59,13.38,34.19,13.38z"/>
		<path class="st0" d="M41.37,16.25h-4.76c-0.4,0-0.72-0.32-0.72-0.72v-0.45c0-0.4,0.32-0.72,0.72-0.72h4.76
			c0.4,0,0.72,0.32,0.72,0.72v0.45C42.09,15.93,41.77,16.25,41.37,16.25z"/>
		<path class="st0" d="M41.37,13.38h-4.76c-0.4,0-0.72-0.32-0.72-0.72v-0.45c0-0.4,0.32-0.72,0.72-0.72h4.76
			c0.4,0,0.72,0.32,0.72,0.72v0.45C42.09,13.05,41.77,13.38,41.37,13.38z"/>
		<path class="st1" d="M41.37,10.51h-4.76c-0.4,0-0.72-0.32-0.72-0.72V9.34c0-0.4,0.32-0.72,0.72-0.72h4.76
			c0.4,0,0.72,0.32,0.72,0.72v0.45C42.09,10.18,41.77,10.51,41.37,10.51z"/>
		<path class="st1" d="M41.37,7.64h-4.76c-0.4,0-0.72-0.32-0.72-0.72V6.46c0-0.4,0.32-0.72,0.72-0.72h4.76
			c0.4,0,0.72,0.32,0.72,0.72v0.45C42.09,7.31,41.77,7.64,41.37,7.64z"/>
		<path class="st0" d="M48.55,16.25h-4.76c-0.4,0-0.72-0.32-0.72-0.72v-0.45c0-0.4,0.32-0.72,0.72-0.72h4.76
			c0.4,0,0.72,0.32,0.72,0.72v0.45C49.27,15.93,48.95,16.25,48.55,16.25z"/>
		<path class="st0" d="M48.55,13.38h-4.76c-0.4,0-0.72-0.32-0.72-0.72v-0.45c0-0.4,0.32-0.72,0.72-0.72h4.76
			c0.4,0,0.72,0.32,0.72,0.72v0.45C49.27,13.05,48.95,13.38,48.55,13.38z"/>
		<path class="st1" d="M48.55,10.51h-4.76c-0.4,0-0.72-0.32-0.72-0.72V9.34c0-0.4,0.32-0.72,0.72-0.72h4.76
			c0.4,0,0.72,0.32,0.72,0.72v0.45C49.27,10.18,48.95,10.51,48.55,10.51z"/>
		<path class="st0" d="M55.72,16.25h-4.76c-0.4,0-0.72-0.32-0.72-0.72v-0.45c0-0.4,0.32-0.72,0.72-0.72h4.76
			c0.4,0,0.72,0.32,0.72,0.72v0.45C56.44,15.93,56.12,16.25,55.72,16.25z"/>
		<path class="st0" d="M55.72,13.38h-4.76c-0.4,0-0.72-0.32-0.72-0.72v-0.45c0-0.4,0.32-0.72,0.72-0.72h4.76
			c0.4,0,0.72,0.32,0.72,0.72v0.45C56.44,13.05,56.12,13.38,55.72,13.38z"/>
		<path class="st1" d="M55.72,10.51h-4.76c-0.4,0-0.72-0.32-0.72-0.72V9.34c0-0.4,0.32-0.72,0.72-0.72h4.76
			c0.4,0,0.72,0.32,0.72,0.72v0.45C56.44,10.18,56.12,10.51,55.72,10.51z"/>
		<path class="st1" d="M48.55,7.64h-4.76c-0.4,0-0.72-0.32-0.72-0.72V6.46c0-0.4,0.32-0.72,0.72-0.72h4.76
			c0.4,0,0.72,0.32,0.72,0.72v0.45C49.27,7.31,48.95,7.64,48.55,7.64z"/>
		<path class="st2" d="M48.55,4.76h-4.76c-0.4,0-0.72-0.32-0.72-0.72V3.59c0-0.4,0.32-0.72,0.72-0.72h4.76
			c0.4,0,0.72,0.32,0.72,0.72v0.45C49.27,4.44,48.95,4.76,48.55,4.76z"/>
		<path class="st2" d="M48.55,1.89h-4.76c-0.4,0-0.72-0.32-0.72-0.72V0.72c0-0.4,0.32-0.72,0.72-0.72h4.76
			c0.4,0,0.72,0.32,0.72,0.72v0.45C49.27,1.57,48.95,1.89,48.55,1.89z"/>
		<path class="st3" d="M34.91,19.12h-6.2v-1.17c0-0.4,0.32-0.72,0.72-0.72h4.76c0.4,0,0.72,0.32,0.72,0.72V19.12z"/>
		<path class="st3" d="M42.09,19.12h-6.2v-1.17c0-0.4,0.32-0.72,0.72-0.72h4.76c0.4,0,0.72,0.32,0.72,0.72
			C42.09,17.95,42.09,19.12,42.09,19.12z"/>
		<path class="st3" d="M49.27,19.12h-6.2v-1.17c0-0.4,0.32-0.72,0.72-0.72h4.76c0.4,0,0.72,0.32,0.72,0.72
			C49.27,17.95,49.27,19.12,49.27,19.12z"/>
		<path class="st3" d="M56.44,19.12h-6.2v-1.17c0-0.4,0.32-0.72,0.72-0.72h4.76c0.4,0,0.72,0.32,0.72,0.72
			C56.44,17.95,56.44,19.12,56.44,19.12z"/>
	</g>
	<g>
		<path class="st0" d="M137.09,16.25h4.76c0.4,0,0.72-0.32,0.72-0.72v-0.45c0-0.4-0.32-0.72-0.72-0.72h-4.76
			c-0.4,0-0.72,0.32-0.72,0.72v0.45C136.37,15.93,136.69,16.25,137.09,16.25z"/>
		<path class="st0" d="M137.09,13.38h4.76c0.4,0,0.72-0.32,0.72-0.72v-0.45c0-0.4-0.32-0.72-0.72-0.72h-4.76
			c-0.4,0-0.72,0.32-0.72,0.72v0.45C136.37,13.05,136.69,13.38,137.09,13.38z"/>
		<path class="st0" d="M129.91,16.25h4.76c0.4,0,0.72-0.32,0.72-0.72v-0.45c0-0.4-0.32-0.72-0.72-0.72h-4.76
			c-0.4,0-0.72,0.32-0.72,0.72v0.45C129.19,15.93,129.51,16.25,129.91,16.25z"/>
		<path class="st0" d="M129.91,13.38h4.76c0.4,0,0.72-0.32,0.72-0.72v-0.45c0-0.4-0.32-0.72-0.72-0.72h-4.76
			c-0.4,0-0.72,0.32-0.72,0.72v0.45C129.19,13.05,129.51,13.38,129.91,13.38z"/>
		<path class="st1" d="M129.91,10.51h4.76c0.4,0,0.72-0.32,0.72-0.72V9.34c0-0.4-0.32-0.72-0.72-0.72h-4.76
			c-0.4,0-0.72,0.32-0.72,0.72v0.45C129.19,10.18,129.51,10.51,129.91,10.51z"/>
		<path class="st1" d="M129.91,7.64h4.76c0.4,0,0.72-0.32,0.72-0.72V6.46c0-0.4-0.32-0.72-0.72-0.72h-4.76
			c-0.4,0-0.72,0.32-0.72,0.72v0.45C129.19,7.31,129.51,7.64,129.91,7.64z"/>
		<path class="st0" d="M122.73,16.25h4.76c0.4,0,0.72-0.32,0.72-0.72v-0.45c0-0.4-0.32-0.72-0.72-0.72h-4.76
			c-0.4,0-0.72,0.32-0.72,0.72v0.45C122.01,15.93,122.34,16.25,122.73,16.25z"/>
		<path class="st0" d="M122.73,13.38h4.76c0.4,0,0.72-0.32,0.72-0.72v-0.45c0-0.4-0.32-0.72-0.72-0.72h-4.76
			c-0.4,0-0.72,0.32-0.72,0.72v0.45C122.01,13.05,122.34,13.38,122.73,13.38z"/>
		<path class="st1" d="M122.73,10.51h4.76c0.4,0,0.72-0.32,0.72-0.72V9.34c0-0.4-0.32-0.72-0.72-0.72h-4.76
			c-0.4,0-0.72,0.32-0.72,0.72v0.45C122.01,10.18,122.34,10.51,122.73,10.51z"/>
		<path class="st0" d="M115.56,16.25h4.76c0.4,0,0.72-0.32,0.72-0.72v-0.45c0-0.4-0.32-0.72-0.72-0.72h-4.76
			c-0.4,0-0.72,0.32-0.72,0.72v0.45C114.84,15.93,115.16,16.25,115.56,16.25z"/>
		<path class="st0" d="M115.56,13.38h4.76c0.4,0,0.72-0.32,0.72-0.72v-0.45c0-0.4-0.32-0.72-0.72-0.72h-4.76
			c-0.4,0-0.72,0.32-0.72,0.72v0.45C114.84,13.05,115.16,13.38,115.56,13.38z"/>
		<path class="st1" d="M115.56,10.51h4.76c0.4,0,0.72-0.32,0.72-0.72V9.34c0-0.4-0.32-0.72-0.72-0.72h-4.76
			c-0.4,0-0.72,0.32-0.72,0.72v0.45C114.84,10.18,115.16,10.51,115.56,10.51z"/>
		<path class="st1" d="M122.73,7.64h4.76c0.4,0,0.72-0.32,0.72-0.72V6.46c0-0.4-0.32-0.72-0.72-0.72h-4.76
			c-0.4,0-0.72,0.32-0.72,0.72v0.45C122.01,7.31,122.34,7.64,122.73,7.64z"/>
		<path class="st2" d="M122.73,4.76h4.76c0.4,0,0.72-0.32,0.72-0.72V3.59c0-0.4-0.32-0.72-0.72-0.72h-4.76
			c-0.4,0-0.72,0.32-0.72,0.72v0.45C122.01,4.44,122.34,4.76,122.73,4.76z"/>
		<path class="st2" d="M122.73,1.89h4.76c0.4,0,0.72-0.32,0.72-0.72V0.72c0-0.4-0.32-0.72-0.72-0.72h-4.76
			c-0.4,0-0.72,0.32-0.72,0.72v0.45C122.01,1.57,122.34,1.89,122.73,1.89z"/>
		<path class="st3" d="M136.37,19.12h6.2v-1.17c0-0.4-0.32-0.72-0.72-0.72h-4.76c-0.4,0-0.72,0.32-0.72,0.72V19.12z"/>
		<path class="st3" d="M129.19,19.12h6.2v-1.17c0-0.4-0.32-0.72-0.72-0.72h-4.76c-0.4,0-0.72,0.32-0.72,0.72V19.12z"/>
		<path class="st3" d="M122.01,19.12h6.2v-1.17c0-0.4-0.32-0.72-0.72-0.72h-4.76c-0.4,0-0.72,0.32-0.72,0.72V19.12z"/>
		<path class="st3" d="M114.84,19.12h6.2v-1.17c0-0.4-0.32-0.72-0.72-0.72h-4.76c-0.4,0-0.72,0.32-0.72,0.72
			C114.84,17.95,114.84,19.12,114.84,19.12z"/>
	</g>
</g>
</svg>
