<?xml version="1.0" encoding="utf-8"?>
<!-- Generator: Adobe Illustrator 24.0.2, SVG Export Plug-In . SVG Version: 6.00 Build 0)  -->
<svg version="1.1" id="Layer_1" xmlns="http://www.w3.org/2000/svg" xmlns:xlink="http://www.w3.org/1999/xlink" x="0px" y="0px"
	 viewBox="0 0 200 67.73" style="enable-background:new 0 0 200 67.73;" xml:space="preserve">
<style type="text/css">
	.st0{fill:#4BA45F;}
	.st1{fill:#F2BC48;}
	.st2{fill:#DA4B3F;}
	.st3{fill:#3460F1;}
</style>
<g>
	<g>
		<path class="st0" d="M121.17,57.56h-16.88c-1.41,0-2.55-1.14-2.55-2.55V53.4c0-1.41,1.14-2.55,2.55-2.55h16.88
			c1.41,0,2.55,1.14,2.55,2.55v1.61C123.72,56.42,122.58,57.56,121.17,57.56z"/>
		<path class="st0" d="M121.17,47.39h-16.88c-1.41,0-2.55-1.14-2.55-2.55v-1.61c0-1.41,1.14-2.55,2.55-2.55h16.88
			c1.41,0,2.55,1.14,2.55,2.55v1.61C123.72,46.25,122.58,47.39,121.17,47.39z"/>
		<path class="st0" d="M146.6,57.56h-16.88c-1.41,0-2.55-1.14-2.55-2.55V53.4c0-1.41,1.14-2.55,2.55-2.55h16.88
			c1.41,0,2.55,1.14,2.55,2.55v1.61C149.15,56.42,148.01,57.56,146.6,57.56z"/>
		<path class="st0" d="M146.6,47.39h-16.88c-1.41,0-2.55-1.14-2.55-2.55v-1.61c0-1.41,1.14-2.55,2.55-2.55h16.88
			c1.41,0,2.55,1.14,2.55,2.55v1.61C149.15,46.25,148.01,47.39,146.6,47.39z"/>
		<path class="st1" d="M146.6,37.22h-16.88c-1.41,0-2.55-1.14-2.55-2.55v-1.6c0-1.41,1.14-2.55,2.55-2.55h16.88
			c1.41,0,2.55,1.14,2.55,2.55v1.61C149.15,36.08,148.01,37.22,146.6,37.22z"/>
		<path class="st1" d="M146.6,27.05h-16.88c-1.41,0-2.55-1.14-2.55-2.55v-1.61c0-1.41,1.14-2.55,2.55-2.55h16.88
			c1.41,0,2.55,1.14,2.55,2.55v1.61C149.15,25.91,148.01,27.05,146.6,27.05z"/>
		<path class="st0" d="M172.02,57.56h-16.88c-1.41,0-2.55-1.14-2.55-2.55V53.4c0-1.41,1.14-2.55,2.55-2.55h16.88
			c1.41,0,2.55,1.14,2.55,2.55v1.61C174.57,56.42,173.43,57.56,172.02,57.56z"/>
		<path class="st0" d="M172.02,47.39h-16.88c-1.41,0-2.55-1.14-2.55-2.55v-1.61c0-1.41,1.14-2.55,2.55-2.55h16.88
			c1.41,0,2.55,1.14,2.55,2.55v1.61C174.57,46.25,173.43,47.39,172.02,47.39z"/>
		<path class="st1" d="M172.02,37.22h-16.88c-1.41,0-2.55-1.14-2.55-2.55v-1.6c0-1.41,1.14-2.55,2.55-2.55h16.88
			c1.41,0,2.55,1.14,2.55,2.55v1.61C174.57,36.08,173.43,37.22,172.02,37.22z"/>
		<path class="st0" d="M197.45,57.56h-16.88c-1.41,0-2.55-1.14-2.55-2.55V53.4c0-1.41,1.14-2.55,2.55-2.55h16.88
			c1.41,0,2.55,1.14,2.55,2.55v1.61C200,56.42,198.86,57.56,197.45,57.56z"/>
		<path class="st0" d="M197.45,47.39h-16.88c-1.41,0-2.55-1.14-2.55-2.55v-1.61c0-1.41,1.14-2.55,2.55-2.55h16.88
			c1.41,0,2.55,1.14,2.55,2.55v1.61C200,46.25,198.86,47.39,197.45,47.39z"/>
		<path class="st1" d="M197.45,37.22h-16.88c-1.41,0-2.55-1.14-2.55-2.55v-1.6c0-1.41,1.14-2.55,2.55-2.55h16.88
			c1.41,0,2.55,1.14,2.55,2.55v1.61C200,36.08,198.86,37.22,197.45,37.22z"/>
		<path class="st1" d="M172.02,27.05h-16.88c-1.41,0-2.55-1.14-2.55-2.55v-1.61c0-1.41,1.14-2.55,2.55-2.55h16.88
			c1.41,0,2.55,1.14,2.55,2.55v1.61C174.57,25.91,173.43,27.05,172.02,27.05z"/>
		<path class="st2" d="M172.02,16.88h-16.88c-1.41,0-2.55-1.14-2.55-2.55v-1.61c0-1.41,1.14-2.55,2.55-2.55h16.88
			c1.41,0,2.55,1.14,2.55,2.55v1.61C174.57,15.74,173.43,16.88,172.02,16.88z"/>
		<path class="st2" d="M172.02,6.71h-16.88c-1.41,0-2.55-1.14-2.55-2.55V2.55c0-1.41,1.14-2.55,2.55-2.55h16.88
			c1.41,0,2.55,1.14,2.55,2.55v1.61C174.57,5.57,173.43,6.71,172.02,6.71z"/>
		<path class="st3" d="M123.72,67.73h-21.98v-4.16c0-1.41,1.14-2.55,2.55-2.55h16.88c1.41,0,2.55,1.14,2.55,2.55
			C123.72,63.57,123.72,67.73,123.72,67.73z"/>
		<path class="st3" d="M149.15,67.73h-21.98v-4.16c0-1.41,1.14-2.55,2.55-2.55h16.88c1.41,0,2.55,1.14,2.55,2.55L149.15,67.73
			L149.15,67.73z"/>
		<path class="st3" d="M174.57,67.73h-21.98v-4.16c0-1.41,1.14-2.55,2.55-2.55h16.88c1.41,0,2.55,1.14,2.55,2.55L174.57,67.73
			L174.57,67.73z"/>
		<path class="st3" d="M200,67.73h-21.98v-4.16c0-1.41,1.14-2.55,2.55-2.55h16.88c1.41,0,2.55,1.14,2.55,2.55L200,67.73L200,67.73z"
			/>
	</g>
	<g>
		<path class="st0" d="M78.83,57.56h16.88c1.41,0,2.55-1.14,2.55-2.55V53.4c0-1.41-1.14-2.55-2.55-2.55H78.83
			c-1.41,0-2.55,1.14-2.55,2.55v1.61C76.28,56.42,77.42,57.56,78.83,57.56z"/>
		<path class="st0" d="M78.83,47.39h16.88c1.41,0,2.55-1.14,2.55-2.55v-1.61c0-1.41-1.14-2.55-2.55-2.55H78.83
			c-1.41,0-2.55,1.14-2.55,2.55v1.61C76.28,46.25,77.42,47.39,78.83,47.39z"/>
		<path class="st0" d="M53.4,57.56h16.88c1.41,0,2.55-1.14,2.55-2.55V53.4c0-1.41-1.14-2.55-2.55-2.55H53.4
			c-1.41,0-2.55,1.14-2.55,2.55v1.61C50.85,56.42,51.99,57.56,53.4,57.56z"/>
		<path class="st0" d="M53.4,47.39h16.88c1.41,0,2.55-1.14,2.55-2.55v-1.61c0-1.41-1.14-2.55-2.55-2.55H53.4
			c-1.41,0-2.55,1.14-2.55,2.55v1.61C50.85,46.25,51.99,47.39,53.4,47.39z"/>
		<path class="st1" d="M53.4,37.22h16.88c1.41,0,2.55-1.14,2.55-2.55v-1.6c0-1.41-1.14-2.55-2.55-2.55H53.4
			c-1.41,0-2.55,1.14-2.55,2.55v1.61C50.85,36.08,51.99,37.22,53.4,37.22z"/>
		<path class="st1" d="M53.4,27.05h16.88c1.41,0,2.55-1.14,2.55-2.55v-1.61c0-1.41-1.14-2.55-2.55-2.55H53.4
			c-1.41,0-2.55,1.14-2.55,2.55v1.61C50.85,25.91,51.99,27.05,53.4,27.05z"/>
		<path class="st0" d="M27.98,57.56h16.88c1.41,0,2.55-1.14,2.55-2.55V53.4c0-1.41-1.14-2.55-2.55-2.55H27.98
			c-1.41,0-2.55,1.14-2.55,2.55v1.61C25.43,56.42,26.57,57.56,27.98,57.56z"/>
		<path class="st0" d="M27.98,47.39h16.88c1.41,0,2.55-1.14,2.55-2.55v-1.61c0-1.41-1.14-2.55-2.55-2.55H27.98
			c-1.41,0-2.55,1.14-2.55,2.55v1.61C25.43,46.25,26.57,47.39,27.98,47.39z"/>
		<path class="st1" d="M27.98,37.22h16.88c1.41,0,2.55-1.14,2.55-2.55v-1.6c0-1.41-1.14-2.55-2.55-2.55H27.98
			c-1.41,0-2.55,1.14-2.55,2.55v1.61C25.43,36.08,26.57,37.22,27.98,37.22z"/>
		<path class="st0" d="M2.55,57.56h16.88c1.41,0,2.55-1.14,2.55-2.55V53.4c0-1.41-1.14-2.55-2.55-2.55H2.55
			C1.14,50.85,0,51.99,0,53.4v1.61C0,56.42,1.14,57.56,2.55,57.56z"/>
		<path class="st0" d="M2.55,47.39h16.88c1.41,0,2.55-1.14,2.55-2.55v-1.61c0-1.41-1.14-2.55-2.55-2.55H2.55
			C1.14,40.68,0,41.82,0,43.23v1.61C0,46.25,1.14,47.39,2.55,47.39z"/>
		<path class="st1" d="M2.55,37.22h16.88c1.41,0,2.55-1.14,2.55-2.55v-1.6c0-1.41-1.14-2.55-2.55-2.55H2.55
			C1.14,30.52,0,31.66,0,33.07v1.61C0,36.08,1.14,37.22,2.55,37.22z"/>
		<path class="st1" d="M27.98,27.05h16.88c1.41,0,2.55-1.14,2.55-2.55v-1.61c0-1.41-1.14-2.55-2.55-2.55H27.98
			c-1.41,0-2.55,1.14-2.55,2.55v1.61C25.43,25.91,26.57,27.05,27.98,27.05z"/>
		<path class="st2" d="M27.98,16.88h16.88c1.41,0,2.55-1.14,2.55-2.55v-1.61c0-1.41-1.14-2.55-2.55-2.55H27.98
			c-1.41,0-2.55,1.14-2.55,2.55v1.61C25.43,15.74,26.57,16.88,27.98,16.88z"/>
		<path class="st2" d="M27.98,6.71h16.88c1.41,0,2.55-1.14,2.55-2.55V2.55c0-1.41-1.14-2.55-2.55-2.55H27.98
			c-1.41,0-2.55,1.14-2.55,2.55v1.61C25.43,5.57,26.57,6.71,27.98,6.71z"/>
		<path class="st3" d="M76.28,67.73h21.98v-4.16c0-1.41-1.14-2.55-2.55-2.55H78.83c-1.41,0-2.55,1.14-2.55,2.55V67.73z"/>
		<path class="st3" d="M50.85,67.73h21.98v-4.16c0-1.41-1.14-2.55-2.55-2.55H53.4c-1.41,0-2.55,1.14-2.55,2.55
			C50.85,63.57,50.85,67.73,50.85,67.73z"/>
		<path class="st3" d="M25.43,67.73h21.98v-4.16c0-1.41-1.14-2.55-2.55-2.55H27.98c-1.41,0-2.55,1.14-2.55,2.55V67.73z"/>
		<path class="st3" d="M0,67.73h21.98v-4.16c0-1.41-1.14-2.55-2.55-2.55H2.55C1.14,61.02,0,62.16,0,63.57V67.73z"/>
	</g>
</g>
</svg>
