<?xml version="1.0" encoding="utf-8"?>
<!-- Generator: Adobe Illustrator 24.0.2, SVG Export Plug-In . SVG Version: 6.00 Build 0)  -->
<svg version="1.1" id="Layer_1" xmlns="http://www.w3.org/2000/svg" xmlns:xlink="http://www.w3.org/1999/xlink" x="0px" y="0px"
	 viewBox="0 0 200 47.79" style="enable-background:new 0 0 200 47.79;" xml:space="preserve">
<style type="text/css">
	.st0{fill:#FAF7E8;}
	.st1{fill:#4BA45F;}
	.st2{fill:#F2BC48;}
	.st3{fill:#DA4B3F;}
	.st4{fill:#3460F1;}
</style>
<g>
	<g>
		<path class="st0" d="M77.35,7.03v1.39c0,1.33,0.84,2.42,2.59,2.42h11.85v4.66H80.2c-2.64,0-3.43-1.42-3.43-3.87V3.96
			c0-2.45,0.79-3.87,3.43-3.87h11.59v4.66H80.2C77.99,4.75,77.35,5.66,77.35,7.03z"/>
		<path class="st0" d="M94.34,8.03V8.5c0,0.68,0.16,1.25,0.59,1.65c0.44,0.4,1.15,0.63,2.25,0.63h11.59v4.66H93.76v-8.2
			c0-2.33,0.98-3.87,2.98-3.87h12.05v4.66C108.79,8.03,94.34,8.03,94.34,8.03z M99.58,7.48V3.86h-2.76c-2.44,0-2.48,2.45-2.48,3.62
			H99.58z"/>
		<path class="st0" d="M126.09,9.42c-0.07,3.83,0.55,6.02-5.33,6.02h-9.85v-4.66h13.18c1.94,0,1.88-2.77,0-2.77h-11.62
			c-0.68,0-1.99-0.52-1.99-1.99c0.07-3.83-0.55-6.02,5.33-6.02h9.42v4.66h-12.75c-1.67,0-1.8,2.77,0,2.77h11.62
			C125.13,7.43,126.09,7.95,126.09,9.42z"/>
		<path class="st0" d="M140.23,15.44h-8.29v-4.66h10.58l-1.88-6.09h-9.83l-3.31,10.75h-0.6l4.75-15.41h8.16l3.65,11.85l0,0
			C143.95,13.25,144.21,15.44,140.23,15.44z"/>
		<path class="st0" d="M156.99,10.82h3.13v4.64h-2.33c-0.86,0-2.37-0.92-3.1-2.8c-0.91-2.32-0.91-4.03-3.17-4.03h-1.83v6.83h-4.41
			V0.03h9.47c7.25,0,6.91,8.59,2.16,8.59h-3.75c0.51,0.32,0.92,0.84,1.33,1.25C154.99,10.37,155.7,10.82,156.99,10.82z M156.66,8.09
			c2.37,0,2.45-3.4-0.26-3.4h-6.71v3.4H156.66z"/>
		<path class="st0" d="M98,27.42v10.07h-4.66V25.51c0-2.46-1.01-2.85-2.28-2.85h-1.27v14.82h-4.66V25.5c0-2.46-1.01-2.85-2.28-2.85
			h-1.26v14.82h-4.66V22.08h14.49C95.6,22.08,98,22.81,98,27.42z"/>
		<path class="st0" d="M115.04,27.39v4.75c0,4.61-2.46,5.34-6.76,5.34h-1.5c-4.3,0-6.76-0.73-6.76-5.34v-4.75
			c0-4.61,2.46-5.34,6.76-5.34h1.5C112.58,22.05,115.04,22.78,115.04,27.39z M110.26,25.48c0-2.46-0.97-2.79-2.34-2.85h-0.79
			c-1.31,0.05-2.34,0.38-2.34,2.85v8.57c0,2.46,1.03,2.8,2.34,2.85h0.79c1.37-0.05,2.34-0.38,2.34-2.85V25.48z"/>
		<path class="st0" d="M128.89,32.85h3.13v4.64h-2.33c-0.86,0-2.37-0.92-3.1-2.8c-0.91-2.32-0.91-4.03-3.17-4.03h-1.83v6.83h-4.41
			V22.07h9.47c7.25,0,6.91,8.59,2.16,8.59h-3.75c0.51,0.32,0.92,0.84,1.33,1.25C126.89,32.41,127.61,32.86,128.89,32.85z
			 M128.56,30.13c2.37,0,2.45-3.4-0.26-3.4h-6.71v3.4H128.56z"/>
		<path class="st0" d="M146.44,37.48h-8.29v-4.66h10.58l-1.88-6.09h-9.83l-3.31,10.75h-0.6l4.75-15.41h8.16l3.65,11.85l0,0
			C150.17,35.29,150.43,37.48,146.44,37.48z"/>
		<path class="st0" d="M166.16,31.66v5.82H151.5V22.07h4.66v11.98c0,2.26,0.45,2.85,2.28,2.85h3.06v-5.24H166.16z"/>
		<path class="st0" d="M168.26,26.73v3.8c0,0.68,0.16,1.25,0.59,1.65c0.44,0.4,1.15,0.63,2.25,0.63h11.59v4.66h-15.02V25.93
			c0-2.33,0.98-3.87,2.98-3.87h12.05v4.66h-14.44V26.73z M173.49,26.18v-3.62h-2.76c-2.44,0-2.48,2.45-2.48,3.62H173.49z"/>
		<path class="st0" d="M200,31.46c-0.07,3.83,0.55,6.02-5.33,6.02h-9.85v-4.66H198c1.94,0,1.88-2.77,0-2.77h-11.62
			c-0.68,0-1.99-0.52-1.99-1.99c0.07-3.83-0.55-6.02,5.33-6.02h9.42v4.66h-12.75c-1.67,0-1.8,2.77,0,2.77h11.62
			C199.04,29.47,200,29.98,200,31.46z"/>
		<path class="st0" d="M108.78,2.6V0.04h-6.63l0,0c-1.37,0-2.48,1.11-2.48,2.48V2.6C99.67,2.6,108.78,2.6,108.78,2.6z"/>
	</g>
	<path class="st1" d="M13.74,40.78H1.8c-1,0-1.8-0.81-1.8-1.8v-1.14c0-1,0.81-1.8,1.8-1.8h11.94c1,0,1.8,0.81,1.8,1.8v1.14
		C15.54,39.98,14.73,40.78,13.74,40.78z"/>
	<path class="st1" d="M13.74,33.59H1.8c-1,0-1.8-0.81-1.8-1.8v-1.14c0-1,0.81-1.8,1.8-1.8h11.94c1,0,1.8,0.81,1.8,1.8v1.14
		C15.54,32.78,14.73,33.59,13.74,33.59z"/>
	<path class="st1" d="M31.72,40.78H19.78c-1,0-1.8-0.81-1.8-1.8v-1.14c0-1,0.81-1.8,1.8-1.8h11.94c1,0,1.8,0.81,1.8,1.8v1.14
		C33.52,39.98,32.71,40.78,31.72,40.78z"/>
	<path class="st1" d="M31.72,33.59H19.78c-1,0-1.8-0.81-1.8-1.8v-1.14c0-1,0.81-1.8,1.8-1.8h11.94c1,0,1.8,0.81,1.8,1.8v1.14
		C33.52,32.78,32.71,33.59,31.72,33.59z"/>
	<path class="st2" d="M31.72,26.4H19.78c-1,0-1.8-0.81-1.8-1.8v-1.14c0-1,0.81-1.8,1.8-1.8h11.94c1,0,1.8,0.81,1.8,1.8v1.14
		C33.52,25.59,32.71,26.4,31.72,26.4z"/>
	<path class="st2" d="M31.72,19.21H19.78c-1,0-1.8-0.81-1.8-1.8v-1.14c0-1,0.81-1.8,1.8-1.8h11.94c1,0,1.8,0.81,1.8,1.8v1.14
		C33.52,18.4,32.71,19.21,31.72,19.21z"/>
	<path class="st1" d="M49.7,40.78H37.76c-1,0-1.8-0.81-1.8-1.8v-1.14c0-1,0.81-1.8,1.8-1.8H49.7c1,0,1.8,0.81,1.8,1.8v1.14
		C51.5,39.98,50.69,40.78,49.7,40.78z"/>
	<path class="st1" d="M49.7,33.59H37.76c-1,0-1.8-0.81-1.8-1.8v-1.14c0-1,0.81-1.8,1.8-1.8H49.7c1,0,1.8,0.81,1.8,1.8v1.14
		C51.5,32.78,50.69,33.59,49.7,33.59z"/>
	<path class="st2" d="M49.7,26.4H37.76c-1,0-1.8-0.81-1.8-1.8v-1.14c0-1,0.81-1.8,1.8-1.8H49.7c1,0,1.8,0.81,1.8,1.8v1.14
		C51.5,25.59,50.69,26.4,49.7,26.4z"/>
	<path class="st1" d="M67.68,40.78H55.74c-1,0-1.8-0.81-1.8-1.8v-1.14c0-1,0.81-1.8,1.8-1.8h11.94c1,0,1.8,0.81,1.8,1.8v1.14
		C69.48,39.98,68.67,40.78,67.68,40.78z"/>
	<path class="st1" d="M67.68,33.59H55.74c-1,0-1.8-0.81-1.8-1.8v-1.14c0-1,0.81-1.8,1.8-1.8h11.94c1,0,1.8,0.81,1.8,1.8v1.14
		C69.48,32.78,68.67,33.59,67.68,33.59z"/>
	<path class="st2" d="M67.68,26.4H55.74c-1,0-1.8-0.81-1.8-1.8v-1.14c0-1,0.81-1.8,1.8-1.8h11.94c1,0,1.8,0.81,1.8,1.8v1.14
		C69.48,25.59,68.67,26.4,67.68,26.4z"/>
	<path class="st2" d="M49.7,19.21H37.76c-1,0-1.8-0.81-1.8-1.8v-1.14c0-1,0.81-1.8,1.8-1.8H49.7c1,0,1.8,0.81,1.8,1.8v1.14
		C51.5,18.4,50.69,19.21,49.7,19.21z"/>
	<path class="st3" d="M49.7,12.02H37.76c-1,0-1.8-0.81-1.8-1.8V9.08c0-1,0.81-1.8,1.8-1.8H49.7c1,0,1.8,0.81,1.8,1.8v1.14
		C51.5,11.21,50.69,12.02,49.7,12.02z"/>
	<g>
		<path class="st0" d="M77.1,41.95h0.34c0.1,0,0.17,0.08,0.17,0.17v5.04c0,0.1,0.08,0.17,0.17,0.17h6.37c0.1,0,0.17,0.08,0.17,0.17
			v0.3c0,0.1-0.08,0.17-0.17,0.17H77.1c-0.1,0-0.17-0.08-0.17-0.17v-5.69C76.92,42.02,77,41.95,77.1,41.95z"/>
		<path class="st0" d="M85.02,46.81v-2.24c0-0.04,0.02-0.09,0.05-0.12l0.95-0.99c0.03-0.03,0.08-0.05,0.12-0.05h4.56
			c0.05,0,0.09,0.02,0.12,0.05l0.95,0.99c0.03,0.03,0.05,0.07,0.05,0.12v2.24c0,0.04-0.02,0.09-0.05,0.12l-0.95,0.99
			c-0.03,0.03-0.08,0.05-0.12,0.05h-4.56c-0.05,0-0.09-0.02-0.12-0.05l-0.95-0.99C85.04,46.9,85.02,46.86,85.02,46.81z M90.56,47.27
			l0.53-0.57c0.03-0.03,0.05-0.07,0.05-0.12v-1.79c0-0.04-0.02-0.09-0.05-0.12l-0.53-0.57c-0.03-0.03-0.08-0.05-0.13-0.05h-4.02
			c-0.05,0-0.09,0.02-0.13,0.05l-0.53,0.57c-0.03,0.03-0.05,0.07-0.05,0.12v1.79c0,0.04,0.02,0.09,0.05,0.12l0.53,0.57
			c0.03,0.03,0.08,0.05,0.13,0.05h4.02C90.48,47.33,90.53,47.31,90.56,47.27z"/>
		<path class="st0" d="M92.69,46.81v-2.24c0-0.04,0.02-0.09,0.05-0.12l0.95-0.99c0.03-0.03,0.08-0.05,0.12-0.05h5.54
			c0.1,0,0.17,0.08,0.17,0.17v0.3c0,0.1-0.08,0.17-0.17,0.17h-5.27c-0.05,0-0.09,0.02-0.13,0.05l-0.53,0.57
			c-0.03,0.03-0.05,0.07-0.05,0.12v1.79c0,0.04,0.02,0.09,0.05,0.12l0.53,0.57c0.03,0.03,0.08,0.05,0.13,0.05h5.27
			c0.1,0,0.17,0.08,0.17,0.17v0.3c0,0.1-0.08,0.17-0.17,0.17h-5.54c-0.05,0-0.09-0.02-0.12-0.05l-0.95-0.99
			C92.71,46.9,92.69,46.86,92.69,46.81z"/>
		<path class="st0" d="M100.56,43.41h0.34c0.1,0,0.17,0.08,0.17,0.17v3.57c0,0.1,0.08,0.17,0.17,0.17h4.12
			c0.05,0,0.09-0.02,0.12-0.05l0.53-0.54c0.03-0.03,0.05-0.08,0.05-0.12v-3.03c0-0.1,0.08-0.17,0.17-0.17h0.34
			c0.1,0,0.17,0.08,0.17,0.17v4.22c0,0.1-0.08,0.17-0.17,0.17h-0.34c-0.1,0-0.17-0.08-0.17-0.17v-0.2l-0.31,0.32
			c-0.03,0.03-0.08,0.05-0.12,0.05h-5.08c-0.1,0-0.17-0.08-0.17-0.17v-4.22C100.39,43.49,100.47,43.41,100.56,43.41z"/>
		<path class="st0" d="M108.1,46.81v-2.58c0-0.1-0.08-0.17-0.17-0.17h-0.3c-0.1,0-0.17-0.08-0.17-0.17v-0.3
			c0-0.1,0.08-0.17,0.17-0.17h0.3c0.1,0,0.17-0.08,0.17-0.17v-0.39c0-0.1,0.08-0.17,0.17-0.17h0.34c0.1,0,0.17,0.08,0.17,0.17v0.39
			c0,0.1,0.08,0.17,0.17,0.17h4.65c0.1,0,0.17,0.08,0.17,0.17v0.3c0,0.1-0.08,0.17-0.17,0.17h-4.65c-0.1,0-0.17,0.08-0.17,0.17v2.36
			c0,0.04,0.02,0.09,0.05,0.12l0.53,0.57c0.03,0.03,0.08,0.05,0.13,0.05h4.12c0.1,0,0.17,0.08,0.17,0.17v0.3
			c0,0.1-0.08,0.17-0.17,0.17h-4.39c-0.05,0-0.09-0.02-0.12-0.05l-0.95-0.99C108.12,46.9,108.1,46.86,108.1,46.81z"/>
		<path class="st0" d="M114.65,46.81v-2.24c0-0.04,0.02-0.09,0.05-0.12l0.95-0.99c0.03-0.03,0.08-0.05,0.12-0.05h4.56
			c0.05,0,0.09,0.02,0.12,0.05l0.95,0.99c0.03,0.03,0.05,0.07,0.05,0.12v2.24c0,0.04-0.02,0.09-0.05,0.12l-0.95,0.99
			c-0.03,0.03-0.08,0.05-0.12,0.05h-4.56c-0.05,0-0.09-0.02-0.12-0.05l-0.95-0.99C114.66,46.9,114.65,46.86,114.65,46.81z
			 M120.18,47.27l0.53-0.57c0.03-0.03,0.05-0.07,0.05-0.12v-1.79c0-0.04-0.02-0.09-0.05-0.12l-0.53-0.57
			c-0.03-0.03-0.08-0.05-0.13-0.05h-4.02c-0.05,0-0.09,0.02-0.13,0.05l-0.53,0.57c-0.03,0.03-0.05,0.07-0.05,0.12v1.79
			c0,0.04,0.02,0.09,0.05,0.12l0.53,0.57c0.03,0.03,0.08,0.05,0.13,0.05h4.02C120.11,47.33,120.15,47.31,120.18,47.27z"/>
		<path class="st0" d="M122.48,43.41h0.34c0.09,0,0.17,0.07,0.17,0.17v0.2l0.31-0.32c0.03-0.03,0.08-0.05,0.12-0.05h5.08
			c0.1,0,0.17,0.08,0.17,0.17v0.3c0,0.1-0.08,0.17-0.17,0.17h-4.81c-0.05,0-0.09,0.02-0.12,0.05l-0.53,0.54
			c-0.03,0.03-0.05,0.08-0.05,0.12v3.03c0,0.1-0.08,0.17-0.17,0.17h-0.34c-0.1,0-0.17-0.08-0.17-0.17v-4.22
			C122.31,43.49,122.39,43.41,122.48,43.41z"/>
		<path class="st0" d="M134.72,41.95h7.06c0.1,0,0.17,0.08,0.17,0.17v2.27c0,0.04-0.01,0.08-0.04,0.11l-0.94,1.17
			c-0.03,0.04-0.08,0.06-0.13,0.06h-5.44c-0.1,0-0.17,0.08-0.17,0.17v1.9c0,0.1-0.08,0.17-0.17,0.17h-0.34
			c-0.1,0-0.17-0.08-0.17-0.17v-5.69C134.54,42.02,134.62,41.95,134.72,41.95z M140.62,45.02l0.61-0.77
			c0.02-0.03,0.04-0.07,0.04-0.11v-1.39c0-0.1-0.08-0.17-0.17-0.17h-5.69c-0.1,0-0.17,0.08-0.17,0.17v2.15
			c0,0.1,0.08,0.17,0.17,0.17h5.08C140.53,45.09,140.58,45.07,140.62,45.02z"/>
		<path class="st0" d="M142.98,43.41h0.34c0.1,0,0.17,0.08,0.17,0.17v3.57c0,0.1,0.08,0.17,0.17,0.17h4.12
			c0.05,0,0.09-0.02,0.12-0.05l0.53-0.54c0.03-0.03,0.05-0.08,0.05-0.12v-3.03c0-0.1,0.08-0.17,0.17-0.17h0.34
			c0.1,0,0.17,0.08,0.17,0.17v4.22c0,0.1-0.08,0.17-0.17,0.17h-0.34c-0.1,0-0.17-0.08-0.17-0.17v-0.2l-0.31,0.32
			c-0.03,0.03-0.08,0.05-0.12,0.05h-5.08c-0.1,0-0.17-0.08-0.17-0.17v-4.22C142.81,43.49,142.89,43.41,142.98,43.41z"/>
		<path class="st0" d="M150.22,41.95h0.34c0.1,0,0.17,0.08,0.17,0.17v1.24c0,0.15,0.19,0.23,0.3,0.12l0.02-0.02
			c0.03-0.03,0.08-0.05,0.12-0.05h5.41c0.1,0,0.17,0.08,0.17,0.17v4.22c0,0.1-0.08,0.17-0.17,0.17h-6.37c-0.1,0-0.17-0.08-0.17-0.17
			v-5.69C150.05,42.02,150.13,41.95,150.22,41.95z M156.08,47.16v-2.93c0-0.1-0.08-0.17-0.17-0.17h-4.47
			c-0.05,0-0.09,0.02-0.12,0.05l-0.53,0.54c-0.03,0.03-0.05,0.08-0.05,0.12v2.38c0,0.1,0.08,0.17,0.17,0.17h5
			C156,47.33,156.08,47.25,156.08,47.16z"/>
		<path class="st0" d="M157.84,41.95h0.34c0.1,0,0.17,0.08,0.17,0.17v5.21v0.47c0,0.1-0.08,0.17-0.17,0.17h-0.34
			c-0.1,0-0.17-0.08-0.17-0.17v-5.69C157.66,42.02,157.74,41.95,157.84,41.95z"/>
		<path class="st0" d="M159.47,41.95h0.34c0.1,0,0.17,0.08,0.17,0.17v0.34c0,0.1-0.08,0.17-0.17,0.17h-0.34
			c-0.1,0-0.17-0.08-0.17-0.17v-0.34C159.3,42.02,159.38,41.95,159.47,41.95z M159.82,47.98h-0.34c-0.1,0-0.17-0.08-0.17-0.17v-4.22
			c0-0.1,0.08-0.17,0.17-0.17h0.34c0.1,0,0.17,0.08,0.17,0.17v4.22C159.99,47.9,159.91,47.98,159.82,47.98z"/>
		<path class="st0" d="M160.89,46.81v-2.24c0-0.04,0.02-0.09,0.05-0.12l0.95-0.99c0.03-0.03,0.08-0.05,0.12-0.05h5.54
			c0.1,0,0.17,0.08,0.17,0.17v0.3c0,0.1-0.08,0.17-0.17,0.17h-5.27c-0.05,0-0.09,0.02-0.13,0.05l-0.53,0.57
			c-0.03,0.03-0.05,0.07-0.05,0.12v1.79c0,0.04,0.02,0.09,0.05,0.12l0.53,0.57c0.03,0.03,0.08,0.05,0.13,0.05h5.27
			c0.1,0,0.17,0.08,0.17,0.17v0.3c0,0.1-0.08,0.17-0.17,0.17h-5.54c-0.05,0-0.09-0.02-0.12-0.05l-0.95-0.99
			C160.91,46.9,160.89,46.86,160.89,46.81z"/>
		<path class="st0" d="M168.81,41.95h0.34c0.1,0,0.17,0.08,0.17,0.17v0.34c0,0.1-0.08,0.17-0.17,0.17h-0.34
			c-0.1,0-0.17-0.08-0.17-0.17v-0.34C168.64,42.02,168.71,41.95,168.81,41.95z M169.15,47.98h-0.34c-0.1,0-0.17-0.08-0.17-0.17
			v-4.22c0-0.1,0.08-0.17,0.17-0.17h0.34c0.1,0,0.17,0.08,0.17,0.17v4.22C169.33,47.9,169.25,47.98,169.15,47.98z"/>
		<path class="st0" d="M170.7,46.81v-2.58c0-0.1-0.08-0.17-0.17-0.17h-0.3c-0.1,0-0.17-0.08-0.17-0.17v-0.3
			c0-0.1,0.08-0.17,0.17-0.17h0.3c0.1,0,0.17-0.08,0.17-0.17v-0.39c0-0.1,0.08-0.17,0.17-0.17h0.34c0.1,0,0.17,0.08,0.17,0.17v0.39
			c0,0.1,0.08,0.17,0.17,0.17h4.65c0.1,0,0.17,0.08,0.17,0.17v0.3c0,0.1-0.08,0.17-0.17,0.17h-4.65c-0.1,0-0.17,0.08-0.17,0.17v2.36
			c0,0.04,0.02,0.09,0.05,0.12l0.53,0.57c0.03,0.03,0.08,0.05,0.13,0.05h4.12c0.1,0,0.17,0.08,0.17,0.17v0.3
			c0,0.1-0.08,0.17-0.17,0.17h-4.39c-0.05,0-0.09-0.02-0.12-0.05l-0.95-0.99C170.72,46.9,170.7,46.86,170.7,46.81z"/>
		<path class="st0" d="M177.43,44.97l5.34-0.01c0.1,0,0.17-0.08,0.17-0.17v-0.56c0-0.1-0.08-0.17-0.17-0.17l-5.35,0.01
			c-0.1,0-0.17-0.08-0.17-0.17v-0.3c0-0.1,0.08-0.17,0.17-0.17l6.04-0.01c0.1,0,0.17,0.08,0.17,0.17v4.22c0,0.1-0.08,0.17-0.17,0.17
			h-0.34c-0.1,0-0.17-0.08-0.17-0.17l0,0c0-0.15-0.19-0.23-0.29-0.12l-0.24,0.24c-0.03,0.03-0.08,0.05-0.12,0.05l-4.85,0.01
			c-0.1,0-0.17-0.08-0.17-0.17v-2.67C177.26,45.05,177.34,44.97,177.43,44.97z M182.14,47.28l0.75-0.79
			c0.03-0.03,0.05-0.07,0.05-0.12v-0.59c0-0.1-0.08-0.17-0.17-0.17l-4.65,0.02c-0.09,0-0.17,0.08-0.17,0.17v1.38
			c0,0.1,0.08,0.17,0.17,0.17l3.9-0.01C182.07,47.33,182.11,47.31,182.14,47.28z"/>
		<path class="st0" d="M184.67,43.41h0.34c0.09,0,0.17,0.07,0.17,0.17v0.2l0.31-0.32c0.03-0.03,0.08-0.05,0.12-0.05h5.08
			c0.1,0,0.17,0.08,0.17,0.17v0.3c0,0.1-0.08,0.17-0.17,0.17h-4.81c-0.05,0-0.09,0.02-0.12,0.05l-0.53,0.54
			c-0.03,0.03-0.05,0.08-0.05,0.12v3.03c0,0.1-0.08,0.17-0.17,0.17h-0.34c-0.1,0-0.17-0.08-0.17-0.17v-4.22
			C184.49,43.49,184.57,43.41,184.67,43.41z"/>
		<path class="st0" d="M191.77,41.95h0.34c0.1,0,0.17,0.08,0.17,0.17v0.34c0,0.1-0.08,0.17-0.17,0.17h-0.34
			c-0.1,0-0.17-0.08-0.17-0.17v-0.34C191.6,42.02,191.68,41.95,191.77,41.95z M192.12,47.98h-0.34c-0.1,0-0.17-0.08-0.17-0.17v-4.22
			c0-0.1,0.08-0.17,0.17-0.17h0.34c0.1,0,0.17,0.08,0.17,0.17v4.22C192.29,47.9,192.21,47.98,192.12,47.98z"/>
		<path class="st0" d="M193.19,46.81v-2.24c0-0.04,0.02-0.09,0.05-0.12l0.95-0.99c0.03-0.03,0.08-0.05,0.12-0.05h4.56
			c0.05,0,0.09,0.02,0.12,0.05l0.95,0.99c0.03,0.03,0.05,0.07,0.05,0.12v2.24c0,0.04-0.02,0.09-0.05,0.12l-0.95,0.99
			c-0.03,0.03-0.08,0.05-0.12,0.05h-4.56c-0.05,0-0.09-0.02-0.12-0.05l-0.95-0.99C193.21,46.9,193.19,46.86,193.19,46.81z
			 M198.73,47.27l0.53-0.57c0.03-0.03,0.05-0.07,0.05-0.12v-1.79c0-0.04-0.02-0.09-0.05-0.12l-0.53-0.57
			c-0.03-0.03-0.08-0.05-0.13-0.05h-4.02c-0.05,0-0.09,0.02-0.13,0.05l-0.53,0.57c-0.03,0.03-0.05,0.07-0.05,0.12v1.79
			c0,0.04,0.02,0.09,0.05,0.12l0.53,0.57c0.03,0.03,0.08,0.05,0.13,0.05h4.02C198.66,47.33,198.7,47.31,198.73,47.27z"/>
	</g>
	<path class="st4" d="M15.54,47.98H0v-2.94c0-1,0.81-1.8,1.8-1.8h11.94c1,0,1.8,0.81,1.8,1.8V47.98z"/>
	<path class="st4" d="M33.52,47.98H17.98v-2.94c0-1,0.81-1.8,1.8-1.8h11.94c1,0,1.8,0.81,1.8,1.8
		C33.52,45.04,33.52,47.98,33.52,47.98z"/>
	<path class="st4" d="M51.5,47.98H35.96v-2.94c0-1,0.81-1.8,1.8-1.8H49.7c1,0,1.8,0.81,1.8,1.8V47.98z"/>
	<path class="st4" d="M69.48,47.98H53.94v-2.94c0-1,0.81-1.8,1.8-1.8h11.94c1,0,1.8,0.81,1.8,1.8V47.98z"/>
</g>
</svg>
