<?xml version="1.0" encoding="utf-8"?>
<!-- Generator: Adobe Illustrator 24.0.2, SVG Export Plug-In . SVG Version: 6.00 Build 0)  -->
<svg version="1.1" id="Layer_1" xmlns="http://www.w3.org/2000/svg" xmlns:xlink="http://www.w3.org/1999/xlink" x="0px" y="0px"
	 viewBox="0 0 200 74.55" style="enable-background:new 0 0 200 74.55;" xml:space="preserve">
<style type="text/css">
	.st0{fill:#FAF7E8;}
</style>
<g>
	<g>
		<g>
			<path class="st0" d="M34.25,41.16v16.36h-7.57V38.06c0-4-1.65-4.63-3.71-4.63H20.9v24.09h-7.57V38.06c0-4-1.65-4.63-3.71-4.63
				H7.57v24.09H0V32.48h23.54C30.35,32.48,34.25,33.67,34.25,41.16z"/>
			<path class="st0" d="M61.94,41.11v7.72c0,7.49-4,8.67-10.99,8.67h-2.44c-6.98,0-10.99-1.19-10.99-8.67v-7.72
				c0-7.49,4-8.67,10.99-8.67h2.44C57.94,32.44,61.94,33.63,61.94,41.11z M54.18,38.01c0-4-1.57-4.54-3.8-4.63H49.1
				c-2.13,0.08-3.8,0.62-3.8,4.63v13.92c0,4,1.67,4.55,3.8,4.63h1.28c2.23-0.09,3.8-0.62,3.8-4.63
				C54.18,51.93,54.18,38.01,54.18,38.01z"/>
			<path class="st0" d="M84.45,49.99h5.09v7.54h-3.78c-1.4,0-3.85-1.5-5.04-4.55c-1.48-3.77-1.49-6.54-5.15-6.54h-2.98v11.09h-7.16
				V32.47h15.38c11.77,0,11.23,13.96,3.51,13.96l-6.1,0.01c0.83,0.51,1.49,1.36,2.16,2.03C81.19,49.27,82.36,50,84.45,49.99z
				 M83.91,45.57c3.84,0,3.98-5.53-0.42-5.53h-10.9v5.53H83.91z"/>
			<path class="st0" d="M112.97,57.51H99.5v-7.57h17.19l-3.05-9.89H97.68L92.3,57.51h-0.98l7.72-25.04h13.26l5.93,19.26l0,0
				C119.02,53.96,119.45,57.51,112.97,57.51z"/>
			<path class="st0" d="M145.01,48.05v9.46h-23.83V32.47h7.57v19.46c0,3.67,0.74,4.63,3.71,4.63h4.97v-8.51
				C137.43,48.05,145.01,48.05,145.01,48.05z"/>
			<path class="st0" d="M148.42,40.04v6.18c0,1.11,0.26,2.04,0.96,2.69c0.71,0.65,1.86,1.02,3.66,1.02h18.84v7.57h-24.41V38.75
				c0-3.78,1.59-6.28,4.84-6.28h19.57v7.57H148.42z M156.93,39.14v-5.88h-4.49c-3.97,0-4.04,3.98-4.04,5.88H156.93z"/>
			<path class="st0" d="M200,47.73c-0.12,6.23,0.89,9.78-8.66,9.78h-16.01v-7.57h21.41c3.15,0,3.05-4.5,0-4.5h-18.89
				c-1.11,0-3.24-0.84-3.24-3.24c0.12-6.23-0.89-9.78,8.66-9.78h15.31v7.57h-20.71c-2.72,0-2.92,4.5,0,4.5h18.89
				C198.44,44.49,200,45.33,200,47.73z"/>
		</g>
		<g>
			<path class="st0" d="M0.95,11.36v2.25c0,2.17,1.36,3.93,4.2,3.93h19.26v7.57H5.57c-4.3,0-5.57-2.3-5.57-6.28V6.37
				c0-3.98,1.28-6.28,5.57-6.28h18.84v7.57H5.57C1.98,7.66,0.95,9.14,0.95,11.36z"/>
			<path class="st0" d="M28.56,13v0.76c0,1.11,0.26,2.04,0.96,2.69c0.71,0.65,1.86,1.02,3.66,1.02h18.84v7.57H27.61V11.71
				c0-3.78,1.59-6.28,4.84-6.28h19.57V13H28.56z M37.07,12.1V6.22h-4.49c-3.97,0-4.04,3.98-4.04,5.88H37.07z"/>
			<path class="st0" d="M80.14,15.26c-0.12,6.23,0.89,9.78-8.66,9.78H55.47v-7.57h21.41c3.15,0,3.05-4.5,0-4.5H58
				c-1.11,0-3.24-0.84-3.24-3.24c0.12-6.23-0.89-9.78,8.66-9.78h15.31v7.57H58.01c-2.72,0-2.92,4.5,0,4.5H76.9
				C78.58,12.02,80.14,12.86,80.14,15.26z"/>
			<path class="st0" d="M103.12,25.04H89.66v-7.57h17.19l-3.05-9.89H87.83l-5.38,17.46h-0.98L89.19,0h13.26l5.93,19.26l0,0
				C109.17,21.49,109.6,25.04,103.12,25.04z"/>
			<path class="st0" d="M130.36,17.52h5.09v7.54h-3.78c-1.4,0-3.85-1.5-5.04-4.55c-1.48-3.77-1.49-6.54-5.15-6.54h-2.98v11.09h-7.16
				V0h15.38c11.77,0,11.23,13.96,3.51,13.96l-6.1,0.01c0.83,0.51,1.49,1.36,2.16,2.03C127.1,16.8,128.27,17.52,130.36,17.52z
				 M129.82,13.1c3.84,0,3.98-5.53-0.42-5.53h-10.9v5.53H129.82z"/>
			<path class="st0" d="M52.02,4.16V0H41.25l0,0c-2.23,0-4.04,1.81-4.04,4.04v0.13L52.02,4.16L52.02,4.16z"/>
		</g>
	</g>
	<g>
		<path class="st0" d="M0.28,64.75h0.56c0.15,0,0.28,0.13,0.28,0.28v8.19c0,0.15,0.13,0.28,0.28,0.28h10.36
			c0.15,0,0.28,0.13,0.28,0.28v0.49c0,0.15-0.13,0.28-0.28,0.28H0.28C0.13,74.55,0,74.42,0,74.27v-9.24
			C0,64.87,0.13,64.75,0.28,64.75z"/>
		<path class="st0" d="M13.16,72.66v-3.64c0-0.07,0.03-0.14,0.08-0.19l1.55-1.61c0.05-0.05,0.13-0.09,0.2-0.09h7.4
			c0.08,0,0.15,0.03,0.2,0.09l1.55,1.61c0.05,0.05,0.08,0.12,0.08,0.19v3.64c0,0.07-0.03,0.14-0.08,0.19l-1.55,1.61
			c-0.05,0.05-0.13,0.09-0.2,0.09h-7.4c-0.08,0-0.15-0.03-0.2-0.09l-1.55-1.61C13.19,72.8,13.16,72.73,13.16,72.66z M22.16,73.41
			l0.86-0.92c0.05-0.05,0.08-0.12,0.08-0.19v-2.91c0-0.07-0.03-0.14-0.08-0.19l-0.86-0.92c-0.05-0.06-0.13-0.09-0.2-0.09h-6.53
			c-0.08,0-0.15,0.03-0.2,0.09l-0.86,0.92c-0.05,0.05-0.08,0.12-0.08,0.19v2.91c0,0.07,0.03,0.14,0.08,0.19l0.86,0.92
			c0.05,0.06,0.13,0.09,0.2,0.09h6.53C22.03,73.5,22.1,73.46,22.16,73.41z"/>
		<path class="st0" d="M25.62,72.66v-3.64c0-0.07,0.03-0.14,0.08-0.19l1.55-1.61c0.05-0.05,0.13-0.09,0.2-0.09h9.01
			c0.15,0,0.28,0.13,0.28,0.28v0.49c0,0.15-0.13,0.28-0.28,0.28h-8.57c-0.08,0-0.15,0.03-0.2,0.09l-0.86,0.92
			c-0.05,0.05-0.08,0.12-0.08,0.19v2.91c0,0.07,0.03,0.14,0.08,0.19l0.86,0.92c0.05,0.06,0.13,0.09,0.2,0.09h8.57
			c0.15,0,0.28,0.13,0.28,0.28v0.49c0,0.15-0.13,0.28-0.28,0.28h-9.01c-0.08,0-0.15-0.03-0.2-0.09l-1.55-1.61
			C25.64,72.8,25.62,72.73,25.62,72.66z"/>
		<path class="st0" d="M38.41,67.13h0.56c0.15,0,0.28,0.13,0.28,0.28v5.81c0,0.15,0.13,0.28,0.28,0.28h6.7
			c0.08,0,0.15-0.03,0.2-0.08l0.86-0.88c0.05-0.05,0.08-0.12,0.08-0.2v-4.93c0-0.15,0.13-0.28,0.28-0.28h0.56
			c0.15,0,0.28,0.13,0.28,0.28v6.86c0,0.15-0.13,0.28-0.28,0.28h-0.56c-0.15,0-0.28-0.13-0.28-0.28v-0.32l-0.51,0.52
			c-0.05,0.05-0.12,0.08-0.2,0.08h-8.25c-0.15,0-0.28-0.13-0.28-0.28v-6.86C38.13,67.25,38.26,67.13,38.41,67.13z"/>
		<path class="st0" d="M50.66,72.66v-4.2c0-0.15-0.13-0.28-0.28-0.28h-0.49c-0.15,0-0.28-0.13-0.28-0.28v-0.49
			c0-0.15,0.13-0.28,0.28-0.28h0.49c0.15,0,0.28-0.13,0.28-0.28v-0.63c0-0.15,0.13-0.28,0.28-0.28h0.56c0.15,0,0.28,0.13,0.28,0.28
			v0.63c0,0.15,0.13,0.28,0.28,0.28h7.56c0.15,0,0.28,0.13,0.28,0.28v0.49c0,0.15-0.13,0.28-0.28,0.28h-7.56
			c-0.15,0-0.28,0.13-0.28,0.28v3.84c0,0.07,0.03,0.14,0.08,0.19l0.86,0.92c0.05,0.06,0.13,0.09,0.2,0.09h6.7
			c0.15,0,0.28,0.13,0.28,0.28v0.49c0,0.15-0.13,0.28-0.28,0.28h-7.13c-0.08,0-0.15-0.03-0.2-0.09l-1.55-1.61
			C50.69,72.8,50.66,72.73,50.66,72.66z"/>
		<path class="st0" d="M61.3,72.66v-3.64c0-0.07,0.03-0.14,0.08-0.19l1.55-1.61c0.05-0.05,0.13-0.09,0.2-0.09h7.4
			c0.08,0,0.15,0.03,0.2,0.09l1.55,1.61c0.05,0.05,0.08,0.12,0.08,0.19v3.64c0,0.07-0.03,0.14-0.08,0.19l-1.55,1.61
			c-0.05,0.05-0.13,0.09-0.2,0.09h-7.4c-0.08,0-0.15-0.03-0.2-0.09l-1.55-1.61C61.32,72.8,61.3,72.73,61.3,72.66z M70.3,73.41
			l0.86-0.92c0.05-0.05,0.08-0.12,0.08-0.19v-2.91c0-0.07-0.03-0.14-0.08-0.19l-0.86-0.92c-0.05-0.06-0.13-0.09-0.2-0.09h-6.53
			c-0.08,0-0.15,0.03-0.2,0.09l-0.86,0.92c-0.05,0.05-0.08,0.12-0.08,0.19v2.91c0,0.07,0.03,0.14,0.08,0.19l0.86,0.92
			c0.05,0.06,0.13,0.09,0.2,0.09h6.53C70.17,73.5,70.24,73.46,70.3,73.41z"/>
		<path class="st0" d="M74.03,67.13h0.55c0.15,0,0.28,0.12,0.28,0.27l0.01,0.33l0.51-0.52c0.05-0.05,0.12-0.08,0.2-0.08h8.25
			c0.15,0,0.28,0.13,0.28,0.28v0.49c0,0.15-0.13,0.28-0.28,0.28h-7.82c-0.08,0-0.15,0.03-0.2,0.08l-0.86,0.88
			c-0.05,0.05-0.08,0.12-0.08,0.2v4.93c0,0.15-0.13,0.28-0.28,0.28h-0.56c-0.15,0-0.28-0.13-0.28-0.28v-6.86
			C73.75,67.25,73.88,67.13,74.03,67.13z"/>
		<path class="st0" d="M93.91,64.75h11.48c0.15,0,0.28,0.13,0.28,0.28v3.7c0,0.06-0.02,0.13-0.06,0.17l-1.52,1.9
			c-0.05,0.07-0.13,0.11-0.22,0.11h-8.84c-0.15,0-0.28,0.13-0.28,0.28v3.08c0,0.15-0.13,0.28-0.28,0.28h-0.56
			c-0.15,0-0.28-0.13-0.28-0.28v-9.24C93.63,64.87,93.76,64.75,93.91,64.75z M103.5,69.75l0.99-1.25c0.04-0.05,0.06-0.11,0.06-0.17
			v-2.25c0-0.15-0.13-0.28-0.28-0.28h-9.24c-0.15,0-0.28,0.13-0.28,0.28v3.5c0,0.15,0.13,0.28,0.28,0.28h8.25
			C103.37,69.86,103.45,69.82,103.5,69.75z"/>
		<path class="st0" d="M107.35,67.13h0.56c0.15,0,0.28,0.13,0.28,0.28v5.81c0,0.15,0.13,0.28,0.28,0.28h6.7
			c0.08,0,0.15-0.03,0.2-0.08l0.86-0.88c0.05-0.05,0.08-0.12,0.08-0.2v-4.93c0-0.15,0.13-0.28,0.28-0.28h0.56
			c0.15,0,0.28,0.13,0.28,0.28v6.86c0,0.15-0.13,0.28-0.28,0.28h-0.56c-0.15,0-0.28-0.13-0.28-0.28v-0.32l-0.51,0.52
			c-0.05,0.05-0.12,0.08-0.2,0.08h-8.25c-0.15,0-0.28-0.13-0.28-0.28v-6.86C107.07,67.25,107.19,67.13,107.35,67.13z"/>
		<path class="st0" d="M119.11,64.75h0.56c0.15,0,0.28,0.13,0.28,0.28v2.01c0,0.25,0.3,0.38,0.48,0.2l0.03-0.03
			c0.05-0.05,0.12-0.08,0.2-0.08h8.8c0.15,0,0.28,0.13,0.28,0.28v6.86c0,0.15-0.13,0.28-0.28,0.28h-10.34
			c-0.15,0-0.28-0.13-0.28-0.28v-9.24C118.83,64.87,118.95,64.75,119.11,64.75z M128.63,73.22v-4.76c0-0.15-0.13-0.28-0.28-0.28
			h-7.26c-0.08,0-0.15,0.03-0.2,0.08l-0.86,0.88c-0.05,0.05-0.08,0.12-0.08,0.2v3.88c0,0.15,0.13,0.28,0.28,0.28h8.12
			C128.5,73.5,128.63,73.37,128.63,73.22z"/>
		<path class="st0" d="M131.48,64.75h0.56c0.15,0,0.28,0.13,0.28,0.28v8.47v0.77c0,0.15-0.13,0.28-0.28,0.28h-0.56
			c-0.15,0-0.28-0.13-0.28-0.28v-9.24C131.2,64.87,131.33,64.75,131.48,64.75z"/>
		<path class="st0" d="M134.14,64.75h0.56c0.15,0,0.28,0.13,0.28,0.28v0.56c0,0.15-0.13,0.28-0.28,0.28h-0.56
			c-0.15,0-0.28-0.13-0.28-0.28v-0.56C133.86,64.87,133.99,64.75,134.14,64.75z M134.7,74.55h-0.56c-0.15,0-0.28-0.13-0.28-0.28
			v-6.86c0-0.15,0.13-0.28,0.28-0.28h0.56c0.15,0,0.28,0.13,0.28,0.28v6.86C134.98,74.42,134.86,74.55,134.7,74.55z"/>
		<path class="st0" d="M136.45,72.66v-3.64c0-0.07,0.03-0.14,0.08-0.19l1.55-1.61c0.05-0.05,0.13-0.09,0.2-0.09h9.01
			c0.15,0,0.28,0.13,0.28,0.28v0.49c0,0.15-0.13,0.28-0.28,0.28h-8.57c-0.08,0-0.15,0.03-0.2,0.09l-0.86,0.92
			c-0.05,0.05-0.08,0.12-0.08,0.19v2.91c0,0.07,0.03,0.14,0.08,0.19l0.86,0.92c0.05,0.06,0.13,0.09,0.2,0.09h8.57
			c0.15,0,0.28,0.13,0.28,0.28v0.49c0,0.15-0.13,0.28-0.28,0.28h-9.01c-0.08,0-0.15-0.03-0.2-0.09l-1.55-1.61
			C136.48,72.8,136.45,72.73,136.45,72.66z"/>
		<path class="st0" d="M149.31,64.75h0.56c0.15,0,0.28,0.13,0.28,0.28v0.56c0,0.15-0.13,0.28-0.28,0.28h-0.56
			c-0.15,0-0.28-0.13-0.28-0.28v-0.56C149.03,64.87,149.16,64.75,149.31,64.75z M149.87,74.55h-0.56c-0.15,0-0.28-0.13-0.28-0.28
			v-6.86c0-0.15,0.13-0.28,0.28-0.28h0.56c0.15,0,0.28,0.13,0.28,0.28v6.86C150.15,74.42,150.03,74.55,149.87,74.55z"/>
		<path class="st0" d="M152.39,72.66v-4.2c0-0.15-0.13-0.28-0.28-0.28h-0.49c-0.15,0-0.28-0.13-0.28-0.28v-0.49
			c0-0.15,0.13-0.28,0.28-0.28h0.49c0.15,0,0.28-0.13,0.28-0.28v-0.63c0-0.15,0.13-0.28,0.28-0.28h0.56c0.15,0,0.28,0.13,0.28,0.28
			v0.63c0,0.15,0.13,0.28,0.28,0.28h7.56c0.15,0,0.28,0.13,0.28,0.28v0.49c0,0.15-0.13,0.28-0.28,0.28h-7.56
			c-0.15,0-0.28,0.13-0.28,0.28v3.84c0,0.07,0.03,0.14,0.08,0.19l0.86,0.92c0.05,0.06,0.13,0.09,0.2,0.09h6.7
			c0.15,0,0.28,0.13,0.28,0.28v0.49c0,0.15-0.13,0.28-0.28,0.28h-7.13c-0.08,0-0.15-0.03-0.2-0.09l-1.55-1.61
			C152.42,72.8,152.39,72.73,152.39,72.66z"/>
		<path class="st0" d="M163.33,69.66l8.68-0.01c0.15,0,0.28-0.13,0.28-0.28v-0.91c0-0.15-0.13-0.28-0.28-0.28l-8.69,0.01
			c-0.15,0-0.28-0.13-0.28-0.28v-0.49c0-0.15,0.13-0.28,0.28-0.28l9.81-0.01c0.15,0,0.28,0.13,0.28,0.28v6.86
			c0,0.15-0.13,0.28-0.28,0.28h-0.56c-0.15,0-0.28-0.13-0.28-0.28l0,0c0-0.25-0.3-0.37-0.48-0.2l-0.39,0.4
			c-0.05,0.05-0.12,0.08-0.2,0.08l-7.89,0.01c-0.15,0-0.28-0.13-0.28-0.28v-4.34C163.05,69.79,163.17,69.66,163.33,69.66z
			 M170.98,73.41l1.23-1.29c0.05-0.05,0.08-0.12,0.08-0.19v-0.96c0-0.15-0.13-0.28-0.28-0.28l-7.56,0.03
			c-0.15,0-0.28,0.13-0.28,0.28v2.24c0,0.15,0.13,0.28,0.28,0.28l6.33-0.01C170.86,73.5,170.93,73.46,170.98,73.41z"/>
		<path class="st0" d="M175.08,67.13h0.55c0.15,0,0.28,0.12,0.28,0.27l0.01,0.33l0.51-0.52c0.05-0.05,0.12-0.08,0.2-0.08h8.25
			c0.15,0,0.28,0.13,0.28,0.28v0.49c0,0.15-0.13,0.28-0.28,0.28h-7.82c-0.08,0-0.15,0.03-0.2,0.08L176,69.15
			c-0.05,0.05-0.08,0.12-0.08,0.2v4.93c0,0.15-0.13,0.28-0.28,0.28h-0.56c-0.15,0-0.28-0.13-0.28-0.28v-6.86
			C174.8,67.25,174.93,67.13,175.08,67.13z"/>
		<path class="st0" d="M186.63,64.75h0.56c0.15,0,0.28,0.13,0.28,0.28v0.56c0,0.15-0.13,0.28-0.28,0.28h-0.56
			c-0.15,0-0.28-0.13-0.28-0.28v-0.56C186.35,64.87,186.48,64.75,186.63,64.75z M187.19,74.55h-0.56c-0.15,0-0.28-0.13-0.28-0.28
			v-6.86c0-0.15,0.13-0.28,0.28-0.28h0.56c0.15,0,0.28,0.13,0.28,0.28v6.86C187.47,74.42,187.35,74.55,187.19,74.55z"/>
		<path class="st0" d="M188.94,72.66v-3.64c0-0.07,0.03-0.14,0.08-0.19l1.55-1.61c0.05-0.05,0.13-0.09,0.2-0.09h7.4
			c0.08,0,0.15,0.03,0.2,0.09l1.55,1.61c0.05,0.05,0.08,0.12,0.08,0.19v3.64c0,0.07-0.03,0.14-0.08,0.19l-1.55,1.61
			c-0.05,0.05-0.13,0.09-0.2,0.09h-7.4c-0.08,0-0.15-0.03-0.2-0.09l-1.55-1.61C188.97,72.8,188.94,72.73,188.94,72.66z
			 M197.94,73.41l0.86-0.92c0.05-0.05,0.08-0.12,0.08-0.19v-2.91c0-0.07-0.03-0.14-0.08-0.19l-0.86-0.92
			c-0.05-0.06-0.13-0.09-0.2-0.09h-6.53c-0.08,0-0.15,0.03-0.2,0.09l-0.86,0.92c-0.05,0.05-0.08,0.12-0.08,0.19v2.91
			c0,0.07,0.03,0.14,0.08,0.19l0.86,0.92c0.05,0.06,0.13,0.09,0.2,0.09h6.53C197.81,73.5,197.89,73.46,197.94,73.41z"/>
	</g>
</g>
</svg>
