<?xml version="1.0" encoding="utf-8"?>
<!-- Generator: Adobe Illustrator 24.0.2, SVG Export Plug-In . SVG Version: 6.00 Build 0)  -->
<svg version="1.1" id="Layer_1" xmlns="http://www.w3.org/2000/svg" xmlns:xlink="http://www.w3.org/1999/xlink" x="0px" y="0px"
	 viewBox="0 0 200 24.16" style="enable-background:new 0 0 200 24.16;" xml:space="preserve">
<style type="text/css">
	.st0{fill:#FAF7E8;}
</style>
<g>
	<g>
		<g>
			<path class="st0" d="M104.72,4.98v9.41h-4.35V3.2c0-2.3-0.95-2.66-2.13-2.66h-1.19v13.85H92.7V3.2c0-2.3-0.95-2.66-2.13-2.66
				h-1.18v13.85h-4.35V0h13.53C102.48,0,104.72,0.68,104.72,4.98z"/>
			<path class="st0" d="M120.64,4.96V9.4c0,4.3-2.3,4.99-6.32,4.99h-1.4c-4.01,0-6.32-0.68-6.32-4.99V4.96c0-4.3,2.3-4.99,6.32-4.99
				h1.4C118.34-0.03,120.64,0.65,120.64,4.96z M116.18,3.17c0-2.3-0.9-2.61-2.18-2.66h-0.73c-1.23,0.04-2.18,0.36-2.18,2.66v8
				c0,2.3,0.96,2.61,2.18,2.66H114c1.28-0.05,2.18-0.36,2.18-2.66V3.17z"/>
			<path class="st0" d="M133.58,10.06h2.93v4.33h-2.17c-0.81,0-2.21-0.86-2.9-2.62c-0.85-2.17-0.85-3.76-2.96-3.76h-1.71v6.38h-4.12
				v-14.4h8.84c6.77,0,6.45,8.02,2.02,8.02h-3.5c0.48,0.3,0.86,0.78,1.24,1.17C131.71,9.65,132.38,10.06,133.58,10.06z M133.27,7.52
				c2.21,0,2.29-3.18-0.24-3.18h-6.27v3.18H133.27z"/>
			<path class="st0" d="M149.97,14.38h-7.74v-4.35h9.88l-1.75-5.68h-9.18l-3.09,10.04h-0.56L141.97,0h7.62L153,11.06l0,0
				C153.45,12.34,153.69,14.38,149.97,14.38z"/>
			<path class="st0" d="M168.39,8.94v5.44h-13.7V-0.01h4.35v11.19c0,2.11,0.42,2.66,2.13,2.66h2.86V8.95h4.36V8.94z"/>
			<path class="st0" d="M170.35,4.34v3.55c0,0.64,0.15,1.17,0.55,1.54c0.41,0.37,1.07,0.59,2.11,0.59h10.83v4.35H169.8V3.6
				c0-2.17,0.91-3.61,2.78-3.61h11.25v4.35H170.35z M175.24,3.82V0.44h-2.58c-2.28,0-2.32,2.29-2.32,3.38H175.24z"/>
			<path class="st0" d="M200,8.76c-0.07,3.58,0.51,5.62-4.98,5.62h-9.2v-4.35h12.31c1.81,0,1.75-2.59,0-2.59h-10.86
				c-0.64,0-1.86-0.48-1.86-1.86c0.07-3.58-0.51-5.62,4.98-5.62h8.8v4.35h-11.91c-1.56,0-1.68,2.59,0,2.59h10.86
				C199.1,6.9,200,7.38,200,8.76z"/>
		</g>
		<g>
			<path class="st0" d="M0.54,6.5v1.29c0,1.25,0.78,2.26,2.42,2.26h11.07v4.35H3.2c-2.47,0-3.2-1.32-3.2-3.61V3.62
				c0-2.29,0.73-3.61,3.2-3.61h10.83v4.35H3.2C1.14,4.37,0.54,5.23,0.54,6.5z"/>
			<path class="st0" d="M16.42,7.44v0.43c0,0.64,0.15,1.17,0.55,1.54C17.38,9.78,18.04,10,19.08,10H29.9v4.35H15.87V6.69
				c0-2.17,0.91-3.61,2.78-3.61H29.9v4.35H16.42V7.44z M21.31,6.93V3.55h-2.58c-2.28,0-2.32,2.29-2.32,3.38H21.31z"/>
			<path class="st0" d="M46.07,8.74c-0.07,3.58,0.51,5.62-4.98,5.62h-9.2v-4.35H44.2c1.81,0,1.75-2.59,0-2.59H33.34
				c-0.64,0-1.86-0.48-1.86-1.86c0.07-3.58-0.51-5.62,4.98-5.62h8.8v4.35H33.35c-1.56,0-1.68,2.59,0,2.59H44.2
				C45.17,6.88,46.07,7.36,46.07,8.74z"/>
			<path class="st0" d="M59.28,14.36h-7.74v-4.35h9.88l-1.75-5.68h-9.18L47.4,14.36h-0.56l4.44-14.39h7.62l3.41,11.07l0,0
				C62.76,12.32,63,14.36,59.28,14.36z"/>
			<path class="st0" d="M74.93,10.04h2.93v4.33h-2.17c-0.81,0-2.21-0.86-2.9-2.62c-0.85-2.17-0.85-3.76-2.96-3.76h-1.71v6.38H64
				v-14.4h8.84c6.77,0,6.45,8.02,2.02,8.02h-3.5c0.48,0.3,0.86,0.78,1.24,1.17C73.06,9.63,73.73,10.05,74.93,10.04z M74.63,7.5
				c2.21,0,2.29-3.18-0.24-3.18h-6.27V7.5H74.63z"/>
			<path class="st0" d="M29.9,2.37v-2.39h-6.19l0,0c-1.28,0-2.32,1.04-2.32,2.32v0.07H29.9z"/>
		</g>
	</g>
	<g>
		<path class="st0" d="M42.68,18.54H43c0.09,0,0.16,0.07,0.16,0.16v4.71c0,0.09,0.07,0.16,0.16,0.16h5.95
			c0.09,0,0.16,0.07,0.16,0.16v0.28c0,0.09-0.07,0.16-0.16,0.16h-6.6c-0.09,0-0.16-0.07-0.16-0.16V18.7
			C42.52,18.61,42.59,18.54,42.68,18.54z"/>
		<path class="st0" d="M50.08,23.09V21c0-0.04,0.02-0.08,0.04-0.11l0.89-0.93c0.03-0.03,0.07-0.05,0.12-0.05h4.26
			c0.04,0,0.09,0.02,0.12,0.05l0.89,0.93c0.03,0.03,0.04,0.07,0.04,0.11v2.09c0,0.04-0.02,0.08-0.04,0.11l-0.89,0.93
			c-0.03,0.03-0.07,0.05-0.12,0.05h-4.26c-0.04,0-0.09-0.02-0.12-0.05l-0.89-0.93C50.1,23.17,50.08,23.13,50.08,23.09z M55.25,23.52
			l0.5-0.53c0.03-0.03,0.04-0.07,0.04-0.11V21.2c0-0.04-0.02-0.08-0.04-0.11l-0.5-0.53c-0.03-0.03-0.07-0.05-0.12-0.05h-3.75
			c-0.04,0-0.09,0.02-0.12,0.05l-0.5,0.53c-0.03,0.03-0.04,0.07-0.04,0.11v1.68c0,0.04,0.02,0.08,0.04,0.11l0.5,0.53
			c0.03,0.03,0.07,0.05,0.12,0.05h3.75C55.18,23.57,55.22,23.55,55.25,23.52z"/>
		<path class="st0" d="M57.24,23.09V21c0-0.04,0.02-0.08,0.04-0.11l0.89-0.93c0.03-0.03,0.07-0.05,0.12-0.05h5.18
			c0.09,0,0.16,0.07,0.16,0.16v0.28c0,0.09-0.07,0.16-0.16,0.16h-4.93c-0.04,0-0.09,0.02-0.12,0.05l-0.5,0.53
			c-0.03,0.03-0.04,0.07-0.04,0.11v1.68c0,0.04,0.02,0.08,0.04,0.11l0.5,0.53c0.03,0.03,0.07,0.05,0.12,0.05h4.93
			c0.09,0,0.16,0.07,0.16,0.16v0.28c0,0.09-0.07,0.16-0.16,0.16h-5.18c-0.04,0-0.09-0.02-0.12-0.05l-0.89-0.93
			C57.26,23.17,57.24,23.13,57.24,23.09z"/>
		<path class="st0" d="M64.6,19.91h0.32c0.09,0,0.16,0.07,0.16,0.16v3.34c0,0.09,0.07,0.16,0.16,0.16h3.85
			c0.04,0,0.09-0.02,0.12-0.05l0.49-0.51c0.03-0.03,0.05-0.07,0.05-0.11v-2.83c0-0.09,0.07-0.16,0.16-0.16h0.32
			c0.09,0,0.16,0.07,0.16,0.16v3.94c0,0.09-0.07,0.16-0.16,0.16h-0.32c-0.09,0-0.16-0.07-0.16-0.16v-0.19l-0.29,0.3
			c-0.03,0.03-0.07,0.05-0.12,0.05H64.6c-0.09,0-0.16-0.07-0.16-0.16v-3.94C64.44,19.98,64.51,19.91,64.6,19.91z"/>
		<path class="st0" d="M71.64,23.09v-2.41c0-0.09-0.07-0.16-0.16-0.16H71.2c-0.09,0-0.16-0.07-0.16-0.16v-0.28
			c0-0.09,0.07-0.16,0.16-0.16h0.28c0.09,0,0.16-0.07,0.16-0.16V19.4c0-0.09,0.07-0.16,0.16-0.16h0.32c0.09,0,0.16,0.07,0.16,0.16
			v0.36c0,0.09,0.07,0.16,0.16,0.16h4.35c0.09,0,0.16,0.07,0.16,0.16v0.28c0,0.09-0.07,0.16-0.16,0.16h-4.35
			c-0.09,0-0.16,0.07-0.16,0.16v2.21c0,0.04,0.02,0.08,0.04,0.11l0.5,0.53c0.03,0.03,0.07,0.05,0.12,0.05h3.85
			c0.09,0,0.16,0.07,0.16,0.16v0.28c0,0.09-0.07,0.16-0.16,0.16h-4.1c-0.04,0-0.09-0.02-0.12-0.05l-0.89-0.93
			C71.65,23.17,71.64,23.13,71.64,23.09z"/>
		<path class="st0" d="M77.75,23.09V21c0-0.04,0.02-0.08,0.04-0.11l0.89-0.93c0.03-0.03,0.07-0.05,0.12-0.05h4.26
			c0.04,0,0.09,0.02,0.12,0.05l0.89,0.93c0.03,0.03,0.04,0.07,0.04,0.11v2.09c0,0.04-0.02,0.08-0.04,0.11l-0.89,0.93
			c-0.03,0.03-0.07,0.05-0.12,0.05H78.8c-0.04,0-0.09-0.02-0.12-0.05l-0.89-0.93C77.77,23.17,77.75,23.13,77.75,23.09z M82.93,23.52
			l0.5-0.53c0.03-0.03,0.04-0.07,0.04-0.11V21.2c0-0.04-0.02-0.08-0.04-0.11l-0.5-0.53c-0.03-0.03-0.07-0.05-0.12-0.05h-3.75
			c-0.04,0-0.09,0.02-0.12,0.05l-0.5,0.53c-0.03,0.03-0.04,0.07-0.04,0.11v1.68c0,0.04,0.02,0.08,0.04,0.11l0.5,0.53
			c0.03,0.03,0.07,0.05,0.12,0.05h3.75C82.85,23.57,82.89,23.55,82.93,23.52z"/>
		<path class="st0" d="M85.07,19.91h0.32c0.09,0,0.16,0.07,0.16,0.16v0.19l0.29-0.3c0.03-0.03,0.07-0.05,0.12-0.05h4.74
			c0.09,0,0.16,0.07,0.16,0.16v0.28c0,0.09-0.07,0.16-0.16,0.16h-4.49c-0.04,0-0.09,0.02-0.12,0.05l-0.49,0.51
			c-0.03,0.03-0.05,0.07-0.05,0.11v2.83c0,0.09-0.07,0.16-0.16,0.16h-0.32c-0.09,0-0.16-0.07-0.16-0.16v-3.94
			C84.91,19.98,84.99,19.91,85.07,19.91z"/>
		<path class="st0" d="M96.5,18.54h6.6c0.09,0,0.16,0.07,0.16,0.16v2.12c0,0.04-0.01,0.07-0.04,0.1l-0.87,1.09
			c-0.03,0.04-0.08,0.06-0.13,0.06h-5.08c-0.09,0-0.16,0.07-0.16,0.16V24c0,0.09-0.07,0.16-0.16,0.16H96.5
			c-0.09,0-0.16-0.07-0.16-0.16v-5.31C96.34,18.61,96.41,18.54,96.5,18.54z M102.01,21.42l0.57-0.72c0.02-0.03,0.03-0.06,0.03-0.1
			v-1.3c0-0.09-0.07-0.16-0.16-0.16h-5.31c-0.09,0-0.16,0.07-0.16,0.16v2.01c0,0.09,0.07,0.16,0.16,0.16h4.74
			C101.93,21.48,101.98,21.46,102.01,21.42z"/>
		<path class="st0" d="M104.22,19.91h0.32c0.09,0,0.16,0.07,0.16,0.16v3.34c0,0.09,0.07,0.16,0.16,0.16h3.85
			c0.04,0,0.09-0.02,0.12-0.05l0.49-0.51c0.03-0.03,0.05-0.07,0.05-0.11v-2.83c0-0.09,0.07-0.16,0.16-0.16h0.32
			c0.09,0,0.16,0.07,0.16,0.16v3.94c0,0.09-0.07,0.16-0.16,0.16h-0.32c-0.09,0-0.16-0.07-0.16-0.16v-0.19l-0.29,0.3
			c-0.03,0.03-0.07,0.05-0.12,0.05h-4.74c-0.09,0-0.16-0.07-0.16-0.16v-3.94C104.06,19.98,104.14,19.91,104.22,19.91z"/>
		<path class="st0" d="M110.98,18.54h0.32c0.09,0,0.16,0.07,0.16,0.16v1.16c0,0.14,0.18,0.22,0.28,0.11l0.01-0.01
			c0.03-0.03,0.07-0.05,0.12-0.05h5.06c0.09,0,0.16,0.07,0.16,0.16v3.94c0,0.09-0.07,0.16-0.16,0.16h-5.95
			c-0.09,0-0.16-0.07-0.16-0.16V18.7C110.82,18.61,110.89,18.54,110.98,18.54z M116.46,23.41v-2.74c0-0.09-0.07-0.16-0.16-0.16
			h-4.17c-0.04,0-0.09,0.02-0.12,0.05l-0.49,0.51c-0.03,0.03-0.05,0.07-0.05,0.11v2.23c0,0.09,0.07,0.16,0.16,0.16h4.67
			C116.38,23.57,116.46,23.5,116.46,23.41z"/>
		<path class="st0" d="M118.1,18.54h0.32c0.09,0,0.16,0.07,0.16,0.16v4.87v0.44c0,0.09-0.07,0.16-0.16,0.16h-0.32
			c-0.09,0-0.16-0.07-0.16-0.16V18.7C117.94,18.61,118.01,18.54,118.1,18.54z"/>
		<path class="st0" d="M119.63,18.54h0.32c0.09,0,0.16,0.07,0.16,0.16v0.32c0,0.09-0.07,0.16-0.16,0.16h-0.32
			c-0.09,0-0.16-0.07-0.16-0.16V18.7C119.46,18.61,119.54,18.54,119.63,18.54z M119.95,24.17h-0.32c-0.09,0-0.16-0.07-0.16-0.16
			v-3.94c0-0.09,0.07-0.16,0.16-0.16h0.32c0.09,0,0.16,0.07,0.16,0.16v3.94C120.11,24.1,120.04,24.17,119.95,24.17z"/>
		<path class="st0" d="M120.95,23.09V21c0-0.04,0.02-0.08,0.04-0.11l0.89-0.93c0.03-0.03,0.07-0.05,0.12-0.05h5.18
			c0.09,0,0.16,0.07,0.16,0.16v0.28c0,0.09-0.07,0.16-0.16,0.16h-4.93c-0.04,0-0.09,0.02-0.12,0.05l-0.5,0.53
			c-0.03,0.03-0.04,0.07-0.04,0.11v1.68c0,0.04,0.02,0.08,0.04,0.11l0.5,0.53c0.03,0.03,0.07,0.05,0.12,0.05h4.93
			c0.09,0,0.16,0.07,0.16,0.16v0.28c0,0.09-0.07,0.16-0.16,0.16H122c-0.04,0-0.09-0.02-0.12-0.05l-0.89-0.93
			C120.97,23.17,120.95,23.13,120.95,23.09z"/>
		<path class="st0" d="M128.35,18.54h0.32c0.09,0,0.16,0.07,0.16,0.16v0.32c0,0.09-0.07,0.16-0.16,0.16h-0.32
			c-0.09,0-0.16-0.07-0.16-0.16V18.7C128.19,18.61,128.26,18.54,128.35,18.54z M128.67,24.17h-0.32c-0.09,0-0.16-0.07-0.16-0.16
			v-3.94c0-0.09,0.07-0.16,0.16-0.16h0.32c0.09,0,0.16,0.07,0.16,0.16v3.94C128.83,24.1,128.76,24.17,128.67,24.17z"/>
		<path class="st0" d="M130.12,23.09v-2.41c0-0.09-0.07-0.16-0.16-0.16h-0.28c-0.09,0-0.16-0.07-0.16-0.16v-0.28
			c0-0.09,0.07-0.16,0.16-0.16h0.28c0.09,0,0.16-0.07,0.16-0.16V19.4c0-0.09,0.07-0.16,0.16-0.16h0.32c0.09,0,0.16,0.07,0.16,0.16
			v0.36c0,0.09,0.07,0.16,0.16,0.16h4.35c0.09,0,0.16,0.07,0.16,0.16v0.28c0,0.09-0.07,0.16-0.16,0.16h-4.35
			c-0.09,0-0.16,0.07-0.16,0.16v2.21c0,0.04,0.02,0.08,0.04,0.11l0.5,0.53c0.03,0.03,0.07,0.05,0.12,0.05h3.85
			c0.09,0,0.16,0.07,0.16,0.16v0.28c0,0.09-0.07,0.16-0.16,0.16h-4.1c-0.04,0-0.09-0.02-0.12-0.05l-0.89-0.93
			C130.13,23.17,130.12,23.13,130.12,23.09z"/>
		<path class="st0" d="M136.4,21.37l4.99-0.01c0.09,0,0.16-0.07,0.16-0.16v-0.52c0-0.09-0.07-0.16-0.16-0.16l-5,0.01
			c-0.09,0-0.16-0.07-0.16-0.16v-0.28c0-0.09,0.07-0.16,0.16-0.16l5.64-0.01c0.09,0,0.16,0.07,0.16,0.16v3.94
			c0,0.09-0.07,0.16-0.16,0.16h-0.32c-0.09,0-0.16-0.07-0.16-0.16l0,0c0-0.14-0.17-0.22-0.28-0.11l-0.22,0.23
			c-0.03,0.03-0.07,0.05-0.11,0.05l-4.54,0.01c-0.09,0-0.16-0.07-0.16-0.16v-2.49C136.24,21.44,136.31,21.37,136.4,21.37z
			 M140.8,23.52l0.7-0.74c0.03-0.03,0.04-0.07,0.04-0.11v-0.55c0-0.09-0.07-0.16-0.16-0.16l-4.35,0.01c-0.09,0-0.16,0.07-0.16,0.16
			v1.29c0,0.09,0.07,0.16,0.16,0.16l3.64-0.01C140.73,23.57,140.77,23.55,140.8,23.52z"/>
		<path class="st0" d="M143.16,19.91h0.32c0.09,0,0.16,0.07,0.16,0.16v0.19l0.29-0.3c0.03-0.03,0.07-0.05,0.12-0.05h4.74
			c0.09,0,0.16,0.07,0.16,0.16v0.28c0,0.09-0.07,0.16-0.16,0.16h-4.49c-0.04,0-0.09,0.02-0.12,0.05l-0.49,0.51
			c-0.03,0.03-0.05,0.07-0.05,0.11v2.83c0,0.09-0.07,0.16-0.16,0.16h-0.32c-0.09,0-0.16-0.07-0.16-0.16v-3.94
			C143,19.98,143.07,19.91,143.16,19.91z"/>
		<path class="st0" d="M149.8,18.54h0.32c0.09,0,0.16,0.07,0.16,0.16v0.32c0,0.09-0.07,0.16-0.16,0.16h-0.32
			c-0.09,0-0.16-0.07-0.16-0.16V18.7C149.64,18.61,149.71,18.54,149.8,18.54z M150.12,24.17h-0.32c-0.09,0-0.16-0.07-0.16-0.16
			v-3.94c0-0.09,0.07-0.16,0.16-0.16h0.32c0.09,0,0.16,0.07,0.16,0.16v3.94C150.28,24.1,150.21,24.17,150.12,24.17z"/>
		<path class="st0" d="M151.13,23.09V21c0-0.04,0.02-0.08,0.04-0.11l0.89-0.93c0.03-0.03,0.07-0.05,0.12-0.05h4.26
			c0.04,0,0.09,0.02,0.12,0.05l0.89,0.93c0.03,0.03,0.04,0.07,0.04,0.11v2.09c0,0.04-0.02,0.08-0.04,0.11l-0.89,0.93
			c-0.03,0.03-0.07,0.05-0.12,0.05h-4.26c-0.04,0-0.09-0.02-0.12-0.05l-0.89-0.93C151.14,23.17,151.13,23.13,151.13,23.09z
			 M156.3,23.52l0.5-0.53c0.03-0.03,0.04-0.07,0.04-0.11V21.2c0-0.04-0.02-0.08-0.04-0.11l-0.5-0.53c-0.03-0.03-0.07-0.05-0.12-0.05
			h-3.75c-0.04,0-0.09,0.02-0.12,0.05l-0.5,0.53c-0.03,0.03-0.04,0.07-0.04,0.11v1.68c0,0.04,0.02,0.08,0.04,0.11l0.5,0.53
			c0.03,0.03,0.07,0.05,0.12,0.05h3.75C156.23,23.57,156.27,23.55,156.3,23.52z"/>
	</g>
</g>
</svg>
