<?xml version="1.0" encoding="utf-8"?>
<!-- Generator: Adobe Illustrator 24.0.2, SVG Export Plug-In . SVG Version: 6.00 Build 0)  -->
<svg version="1.1" id="Layer_1" xmlns="http://www.w3.org/2000/svg" xmlns:xlink="http://www.w3.org/1999/xlink" x="0px" y="0px"
	 viewBox="0 0 138.73 200" style="enable-background:new 0 0 138.73 200;" xml:space="preserve">
<style type="text/css">
	.st0{fill:none;stroke:#FAF7E8;stroke-width:2.8141;stroke-miterlimit:10;}
</style>
<g>
	<path class="st0" d="M42.91,58.91c26.34,0,41.2,14.86,41.2,41.09c0,24.65-13.73,41.09-41.2,41.09c-26.34,0-41.2-14.86-41.2-41.09
		C1.71,73.77,16.57,58.91,42.91,58.91z M42.91,126.45c14.97,0,20.04-12.38,20.04-26.45s-5.07-26.45-20.04-26.45
		S22.87,85.93,22.87,100S27.94,126.45,42.91,126.45z"/>
	<path class="st0" d="M116.64,89.19H93V75.24c17.33-0.34,23.75-1.69,28.25-14.3h15.87v78.12h-20.49V89.19H116.64z"/>
</g>
</svg>
