<?xml version="1.0" encoding="utf-8"?>
<!-- Generator: Adobe Illustrator 24.0.2, SVG Export Plug-In . SVG Version: 6.00 Build 0)  -->
<svg version="1.1" id="Layer_1" xmlns="http://www.w3.org/2000/svg" xmlns:xlink="http://www.w3.org/1999/xlink" x="0px" y="0px"
	 viewBox="0 0 176.05 200" style="enable-background:new 0 0 176.05 200;" xml:space="preserve">
<style type="text/css">
	.st0{fill:none;stroke:#FAF7E8;stroke-width:2.8141;stroke-miterlimit:10;}
</style>
<g>
	<path class="st0" d="M42.87,58.91c26.34,0,41.2,14.86,41.2,41.09c0,24.65-13.73,41.09-41.2,41.09c-26.34,0-41.2-14.86-41.2-41.09
		C1.67,73.77,16.53,58.91,42.87,58.91z M42.87,126.45c14.97,0,20.04-12.38,20.04-26.45s-5.07-26.45-20.04-26.45
		S22.84,85.93,22.84,100S27.9,126.45,42.87,126.45z"/>
	<path class="st0" d="M173.9,123.75v15.31H93.53c2.03-46.83,58.31-35.23,58.31-54.48c0-6.53-5.52-11.03-14.97-11.03
		c-8.78,0-17.56,3.6-18.8,14.75H95.56c1.01-22.4,19.14-29.38,40.52-29.38c28.37,0,38.27,13.4,38.27,26
		c0,15.53-12.16,20.49-33.66,27.13l-9.12,2.81c-4.84,1.69-10.81,4.28-14.3,8.89H173.9z"/>
</g>
</svg>
