<?xml version="1.0" encoding="utf-8"?>
<!-- Generator: Adobe Illustrator 24.0.2, SVG Export Plug-In . SVG Version: 6.00 Build 0)  -->
<svg version="1.1" id="Layer_1" xmlns="http://www.w3.org/2000/svg" xmlns:xlink="http://www.w3.org/1999/xlink" x="0px" y="0px"
	 viewBox="0 0 177.1 200" style="enable-background:new 0 0 177.1 200;" xml:space="preserve">
<style type="text/css">
	.st0{fill:none;stroke:#FAF7E8;stroke-width:2.8141;stroke-miterlimit:10;}
</style>
<g>
	<path class="st0" d="M42.85,58.91c26.34,0,41.2,14.86,41.2,41.09c0,24.65-13.73,41.09-41.2,41.09c-26.34,0-41.2-14.86-41.2-41.09
		C1.65,73.77,16.51,58.91,42.85,58.91z M42.85,126.45c14.97,0,20.04-12.38,20.04-26.45s-5.07-26.45-20.04-26.45
		S22.81,85.93,22.81,100S27.88,126.45,42.85,126.45z"/>
	<path class="st0" d="M123.22,91.45h16.55c7.09,0,10.02-4.62,10.02-8.56c0-6.87-6.75-10.02-15.98-10.02
		c-7.88,0-14.52,3.38-16.1,10.69H95.87c2.25-19.92,21.61-24.65,40.3-24.65c25.78,0,36.13,9.79,36.13,22.63
		c0,8.1-4.84,13.51-12.72,15.08v0.23c9.68,1.91,15.87,9.12,15.87,18.46c0,12.72-8.56,25.78-42.1,25.78
		c-23.64,0-39.06-7.2-39.85-27.58h21.84c0.11,10.13,10.69,12.94,19.14,12.94c11.37,0,17.78-4.05,17.78-11.03
		c0-7.54-7.65-10.02-14.41-10.02h-14.63L123.22,91.45L123.22,91.45z"/>
</g>
</svg>
