<?xml version="1.0" encoding="utf-8"?>
<!-- Generator: Adobe Illustrator 24.0.2, SVG Export Plug-In . SVG Version: 6.00 Build 0)  -->
<svg version="1.1" id="Layer_1" xmlns="http://www.w3.org/2000/svg" xmlns:xlink="http://www.w3.org/1999/xlink" x="0px" y="0px"
	 viewBox="0 0 200 34.9" style="enable-background:new 0 0 200 34.9;" xml:space="preserve">
<style type="text/css">
	.st0{fill:#3460F1;}
	.st1{fill:#F1BBBA;}
</style>
<g>
	<path class="st0" d="M182.55,34.9H17.45C7.85,34.9,0,27.05,0,17.45l0,0C0,7.85,7.85,0,17.45,0h165.11c9.6,0,17.45,7.85,17.45,17.45
		l0,0C200,27.05,192.15,34.9,182.55,34.9z"/>
	<g>
		<path class="st1" d="M182.53,4.43c7.18,0,13.02,5.84,13.02,13.02c0,7.18-5.84,13.02-13.02,13.02H17.47
			c-7.18,0-13.02-5.84-13.02-13.02c0-7.18,5.84-13.02,13.02-13.02L182.53,4.43 M182.53,3.36H17.47C9.72,3.36,3.38,9.7,3.38,17.45
			l0,0c0,7.75,6.34,14.09,14.09,14.09h165.06c7.75,0,14.09-6.34,14.09-14.09l0,0C196.62,9.7,190.28,3.36,182.53,3.36L182.53,3.36z"
			/>
	</g>
	<g>
		<path class="st1" d="M29.97,19.5l-0.02-4.11l2.46-3.57H46.3v3.88l-11-0.03l-0.27,0.4l0.02,2.77l0.27,0.4l10.98-0.03v3.88H32.41
			L29.97,19.5z"/>
		<path class="st1" d="M48.87,11.81h5.07v7.41H66.5v3.86H48.87V11.81z"/>
		<path class="st1" d="M69.16,11.81h4.83v11.26h-4.83V11.81z"/>
		<path class="st1" d="M76.97,11.81h16.1v3.54H82.04v0.64h10.55v2.9H82.04v0.64h11.03v3.54h-16.1V11.81z"/>
		<path class="st1" d="M95.97,11.81h5.07l5.76,5.33h0.43v-5.33h5.07v11.27h-5.07l-5.64-5.33h-0.56v5.33h-5.07L95.97,11.81
			L95.97,11.81z"/>
		<path class="st1" d="M114.73,11.81h16.59v3.87h-5.75v7.41h-5.07v-7.41h-5.77C114.73,15.68,114.73,11.81,114.73,11.81z"/>
		<path class="st1" d="M133.74,11.81h16.1v3.54h-11.03v0.64h10.55v2.9h-10.55v0.64h11.03v3.54h-16.1V11.81z"/>
		<path class="st1" d="M152.74,19.56l11.3-0.03l0.26-0.37V18.9h-11.55l-0.02-3.51l2.46-3.57h14.2v3.56l-11.32-0.03l-0.27,0.4v0.26
			h11.56v3.51l-2.46,3.57h-14.17v-3.53H152.74z"/>
	</g>
</g>
</svg>
