<?xml version="1.0" encoding="utf-8"?>
<!-- Generator: Adobe Illustrator 24.0.2, SVG Export Plug-In . SVG Version: 6.00 Build 0)  -->
<svg version="1.1" id="Layer_1" xmlns="http://www.w3.org/2000/svg" xmlns:xlink="http://www.w3.org/1999/xlink" x="0px" y="0px"
	 viewBox="0 0 147.82 200" style="enable-background:new 0 0 147.82 200;" xml:space="preserve">
<style type="text/css">
	.st0{fill:#0D0D0D;}
	.st1{fill:#FAF7E8;}
</style>
<g>
	<g>
		<polygon class="st0" points="60.87,8.7 60.87,0 52.17,0 43.48,0 43.48,8.7 52.17,8.7 		"/>
		<polygon class="st0" points="60.87,26.09 60.87,34.78 60.87,43.48 60.87,52.17 60.87,60.87 60.87,69.57 60.87,78.26 60.87,86.96 
			60.87,95.65 69.56,95.65 69.56,86.96 69.56,78.26 69.56,69.57 69.56,60.87 69.56,52.17 78.26,52.17 86.95,52.17 86.95,43.48 
			78.26,43.48 69.56,43.48 69.56,34.78 69.56,26.09 69.56,17.39 69.56,8.7 60.87,8.7 60.87,17.39 		"/>
		<polygon class="st0" points="34.78,104.35 34.78,113.04 43.48,113.04 43.48,104.35 43.48,95.65 43.48,86.96 43.48,78.26 
			43.48,69.57 43.48,60.87 43.48,52.17 43.48,43.48 43.48,34.78 43.48,26.09 43.48,17.39 43.48,8.7 34.78,8.7 34.78,17.39 
			34.78,26.09 34.78,34.78 34.78,43.48 34.78,52.17 34.78,60.87 34.78,69.57 34.78,78.26 34.78,86.96 34.78,95.65 26.08,95.65 
			26.08,104.35 		"/>
		<polygon class="st0" points="8.69,95.65 17.39,95.65 26.08,95.65 26.08,86.96 17.39,86.96 8.69,86.96 0,86.96 0,95.65 0,104.35 
			0,113.04 8.69,113.04 8.69,104.35 		"/>
		<rect x="8.69" y="113.04" class="st0" width="8.7" height="8.7"/>
		<polygon class="st0" points="26.08,121.74 17.39,121.74 17.39,130.43 17.39,139.13 26.08,139.13 26.08,130.43 		"/>
		<polygon class="st0" points="34.78,139.13 26.08,139.13 26.08,147.83 26.08,156.52 34.78,156.52 34.78,147.83 		"/>
		<polygon class="st0" points="43.48,156.52 34.78,156.52 34.78,165.22 34.78,173.91 43.48,173.91 43.48,165.22 		"/>
		<polygon class="st0" points="121.74,182.61 121.74,191.3 113.04,191.3 104.34,191.3 95.65,191.3 86.95,191.3 78.26,191.3 
			69.56,191.3 60.87,191.3 52.17,191.3 52.17,182.61 52.17,173.91 43.48,173.91 43.48,182.61 43.48,191.3 43.48,200 52.17,200 
			60.87,200 69.56,200 78.26,200 86.95,200 95.65,200 104.34,200 113.04,200 121.74,200 130.43,200 130.43,191.3 130.43,182.61 
			130.43,173.91 121.74,173.91 		"/>
		<polygon class="st0" points="130.43,156.52 130.43,165.22 130.43,173.91 139.13,173.91 139.13,165.22 139.13,156.52 
			139.13,147.83 130.43,147.83 		"/>
		<polygon class="st0" points="139.13,78.26 139.13,86.96 139.13,95.65 139.13,104.35 139.13,113.04 139.13,121.74 139.13,130.43 
			139.13,139.13 139.13,147.83 147.82,147.83 147.82,139.13 147.82,130.43 147.82,121.74 147.82,113.04 147.82,104.35 147.82,95.65 
			147.82,86.96 147.82,78.26 		"/>
		<rect x="130.43" y="69.57" class="st0" width="8.7" height="8.7"/>
		<polygon class="st0" points="86.95,69.57 86.95,78.26 86.95,86.96 86.95,95.65 95.65,95.65 95.65,86.96 95.65,78.26 95.65,69.57 
			95.65,60.87 104.34,60.87 113.04,60.87 113.04,52.17 104.34,52.17 95.65,52.17 86.95,52.17 86.95,60.87 		"/>
		<polygon class="st0" points="113.04,78.26 113.04,86.96 113.04,95.65 113.04,104.35 121.74,104.35 121.74,95.65 121.74,86.96 
			121.74,78.26 121.74,69.57 130.43,69.57 130.43,60.87 121.74,60.87 113.04,60.87 113.04,69.57 		"/>
	</g>
	<polygon class="st1" points="139.13,130.43 139.13,121.74 139.13,113.04 139.13,104.35 139.13,95.65 139.13,86.96 139.13,78.26 
		130.43,78.26 130.43,69.57 121.74,69.57 121.74,78.26 121.74,86.96 121.74,95.65 121.74,104.35 113.04,104.35 113.04,95.65 
		113.04,86.96 113.04,78.26 113.04,69.57 113.04,60.87 104.34,60.87 95.65,60.87 95.65,69.57 95.65,78.26 95.65,86.96 95.65,95.65 
		86.95,95.65 86.95,86.96 86.95,78.26 86.95,69.57 86.95,60.87 86.95,52.17 78.26,52.17 69.56,52.17 69.56,60.87 69.56,69.57 
		69.56,78.26 69.56,86.96 69.56,95.65 60.87,95.65 60.87,86.96 60.87,78.26 60.87,69.57 60.87,60.87 60.87,52.17 60.87,43.48 
		60.87,34.78 60.87,26.09 60.87,17.39 60.87,8.7 52.17,8.7 43.48,8.7 43.48,17.39 43.48,26.09 43.48,34.78 43.48,43.48 43.48,52.17 
		43.48,60.87 43.48,69.57 43.48,78.26 43.48,86.96 43.48,95.65 43.48,104.35 43.48,113.04 34.78,113.04 34.78,104.35 26.08,104.35 
		26.08,95.65 17.39,95.65 8.69,95.65 8.69,104.35 8.69,113.04 17.39,113.04 17.39,121.74 26.08,121.74 26.08,130.43 26.08,139.13 
		34.78,139.13 34.78,147.83 34.78,156.52 43.48,156.52 43.48,165.22 43.48,173.91 52.17,173.91 52.17,182.61 52.17,191.3 
		60.87,191.3 69.56,191.3 78.26,191.3 86.95,191.3 95.65,191.3 104.34,191.3 113.04,191.3 121.74,191.3 121.74,182.61 
		121.74,173.91 130.43,173.91 130.43,165.22 130.43,156.52 130.43,147.83 139.13,147.83 139.13,139.13 	"/>
</g>
</svg>
