<?xml version="1.0" encoding="utf-8"?>
<!-- Generator: Adobe Illustrator 24.0.2, SVG Export Plug-In . SVG Version: 6.00 Build 0)  -->
<svg version="1.1" id="Layer_1" xmlns="http://www.w3.org/2000/svg" xmlns:xlink="http://www.w3.org/1999/xlink" x="0px" y="0px"
	 viewBox="0 0 95.66 173.92" style="enable-background:new 0 0 95.66 173.92;" xml:space="preserve">
<style type="text/css">
	.st0{fill:#0D0D0D;}
	.st1{fill:#FAF7E8;}
</style>
<g>
	<g>
		<rect x="17.4" y="60.87" class="st0" width="8.7" height="8.7"/>
		<rect x="26.09" y="69.57" class="st0" width="8.7" height="8.7"/>
		<rect x="43.48" y="60.87" class="st0" width="8.7" height="8.7"/>
		<rect x="52.18" y="52.18" class="st0" width="8.7" height="8.7"/>
		<rect x="34.79" y="52.18" class="st0" width="8.7" height="8.7"/>
		<polygon class="st0" points="43.48,86.96 43.48,78.26 34.79,78.26 34.79,86.96 34.79,95.66 43.48,95.66 		"/>
		<rect x="26.09" y="95.66" class="st0" width="8.7" height="8.7"/>
		<rect x="17.4" y="104.35" class="st0" width="8.7" height="8.7"/>
		<polygon class="st0" points="52.18,121.74 43.48,121.74 43.48,130.44 34.79,130.44 34.79,139.13 26.09,139.13 26.09,147.83 
			34.79,147.83 43.48,147.83 52.18,147.83 60.87,147.83 69.57,147.83 69.57,139.13 60.87,139.13 60.87,130.44 52.18,130.44 		"/>
		<rect x="69.57" y="104.35" class="st0" width="8.7" height="8.7"/>
		<rect x="60.87" y="95.66" class="st0" width="8.7" height="8.7"/>
		<polygon class="st0" points="52.18,86.96 52.18,95.66 60.87,95.66 60.87,86.96 60.87,78.26 52.18,78.26 		"/>
		<rect x="60.87" y="69.57" class="st0" width="8.7" height="8.7"/>
		<rect x="69.57" y="60.87" class="st0" width="8.7" height="8.7"/>
		<polygon class="st0" points="78.26,130.44 78.26,139.13 78.26,147.83 78.26,156.53 69.57,156.53 60.87,156.53 52.18,156.53 
			43.48,156.53 34.79,156.53 26.09,156.53 17.4,156.53 17.4,147.83 17.4,139.13 17.4,130.44 17.4,121.74 17.4,113.05 8.7,113.05 
			8.7,121.74 8.7,130.44 8.7,139.13 8.7,147.83 8.7,156.53 0,156.53 0,165.22 0,173.92 8.7,173.92 17.4,173.92 26.09,173.92 
			34.79,173.92 43.48,173.92 52.18,173.92 60.87,173.92 69.57,173.92 78.26,173.92 86.96,173.92 95.66,173.92 95.66,165.22 
			95.66,156.53 86.96,156.53 86.96,147.83 86.96,139.13 86.96,130.44 86.96,121.74 86.96,113.05 78.26,113.05 78.26,121.74 		"/>
		<polygon class="st0" points="86.96,0 78.26,0 69.57,0 60.87,0 52.18,0 43.48,0 34.79,0 26.09,0 17.4,0 8.7,0 0,0 0,8.7 0,17.39 
			8.7,17.39 8.7,26.09 8.7,34.79 8.7,43.48 8.7,52.18 8.7,60.87 17.4,60.87 17.4,52.18 17.4,43.48 17.4,34.79 17.4,26.09 
			17.4,17.39 26.09,17.39 34.79,17.39 43.48,17.39 52.18,17.39 60.87,17.39 69.57,17.39 78.26,17.39 78.26,26.09 78.26,34.79 
			78.26,43.48 78.26,52.18 78.26,60.87 86.96,60.87 86.96,52.18 86.96,43.48 86.96,34.79 86.96,26.09 86.96,17.39 95.66,17.39 
			95.66,8.7 95.66,0 		"/>
	</g>
	<path class="st1" d="M78.26,43.48v-8.7v-8.7v-8.7h-8.7h-8.7h-8.7h-8.7h-8.7h-8.7h-8.7v8.7v8.7v8.7v8.7v8.7h8.7v8.7h8.7v8.7h8.7v8.7
		v8.7h-8.7v8.7h-8.7v8.7h-8.7v8.7v8.7v8.7v8.7v8.7h8.7h8.7h8.7h8.7h8.7h8.7h8.7v-8.7v-8.7v-8.7v-8.7v-8.7h-8.7v-8.7h-8.7v-8.7h-8.7
		v-8.72v-8.7h8.7v-8.7h8.7v-8.7h8.7v-8.7V43.48z M60.87,130.44v8.7h8.7v8.7h-8.7h-8.7h-8.7h-8.7h-8.7v-8.7h8.7v-8.7h8.7v-8.7h8.7
		v8.7H60.87z M60.87,60.87h-8.7v8.7h-8.7v-8.7h-8.7v-8.7h8.7v8.7h8.7v-8.7h8.7V60.87z"/>
</g>
</svg>
